<?xml version="1.0" encoding="UTF-8"?>
<svg width="156px" height="27px" viewBox="0 0 156 27" version="1.1" xmlns="http://www.w3.org/2000/svg" xmlns:xlink="http://www.w3.org/1999/xlink">
    <!-- Generator: Sketch 50 (54983) - http://www.bohemiancoding.com/sketch -->
    <title>Logo / brooklinen white</title>
    <desc>Created with Sketch.</desc>
    <defs>
        <polygon id="path-1" points="0.0467494552 0.115942283 18.0782613 0.115942283 18.0782613 16.7743656 0.0467494552 16.7743656"></polygon>
        <polygon id="path-3" points="0.0293063047 0.15483156 6.19920013 0.15483156 6.19920013 27.1160112 0.0293063047 27.1160112"></polygon>
    </defs>
    <g id="Page-1" stroke="none" stroke-width="1" fill="none" fill-rule="evenodd">
        <g id="1440" transform="translate(-371.000000, -2237.000000)">
            <g id="All" transform="translate(-560.000000, -1.000000)">
                <g id="Main-image-" transform="translate(80.000000, 75.000000)">
                    <g id="Customers-Videos-" transform="translate(0.000000, 1780.000000)">
                        <g id="Videos-" transform="translate(0.000000, 98.000000)">
                            <g id="Greats-Video" transform="translate(800.000000, 0.000000)">
                                <g id="Text" transform="translate(51.000000, 285.000000)">
                                    <g id="Logo-/-brooklinen-white">
                                        <g>
                                            <g id="Page-1">
                                                <path d="M9.04524767,14.0336853 C10.0459618,13.693191 11.0357485,13.4862904 11.8570242,14.2991747 C12.3130968,14.7506199 12.7415635,15.3319794 12.9230148,15.9308872 C13.7146717,18.539929 13.702019,21.1837844 12.4163314,23.6150784 C11.9711862,24.4565496 10.9359647,25.2029201 10.0022524,25.5363385 C8.76832592,25.9767452 8.13310252,25.3350987 8.11584883,24.0331251 C8.09744489,22.6221821 8.11153541,21.2106729 8.11153541,19.7994468 C8.11182297,18.5291735 8.12562592,17.2589002 8.10693442,15.98891 C8.0951444,15.1768747 8.01002619,14.3860673 9.04524767,14.0336853 M1.88410309,4.69598775 C1.836943,9.50140225 1.8130754,14.3068167 1.8018605,19.1122313 C1.78776998,25.2651884 3.68653871,27.1207837 9.9507789,27.1173872 C16.3826675,27.1137077 19.7937222,23.4998821 19.3272974,17.1838952 C18.9226984,11.7076813 14.094828,9.28685965 9.32159429,12.1659194 C8.9785334,12.373103 8.63087152,12.5729276 8.1100976,12.8788914 C8.1100976,10.0233238 8.13281496,7.39390334 8.10348368,4.76448287 C8.07731559,2.3991366 7.12865013,1.40312685 4.73153728,1.31113959 C3.15742551,1.25056951 1.57727495,1.34567019 0,1.37114358 L0,2.22025676 C1.5387417,2.37479536 1.89704336,3.36089879 1.88410309,4.69598775" id="Fill-1" fill="#FFFFFF"></path>
                                                <g id="Group-5" transform="translate(138.169568, 10.330435)">
                                                    <mask id="mask-2" fill="white">
                                                        <use xlink:href="#path-1"></use>
                                                    </mask>
                                                    <g id="Clip-4"></g>
                                                    <path d="M16.0369885,13.6904528 C15.9599336,11.0489052 15.8799151,8.40286115 15.9522281,5.76311218 C16.0150575,3.46210002 15.1736774,1.76511854 13.134983,0.778884823 C11.0633921,-0.22323655 9.02884677,-0.124613178 7.14070574,1.31726651 C6.78654964,1.58795619 6.42290986,1.84545612 5.95880237,2.18569176 C5.82988362,1.36462971 5.74245596,0.807362696 5.63576458,0.13078838 C4.06621587,0.788177602 2.68100615,1.43897195 1.24571075,1.94527856 C0.270077369,2.28971094 0.0347636073,2.8784535 0.0472109347,3.85689327 C0.0958147847,7.69780896 0.0641037362,11.5399237 0.0718092246,15.3814389 C0.0726983195,15.8107054 0.137305876,16.2399719 0.170202384,16.6473554 L6.35711684,16.6473554 C6.35711684,13.1214949 6.34407679,9.73232818 6.36719325,6.34346126 C6.37252782,5.60183749 6.31503302,4.75859267 6.63510716,4.14916618 C6.94866126,3.55143061 7.73669563,2.79601755 8.26007612,2.83768518 C8.79708939,2.87995234 9.34951363,3.75077573 9.73093531,4.36349965 C9.93453802,4.69084531 9.79969197,5.23851978 9.80354472,5.68697134 C9.82517936,8.23079484 9.74723538,10.7800142 9.88860145,13.316943 C10.0201875,15.680007 11.0630957,16.6446574 13.3462912,16.7435806 C14.9205817,16.8113279 16.5005032,16.746878 18.0783502,16.741782 L18.0783502,15.5427136 C16.6092692,15.8155017 16.0740341,14.9560694 16.0369885,13.6904528" id="Fill-3" fill="#FFFFFF" mask="url(#mask-2)"></path>
                                                </g>
                                                <path d="M79.7895651,15.5354362 C79.6484894,17.2233053 78.1558169,18.4435457 75.8255072,18.6164317 C75.8255072,17.4544706 75.8110014,16.3965199 75.8297736,15.339127 C75.8496835,14.2075603 76.7587119,13.5305165 78.1541104,13.5776419 C79.2696327,13.6152864 79.8882613,14.3559076 79.7895651,15.5354362 M82.307881,19.3687646 C82.8960759,18.9808865 83.4077599,18.6629994 83.8981119,18.3163909 C85.5173543,17.1725549 86.0779598,15.6653795 85.5432372,13.8037879 C85.061418,12.1262362 83.7203451,11.3621917 82.1235724,11.3755764 C80.5535358,11.3884034 78.9812238,11.7930124 77.4217111,12.0855243 C76.9410296,12.1758712 76.4987457,12.4625273 75.8135613,12.7555969 L75.8135613,1.29130438 C74.0634825,2.15071502 72.5426518,2.97387537 70.9552652,3.64729415 C70.0266113,4.04130688 69.7245499,4.56665719 69.7305229,5.54569377 C69.7723336,12.234987 69.7510016,18.9245591 69.757259,25.6141313 C69.7575434,26.0544328 69.8198329,26.4944555 69.8613593,27.0396041 C71.5258256,27.0396041 73.0369858,26.9935941 74.5435951,27.0557773 C75.5197483,27.0964891 75.8892188,26.7939387 75.8454171,25.7981712 C75.7711817,24.1147636 75.8249384,22.4255003 75.8249384,20.7390254 C77.0647553,22.0515646 78.1279431,23.3663346 78.8310464,24.8456252 C79.7042371,26.682957 80.9739188,27.2980965 82.9717334,27.0730659 C84.4723698,26.9043626 86.0085596,27.0398829 87.8086976,27.0398829 C86.7022769,25.4992457 85.8319305,24.2901592 84.9635751,23.0793997 C84.0952198,21.8680824 83.228571,20.6550921 82.307881,19.3687646" id="Fill-6" fill="#FFFFFF"></path>
                                                <path d="M122.323742,26.1131099 C120.71754,25.8369219 120.779381,24.5813952 120.759137,23.4278713 C120.720313,21.1991371 120.711716,18.9687308 120.756363,16.7402753 C120.796574,14.7258586 120.004565,13.2013899 118.221991,12.3042666 C116.359274,11.3664536 114.48269,11.3617158 112.707049,12.5968977 C112.301894,12.8789383 111.918646,13.193029 111.421145,13.5717773 C111.322144,12.8767087 111.243386,12.3232179 111.143831,11.6217394 C109.633024,12.2501995 108.293321,12.8572 106.916457,13.361919 C106.13776,13.647304 105.875421,14.0851358 105.887345,14.9109129 C105.931715,17.9757359 105.905093,21.041395 105.904816,24.1067754 L105.904816,27.0080037 L111.790804,27.0080037 C111.790804,23.6430248 111.775552,20.3990001 111.802729,17.1555327 C111.808552,16.4691038 111.806888,15.6973938 112.108883,15.1246729 C112.359575,14.6486597 113.070885,14.1141202 113.542874,14.1456129 C114.013753,14.1768269 114.600272,14.8022213 114.841812,15.3086125 C115.080857,15.8105445 114.96383,16.4888912 114.982965,17.0903178 C115.06394,19.6378805 115.077806,22.189345 115.238926,24.7313338 C115.321842,26.0398128 116.213129,26.8834264 117.489328,27.0099546 C119.001244,27.1598932 120.534235,27.1105639 122.057798,27.1061048 C122.274103,27.1052687 122.623241,26.9034926 122.668166,26.7309796 C122.713368,26.5581879 122.482088,26.1404222 122.323742,26.1131099" id="Fill-8" fill="#FFFFFF"></path>
                                                <path d="M43.4115752,23.7850141 C43.265122,24.8692053 42.6736876,25.7526858 41.4168527,25.7818212 C40.1437452,25.8118395 39.4162129,24.9071696 39.3863305,23.8541739 C39.2872157,20.3570392 39.3055593,16.8507812 39.4419531,13.3548237 C39.4798239,12.3824654 40.1789531,11.5022222 41.3917042,11.5086968 C42.63345,11.5154656 43.1201481,12.4480937 43.2701517,13.4275151 C43.5503359,15.2559842 43.6535929,17.11094 43.8139518,18.7851973 C43.6781497,20.5801165 43.6266691,22.1934543 43.4115752,23.7850141 M41.5283938,10.3306247 C36.4368513,10.2997235 32.2823135,14.0481881 32.2826094,18.6724815 C32.2829053,23.1955366 36.4711716,27.1020389 41.3369691,27.1173423 C46.2631231,27.1332344 50.3519788,23.3259103 50.3608547,18.7151546 C50.3700266,14.1141107 46.4154936,10.3600544 41.5283938,10.3306247" id="Fill-10" fill="#FFFFFF"></path>
                                                <path d="M61.4398275,23.7969791 C61.4172973,24.8461763 60.7360546,25.7670565 59.4547966,25.7879522 C58.1676097,25.8088479 57.5764879,24.9156323 57.4137367,23.8496597 C57.1501924,22.1197352 57.0645183,20.3630289 56.9177754,18.7723106 C57.0769692,16.9432052 57.1433741,15.2800879 57.3917994,13.6437523 C57.5578115,12.5495265 58.0519941,11.5094527 59.4257445,11.5109243 C60.7490984,11.5126901 61.2747047,12.5515866 61.3182829,13.5742963 C61.4629506,16.9782275 61.5127542,20.3909878 61.4398275,23.7969791 M59.4796985,10.3304671 C54.3979484,10.3437108 50.3709683,14.0048645 50.3608889,18.6207435 C50.3508096,23.2610498 54.5091172,27.1355746 59.4796985,27.1173277 C64.4123341,27.0993751 68.4639196,23.2569295 68.4390177,18.6207435 C68.4147088,14.0519533 64.3794281,10.317812 59.4796985,10.3304671" id="Fill-12" fill="#FFFFFF"></path>
                                                <g id="Group-16" transform="translate(87.808698, 0.000000)">
                                                    <mask id="mask-4" fill="white">
                                                        <use xlink:href="#path-3"></use>
                                                    </mask>
                                                    <g id="Clip-15"></g>
                                                    <path d="M0.0470152184,3.98704389 C0.0232434788,11.3650156 0.0194282613,18.7429873 0.0605152187,26.120959 C0.0625695666,26.4507414 0.512765229,27.0499483 0.776308712,27.0624865 C2.56183049,27.1464629 4.35380879,27.1065158 6.19920013,27.1065158 L6.19920013,0.154744085 C4.182124,1.14642419 2.30591744,2.03867386 0.470504358,3.00702718 C0.21958044,3.1394067 0.0481891315,3.65055496 0.0470152184,3.98704389" id="Fill-14" fill="#FFFFFF" mask="url(#mask-4)"></path>
                                                </g>
                                                <path d="M128.687703,12.7331517 C128.953925,12.1663739 129.834658,11.5715232 130.407148,11.6046197 C130.981895,11.6377162 131.747283,12.3226959 132.010685,12.9237522 C132.341207,13.6769934 132.299187,14.6350193 132.300315,15.5049848 C132.300597,15.7561637 131.908596,16.2094678 131.675934,16.224834 C130.525312,16.2998922 129.367923,16.258817 127.844478,16.258817 C128.152438,14.8613758 128.232813,13.7006338 128.687703,12.7331517 M128.166539,17.4213321 C130.616121,17.4213321 133.006198,17.3524795 135.390635,17.4497006 C136.612606,17.4993453 136.831731,16.9668461 136.711593,15.8767296 C136.434654,13.3643496 135.124695,11.7139564 132.917363,10.8345347 C128.82871,9.20512241 124.49696,11.6521959 123.089988,16.3521965 C121.919343,20.2631998 123.261735,23.9809431 126.577949,26.0134237 C129.643734,27.8919464 133.622119,27.3378752 136.011068,24.619824 C136.436064,24.1363785 136.595967,23.397026 136.878264,22.7758753 C132.038323,25.2430432 127.935005,21.5699211 128.166539,17.4213321" id="Fill-17" fill="#FFFFFF"></path>
                                                <path d="M32.7796764,11.0333925 C31.7240093,10.0621463 30.0060785,10.0896176 28.7376253,11.1639555 C28.2990675,11.5355576 27.9794456,12.0477659 27.6005033,12.5017822 C27.0120213,11.8826423 26.6292424,11.1060588 26.1493669,11.0401865 C24.0368522,10.7504078 21.8971858,10.6555872 19.7648976,10.5309321 C19.6365177,10.5232519 19.4255023,10.8534993 19.3726747,11.0576146 C19.3425718,11.1737034 19.5379455,11.467913 19.6616034,11.486818 C21.7466714,11.8034774 21.4052101,13.4136549 21.4140639,14.7969719 C21.4364935,18.43501 21.46335,22.0742296 21.3966515,25.7116769 C21.3759926,26.8362312 21.7363419,27.1859744 22.8265388,27.105628 C23.999076,27.0190784 25.1884353,27.0158291 26.3603822,27.1065142 C27.4916017,27.19395 27.7890891,26.7576572 27.7642985,25.6750484 C27.6890412,22.382618 27.6701532,19.0875291 27.7282931,15.7956896 C27.7400981,15.1254469 28.1851487,14.4631798 28.4303987,13.7973681 C28.9766777,14.0469736 29.5601426,14.2375009 30.0612672,14.5574096 C31.2072429,15.2887982 32.2708785,15.1963408 33.0624074,14.2188913 C33.8400655,13.2576883 33.7193588,11.8980026 32.7796764,11.0333925" id="Fill-19" fill="#FFFFFF"></path>
                                                <path d="M96.8488578,15.2443649 C96.9251891,18.73834 96.8751158,22.2345525 96.8806116,25.7296464 C96.8815276,26.1768461 96.9245785,26.6240458 96.9505311,27.1173919 L103.30435,27.1173919 L103.30435,11.6217394 C101.515449,12.2496089 99.9399709,12.8841907 98.3061753,13.3478912 C97.1911274,13.6644829 96.8256531,14.1748891 96.8488578,15.2443649" id="Fill-21" fill="#FFFFFF"></path>
                                                <path d="M100.13064,3.87395236 C98.2992546,3.86545577 96.8804762,5.23793784 96.8484758,7.04884381 C96.8139267,8.99824415 98.1650228,10.349768 100.128657,10.3302258 C102.036504,10.3109669 103.300944,9.02996475 103.304342,7.112285 C103.308024,5.20650047 102.01045,3.88273217 100.13064,3.87395236" id="Fill-23" fill="#FFFFFF"></path>
                                            </g>
                                        </g>
                                    </g>
                                </g>
                            </g>
                        </g>
                    </g>
                </g>
            </g>
        </g>
    </g>
</svg>