<?xml version="1.0" encoding="UTF-8"?>
<svg width="135px" height="27px" viewBox="0 0 135 27" version="1.1" xmlns="http://www.w3.org/2000/svg" xmlns:xlink="http://www.w3.org/1999/xlink">
    <!-- Generator: Sketch 50 (54983) - http://www.bohemiancoding.com/sketch -->
    <title>Logo / Greats</title>
    <desc>Created with Sketch.</desc>
    <defs></defs>
    <g id="Page-1" stroke="none" stroke-width="1" fill="none" fill-rule="evenodd">
        <g id="1440" transform="translate(-371.000000, -2237.000000)" fill="#FFFFFF">
            <g id="All" transform="translate(-560.000000, -1.000000)">
                <g id="Main-image-" transform="translate(80.000000, 75.000000)">
                    <g id="Customers-Videos-" transform="translate(0.000000, 1780.000000)">
                        <g id="Videos-" transform="translate(0.000000, 98.000000)">
                            <g id="Greats-Video" transform="translate(800.000000, 0.000000)">
                                <g id="Text" transform="translate(51.000000, 285.000000)">
                                    <g id="Logo-/-Greats">
                                        <g>
                                            <g id="logo-01">
                                                <path d="M134.887687,0 L68.3086522,0 L66.5790349,0 L0,0 L7.99667221,13.5 L0,27 L66.5790349,27 L68.3086522,27 L134.887687,27 L126.891015,13.5 L134.887687,0 Z M29.0440932,22.0422414 C24.6863561,22.0422414 21.1372712,18.2017241 21.1372712,13.4534483 C21.1372712,8.70517241 24.6638935,4.86465517 29.0440932,4.86465517 C31.7620632,4.86465517 34.1655574,6.35431034 35.6031614,8.65862069 L32.9301165,10.6137931 C32.0990017,9.2637931 30.6613977,8.37931034 29.0440932,8.37931034 C26.4608985,8.37931034 24.3718802,10.6603448 24.3718802,13.4534483 C24.3718802,16.2698276 26.4608985,18.5275862 29.0440932,18.5275862 C30.6613977,18.5275862 32.0990017,17.6198276 32.952579,16.2465517 L36.5241265,16.2465517 C35.4459235,19.6448276 32.5033278,22.0422414 29.0440932,22.0422414 Z M28.797005,15.7344828 L28.797005,12.2896552 L35.108985,12.2896552 L36.6139767,15.7112069 L28.797005,15.7112069 L28.797005,15.7344828 Z M49.327787,21.6931034 L44.1613977,13.0112069 L44.1613977,21.6931034 L40.859401,21.6931034 L40.859401,5.23706897 L43.015807,5.23706897 L48.0923461,5.23706897 C51.843594,5.35344828 52.9891847,7.86724138 52.8544093,11.0560345 C52.6971714,14.5706897 50.1364393,15.4784483 50.1364393,15.4784483 L48.5191348,13.0112069 C48.3394343,13.0112069 49.5748752,13.0810345 49.7995008,10.7301724 C50.0016639,8.47241379 48.3843594,8.49568966 48.3843594,8.49568966 L44.1838602,8.49568966 L44.1838602,12.9181034 L44.1838602,13.0112069 L47.7778702,13.0112069 L53.2138103,21.6931034 L49.327787,21.6931034 Z M68.3086522,15.7344828 L61.9966722,15.7344828 L61.9966722,12.2896552 L68.3086522,12.2896552 L68.3086522,15.7344828 Z M68.3086522,8.68189655 L61.4575707,8.68189655 L61.4575707,18.2715517 L68.3086522,18.2715517 L68.3086522,21.6931034 L61.4575707,21.6931034 L58.155574,21.6931034 L58.155574,18.2715517 L58.155574,8.68189655 L58.155574,5.23706897 L61.4575707,5.23706897 L68.3086522,5.23706897 L68.3086522,8.68189655 Z M84.7287854,21.6931034 L83.6056572,19.1560345 L76.4400998,19.1560345 L77.9450915,15.7344828 L82.078203,15.7344828 L79.6297837,9.65948276 L74.530782,21.6931034 L70.8918469,21.6931034 L77.8552413,5.23706897 L81.0898502,5.23706897 L88.390183,21.6931034 L84.7287854,21.6931034 Z M95.7803661,21.6931034 L92.4783694,21.6931034 L92.4783694,9.21724138 L95.7803661,9.21724138 L95.7803661,21.6931034 Z M100.744592,8.68189655 L87.5141431,8.68189655 L87.5141431,5.23706897 L100.744592,5.23706897 L100.744592,8.68189655 Z M110.381032,8.91465517 C110.044093,8.54224138 109.549917,8.35603448 109.078203,8.26293103 C108.381864,8.12327586 107.528286,8.12327586 106.921797,8.54224138 C106.24792,9.03103448 106.180532,9.9387931 106.629784,10.6137931 C107.348586,11.7310345 108.673877,11.8474138 109.819468,12.1267241 C111.369384,12.5224138 113.009151,13.4534483 113.413478,15.1758621 C113.817804,16.8517241 113.480865,18.737069 112.312812,19.9706897 C111.212146,21.1344828 109.684692,21.6931034 108.134775,21.6931034 C104.181364,21.6931034 102.676373,17.6663793 102.676373,17.6663793 C102.676373,17.6663793 105.731281,16.2 105.731281,16.2 C105.618968,16.2465517 106.000832,16.9913793 106.045757,17.0844828 C106.202995,17.3405172 106.405158,17.55 106.629784,17.7362069 C107.618136,18.5508621 109.954243,18.9465517 110.313644,17.2241379 C110.785358,15.0594828 108.1797,15.0827586 106.607321,14.4543103 C102.811148,12.9181034 103.080699,10.287931 103.170549,9.21724138 C103.395175,5.74913793 106.652246,5.05086207 108.651414,5.05086207 C113.34609,5.07413793 113.705491,9.21724138 113.705491,9.21724138 C113.705491,9.21724138 110.852745,10.3344828 110.852745,10.3344828 C111.212146,10.2181034 110.515807,9.05431034 110.381032,8.91465517 Z" id="Shape" fill-rule="nonzero"></path>
                                            </g>
                                        </g>
                                    </g>
                                </g>
                            </g>
                        </g>
                    </g>
                </g>
            </g>
        </g>
    </g>
</svg>