<?xml version="1.0" encoding="UTF-8"?>
<svg width="164px" height="23px" viewBox="0 0 164 23" version="1.1" xmlns="http://www.w3.org/2000/svg" xmlns:xlink="http://www.w3.org/1999/xlink">
    <!-- Generator: Sketch 50 (54983) - http://www.bohemiancoding.com/sketch -->
    <title>Logo / UNTUCKit white</title>
    <desc>Created with Sketch.</desc>
    <defs></defs>
    <g id="Page-1" stroke="none" stroke-width="1" fill="none" fill-rule="evenodd">
        <g id="1440" transform="translate(-371.000000, -2241.000000)" fill="#FFFFFF">
            <g id="All" transform="translate(-560.000000, -1.000000)">
                <g id="Main-image-" transform="translate(80.000000, 75.000000)">
                    <g id="Customers-Videos-" transform="translate(0.000000, 1780.000000)">
                        <g id="Videos-" transform="translate(0.000000, 98.000000)">
                            <g id="Greats-Video" transform="translate(800.000000, 0.000000)">
                                <g id="Text" transform="translate(51.000000, 285.000000)">
                                    <g id="Logo-/-UNTUCKit-white">
                                        <g transform="translate(0.000000, 4.000000)">
                                            <g id="Page-1">
                                                <path d="M18.9411765,0 L14.9439762,0 L14.9439762,13.8943547 C14.9439762,15.3266534 14.4014432,16.5755309 13.3302734,17.6048043 C12.2599722,18.6337992 10.9609617,19.1559509 9.47058824,19.1559509 C7.97934622,19.1559509 6.68033575,18.6337992 5.61090302,17.6048043 C4.54031227,16.5763659 3.99720025,15.3274884 3.99720025,13.8943547 L3.99720025,0 L0,0 L0,13.8943547 C0,16.4029648 0.931917694,18.5695044 2.7696976,20.3360804 C4.60776701,22.1037696 6.8618556,23 9.47058824,23 C12.0793209,23 14.3334095,22.1037696 16.1714789,20.3360804 C18.0092588,18.5695044 18.9411765,16.4029648 18.9411765,13.8943547 L18.9411765,0 Z" id="Fill-1"></path>
                                                <polygon id="Fill-3" points="40.5882353 23 40.5882353 0 36.589877 0 36.589877 15.3169117 24.4879747 0 21.6470588 0 21.6470588 23 25.6442591 23 25.6442591 7.63076178 37.7754014 23"></polygon>
                                                <polygon id="Fill-5" points="55.4705882 0 41.9411765 0 41.9411765 3.8429358 46.7689608 3.8429358 46.7689608 23 50.643365 23 50.643365 3.8429358 55.4705882 3.8429358"></polygon>
                                                <path d="M77.1176471,0 L73.1201573,0 L73.1201573,13.8943547 C73.1201573,15.3274884 72.5779138,16.5763659 71.5064545,17.6048043 C70.4361533,18.6337992 69.1371428,19.1559509 67.6473483,19.1559509 C66.1558168,19.1559509 64.8568063,18.6337992 63.7873736,17.6048043 C62.7167829,16.5763659 62.1736708,15.3274884 62.1736708,13.8943547 L62.1736708,0 L58.1764706,0 L58.1764706,13.8943547 C58.1764706,16.4029648 59.1078093,18.5695044 60.9464577,20.3360804 C62.7845271,22.1037696 65.0391947,23 67.6473483,23 C70.2557915,23 72.5104591,22.1037696 74.3479495,20.3360804 C76.1854399,18.5695044 77.1176471,16.4029648 77.1176471,13.8943547 L77.1176471,0 Z" id="Fill-7"></path>
                                                <path d="M87.9465357,0 C85.3367466,0 83.0806652,0.895952078 81.2420226,2.66308465 C79.4028006,4.43021722 78.4705882,6.59759182 78.4705882,9.10564531 L78.4705882,13.8943547 C78.4705882,16.4029648 79.4028006,18.5695044 81.2420226,20.3360804 C83.0806652,22.1037696 85.3367466,23 87.9465357,23 C90.5566144,23 92.8126958,22.1037696 94.6522075,20.3360804 C96.3738166,18.6822291 97.3016837,16.675174 97.4117647,14.3672415 L93.4036571,14.3672415 C93.2958936,15.6027591 92.7605522,16.6907606 91.8092205,17.6048043 C90.7370894,18.6337992 89.4384231,19.1559509 87.9465357,19.1559509 C86.4549379,19.1559509 85.1551129,18.6337992 84.0850096,17.6048043 C83.0137475,16.5763659 82.4702949,15.3274884 82.4702949,13.8943547 L82.4702949,9.10564531 C82.4702949,7.67334664 83.0137475,6.42446905 84.0850096,5.39463908 C85.155982,4.36508743 86.455807,3.8429358 87.9465357,3.8429358 C89.4372643,3.8429358 90.7362203,4.36453077 91.8092205,5.39463908 C92.7605522,6.31007442 93.2958936,7.39696255 93.4036571,8.63275852 L97.4117647,8.63275852 C97.3016837,6.32454771 96.3738166,4.31832759 94.6522075,2.66308465 C92.8126958,0.895952078 90.5566144,0 87.9465357,0" id="Fill-9"></path>
                                                <polygon id="Fill-11" points="100.117647 23 104.176471 23 104.176471 0 100.117647 0"></polygon>
                                                <polygon id="Fill-13" points="117.705882 23 117.705882 20.2957222 109.343372 11.5006958 117.705882 2.70455618 117.705882 0 115.108805 0 104.176471 11.5006958 115.108805 23"></polygon>
                                                <path d="M121.764706,23 L124.470588,23 L124.470588,5.31404629 L121.764706,5.31404629 L121.764706,23 Z M121.764706,3.24872427 L124.470588,3.24872427 L124.470588,0 L121.764706,0 L121.764706,3.24872427 Z" id="Fill-14"></path>
                                                <path d="M127.176471,5.3088479 L130.321044,5.3088479 L130.321044,0 L133.098583,0 L133.098583,5.3088479 L138,5.3088479 L138,7.56864832 L133.098583,7.56864832 L133.098583,18.4425643 C133.098583,19.8218688 133.99733,20.7023647 135.46725,20.7023647 L138,20.7023647 L138,23 L134.732883,23 C132.200727,23 130.321044,21.2378954 130.321044,18.8256426 L130.321044,7.56864832 L127.176471,7.56864832 L127.176471,5.3088479 Z" id="Fill-15"></path>
                                                <polygon id="Fill-16" points="163.705882 23 140.705882 23 140.705882 0"></polygon>
                                            </g>
                                        </g>
                                    </g>
                                </g>
                            </g>
                        </g>
                    </g>
                </g>
            </g>
        </g>
    </g>
</svg>