<svg xmlns="http://www.w3.org/2000/svg" xmlns:xlink="http://www.w3.org/1999/xlink" width="16" height="16" viewBox="0 0 16 16"><defs><path id="384ha" d="M61.07 903.4c.53 0 1.2-.4 2-1.2.53-.93.93-1.87.93-2.8 0-.67-.27-1.2-.67-1.6a2.35 2.35 0 0 0-1.73-.8h-1.33c-.4 0-.8-.13-1.2-.27-.27-.26-.4-.53-.4-.93 0-.27.13-.4.26-.53.14-.14.4-.27.54-.27.13 0 .53.13.66.4.27.13.4.27.54.27.13 0 .4 0 .53-.14.13-.13.13-.4.13-.53 0-.4-.26-.93-.66-1.33.4-.8.66-1.6.66-2.54a.29.29 0 0 0-.26-.26c-.4-.14-.8-.27-1.07-.27-1.47.13-2.53.4-3.47 1.07-.8.66-1.2 1.6-1.2 2.66 0 1.07.4 1.87 1.07 2.54.67.66 1.6 1.06 2.53 1.06v.54c0 .53.14.93.54 1.33.26.4.66.67 1.2.8v2.4c0 .13 0 .13.13.27.13.13.13.13.27.13zm-6.67-12A7.26 7.26 0 0 1 60 889c2.27 0 4.13.8 5.6 2.4A7.26 7.26 0 0 1 68 897c0 2.27-.8 4.13-2.4 5.6A7.26 7.26 0 0 1 60 905c-2.27 0-4.13-.8-5.6-2.4-1.47-1.6-2.4-3.33-2.4-5.6 0-2.27.8-4.13 2.4-5.6z"/></defs><g><g transform="translate(-52 -889)"><g><use fill="#454f63" xlink:href="#384ha"/></g></g></g></svg>