<svg xmlns="http://www.w3.org/2000/svg" xmlns:xlink="http://www.w3.org/1999/xlink" width="17" height="17" viewBox="0 0 17 17"><defs><path id="jcnta" d="M61.4 862.56l1.73-1.6c.14-.14.28-.14.43-.14l.29.15 4.04 1.88c.3.14.3.29.3.58-.15 1.15-.44 2.02-1.16 2.6a4.14 4.14 0 0 1-3.04 1.15 8.8 8.8 0 0 1-4.04-1 18.94 18.94 0 0 1-4.05-2.9c-.72-1.01-1.59-2.02-2.17-3.18-.57-1.15-1.15-2.16-1.44-3.18-.29-.86-.29-1.87-.29-2.74a3.8 3.8 0 0 1 1.01-2.17c.58-.58 1.45-.87 2.75-1.01.29 0 .43.14.57.29l2.17 4.04c0 .15.15.3.15.3 0 .14 0 .28-.15.43l-1.88 1.73c-.14.29-.14.58 0 .72.44.87 1.16 1.6 1.74 2.31.72.73 1.44 1.3 2.3 1.88.3.15.59.15.73-.14z"/></defs><g><g transform="translate(-52 -851)"><use fill="#454f63" xlink:href="#jcnta"/></g></g></svg>