<svg id="Capa_1" data-name="Capa 1" xmlns="http://www.w3.org/2000/svg" viewBox="0 0 28 23.69"><defs><style>.cls-1{fill:#4a81e9;}</style></defs><title>quote-left</title><path class="cls-1" d="M233.23,236.46h-3.77a1.61,1.61,0,0,1-1.62-1.62v-0.54a4.31,4.31,0,0,1,4.31-4.31h1.08a1.09,1.09,0,0,0,1.08-1.08v-2.15a1.09,1.09,0,0,0-1.08-1.08h-1.08a8.4,8.4,0,0,0-3.34.68,8.53,8.53,0,0,0-4.59,4.59,8.39,8.39,0,0,0-.68,3.34v11.85a3.22,3.22,0,0,0,3.23,3.23h6.46a3.22,3.22,0,0,0,3.23-3.23v-6.46A3.22,3.22,0,0,0,233.23,236.46Z" transform="translate(-223.54 -225.69)"/><path class="cls-1" d="M250.6,237.41a3.12,3.12,0,0,0-2.29-.94h-3.77a1.61,1.61,0,0,1-1.62-1.62v-0.54a4.31,4.31,0,0,1,4.31-4.31h1.08a1.09,1.09,0,0,0,1.08-1.08v-2.15a1.09,1.09,0,0,0-1.08-1.08h-1.08a8.4,8.4,0,0,0-3.34.68A8.54,8.54,0,0,0,239.3,231a8.39,8.39,0,0,0-.68,3.34v11.85a3.22,3.22,0,0,0,3.23,3.23h6.46a3.22,3.22,0,0,0,3.23-3.23v-6.46A3.12,3.12,0,0,0,250.6,237.41Z" transform="translate(-223.54 -225.69)"/></svg>