<svg id="Capa_1" data-name="Capa 1" xmlns="http://www.w3.org/2000/svg" viewBox="0 0 23 29.9"><defs><style>.cls-1{fill:#8492a6;}</style></defs><title>apply</title><circle class="cls-1" cx="11.52" cy="3.45" r="0.86"/><path class="cls-1" d="M219.5,199.95a2.3,2.3,0,0,0-2.3-2.3H214a3.44,3.44,0,0,0-1.6-1,1.58,1.58,0,0,1-1.09-1.09,3.45,3.45,0,0,0-6.63,0,1.59,1.59,0,0,1-1.09,1.09,3.44,3.44,0,0,0-1.6,1H198.8a2.3,2.3,0,0,0-2.3,2.3v20.7a2.3,2.3,0,0,0,2.3,2.3h18.4a2.3,2.3,0,0,0,2.3-2.3C219.5,214.12,219.5,207.86,219.5,199.95Zm-17.25,0a2.31,2.31,0,0,1,1.66-2.19,2.73,2.73,0,0,0,1.88-1.88,2.3,2.3,0,0,1,4.42,0,2.73,2.73,0,0,0,1.88,1.88,2.31,2.31,0,0,1,1.66,2.21v1.15h-11.5v-1.17Zm15,21.87H198.8a1.15,1.15,0,0,1-1.15-1.15v-20.7a1.15,1.15,0,0,1,1.15-1.15h2.5a3.44,3.44,0,0,0-.2,1.12v2.33h13.8v-2.3a3.44,3.44,0,0,0-.2-1.15h2.5a1.15,1.15,0,0,1,1.15,1.15c0,3.29,0,18.71,0,20.7A1.15,1.15,0,0,1,217.2,221.8Z" transform="translate(-196.5 -193.05)"/><rect class="cls-1" x="8.05" y="12.65" width="10.35" height="1.15"/><rect class="cls-1" x="8.05" y="16.1" width="10.35" height="1.15"/><rect class="cls-1" x="8.05" y="19.55" width="10.35" height="1.15"/><rect class="cls-1" x="8.05" y="23" width="10.35" height="1.15"/><circle class="cls-1" cx="5.18" cy="13.23" r="0.58"/><circle class="cls-1" cx="5.18" cy="16.68" r="0.58"/><circle class="cls-1" cx="5.18" cy="20.13" r="0.58"/><circle class="cls-1" cx="5.18" cy="23.58" r="0.58"/></svg>