<svg xmlns="http://www.w3.org/2000/svg" width="19" height="30" viewBox="0 0 19 30">
    <path fill="#051146" fill-rule="evenodd" d="M15.517 17.074c-.59 0-1.138.304-1.466.812a1.75 1.75 0 0 0 .004 1.893c.32.505.866.806 1.462.806a1.75 1.75 0 0 0 1.741-1.755 1.75 1.75 0 0 0-1.741-1.756m-2.152-1a3.442 3.442 0 0 1 2.152-.755c1.92 0 3.483 1.575 3.483 3.51 0 1.937-1.562 3.511-3.483 3.511a3.445 3.445 0 0 1-2.157-.753l-6.495 4.057c.066.27.102.554.102.845C6.967 28.425 5.404 30 3.483 30 1.563 30 0 28.425 0 26.49c0-1.937 1.562-3.511 3.483-3.511 1.014 0 1.928.438 2.565 1.136l6.266-3.913a3.505 3.505 0 0 1 0-2.744l-6.25-3.903a3.49 3.49 0 0 1-2.58 1.122C1.561 14.677 0 13.15 0 11.273c0-1.878 1.562-3.405 3.483-3.405.74 0 1.441.225 2.02.63l6.632-4.142a3.534 3.534 0 0 1-.102-.845C12.033 1.575 13.596 0 15.517 0 17.437 0 19 1.575 19 3.51c0 1.937-1.562 3.511-3.483 3.511a3.463 3.463 0 0 1-2.565-1.137L6.634 9.831a3.279 3.279 0 0 1 .245 2.194l6.486 4.05z"/>
</svg>
