<?xml version="1.0" encoding="UTF-8"?>
<svg width="33px" height="31px" viewBox="0 0 33 31" version="1.1" xmlns="http://www.w3.org/2000/svg" xmlns:xlink="http://www.w3.org/1999/xlink">
    <!-- Generator: Sketch 50 (54983) - http://www.bohemiancoding.com/sketch -->
    <title>icon/ search copy</title>
    <desc>Created with Sketch.</desc>
    <defs></defs>
    <g id="Page-1" stroke="none" stroke-width="1" fill="none" fill-rule="evenodd">
        <g id="1440" transform="translate(-1017.000000, -2721.000000)" fill="#1576EC" fill-rule="nonzero">
            <g id="All" transform="translate(-560.000000, -1.000000)">
                <g id="More-Benefits" transform="translate(680.000000, 2558.000000)">
                    <g id="Part-3" transform="translate(894.000000, 159.000000)">
                        <g id="#2">
                            <g id="Group-5">
                                <g id="icon/-Cart">
                                    <path d="M28.0717941,28.4565425 C30.1454253,28.4605044 31.8248799,30.1278906 31.8268738,32.1846385 C31.8268731,33.6928396 30.9107015,35.0524655 29.5057249,35.6292927 C28.1007483,36.2061198 26.4837786,35.8865003 25.4090824,34.8195267 C24.3343862,33.7525532 24.0137027,32.1484433 24.5966209,30.7554651 C25.1795391,29.3624868 26.5512111,28.4550881 28.0717941,28.4565425 Z M34.4655784,10.5782191 C34.8979049,10.578984 35.3073322,10.7710723 35.5821658,11.1020812 C35.8569993,11.43309 35.9685622,11.8684808 35.8864194,12.2894763 L33.5268085,23.9555047 C33.1460526,25.7969169 31.5110426,27.1180202 29.6158712,27.1155784 L14.5339344,27.1155784 C12.5654891,27.1093209 10.8928662,25.6864484 10.5867512,23.7577754 L8.35400111,8.57935567 C8.3318826,8.39781678 8.17589785,8.26166801 7.99154168,8.2629888 L5.04112193,8.2629888 C4.24039867,8.2629888 3.59128421,7.61916028 3.59128421,6.82495756 C3.59128421,6.03075483 4.24039867,5.38692632 5.04112193,5.38692632 L7.98791709,5.38692632 C9.6141074,5.38742307 10.9915709,6.57579675 11.2174306,8.17311184 L11.57989,10.5782191 L34.4655784,10.5782191 Z M15.0957465,28.4601376 C17.1420952,28.4530654 18.8181409,30.0709835 18.8664978,32.1001136 C18.9148546,34.1292438 17.3177518,35.8239 15.2733516,35.9127345 L15.1827368,35.9127345 C13.149338,35.8779608 11.5126244,34.2453561 11.4890809,32.2283513 C11.4655375,30.2113466 13.0637045,28.5415952 15.0957465,28.4601376 Z" id="Combined-Shape"></path>
                                </g>
                            </g>
                        </g>
                    </g>
                </g>
            </g>
        </g>
    </g>
</svg>