<?xml version="1.0" encoding="UTF-8"?>
<svg width="31px" height="31px" viewBox="0 0 31 31" version="1.1" xmlns="http://www.w3.org/2000/svg" xmlns:xlink="http://www.w3.org/1999/xlink">
    <!-- Generator: Sketch 50 (54983) - http://www.bohemiancoding.com/sketch -->
    <title>icon/ search copy 2</title>
    <desc>Created with Sketch.</desc>
    <defs></defs>
    <g id="Page-1" stroke="none" stroke-width="1" fill="none" fill-rule="evenodd">
        <g id="1440" transform="translate(-664.000000, -3048.000000)" fill="#1576EC" fill-rule="nonzero">
            <g id="All" transform="translate(-560.000000, -1.000000)">
                <g id="More-Benefits" transform="translate(680.000000, 2558.000000)">
                    <g id="Part-2" transform="translate(539.000000, 159.000000)">
                        <g id="#3" transform="translate(0.000000, 327.000000)">
                            <g id="Group-10">
                                <g id="icon/-happy-1">
                                    <path d="M20.6497091,5.38692632 C12.2205796,5.38692632 5.38692632,12.2203078 5.38692632,20.6498842 C5.38692632,29.0791105 12.2205796,35.9128421 20.6497091,35.9128421 C29.0791888,35.9128421 35.9128421,29.0791105 35.9128421,20.6498842 C35.9128421,12.2203078 29.0791888,5.38692632 20.6497091,5.38692632 Z M26.0369848,10.7738526 C27.5250051,10.7738526 28.7302737,12.7834754 28.7302737,15.2629579 C28.7302737,17.7420663 27.5250051,19.7520632 26.0369848,19.7520632 C24.5489646,19.7520632 23.3433474,17.7420663 23.3433474,15.2629579 C23.3433474,12.7834754 24.5489646,10.7738526 26.0369848,10.7738526 Z M15.2629579,10.7738526 C16.7510745,10.7738526 17.9564211,12.7834754 17.9564211,15.2629579 C17.9564211,17.7420663 16.7507258,19.7520632 15.2629579,19.7520632 C13.7755386,19.7520632 12.5694947,17.7420663 12.5694947,15.2629579 C12.5694947,12.7834754 13.7755386,10.7738526 15.2629579,10.7738526 Z M28.5811909,25.348457 C26.9333618,28.5420745 23.911503,30.5259158 20.6953674,30.5259158 C17.3950117,30.5259158 14.3338949,28.4634709 12.7065336,25.1437686 C12.4266946,24.5723968 12.5890952,23.8394289 13.0692506,23.5066607 C13.5497416,23.1730944 14.1661257,23.3670097 14.4459647,23.9379826 C15.7139643,26.5247169 18.1087019,28.1318997 20.6953674,28.1318997 C23.216603,28.1318997 25.5808065,26.5857643 26.8655831,24.0963866 C27.1564949,23.5329948 27.7769054,23.3566356 28.2500145,23.702571 C28.7237947,24.0477083 28.8724383,24.7850652 28.5811909,25.348457 Z" id="Shape"></path>
                                </g>
                            </g>
                        </g>
                    </g>
                </g>
            </g>
        </g>
    </g>
</svg>