<?xml version="1.0" encoding="UTF-8"?>
<svg width="35px" height="37px" viewBox="0 0 35 37" version="1.1" xmlns="http://www.w3.org/2000/svg" xmlns:xlink="http://www.w3.org/1999/xlink">
    <!-- Generator: Sketch 50 (54983) - http://www.bohemiancoding.com/sketch -->
    <title>icon/ search</title>
    <desc>Created with Sketch.</desc>
    <defs></defs>
    <g id="Page-1" stroke="none" stroke-width="1" fill="none" fill-rule="evenodd">
        <g id="1440" transform="translate(-663.000000, -2717.000000)" fill="#1576EC" fill-rule="nonzero">
            <g id="All" transform="translate(-560.000000, -1.000000)">
                <g id="More-Benefits" transform="translate(680.000000, 2558.000000)">
                    <g id="Part-2" transform="translate(539.000000, 159.000000)">
                        <g id="#1" transform="translate(0.500000, 0.000000)">
                            <g id="Group-9">
                                <g id="icon/-search">
                                    <path d="M37.1511788,34.4439048 C37.8942527,35.1908896 37.8942527,36.4015975 37.1511788,37.1485823 C36.4085514,37.8951182 35.2037356,37.8951182 34.4611082,37.1485823 L24.4416672,27.0759594 C22.3178333,28.4006902 19.8340729,29.1858323 17.2444781,29.2397014 C9.68914883,29.3977174 3.74589703,22.8764145 3.59406702,15.5178962 C3.43732486,7.921456 9.92493191,1.94827121 17.2449247,1.79564211 C24.8007005,1.95320921 30.7394867,7.92190491 30.8957823,15.5178962 C30.969018,19.0476686 29.6056738,22.2259452 27.3929747,24.6334449 L37.1511788,34.4439048 Z M16.3433585,23.3433474 L17.6711061,23.3433474 C17.9726743,23.3433474 18.2228629,23.1062916 18.2228629,22.8126889 L18.2228629,21.5852971 L18.498653,21.514486 C20.7494677,20.9697333 21.5477053,19.4806632 21.5477053,18.3734974 C21.5477053,16.3218444 19.7086336,15.4693946 17.9064635,14.9034156 C16.2146447,14.3657949 15.6740113,14.0402677 15.6740113,13.559194 C15.6740113,13.127705 16.1925744,12.6960462 17.3548832,12.6960462 C18.6347825,12.6960462 19.4365513,13.0461958 19.7785522,13.1983462 C19.8521787,13.2301008 19.9293363,13.247931 20.006494,13.247931 C20.2197811,13.247931 20.4147058,13.127705 20.5066947,12.9436302 L21.0326734,11.871785 C21.0951764,11.747993 21.102592,11.5994086 21.0510359,11.4684846 C21.0031875,11.3339945 20.9002518,11.2278628 20.7678301,11.1677498 C20.1352078,10.8812791 19.4474982,10.6972043 18.6713308,10.6089028 L18.3476924,10.5700161 L18.3476924,9.50530296 C18.3476924,9.21526627 18.1012116,8.97821053 17.7959356,8.97821053 L16.4902582,8.97821053 C16.18869,8.97821053 15.9385014,9.21526627 15.9385014,9.50530296 L15.9385014,10.6902421 L15.6627113,10.7574871 C13.8457099,11.1996742 12.7607354,12.3209343 12.7607354,13.7536273 C12.7607354,15.6426016 14.7064506,16.4843533 16.6152643,17.0610304 C18.3770017,17.6129152 18.6160669,18.0904229 18.6160669,18.4865913 C18.6160669,19.0985891 17.7922277,19.5441724 16.6594048,19.5441724 C15.6957284,19.5441724 14.6586022,19.3071167 13.8861427,18.9109483 C13.8052772,18.8684956 13.7169961,18.8472693 13.6250072,18.8472693 C13.566212,18.8472693 13.5072403,18.8579673 13.4484451,18.8756276 C13.3050766,18.9252124 13.1873096,19.027778 13.1248066,19.1620983 L12.6171903,20.2480378 C12.5031312,20.4991878 12.5988279,20.7892245 12.8488399,20.9237146 C13.492409,21.2809963 14.4486698,21.5462406 15.4639023,21.6559384 L15.7912486,21.6878628 L15.7912486,22.8126889 C15.7916017,23.1062916 16.0380825,23.3433474 16.3433585,23.3433474 Z" id="Combined-Shape"></path>
                                </g>
                            </g>
                        </g>
                    </g>
                </g>
            </g>
        </g>
    </g>
</svg>