<?xml version="1.0" encoding="UTF-8"?>
<svg width="24px" height="20px" viewBox="0 0 24 20" version="1.1" xmlns="http://www.w3.org/2000/svg" xmlns:xlink="http://www.w3.org/1999/xlink">
    <!-- Generator: Sketch 50 (54983) - http://www.bohemiancoding.com/sketch -->
    <title>Combined Shape</title>
    <desc>Created with Sketch.</desc>
    <defs></defs>
    <g id="Page-1" stroke="none" stroke-width="1" fill="none" fill-rule="evenodd">
        <g id="1920" transform="translate(-587.000000, -1235.000000)" fill="#051146">
            <g id="All" transform="translate(-320.000000, -1.000000)">
                <g id="Part-2" transform="translate(320.000000, 917.000000)">
                    <g id="Boxs" transform="translate(448.000000, 282.000000)">
                        <g id="Visual-Markting">
                            <path d="M158.496917,37 C160.462332,37 162.034664,38.3044009 162.034664,39.9349021 L162.034664,51.9136507 L156.924585,47.6743477 L154.618498,49.5874691 L148.145731,44.2176852 L139,51.8049507 L139,39.9131621 C139,38.3044009 140.572332,37 142.511542,37 L158.496917,37 Z M157.386421,43.556767 C158.591194,43.556767 159.567855,42.6165267 159.567855,41.4566815 C159.567855,40.2968363 158.591194,39.356596 157.386421,39.356596 C156.181649,39.356596 155.204988,40.2968363 155.204988,41.4566815 C155.204988,42.6165267 156.181649,43.556767 157.386421,43.556767 Z M154.61855,51.4452074 L156.924637,49.5055366 L162.034716,53.8036707 C162.034716,55.434978 160.462384,56.7574808 158.523175,56.7574808 L142.537799,56.7574808 C140.59859,56.7574808 139.026258,55.434978 139.026258,53.8036707 L139.026258,53.7155039 L148.171989,46.0229458 L154.61855,51.4452074 Z" id="Combined-Shape"></path>
                        </g>
                    </g>
                </g>
            </g>
        </g>
    </g>
</svg>