<svg id="Capa_1" data-name="Capa 1" xmlns="http://www.w3.org/2000/svg" viewBox="0 0 12.99 8.33"><defs><style>.cls-1{fill:#fff;}</style></defs><title>menu</title><path class="cls-1" d="M250,252.81h12a0.49,0.49,0,0,0,0-1H250A0.49,0.49,0,1,0,250,252.81Z" transform="translate(-249.5 -251.83)"/><path class="cls-1" d="M250,256.49h12a0.49,0.49,0,1,0,0-1H250A0.49,0.49,0,1,0,250,256.49Z" transform="translate(-249.5 -251.83)"/><path class="cls-1" d="M250,260.17h12a0.49,0.49,0,0,0,0-1H250A0.49,0.49,0,1,0,250,260.17Z" transform="translate(-249.5 -251.83)"/></svg>