<?xml version="1.0" encoding="UTF-8"?>
<svg width="74px" height="74px" viewBox="0 0 74 74" version="1.1" xmlns="http://www.w3.org/2000/svg" xmlns:xlink="http://www.w3.org/1999/xlink">
    <!-- Generator: Sketch 50 (54983) - http://www.bohemiancoding.com/sketch -->
    <title>Play</title>
    <desc>Created with Sketch.</desc>
    <defs></defs>
    <g id="Page-1" stroke="none" stroke-width="1" fill="none" fill-rule="evenodd">
        <g id="1440" transform="translate(-683.000000, -2130.000000)">
            <g id="All" transform="translate(-560.000000, -1.000000)">
                <g id="Main-image-" transform="translate(80.000000, 75.000000)">
                    <g id="Customers-Videos-" transform="translate(0.000000, 1780.000000)">
                        <g id="Videos-" transform="translate(0.000000, 98.000000)">
                            <g id="Greats-Video" transform="translate(800.000000, 0.000000)">
                                <g id="Play" transform="translate(364.000000, 179.000000)">
                                    <circle id="Oval-Copy" stroke="#FFFFFF" stroke-width="2" fill-opacity="0.2" fill="#FFFFFF" cx="36" cy="36" r="36"></circle>
                                    <g transform="translate(36.500000, 36.400000) scale(-1, 1) rotate(-270.000000) translate(-36.500000, -36.400000) translate(24.500000, 29.900000)">
                                        <path d="M22.8558551,2.00664036 L12.4299847,12.4548017 C11.9711249,12.9150661 11.2292748,12.9150661 10.770415,12.4548017 L0.342945747,2.00664036 C-0.114315249,1.5479797 -0.114315249,0.803858924 0.342945747,0.345198271 C0.801805558,-0.11506609 1.54365557,-0.11506609 2.00251538,0.345198271 L11.6001999,9.96103489 L21.1978843,0.345198271 C21.6567441,-0.11506609 22.3985941,-0.11506609 22.8558551,0.345198271 C23.314715,0.803858924 23.314715,1.5479797 22.8558551,2.00664036 Z" id="Stroke-3-Copy" fill="#FFFFFF"></path>
                                        <path d="M22,1.2 L1.59607881,1.2" id="Line-2" stroke="#FFFFFF" stroke-width="2.4" stroke-linecap="round" stroke-linejoin="round"></path>
                                    </g>
                                </g>
                            </g>
                        </g>
                    </g>
                </g>
            </g>
        </g>
    </g>
</svg>