<svg id="Camada_1" data-name="Camada 1" xmlns="http://www.w3.org/2000/svg" viewBox="0 0 50 50"><defs><style>.cls-1{fill:#216cd3;}</style></defs><title>invoicemap-icon-target</title><path class="cls-1" d="M747.91,4848.89H748a0.94,0.94,0,0,0,.66-0.27l5.05-5.05a0.94,0.94,0,0,0-.58-1.6l-3.78-.34-0.34-3.78a0.94,0.94,0,0,0-1.6-.58l-5.05,5.05a0.94,0.94,0,0,0-.27.77l0.45,4-0.95.95a20.77,20.77,0,0,0-13.12-5.45v-1.78a0.94,0.94,0,1,0-1.87,0v1.78a20.88,20.88,0,0,0-19.89,19.89h-1.78a0.94,0.94,0,0,0,0,1.87h1.78a20.88,20.88,0,0,0,19.89,19.89v1.78a0.94,0.94,0,1,0,1.87,0v-1.78a20.88,20.88,0,0,0,19.89-19.89h1.78a0.94,0.94,0,1,0,0-1.87h-1.78a20.77,20.77,0,0,0-5.45-13.12l0.95-.95Zm-0.57-8.88,0.23,2.56a0.94,0.94,0,0,0,.85.85l2.56,0.23-3.32,3.32-3.28-.36-0.36-3.28Zm-0.84,22.5h-1.32a0.94,0.94,0,0,0,0,1.87h1.32a19,19,0,0,1-18,18v-1.32a0.94,0.94,0,0,0-1.87,0v1.32a19,19,0,0,1-18-18h1.32a0.94,0.94,0,0,0,0-1.87h-1.32a19,19,0,0,1,18-18v1.32a0.94,0.94,0,0,0,1.87,0v-1.32a18.9,18.9,0,0,1,11.8,4.9l-2.82,2.82a15,15,0,1,0,1.33,1.33l2.82-2.82a18.91,18.91,0,0,1,4.9,11.8h0Zm-19.62,1.6a0.94,0.94,0,0,0,1.33,0l5.09-5.09a7.28,7.28,0,1,1-1.33-1.33l-5.09,5.09a0.94,0.94,0,0,0,0,1.33h0Zm0.66-9.8a9.15,9.15,0,1,0,7.09,3.38l2.83-2.83a13.14,13.14,0,1,1-1.33-1.33l-2.83,2.83a9.1,9.1,0,0,0-5.76-2.05h0Zm0,0" transform="translate(-704 -4837)"/></svg>