<svg xmlns="http://www.w3.org/2000/svg" xmlns:xlink="http://www.w3.org/1999/xlink" width="66" height="67" viewBox="0 0 66 67"><defs><path id="ev9ia" d="M288.31 406.7h-15.88c-4.38 0-9.48 2.27-11.4 5.07l-6.9 10.12c-1.9 2.8.1 5.06 4.49 5.06h15.88l4.49 5.06 13.8-20.24c1.92-2.8-.1-5.07-4.48-5.07z"/><path id="ev9id" d="M250.43 436.48v-27.8h43.67v27.8z"/><path id="ev9ib" d="M267.3 374.94H243.5a11.94 11.94 0 0 0-11.91 11.91v23.82c0 6.55 5.36 11.91 11.9 11.91h23.83l11.9 9.93v-45.66c0-6.55-5.35-11.9-11.9-11.9z"/><path id="ev9if" d="M229.6 437.47v-65.5h52.6v65.5z"/><path id="ev9ig" d="M248.25 394.22h6.18v3l-3.18 1.55-1.88-.6-1.9-.94v-3z"/><path id="ev9ih" d="M261.19 389.04h1.83v10.06l-.85.84h-2.7v-10.9z"/><clipPath id="ev9ic"><use xlink:href="#ev9ia"/></clipPath><clipPath id="ev9ie"><use xlink:href="#ev9ib"/></clipPath></defs><g><g opacity=".23" transform="translate(-229 -371)"><g opacity=".23"/><g clip-path="url(#ev9ic)" opacity=".23"><use xlink:href="#ev9id"/></g></g><g transform="translate(-229 -371)"><g><use xlink:href="#ev9ib"/></g><g clip-path="url(#ev9ie)"><use fill="#3acce1" xlink:href="#ev9if"/></g></g><g transform="translate(-229 -371)"><g/><g><use fill="#fff" xlink:href="#ev9ig"/></g><g><use fill="#fff" xlink:href="#ev9ih"/></g></g></g></svg>