<svg xmlns="http://www.w3.org/2000/svg" viewBox="0 0 253.87 66.47"><defs><style>.cls-1,.cls-2{fill:#121621}.cls-1{fill-rule:evenodd}</style></defs><title>eagle-head-logo</title><path class="cls-1" d="M211.6 51.46a534.57 534.57 0 0 0-65.39-3.85c-9.5 0-18.79.23-27.8.66l-1 2.19-.92 2.11q9.42-.31 19.16-.31a530.82 530.82 0 0 1 74.57 5 5.37 5.37 0 0 1 0-.58 12.12 12.12 0 0 1 1.37-5.24zm-109.08-2.17c-36.08 2.8-66.41 9-85.08 17.17 21.91-6.5 50.86-11.2 83.52-13.17.31-.84.63-1.67 1-2.49z"/><path class="cls-2" d="M33.62 30.03a61.37 61.37 0 0 0 5.94-6.12 62.76 62.76 0 0 0 4.9-6.71 40.31 40.31 0 0 0 3.3-6.51 15.87 15.87 0 0 0 1.22-5.53 5.63 5.63 0 0 0-.86-3.23A4.67 4.67 0 0 0 45.3.19a12.34 12.34 0 0 0-5 .15 27.13 27.13 0 0 0-7 2.62 54.66 54.66 0 0 0-7.62 5 76.51 76.51 0 0 0-7.59 6.74 86.73 86.73 0 0 0-7 8 70.51 70.51 0 0 0-5.76 8.59 47.67 47.67 0 0 0-3.91 8.69A26.63 26.63 0 0 0 0 48.26a10 10 0 0 0 1.73 6 8.74 8.74 0 0 0 5.13 3.26 19.22 19.22 0 0 0 8.25 0 24.76 24.76 0 0 0 5.56-1.83 57.75 57.75 0 0 0 6-3.14c2-1.21 4-2.48 5.89-3.83 1.17-.82 2.28-1.64 3.35-2.43a3.36 3.36 0 0 0 0 .5 5.51 5.51 0 0 0 .81 3 4.64 4.64 0 0 0 2.46 1.82 9 9 0 0 0 4.14.12 14.72 14.72 0 0 0 5-1.93 23.44 23.44 0 0 0 4.52-3.55 24.78 24.78 0 0 0 3.53-4.46 11.58 11.58 0 0 0 1.29 0 10.55 10.55 0 0 0 1.35-.12 18.88 18.88 0 0 0 4.54-1.39c.43-.2.86-.42 1.29-.63-.43 1-.79 1.87-1.09 2.69a11.84 11.84 0 0 0-.91 3.66 1.16 1.16 0 0 0 .41.83 3.12 3.12 0 0 0 1 .62 5.07 5.07 0 0 0 1.24.37 3.72 3.72 0 0 0 1.12 0 4.66 4.66 0 0 0 1.78-1.1c.76-.65 1.67-1.48 2.67-2.49s2.11-2.11 3.25-3.29 2.31-2.31 3.48-3.44a44 44 0 0 1 3.45-3l-.8 1.79c-.3.71-.61 1.45-.89 2.19s-.57 1.51-.79 2.22a6.44 6.44 0 0 0-.3 1.86 2.89 2.89 0 0 0 .74 2.24 2.4 2.4 0 0 0 2.13.47 4.88 4.88 0 0 0 1.78-1c.78-.62 1.7-1.42 2.74-2.41l3.33-3.16c1.17-1.14 2.39-2.25 3.58-3.35s2.36-2.1 3.48-3c-.2.51-.46 1.13-.74 1.82s-.61 1.44-.89 2.18-.57 1.51-.79 2.22a6.41 6.41 0 0 0-.31 1.85 2.93 2.93 0 0 0 .74 2.26 2.5 2.5 0 0 0 2.13.5 19.66 19.66 0 0 0 6.09-2.28 74.79 74.79 0 0 0 7.92-5c1.14-.81 2.31-1.66 3.53-2.56l-1 2.19c-.92 2-1.83 4.08-2.72 6.11l-2.49 5.76c-.76 1.81-1.45 3.47-2.06 4.94s-1 2.69-1.37 3.65c0 .1-.08.22-.1.34a1.92 1.92 0 0 0-.05.4 3.6 3.6 0 0 0 .53 1.72 3.9 3.9 0 0 0 1.27 1.29 2.48 2.48 0 0 0 1.5.43 1.72 1.72 0 0 0 .69-.25 1.75 1.75 0 0 0 .58-.62q1.18-2.21 2.44-4.94c.81-1.79 1.65-3.65 2.46-5.54s1.63-3.73 2.41-5.48 1.52-3.31 2.23-4.7c.84-1.65 1.7-3.31 2.56-5a16.28 16.28 0 0 1 1.63-2.44 22.44 22.44 0 0 1 2.31-2.44 17.36 17.36 0 0 1 2.51-1.92 5.81 5.81 0 0 1 2.29-.84 1.74 1.74 0 0 1 1.34.43 1.9 1.9 0 0 1 .48 1.41 5.79 5.79 0 0 1-1 3 16.45 16.45 0 0 1-3.33 3.77 10.52 10.52 0 0 0-2.84.63 6.36 6.36 0 0 0-2.13 1.22 2.45 2.45 0 0 0-.84 1.7 2.06 2.06 0 0 0 .28 1 2.08 2.08 0 0 0 .91.77 3.23 3.23 0 0 0 1.6.21h.3a29 29 0 0 0 5.48-1.3 58.81 58.81 0 0 0 6.22-2.45c2.16-1 4.29-2 6.42-3.18.46-.24.89-.49 1.34-.72a6.65 6.65 0 0 0-.23 1.69 3.82 3.82 0 0 0 1.32 3.28 5.7 5.7 0 0 0 3.81.82 9.35 9.35 0 0 0 3.15-.83 18.74 18.74 0 0 0 3.43-2 28.35 28.35 0 0 0 3.43-2.87 5.36 5.36 0 0 0-.25 1c0 .32-.05.62-.05.9a3.16 3.16 0 0 0 .74 2.3 2.81 2.81 0 0 0 2.13.72 18.13 18.13 0 0 0 6.09-1.62 74.11 74.11 0 0 0 7.92-4c.88-.51 1.78-1 2.69-1.58-.2.49-.41 1-.58 1.4a10.15 10.15 0 0 0-.91 3.43 1.25 1.25 0 0 0 .41.89 4.27 4.27 0 0 0 1 .79 7 7 0 0 0 1.27.56 3.43 3.43 0 0 0 1.12.22 3.62 3.62 0 0 0 1.78-.78q1.14-.75 2.66-2l3.25-2.58c1.14-.92 2.31-1.83 3.48-2.68a36.63 36.63 0 0 1 3.45-2.25c-.2.46-.46 1-.74 1.62s-.61 1.28-.91 1.94a19.38 19.38 0 0 0-.76 2 5.86 5.86 0 0 0-.3 1.73 3.26 3.26 0 0 0 .74 2.31 2.92 2.92 0 0 0 2.11.86 19.15 19.15 0 0 0 6.09-1.09 64.12 64.12 0 0 0 7.95-3.19c.91-.43 1.83-.88 2.77-1.34a10 10 0 0 0-1 3.53 6 6 0 0 0 .25 1.84 2.61 2.61 0 0 0 1.19 1.35 7.25 7.25 0 0 0 2.74.76 12.58 12.58 0 0 0 5.81-.83 26.31 26.31 0 0 0 7-4c-1 2.34-1.9 4.68-2.84 7a38.93 38.93 0 0 0-3.81 3.47 44.26 44.26 0 0 0-3.43 4 23.79 23.79 0 0 0-2.46 4 8.29 8.29 0 0 0-1 3.45 1.89 1.89 0 0 0 .41 1 4.13 4.13 0 0 0 .91.88 2.51 2.51 0 0 0 1 .43 4.65 4.65 0 0 0 2.89-.93 19.16 19.16 0 0 0 3.63-3.09 50 50 0 0 0 4-4.82 69.81 69.81 0 0 0 4-6c2.61-1 5.22-2.08 7.84-3.16s5.13-2 7.56-3 4.72-1.93 6.83-2.84a.5.5 0 0 0 .3-.32 1.89 1.89 0 0 0 .08-.58 3.2 3.2 0 0 0-.2-1 3.11 3.11 0 0 0-.51-1 1.57 1.57 0 0 0-.76-.54 1.32 1.32 0 0 0-.38 0 1.43 1.43 0 0 0-.43.09c-.86.38-1.9.86-3.17 1.4s-2.67 1.13-4.19 1.73-3.17 1.22-4.85 1.88-3.4 1.33-5.13 1.91c.33-.69.69-1.36 1-2.07a22.6 22.6 0 0 0 1-2.13c.48-1.1.94-2.12 1.4-3.05s.84-1.73 1.17-2.39a5.57 5.57 0 0 0 .46-1.51 1.46 1.46 0 0 0-.43-.94 3.51 3.51 0 0 0-1-.79 12.15 12.15 0 0 0-1.27-.57 11.47 11.47 0 0 0-1.19-.32 3.9 3.9 0 0 0-1.67 0 1.79 1.79 0 0 0-1.12.76 25.31 25.31 0 0 1-2.39 3 28.4 28.4 0 0 1-3.15 2.8 23.3 23.3 0 0 1-3.81 2.4 19.59 19.59 0 0 1-4.32 1.61c.41-.77.91-1.64 1.47-2.59s1.12-1.91 1.7-2.88 1.09-1.82 1.57-2.61.84-1.42 1.12-1.87a2.16 2.16 0 0 0 .2-.42 1.16 1.16 0 0 0 0-.29 1.61 1.61 0 0 0-.69-1.12 6.16 6.16 0 0 0-1.62-1 7.32 7.32 0 0 0-2.11-.6 4.88 4.88 0 0 0-1.78.06 2.09 2.09 0 0 0-1.29.82c-.86 1.2-1.65 2.34-2.36 3.41-.3.17-.61.36-1 .53-1.14.67-2.46 1.36-3.91 2.11s-3 1.45-4.62 2.12a33.66 33.66 0 0 1-4.9 1.62 15.23 15.23 0 0 1 1-2.47c.41-.8.79-1.61 1.19-2.4a16.61 16.61 0 0 0 1-2.33 7.31 7.31 0 0 0 .46-2.28 2.57 2.57 0 0 0-.48-1.35 4.1 4.1 0 0 0-1.14-1.1 3.07 3.07 0 0 0-1.16-.62 6.28 6.28 0 0 0-2.77.66 29.16 29.16 0 0 0-3.76 2.09c-1.4.9-2.82 1.89-4.29 3s-2.87 2.37-4.24 3.61q.46-.78 1.07-1.76c.41-.64.84-1.32 1.27-2s.84-1.29 1.17-1.88.63-1 .84-1.4.38-.74.46-.9a.51.51 0 0 0 .05-.31 1.53 1.53 0 0 0-.66-1.14 5.25 5.25 0 0 0-1.65-.87 7.41 7.41 0 0 0-2.11-.4 5.11 5.11 0 0 0-1.78.22 2.39 2.39 0 0 0-1.29 1c-.84 1.29-1.62 2.53-2.34 3.74l-1 .66c-1.14.79-2.46 1.63-3.88 2.52s-3 1.75-4.62 2.6a41 41 0 0 1-4.92 2.13 29.72 29.72 0 0 1 1.07-2.95c.46-1.06.91-2.13 1.4-3.17s.89-2 1.22-2.84a5.84 5.84 0 0 0 .51-1.93 1.14 1.14 0 0 0-.41-.9 2.81 2.81 0 0 0-1-.6 7.52 7.52 0 0 0-1.27-.34 7.94 7.94 0 0 0-1.19-.08 3.4 3.4 0 0 0-1.9.57 4.69 4.69 0 0 0-1.24 1.36c-.86 1.57-1.73 3.12-2.59 4.68a10.25 10.25 0 0 1-1.73 2.27 24.17 24.17 0 0 1-2.46 2.26 19.53 19.53 0 0 1-2.56 1.76 5.28 5.28 0 0 1-2 .77 1.52 1.52 0 0 1-1.37-.55 2.29 2.29 0 0 1-.38-1.4 4.9 4.9 0 0 1 .2-1.36 2.83 2.83 0 0 1 .53-1.07 17.19 17.19 0 0 0 2.18-.66 22.72 22.72 0 0 0 2.46-1.14 15.31 15.31 0 0 0 2.31-1.51 7.88 7.88 0 0 0 1.67-1.74 3.68 3.68 0 0 0 .66-2.05 2.16 2.16 0 0 0-.28-1 2.1 2.1 0 0 0-.91-.85 3.2 3.2 0 0 0-1.6-.35 7.46 7.46 0 0 0-2.61.74 18.92 18.92 0 0 0-3.15 1.88 29.88 29.88 0 0 0-3.22 2.71 24.13 24.13 0 0 0-2.28 2.46c-.61.42-1.27.85-2 1.29-1.52.94-3.2 1.89-5 2.81a51.66 51.66 0 0 1-6 2.51 28.57 28.57 0 0 0 2.39-3 15.87 15.87 0 0 0 1.68-3.08 8.54 8.54 0 0 0 .63-2.93 3.79 3.79 0 0 0-1.35-3.23 5.6 5.6 0 0 0-3.81-.76 9.21 9.21 0 0 0-3 .83 17.18 17.18 0 0 0-3.1 1.78 29.38 29.38 0 0 0-3 2.47c.43-1 .84-1.89 1.22-2.76s.79-1.7 1.19-2.44c0-.08.08-.14.1-.21a.77.77 0 0 0 .05-.22 1.27 1.27 0 0 0-.58-1 4 4 0 0 0-1.45-.62 5.69 5.69 0 0 0-1.88-.12 4.59 4.59 0 0 0-1.8.54 3 3 0 0 0-1.27 1.33c-.58 1.2-1.24 2.61-2 4.25-.38.79-.74 1.58-1.09 2.36l-1.54 1.25c-1.14 1-2.46 2-3.91 3.07s-3 2.17-4.6 3.22a42.47 42.47 0 0 1-4.92 2.73 21.27 21.27 0 0 1 1-2.79l1.22-2.75a26.78 26.78 0 0 0 1-2.66 8.71 8.71 0 0 0 .43-2.46 2.47 2.47 0 0 0-.46-1.32 3 3 0 0 0-1.17-.9 2.53 2.53 0 0 0-1.4-.24 7.55 7.55 0 0 0-2.77 1.25 39 39 0 0 0-3.76 2.91c-1.4 1.2-2.79 2.51-4.27 4s-2.89 3-4.27 4.5c.36-.84.75-1.68 1.22-2.55a25.92 25.92 0 0 0 1.24-2.7 8.83 8.83 0 0 0 .56-3 2.47 2.47 0 0 0-.46-1.32 2.91 2.91 0 0 0-1.17-.88 2.43 2.43 0 0 0-1.4-.21 7.45 7.45 0 0 0-2.77 1.32 36.38 36.38 0 0 0-3.76 3c-1.4 1.21-2.79 2.55-4.27 4s-2.89 3-4.27 4.54c.3-.59.66-1.26 1.09-2l1.27-2.31 1.22-2.25q.57-1.06.91-1.79a3.1 3.1 0 0 0 .3-.83.74.74 0 0 0 .05-.37 1.14 1.14 0 0 0-.66-.92 4.55 4.55 0 0 0-1.65-.51 6.24 6.24 0 0 0-2.08 0 5.5 5.5 0 0 0-1.8.59 3.16 3.16 0 0 0-1.29 1.26c-.81 1.42-1.55 2.79-2.23 4.11a25.45 25.45 0 0 1-3.4 2.36 14.22 14.22 0 0 1-4.72 1.77c-.25 0-.51.09-.76.11a3.7 3.7 0 0 1-.69.06c.13-.5.25-1 .36-1.51a7.3 7.3 0 0 0 .15-1.47 4.12 4.12 0 0 0-1.12-3.19 3.27 3.27 0 0 0-2.84-.6 5 5 0 0 0-1.93.78 4.9 4.9 0 0 0-1.55 1.72 5.43 5.43 0 0 0-.64 2.68 5.49 5.49 0 0 0 .51 2.37 4.84 4.84 0 0 0 1.4 1.75A16.14 16.14 0 0 1 50.7 43a9.75 9.75 0 0 1-2.08 2 7 7 0 0 1-2.56 1.05 2.44 2.44 0 0 1-1.55-.18 2 2 0 0 1-1-1 3.28 3.28 0 0 1-.33-1.47 6.38 6.38 0 0 1 .81-3 10.38 10.38 0 0 1 1.9-2.62 12.22 12.22 0 0 1 2.36-1.94 5.14 5.14 0 0 0 1.57-1.36 2.41 2.41 0 0 0 .48-1.39 1.34 1.34 0 0 0-.36-1 1.08 1.08 0 0 0-1-.21 12.12 12.12 0 0 0-3.3 1.2 22.31 22.31 0 0 0-6.7 5.64 16.13 16.13 0 0 0-1.75 2.66l-.08.07c-1.17.93-2.51 1.94-4 3s-3 2.07-4.65 3.06a47.77 47.77 0 0 1-4.92 2.57 24.11 24.11 0 0 1-4.8 1.54 11.15 11.15 0 0 1-5.58-.15 5.5 5.5 0 0 1-3.12-2.63 9.51 9.51 0 0 1-1-4.56 23.37 23.37 0 0 1 .89-5.92 43.66 43.66 0 0 1 2.46-6.73 62.12 62.12 0 0 1 3.78-7 63.23 63.23 0 0 1 4.8-6.7 53.67 53.67 0 0 1 5.56-5.89 35.36 35.36 0 0 1 6-4.43 21.17 21.17 0 0 1 6.22-2.41 3.28 3.28 0 0 1 2.59.27 2.4 2.4 0 0 1 .81 2 11.85 11.85 0 0 1-.84 3.71 33.94 33.94 0 0 1-2.18 4.63q-1.37 2.45-3 4.88a56.82 56.82 0 0 1-3.48 4.51 34.65 34.65 0 0 1-3.4 3.53 2 2 0 0 0-.28.33.56.56 0 0 0-.08.29 1 1 0 0 0 .58.76 3.6 3.6 0 0 0 1.32.46 4.12 4.12 0 0 0 1.55 0 4.38 4.38 0 0 0 .61-.17 2.21 2.21 0 0 0 .67-.37z"/></svg>