<svg id="Layer_1" data-name="Layer 1" xmlns="http://www.w3.org/2000/svg" viewBox="0 0 17.52 17.52"><title>cancel</title><path d="M11.28,9a0.39,0.39,0,0,1,0-.56l6-6a0.87,0.87,0,0,0,.24-0.56,0.87,0.87,0,0,0-.24-0.56L16.16,0.24A0.86,0.86,0,0,0,15.6,0,0.73,0.73,0,0,0,15,.24l-6,6a0.39,0.39,0,0,1-.56,0l-6-6A0.86,0.86,0,0,0,1.92,0a0.87,0.87,0,0,0-.56.24L0.24,1.36A0.87,0.87,0,0,0,0,1.92a0.86,0.86,0,0,0,.24.56l6,6a0.39,0.39,0,0,1,0,.56l-6,6A0.87,0.87,0,0,0,0,15.6a0.86,0.86,0,0,0,.24.56l1.12,1.12a0.87,0.87,0,0,0,.56.24,0.87,0.87,0,0,0,.56-0.24l6-6a0.39,0.39,0,0,1,.56,0l6,6a0.87,0.87,0,0,0,.56.24,0.86,0.86,0,0,0,.56-0.24l1.12-1.12a0.86,0.86,0,0,0,.24-0.56A0.87,0.87,0,0,0,17.28,15Zm0,0"/></svg>