<svg xmlns="http://www.w3.org/2000/svg" xmlns:xlink="http://www.w3.org/1999/xlink" width="33" height="33" viewBox="0 0 33 33"><defs><path id="s1i5a" d="M574.07 139.88c-.25-.6-.7-.88-1.34-.88h-29.26c-.63 0-1.08.28-1.33.88-.25.63-.14 1.15.32 1.6l11.25 11.26v11.1c0 .4.14.74.42 1.02l5.85 5.86c.28.28.63.42 1.01.42.18 0 .39-.04.57-.1.6-.25.87-.71.87-1.34v-16.96l11.32-11.25c.5-.46.6-.98.32-1.61z"/></defs><g><g clip-path="url(#clip-714af2ee-d895-4d5b-98b3-9abcf5243ad4)" transform="translate(-542 -139)"><use fill="#fff" xlink:href="#s1i5a"/></g></g></svg>