<svg xmlns="http://www.w3.org/2000/svg" xmlns:xlink="http://www.w3.org/1999/xlink" width="37" height="37" viewBox="0 0 37 37"><defs><path id="eeyaa" d="M103.23 719.07l3.87-3.55c.32-.32.64-.32.97-.32l.64.32 9.03 4.2c.65.31.65.64.65 1.28-.33 2.58-.97 4.52-2.58 5.8-1.62 1.62-3.87 2.59-6.78 2.59-2.9 0-5.8-.65-9.03-2.26-3.22-1.61-6.12-3.87-9.03-6.45-1.6-2.26-3.54-4.52-4.83-7.1-1.3-2.58-2.58-4.83-3.23-7.1-.64-1.93-.64-4.18-.64-6.12a8.47 8.47 0 0 1 2.25-4.84c1.3-1.29 3.23-1.93 6.13-2.25.65 0 .97.32 1.3.64l4.83 9.03c0 .32.32.65.32.65 0 .32 0 .64-.32.96l-4.2 3.87c-.32.65-.32 1.3 0 1.62.97 1.93 2.59 3.54 3.88 5.16a32.56 32.56 0 0 0 5.16 4.19c.64.32 1.29.32 1.6-.32z"/></defs><g><g transform="translate(-82 -693)"><use fill="#fff" xlink:href="#eeyaa"/></g></g></svg>