<svg xmlns="http://www.w3.org/2000/svg" xmlns:xlink="http://www.w3.org/1999/xlink" width="42" height="43" viewBox="0 0 42 43"><defs><path id="5chpa" d="M510.08 714.27c-.09-.04-3.12-1.54-3.66-1.73a1.98 1.98 0 0 0-.72-.15c-.4 0-.76.2-1.03.6-.3.47-1.22 1.53-1.5 1.85-.04.06-.1.09-.13.09s-.49-.19-.64-.25c-3.27-1.43-5.74-4.83-6.08-5.41-.05-.08-.05-.12-.05-.12a.68.68 0 0 1 .18-.2c.17-.17.34-.37.53-.6l.23-.28c.26-.3.36-.53.5-.78l.06-.14c.33-.63.05-1.17-.03-1.34-.07-.13-1.36-3.25-1.5-3.57-.31-.78-.75-1.15-1.36-1.15l-.24.01c-.29.02-1.85.22-2.53.65-.72.45-1.96 1.93-1.96 4.5 0 2.33 1.47 4.51 2.1 5.36l.08.12c2.43 3.54 5.44 6.17 8.51 7.39 2.95 1.16 4.34 1.3 5.14 1.3.33 0 .59-.03.83-.05l.15-.02c1.02-.08 3.25-1.25 3.76-2.66.4-1.12.5-2.34.24-2.78-.17-.29-.48-.44-.88-.64z"/><path id="5chpb" d="M500.43 726.76c-3.18 0-6.28-.92-8.93-2.66a.59.59 0 0 0-.3-.09.6.6 0 0 0-.17.04l-5.42 1.72 1.74-5.16a.51.51 0 0 0-.08-.5 15.94 15.94 0 0 1-3.1-9.43 16.2 16.2 0 0 1 16.25-16.12c8.96 0 16.23 7.24 16.23 16.12a16.17 16.17 0 0 1-16.22 16.08zm0-36.47c-11.3 0-20.5 9.13-20.5 20.35 0 3.63.97 7.19 2.81 10.29l-3.52 10.39c-.07.18-.02.4.12.55.1.1.23.17.39.17l.17-.01 10.82-3.44a20.77 20.77 0 0 0 9.71 2.42c11.3 0 20.5-9.13 20.5-20.35 0-11.25-9.2-20.37-20.5-20.37z"/></defs><g><g clip-path="url(#clip-eceb5bd5-1779-4a53-ba51-e1bea9d9aab2)" transform="translate(-479 -690)"><use fill="#fff" xlink:href="#5chpa"/></g><g clip-path="url(#clip-7e2944d9-e94c-4115-809e-adcb9c1efb05)" transform="translate(-479 -690)"><use fill="#fff" xlink:href="#5chpb"/></g></g></svg>