<svg xmlns="http://www.w3.org/2000/svg" xmlns:xlink="http://www.w3.org/1999/xlink" width="113" height="40" viewBox="0 0 113 40"><defs><path id="1c9ka" d="M244.13 59.75l33.48-.39c-.54.9-.98 1.81-1.37 2.76l-.12.3-31.99-.36c-.62 0-1.16-.53-1.13-1.15 0-.66.5-1.13 1.13-1.16z"/><path id="1c9kb" d="M356 60.88a2.4 2.4 0 0 1-2.38 2.43h-.05l-34.7-.38-.3-.9a22.32 22.32 0 0 0-1.4-3.09l36.42-.41a2.38 2.38 0 0 1 2.41 2.35z"/><path id="1c9kc" d="M276.27 79.55c.38.95.86 1.87 1.4 2.76l-33.54-.39c-.62 0-1.16-.53-1.13-1.16 0-.62.5-1.12 1.13-1.12l31.99-.36c.06.06.09.15.15.27z"/><path id="1c9kd" d="M356 80.74a2.4 2.4 0 0 1-2.38 2.43h-.05l-36.96-.41a21.74 21.74 0 0 0 1.93-3.99l35-.38a2.38 2.38 0 0 1 2.46 2.35z"/><path id="1c9ke" d="M312.45 73.87c-.18.98-.48 1.96-.86 2.91a15.53 15.53 0 0 1-3.36 5.03 15.54 15.54 0 0 1-13.97 4.2 14.26 14.26 0 0 1-2.92-.87c-1.87-.75-3.6-1.9-5.02-3.36a15.41 15.41 0 0 1-3.36-5.02 16.1 16.1 0 0 1-1.13-5.92 15.54 15.54 0 0 1 6.84-12.88 15.41 15.41 0 0 1 5.58-2.29c.99-.18 2.03-.26 3.04-.26 1 0 2.02.14 3 .38.24.06.48.15.71.21a6.69 6.69 0 0 1 1.4.54c.24.08.45.2.68.32l.66.36c.2.12.41.24.65.36.21.11.42.26.63.38a19.37 19.37 0 0 1 2.85 2.29 17.83 17.83 0 0 1 3.48 4.76c.45.89.77 1.84 1.01 2.82.24.98.36 2 .39 3a20.95 20.95 0 0 1-.3 3.04zm4.37-6.93a21.7 21.7 0 0 0-.98-3.8 18.57 18.57 0 0 0-4.2-6.7 16.73 16.73 0 0 0-3.95-3c-.3-.15-.6-.32-.89-.44l-.9-.42-.91-.36a8.9 8.9 0 0 0-.95-.3l-.96-.26c-.32-.06-.65-.15-.95-.2l-.98-.19c-1.3-.2-2.58-.3-3.9-.26-1.3 0-2.58.14-3.86.41-1.28.27-2.52.66-3.71 1.13a20.42 20.42 0 0 0-6.43 4.28 19.77 19.77 0 0 0-5.85 14.03c0 1.31.15 2.6.38 3.87a19.97 19.97 0 0 0 8.48 12.58 19.97 19.97 0 0 0 7.14 3 19.5 19.5 0 0 0 11.45-1.13 19.77 19.77 0 0 0 10.7-10.73c1-2.41 1.5-5 1.54-7.59a21.6 21.6 0 0 0-.27-3.92z"/><path id="1c9kf" d="M300.56 62.75c-.27.5-.66.71-2.7.74-2.48.03-3.66.72-5.1 5.53-.94 3.12-2.79 3.51-3.98 3.36a8.94 8.94 0 0 1 .5-4.85 8.88 8.88 0 0 1 9.63-5.23l.43.1.41.08c.15.03.27.09.42.12.15.06.27.09.39.15z"/><path id="1c9kg" d="M303.98 65.13c-.42 1-1.52 1.96-2.65 1.81-1.13-.15-4.76-.3-4.76 4.85 0 5.11-6.5 3.74-6.5 3.74a9.02 9.02 0 0 1-1.1-2.47c.08.03 3.59 1.7 5.05-3.06 1.45-4.81 2.64-5.5 5.08-5.53 2.47-.03 2.53-.3 2.88-1.07.06.03.12.1.18.12.48.3.95.69 1.34 1.1l.48.5z"/><path id="1c9kh" d="M305.85 71.46c-.06.92-.3 1.81-.65 2.65a8.75 8.75 0 0 1-6.45 5.2c.92-.95 1.96-2.41 2.02-4.1.08-3 3.24-4.1 4.7-3.81.11.03.26.06.38.06z"/><path id="1c9ki" d="M305.85 69.91c-.12.18-.5.66-1.67.42-1.45-.3-4.6.77-4.7 3.8-.08 3.04-3.32 5.24-3.32 5.24l-.6-.1a7.22 7.22 0 0 1-1.6-.5 8.03 8.03 0 0 1-2.23-1.36c1.4.2 6.1.56 6.1-3.81 0-5.11 3.62-4.96 4.75-4.85 1.07.15 2.11-.68 2.56-1.63.06.12.08.24.14.39.21.53.33 1.1.42 1.63.09.27.12.54.15.77z"/></defs><g><g transform="translate(-243 -51)"><use fill="#454f63" xlink:href="#1c9ka"/></g><g transform="translate(-243 -51)"><use fill="#454f63" xlink:href="#1c9kb"/></g><g transform="translate(-243 -51)"><use fill="#454f63" xlink:href="#1c9kc"/></g><g transform="translate(-243 -51)"><use fill="#454f63" xlink:href="#1c9kd"/></g><g transform="translate(-243 -51)"><use fill="#454f63" xlink:href="#1c9ke"/></g><g transform="translate(-243 -51)"><use fill="#454f63" xlink:href="#1c9kf"/></g><g transform="translate(-243 -51)"><use fill="#454f63" xlink:href="#1c9kg"/></g><g transform="translate(-243 -51)"><use fill="#454f63" xlink:href="#1c9kh"/></g><g transform="translate(-243 -51)"><use fill="#454f63" xlink:href="#1c9ki"/></g></g></svg>