<svg xmlns="http://www.w3.org/2000/svg" width="11" height="21">
    <path fill="#FFF" fill-rule="evenodd" d="M9.893 20.674H.715c-.322 0-.583-.278-.583-.62v-7.746c0-.342.261-.619.583-.619h.626l2.741-2.335a2.685 2.685 0 0 1-1.286-2.313c0-.342.261-.62.583-.62.322 0 .583.278.583.62 0 .799.59 1.425 1.342 1.425.753 0 1.342-.626 1.342-1.425s-.589-1.425-1.342-1.425c-.322 0-.583-.278-.583-.62V3.778H3.379c-.322 0-.583-.278-.583-.621V1.34c0-.342.261-.62.583-.62H7.21c.322 0 .583.278.583.62v1.817c0 .343-.261.621-.583.621H5.888v.671c1.103.28 1.925 1.336 1.925 2.592 0 .996-.523 1.855-1.287 2.313l2.741 2.335h.626c.323 0 .584.277.584.619v7.746c0 .342-.261.62-.584.62zM6.626 2.538V1.96H3.962v.578h2.664zM5.304 9.901l-2.098 1.788h4.196L5.304 9.901zm.856 3.027H4.449v1.033H6.16v-1.033zm3.15 0H7.327v1.652c0 .342-.262.62-.584.62H3.865c-.322 0-.583-.278-.583-.62v-1.652H1.298v6.507H9.31v-6.507z"/>
</svg>
