<?xml version="1.0" encoding="utf-8"?>
<!-- Generator: Adobe Illustrator 19.2.1, SVG Export Plug-In . SVG Version: 6.00 Build 0)  -->
<svg version="1.1" id="Capa_1" xmlns="http://www.w3.org/2000/svg" xmlns:xlink="http://www.w3.org/1999/xlink" x="0px" y="0px"
	 viewBox="0 0 612 612" style="enable-background:new 0 0 612 612;" xml:space="preserve">
<style type="text/css">
	.st0{fill:#93C8D1;}
</style>
<g>
	<path class="st0" d="M594.5,534.4H344.2l262.6-262.6c6.8-6.9,6.8-18,0-24.8L407.5,47.7c-3.3-3.3-7.7-5.1-12.4-5.1
		c-4.6,0-9.1,1.8-12.4,5.1L5.1,425.3c-6.9,6.8-6.9,18,0,24.8l114.3,114.3c3.3,3.3,7.7,5.1,12.4,5.1h462.6c9.7,0,17.5-7.9,17.5-17.5
		C612,542.3,604.1,534.4,594.5,534.4z M395.1,84.9l174.5,174.5L363.3,465.8L188.8,291.2L395.1,84.9z M294.6,534.4H139.1l-96.8-96.8
		L164,316l174.5,174.5L294.6,534.4z"/>
</g>
</svg>
