<svg id="svg2985" xmlns="http://www.w3.org/2000/svg" viewBox="0 0 2020 364.7"><defs><style>.cls-1{fill:#fff;}</style></defs><title>LOGO</title><path class="cls-1" d="M6807.9,63.55a96.07,96.07,0,0,1-96.2-96,96.07,96.07,0,0,1,96-96.2,96.07,96.07,0,0,1,96.2,96v0.1A96.17,96.17,0,0,1,6807.9,63.55Zm-159.1-4.7V36.65h-0.7c-12,19.2-35.5,28-57.7,28-52.7.1-92.1-44.6-92.1-96.1,0-38.8,20.8-73,56.7-89a89,89,0,0,1,35.5-7.8c22.2,0,39.4,5.9,54.7,22.2v-76.3h43.3V58.85h-39.7ZM6595-88.45c-29.3,0-53.4,26.7-53.4,55.4,0,30,21.8,58,53.4,58,30.6,0,53.4-27.1,53.4-56.7S6625.6-88.45,6595-88.45Zm386.9,4.9V58.85h-43.3V-83.55h-21.2v-38.5h21.2v-60.3h43.3v60.3H7008v38.5h-26.1Zm97.7,0V58.85h-43.3V-83.55h-21.2v-38.5h21.2v-60.3h43.3v60.3h26.1v38.5h-26.1Zm222.5,71.4H7161.7a36.51,36.51,0,0,0,5.9,13,52.28,52.28,0,0,0,44,24.1c17.6,0,32.9-7.2,41.7-23.1h45.6c-11.7,36.8-48.9,62.9-87.3,62.9-54.1,0-95.4-42-95.4-95.8,0-54.1,40.4-97.1,95.1-97.1,52.8,0,93.5,41.7,93.5,94.2a116,116,0,0,1-2.7,21.8h0Zm-90.6-76.3c-26.4,0-44.9,15.7-51.1,41.4h100c-4.3-26.1-22.5-41.4-48.9-41.4h0Zm166.8,45.6V58.85H7335v-180.9h39.7v16h0.7c12.1-17.6,20.8-22.2,42.3-22.2v42.1c-28.4,1-39.4,16.9-39.4,43.3h0Zm245.8,107.6c-24.1,0-38.8-6.8-55.7-23.1v77.5h-43.3v-241.2h39.7v21.2h0.6c15-18.9,34.9-27.4,58.6-27.4,53.1,0,90.6,44.3,90.6,95.8C7714.7,18.75,7677.2,64.75,7624.1,64.75Zm-4.8-153.2c-31.3,0-53.4,26.4-53.4,56.7,0,22.5,10.8,42,31.6,51.5a46.13,46.13,0,0,0,21.2,5.2c30.6,0,52.8-27.4,52.8-56.7-0.1-29-21.6-56.7-52.2-56.7h0Zm123.1,147.3v-241.2h43.3V58.85h-43.3Zm165.1,5.9c-52.8,0-96.4-43.4-96.4-96.2,0-53.1,43-96.8,96.4-96.8a95.64,95.64,0,0,1,95.8,96.2c-0.1,54.7-41.1,96.8-95.8,96.8h0Zm0-153.2c-30.6,0-53.1,27.7-53.1,57,0,30.3,21.8,56.4,53.1,56.4,30.6,0,52.4-26.4,52.4-56.1,0-29-21.8-57.3-52.4-57.3h0Zm175.2,4.9V58.85h-43.3V-83.55h-21.2v-38.5h21.2v-60.3h43.3v60.3h26.1v38.5h-26.1Zm97.7,0V58.85h-43.3V-83.55h-21.2v-38.5h21.2v-60.3h43.3v60.3h26.1v38.5h-26.1Zm222.5,71.3H8262.5a36.51,36.51,0,0,0,5.9,13,52.28,52.28,0,0,0,44,24.1c17.6,0,32.9-7.2,41.7-23.1h45.6c-11.7,36.8-48.9,62.9-87.3,62.9-54.1,0-95.4-42-95.4-95.8,0-54.1,40.4-97.1,95.1-97.1,52.8,0,93.5,41.7,93.5,94.2a114,114,0,0,1-2.7,21.8h0Zm-90.6-76.2c-26.4,0-44.9,15.7-51.1,41.4h100c-4.3-26.1-22.5-41.4-48.9-41.4h0ZM8479-42.85V58.85h-43.3v-180.9h39.7v16h0.6c12.1-17.6,20.9-22.2,42.3-22.2v42.1C8490.1-85.25,8479-69.25,8479-42.85ZM6625,182.35a32,32,0,1,1,31.8-32.3v0.2c0.1,18.2-13.6,32.1-31.8,32.1h0Zm0-50.8c-10.2,0-17.7,9.2-17.7,18.9,0,10.1,7.3,18.7,17.7,18.7,10.2,0,17.5-8.8,17.5-18.6,0-9.6-7.3-19-17.5-19h0Zm1531,50.8a32,32,0,1,1,31.9-32.3v0.2c0,18.2-13.6,32.1-31.9,32.1h0Zm0-50.8c-10.2,0-17.7,9.2-17.7,18.9,0,10.1,7.3,18.7,17.7,18.7,10.2,0,17.5-8.8,17.5-18.6,0-9.6-7.3-19-17.5-19h0Zm-242.2,50.8a32,32,0,1,1,31.9-32.3v0.2c0,18.2-13.7,32.1-31.9,32.1h0Zm0-50.8c-10.2,0-17.7,9.2-17.7,18.9,0,10.1,7.3,18.7,17.7,18.7,10.2,0,17.5-8.8,17.5-18.6,0-9.6-7.3-19-17.5-19h0Z" transform="translate(-6498.3 182.35)"/></svg>