<svg xmlns="http://www.w3.org/2000/svg" xmlns:xlink="http://www.w3.org/1999/xlink" preserveAspectRatio="xMidYMid" width="46.03" height="32" viewBox="0 0 46.03 32">
  <defs>
    <style>
      .cls-1 {
        fill: #2e4b4f;
        fill-rule: evenodd;
      }
    </style>
  </defs>
  <g>
    <path d="M39.654,21.755 L30.616,31.020 L28.790,29.148 L36.915,20.819 L28.790,12.490 L30.616,10.619 L39.654,19.884 C40.159,20.401 40.159,21.238 39.654,21.755 ZM13.053,30.816 L24.670,7.000 L26.980,8.183 L15.363,32.000 L13.053,30.816 ZM9.423,31.020 L0.385,21.755 C-0.120,21.238 -0.120,20.401 0.385,19.884 L9.423,10.619 L11.249,12.490 L3.123,20.819 L11.249,29.148 L9.423,31.020 Z" class="cls-1"/>
    <path d="M46.030,8.000 L40.030,8.000 L40.030,14.000 L38.030,14.000 L38.030,8.000 L32.030,8.000 L32.030,6.000 L38.030,6.000 L38.030,-0.000 L40.030,-0.000 L40.030,6.000 L46.030,6.000 L46.030,8.000 Z" class="cls-1"/>
  </g>
</svg>
