<svg xmlns="http://www.w3.org/2000/svg" xmlns:xlink="http://www.w3.org/1999/xlink" preserveAspectRatio="xMidYMid" width="52.97" height="39" viewBox="0 0 52.97 39">
  <defs>
    <style>
      .cls-1 {
        fill: #2e4b4f;
        fill-rule: evenodd;
      }
    </style>
  </defs>
  <g>
    <path d="M43.050,14.393 L39.533,17.991 L34.475,23.168 L35.857,24.582 C37.058,25.811 37.058,27.809 35.857,29.039 C35.290,29.620 34.553,29.922 33.807,29.953 C33.777,30.717 33.481,31.470 32.914,32.051 C32.345,32.633 31.609,32.935 30.864,32.966 C30.833,33.729 30.537,34.483 29.969,35.064 C29.418,35.628 28.695,35.948 27.920,35.980 C27.889,36.772 27.576,37.513 27.025,38.077 C26.444,38.672 25.670,39.000 24.848,39.000 C24.025,39.000 23.252,38.672 22.670,38.077 L18.913,34.233 L17.346,35.837 C16.816,36.379 16.120,36.650 15.424,36.650 C14.729,36.650 14.032,36.379 13.503,35.837 L12.991,35.313 C12.542,34.854 12.270,34.262 12.208,33.624 C11.585,33.562 11.007,33.283 10.558,32.824 L10.047,32.300 C9.597,31.841 9.324,31.249 9.264,30.610 C8.661,30.548 8.074,30.282 7.614,29.811 L7.103,29.287 C6.654,28.829 6.382,28.237 6.320,27.599 C5.697,27.536 5.119,27.258 4.670,26.798 L4.158,26.275 C3.645,25.750 3.362,25.052 3.362,24.308 C3.362,23.565 3.645,22.867 4.158,22.342 L5.726,20.738 L0.269,15.154 C-0.121,14.755 -0.121,14.109 0.269,13.710 C0.658,13.311 1.290,13.311 1.680,13.710 L24.081,36.633 C24.503,37.066 25.192,37.065 25.614,36.633 C26.037,36.200 26.037,35.497 25.614,35.064 L20.022,29.340 C19.632,28.943 19.632,28.296 20.022,27.898 C20.411,27.499 21.043,27.499 21.432,27.898 L27.025,33.620 C27.229,33.830 27.502,33.945 27.792,33.945 C28.081,33.945 28.354,33.830 28.558,33.620 C28.981,33.187 28.981,32.484 28.558,32.051 L22.966,26.328 C22.576,25.930 22.576,25.283 22.966,24.885 C23.355,24.486 23.987,24.486 24.377,24.885 L29.969,30.607 C30.391,31.040 31.080,31.040 31.503,30.607 C31.707,30.398 31.820,30.120 31.820,29.823 C31.820,29.527 31.707,29.248 31.503,29.039 L25.909,23.315 C25.521,22.917 25.521,22.270 25.909,21.872 C26.299,21.474 26.931,21.474 27.320,21.872 L32.913,27.595 C33.336,28.028 34.024,28.027 34.446,27.595 C34.869,27.162 34.869,26.459 34.446,26.026 L32.358,23.889 L20.839,12.101 L16.428,11.706 L16.150,13.114 C15.649,15.658 13.220,17.309 10.734,16.797 C8.249,16.284 6.634,13.799 7.135,11.255 L7.589,8.952 C8.481,4.425 12.800,1.483 17.222,2.381 C17.223,2.381 17.224,2.381 17.225,2.381 L27.061,4.184 C27.207,3.770 27.437,3.380 27.760,3.049 L29.863,0.898 C30.429,0.318 31.182,-0.001 31.983,-0.001 C32.785,-0.001 33.537,0.318 34.104,0.898 L43.050,10.053 C44.219,11.249 44.219,13.196 43.050,14.393 ZM7.039,22.281 L5.569,23.786 C5.288,24.074 5.288,24.543 5.569,24.831 L6.081,25.355 C6.362,25.643 6.821,25.643 7.103,25.355 L8.573,23.850 L7.039,22.281 ZM9.983,25.294 L8.514,26.798 C8.231,27.087 8.231,27.555 8.514,27.844 L9.025,28.368 C9.307,28.656 9.765,28.656 10.047,28.368 L11.516,26.863 L9.983,25.294 ZM12.927,28.307 L11.457,29.811 C11.321,29.951 11.245,30.137 11.245,30.334 C11.245,30.532 11.321,30.717 11.457,30.857 L11.968,31.381 C12.250,31.669 12.709,31.669 12.991,31.381 L14.461,29.876 L12.927,28.307 ZM15.872,31.319 L14.401,32.824 C14.120,33.112 14.120,33.581 14.401,33.870 L14.913,34.393 C15.195,34.681 15.653,34.682 15.935,34.393 L17.405,32.889 L15.872,31.319 ZM26.567,6.167 L16.873,4.391 C16.866,4.390 16.859,4.389 16.852,4.387 C13.497,3.695 10.221,5.924 9.545,9.355 L9.091,11.659 C8.953,12.356 9.090,13.066 9.475,13.659 C9.860,14.252 10.447,14.655 11.128,14.796 C12.536,15.086 13.911,14.151 14.194,12.711 L14.648,10.409 C14.742,9.929 15.155,9.590 15.625,9.590 C15.654,9.590 15.683,9.590 15.713,9.593 L21.374,10.100 C21.608,10.120 21.827,10.225 21.993,10.395 L33.064,21.724 L37.417,17.269 L26.567,6.167 ZM41.640,11.496 L32.693,2.341 C32.503,2.147 32.251,2.040 31.983,2.040 C31.715,2.040 31.463,2.147 31.274,2.341 L29.171,4.492 C28.981,4.687 28.877,4.944 28.877,5.218 C28.877,5.493 28.981,5.751 29.171,5.945 L38.827,15.827 L41.640,12.949 C41.829,12.755 41.933,12.497 41.933,12.222 C41.933,11.948 41.829,11.690 41.640,11.496 ZM39.083,13.722 C38.533,13.722 38.085,13.265 38.085,12.701 C38.085,12.138 38.533,11.681 39.083,11.681 C39.634,11.681 40.081,12.138 40.081,12.701 C40.081,13.265 39.634,13.722 39.083,13.722 Z" class="cls-1"/>
    <path d="M52.970,32.000 L46.970,32.000 L46.970,38.000 L44.970,38.000 L44.970,32.000 L38.970,32.000 L38.970,30.000 L44.970,30.000 L44.970,24.000 L46.970,24.000 L46.970,30.000 L52.970,30.000 L52.970,32.000 Z" class="cls-1"/>
  </g>
</svg>
