<svg xmlns="http://www.w3.org/2000/svg" xmlns:xlink="http://www.w3.org/1999/xlink" preserveAspectRatio="xMidYMid" width="80" height="74" viewBox="0 0 80 74">
  <defs>
    <style>
      .cls-1 {
        fill: #03d6f3;
      }

      .cls-1, .cls-2 {
        fill-rule: evenodd;
      }

      .cls-2 {
        fill: #2e4b4f;
        opacity: 0.9;
      }
    </style>
  </defs>
  <g>
    <path d="M73.025,0.009 L60.837,0.009 L56.039,0.009 L6.999,0.009 C3.145,0.009 -0.001,3.252 -0.001,7.226 L-0.001,52.251 C-0.001,56.229 3.145,59.468 6.999,59.468 L38.251,59.468 L38.251,70.368 L23.647,70.368 C22.669,70.368 21.887,71.173 21.887,72.180 C21.887,73.190 22.669,73.995 23.647,73.995 L56.357,73.995 C57.335,73.995 58.117,73.190 58.117,72.180 C58.117,71.173 57.335,70.368 56.357,70.368 L41.753,70.368 L41.753,59.468 L73.008,59.468 C76.862,59.468 80.007,56.229 80.007,52.251 L80.007,7.226 C80.025,3.252 76.879,0.009 73.025,0.009 ZM76.506,52.251 C76.506,54.230 74.943,55.841 73.025,55.841 L6.999,55.841 C5.081,55.841 3.518,54.230 3.518,52.251 L3.518,7.226 C3.518,5.247 5.081,3.635 6.999,3.635 L56.039,3.635 L60.837,3.635 L73.025,3.635 C74.943,3.635 76.506,5.247 76.506,7.226 L76.506,52.251 Z" class="cls-1"/>
    <path d="M76.506,52.251 C76.506,54.230 74.943,55.841 73.025,55.841 L6.999,55.841 C5.081,55.841 3.518,54.230 3.518,52.251 L3.518,7.226 C3.518,5.247 5.081,3.635 6.999,3.635 L56.039,3.635 L60.837,3.635 L73.025,3.635 C74.943,3.635 76.506,5.247 76.506,7.226 L76.506,52.251 Z" class="cls-2"/>
  </g>
</svg>
