<svg xmlns="http://www.w3.org/2000/svg" xmlns:xlink="http://www.w3.org/1999/xlink" preserveAspectRatio="xMidYMid" width="49" height="44" viewBox="0 0 49 44">
  <defs>
    <style>
      .cls-1 {
        fill: #2e4b4f;
        fill-rule: evenodd;
      }
    </style>
  </defs>
  <g>
    <path d="M40.154,15.649 C40.630,14.193 40.740,12.644 40.472,11.117 C40.138,9.219 39.240,7.493 37.873,6.127 C36.506,4.760 34.781,3.861 32.883,3.528 C31.356,3.259 29.806,3.370 28.350,3.845 L24.505,-0.000 L-0.000,24.505 L3.845,28.350 C3.370,29.807 3.259,31.356 3.528,32.883 C3.861,34.781 4.760,36.506 6.127,37.873 C7.493,39.240 9.219,40.138 11.117,40.472 C12.644,40.740 14.193,40.630 15.649,40.154 L19.495,44.000 L44.000,19.495 L40.154,15.649 ZM19.495,40.048 L16.304,36.858 L15.427,37.250 C12.957,38.352 10.014,37.809 8.102,35.897 C6.191,33.986 5.647,31.042 6.750,28.573 L7.142,27.695 L3.951,24.505 L24.505,3.951 L27.695,7.142 L28.573,6.750 C31.042,5.647 33.986,6.191 35.897,8.102 C37.809,10.014 38.352,12.957 37.250,15.427 L36.858,16.304 L40.048,19.495 L19.495,40.048 Z" class="cls-1"/>
    <path d="M49.000,37.000 L43.000,37.000 L43.000,43.000 L41.000,43.000 L41.000,37.000 L35.000,37.000 L35.000,35.000 L41.000,35.000 L41.000,29.000 L43.000,29.000 L43.000,35.000 L49.000,35.000 L49.000,37.000 Z" class="cls-1"/>
  </g>
</svg>
