<svg xmlns="http://www.w3.org/2000/svg" xmlns:xlink="http://www.w3.org/1999/xlink" preserveAspectRatio="xMidYMid" width="41.97" height="35" viewBox="0 0 41.97 35">
  <defs>
    <style>
      .cls-1 {
        fill: #2e4b4f;
        fill-rule: evenodd;
      }
    </style>
  </defs>
  <g>
    <path d="M41.970,18.000 L35.970,18.000 L35.970,24.000 L33.970,24.000 L33.970,18.000 L27.970,18.000 L27.970,16.000 L33.970,16.000 L33.970,10.000 L35.970,10.000 L35.970,16.000 L41.970,16.000 L41.970,18.000 Z" class="cls-1"/>
    <path d="M33.967,33.777 C33.967,34.386 33.501,34.869 32.907,34.963 L32.907,35.000 L1.245,35.000 C0.553,35.000 -0.006,34.452 -0.006,33.777 C-0.006,26.307 5.100,19.981 12.091,17.928 C9.130,16.269 7.129,13.162 7.129,9.603 C7.129,4.308 11.546,-0.001 16.981,-0.001 C22.412,-0.001 26.834,4.308 26.834,9.603 C26.834,13.162 24.830,16.269 21.870,17.928 C28.858,19.981 33.967,26.307 33.967,33.777 ZM24.334,9.603 C24.334,5.649 21.036,2.435 16.981,2.435 C12.927,2.435 9.628,5.649 9.628,9.603 C9.628,13.555 12.927,16.770 16.981,16.770 C21.036,16.770 24.334,13.555 24.334,9.603 ZM16.981,19.662 C9.446,19.662 3.244,25.300 2.563,32.468 L31.398,32.468 C30.718,25.300 24.515,19.662 16.981,19.662 Z" class="cls-1"/>
  </g>
</svg>
