<svg xmlns="http://www.w3.org/2000/svg" xmlns:xlink="http://www.w3.org/1999/xlink" preserveAspectRatio="xMidYMid" width="4.813" height="9" viewBox="0 0 4.813 9">
  <defs>
    <style>
      .cls-1 {
        fill: #03d6f3;
        fill-rule: evenodd;
      }
    </style>
  </defs>
  <path d="M0.008,4.505 C0.008,4.598 0.025,4.689 0.059,4.778 C0.093,4.867 0.139,4.949 0.198,5.026 L3.436,8.745 C3.571,8.906 3.747,8.995 3.963,9.012 C4.178,9.029 4.367,8.966 4.528,8.822 C4.697,8.686 4.788,8.510 4.800,8.295 C4.813,8.079 4.752,7.891 4.616,7.730 L1.823,4.505 L4.616,1.293 C4.752,1.133 4.813,0.944 4.800,0.728 C4.788,0.512 4.697,0.333 4.528,0.189 C4.367,0.053 4.178,-0.008 3.963,0.005 C3.747,0.017 3.571,0.104 3.436,0.265 L0.198,3.997 C0.139,4.073 0.093,4.156 0.059,4.245 C0.025,4.334 0.008,4.421 0.008,4.505 L0.008,4.505 Z" class="cls-1"/>
</svg>
