<svg xmlns="http://www.w3.org/2000/svg" width="62" height="62" viewBox="0 0 62 62">
  <defs>
    <style>
      .cls-1 {
        fill: #478189;
        fill-rule: evenodd;
      }
    </style>
  </defs>
  <path class="cls-1" d="M1398.92,130.066a31.006,31.006,0,0,0-51.08,32.461,1.26,1.26,0,1,0,2.37-.857,28.484,28.484,0,0,1,46.93-29.819,28.5,28.5,0,0,1,.5,39.763l-0.18.194c-0.1.113-.21,0.227-0.32,0.339a28.509,28.509,0,0,1-40.28,0c-0.06-.06-0.11-0.119-0.17-0.18,0-.116-0.01-0.232-0.01-0.344,0-.255.01-0.508,0.02-0.761,0-.084.01-0.167,0.01-0.251l0.03-.5,0.03-.3c0.01-.15.02-0.3,0.04-0.451,0.01-.1.02-0.209,0.04-0.315,0.02-.142.03-0.284,0.05-0.425l0.06-.322c0.02-.137.04-0.276,0.07-0.413l0.06-.324c0.03-.134.05-0.269,0.08-0.4,0.03-.108.06-0.216,0.08-0.324,0.03-.131.06-0.263,0.1-0.393l0.09-.323c0.03-.129.07-0.258,0.11-0.386,0.03-.107.06-0.214,0.1-0.32,0.04-.126.08-0.254,0.12-0.379,0.04-.1.08-0.21,0.11-0.316,0.05-.125.09-0.249,0.14-0.372l0.12-.313,0.15-.365c0.05-.1.09-0.206,0.14-0.307,0.05-.12.11-0.241,0.16-0.359l0.15-.3c0.05-.117.11-0.235,0.17-0.352,0.05-.1.1-0.2,0.16-0.3l0.18-.347c0.06-.1.11-0.194,0.17-0.289,0.06-.114.13-0.227,0.2-0.34,0.06-.094.12-0.189,0.17-0.283,0.07-.112.15-0.223,0.22-0.333l0.18-.275c0.08-.11.15-0.218,0.23-0.326,0.06-.089.13-0.179,0.19-0.268,0.08-.107.16-0.212,0.24-0.317,0.07-.087.13-0.175,0.2-0.261,0.08-.1.17-0.208,0.25-0.31q0.1-.128.21-0.252c0.09-.1.18-0.2,0.27-0.3,0.07-.081.14-0.164,0.21-0.243,0.09-.1.19-0.2,0.28-0.3,0.08-.077.15-0.156,0.23-0.234,0.09-.1.19-0.192,0.29-0.287,0.07-.075.15-0.15,0.23-0.224,0.1-.095.2-0.188,0.3-0.281,0.08-.07.16-0.143,0.24-0.212,0.1-.094.21-0.184,0.32-0.276,0.08-.066.16-0.134,0.24-0.2,0.11-.092.22-0.181,0.34-0.269,0.08-.063.16-0.126,0.24-0.187,0.12-.091.24-0.179,0.36-0.267,0.08-.057.15-0.113,0.23-0.169,0.14-.094.28-0.186,0.41-0.278,0.07-.045.14-0.093,0.21-0.137,0.17-.117.36-0.23,0.54-0.341l0.09-.053c0.21-.128.43-0.251,0.64-0.371,0.08-.041.16-0.08,0.23-0.12,0.15-.077.29-0.156,0.44-0.229,0.09-.049.19-0.093,0.28-0.139,0.12-.059.24-0.117,0.37-0.174a12.278,12.278,0,0,0,17.01,0,20.589,20.589,0,0,1,10.1,10.287,1.262,1.262,0,0,0,2.31-1.017,22.771,22.771,0,0,0-10.73-11.257A12.315,12.315,0,0,0,1377,131.923a1.263,1.263,0,0,0,0,2.525,9.793,9.793,0,0,1,7.27,16.362h0a9.756,9.756,0,0,1-14.54,0h0a9.783,9.783,0,0,1,.38-13.527,1.264,1.264,0,1,0-1.78-1.795,12.293,12.293,0,0,0-1.52,15.682c-0.01.006-.03,0.013-0.04,0.018-0.1.05-.19,0.1-0.29,0.153-0.15.077-.3,0.154-0.45,0.235-0.1.056-.2,0.116-0.31,0.175-0.13.078-.27,0.155-0.41,0.236-0.1.063-.21,0.127-0.31,0.191-0.13.081-.26,0.161-0.39,0.244-0.11.067-.21,0.136-0.31,0.206-0.13.083-.25,0.166-0.38,0.252l-0.3.218-0.36.262-0.3.23c-0.12.091-.23,0.182-0.34,0.273l-0.3.241c-0.11.094-.22,0.188-0.33,0.284-0.09.082-.19,0.165-0.28,0.25-0.11.1-.22,0.2-0.32,0.295s-0.19.172-.28,0.259-0.21.2-.31,0.307-0.18.177-.26,0.267q-0.15.158-.3,0.32c-0.09.09-.17,0.18-0.25,0.271-0.1.111-.2,0.225-0.3,0.338-0.08.091-.16,0.181-0.23,0.272-0.1.12-.2,0.24-0.29,0.36-0.08.09-.15,0.179-0.22,0.269q-0.15.2-.3,0.4c-0.06.084-.12,0.165-0.18,0.25-0.13.172-.25,0.346-0.37,0.523-0.03.047-.06,0.092-0.09,0.138-0.15.222-.3,0.447-0.44,0.674-0.05.078-.09,0.158-0.14,0.237-0.09.151-.18,0.3-0.27,0.457-0.05.1-.11,0.192-0.16,0.289-0.08.139-.15,0.278-0.23,0.418-0.05.1-.1,0.21-0.16,0.314-0.06.136-.13,0.271-0.2,0.408l-0.15.329c-0.06.135-.13,0.27-0.19,0.407-0.05.112-.09,0.226-0.14,0.339-0.06.137-.11,0.272-0.17,0.41-0.04.115-.09,0.231-0.13,0.347l-0.15.414c-0.04.118-.09,0.236-0.13,0.355-0.04.138-.09,0.278-0.13,0.418-0.04.12-.08,0.239-0.11,0.36q-0.06.212-.12,0.426c-0.04.12-.07,0.24-0.1,0.361-0.04.145-.07,0.289-0.11,0.435-0.03.121-.05,0.241-0.08,0.364-0.03.147-.06,0.294-0.09,0.443-0.03.121-.05,0.242-0.07,0.364-0.03.151-.06,0.3-0.08,0.455-0.02.119-.04,0.24-0.06,0.36l-0.06.472c-0.01.117-.03,0.235-0.04,0.352-0.02.165-.04,0.332-0.05,0.5-0.01.111-.02,0.221-0.03,0.333l-0.03.559c-0.01.093-.01,0.185-0.02,0.278-0.01.281-.01,0.561-0.01,0.844,0,0.305.01,0.594,0.02,0.911a0.782,0.782,0,0,0,.03.216v0.016a1.288,1.288,0,0,0,.07.2v0.02a1.215,1.215,0,0,0,.1.18c0,0.007.01,0.014,0.01,0.021a1.157,1.157,0,0,0,.13.159,0.011,0.011,0,0,0,.01.011l0.16,0.177c0.13,0.135.26,0.27,0.39,0.4a31.023,31.023,0,0,0,43.84,0c0.13-.13.26-0.265,0.38-0.4l0.17-.177a31.009,31.009,0,0,0-.55-43.289h0Zm0,0" transform="translate(-1346 -121)"/>
</svg>
