<svg xmlns="http://www.w3.org/2000/svg" xmlns:xlink="http://www.w3.org/1999/xlink" preserveAspectRatio="xMidYMid" width="37" height="29" viewBox="0 0 37 29">
  <defs>
    <style>
      .cls-1 {
        fill: #fff;
        fill-rule: evenodd;
      }
    </style>
  </defs>
  <path d="M34.043,24.511 L26.488,24.511 L26.488,23.303 L34.043,23.303 C34.990,23.303 35.760,22.550 35.760,21.625 L35.760,10.517 L1.235,10.517 L1.235,21.625 C1.235,22.550 2.005,23.303 2.952,23.303 L10.507,23.303 L10.507,24.511 L2.952,24.511 C1.323,24.511 -0.001,23.216 -0.001,21.625 L-0.001,2.886 C-0.001,1.294 1.323,-0.000 2.952,-0.000 L34.043,-0.000 C35.672,-0.000 36.996,1.294 36.996,2.886 L36.996,21.625 C36.996,23.216 35.672,24.511 34.043,24.511 ZM35.760,9.309 L35.760,4.881 L1.235,4.881 L1.235,9.309 L35.760,9.309 ZM34.043,1.207 L2.952,1.207 C2.005,1.207 1.235,1.960 1.235,2.886 L1.235,3.673 L35.760,3.673 L35.760,2.886 C35.760,1.960 34.990,1.207 34.043,1.207 ZM12.924,19.803 L12.924,18.946 C12.924,15.976 15.354,13.517 18.340,13.464 L18.497,13.463 L18.664,13.464 C21.641,13.517 24.071,15.976 24.071,18.946 L24.071,19.803 C24.745,19.963 25.252,20.643 25.252,21.452 L25.252,27.312 C25.252,28.243 24.585,29.001 23.763,29.001 L13.231,29.001 C12.410,29.001 11.743,28.243 11.743,27.312 L11.743,21.452 C11.743,20.643 12.250,19.963 12.924,19.803 ZM12.978,27.312 C12.978,27.606 13.144,27.793 13.231,27.793 L23.763,27.793 C23.850,27.793 24.017,27.606 24.017,27.312 L24.017,21.452 C24.017,21.155 23.852,20.974 23.763,20.974 L23.453,20.974 C23.112,20.974 22.835,20.704 22.835,20.370 L22.835,18.946 C22.835,16.631 20.949,14.713 18.632,14.672 L18.497,14.670 L18.371,14.672 C16.045,14.713 14.160,16.631 14.160,18.946 L14.160,20.370 C14.160,20.704 13.883,20.974 13.542,20.974 L13.231,20.974 C13.142,20.974 12.978,21.155 12.978,21.452 L12.978,27.312 ZM18.497,15.477 C20.439,15.477 22.019,17.033 22.019,18.946 L22.019,20.370 C22.019,20.704 21.742,20.974 21.401,20.974 L15.593,20.974 C15.252,20.974 14.976,20.704 14.976,20.370 L14.976,18.946 C14.976,17.033 16.556,15.477 18.497,15.477 ZM16.211,19.767 L20.784,19.767 L20.784,18.946 C20.784,17.699 19.758,16.685 18.497,16.685 C17.237,16.685 16.211,17.699 16.211,18.946 L16.211,19.767 ZM18.326,22.188 L18.497,22.185 L18.670,22.188 C19.673,22.226 20.490,23.080 20.490,24.091 C20.490,24.516 20.353,24.914 20.101,25.239 L20.101,25.892 C20.101,26.477 19.616,26.952 19.020,26.952 L17.975,26.952 C17.379,26.952 16.893,26.477 16.893,25.892 L16.893,25.239 C16.641,24.912 16.505,24.514 16.505,24.091 C16.505,23.080 17.322,22.226 18.326,22.188 ZM17.944,24.583 C18.062,24.698 18.128,24.852 18.128,25.014 L18.128,25.744 L18.866,25.744 L18.866,25.014 C18.866,24.852 18.933,24.696 19.051,24.583 C19.182,24.458 19.254,24.283 19.254,24.091 C19.254,23.720 18.969,23.409 18.619,23.394 L18.497,23.393 L18.378,23.394 C18.025,23.409 17.741,23.720 17.741,24.091 C17.741,24.281 17.813,24.458 17.944,24.583 Z" class="cls-1"/>
</svg>
