<svg xmlns="http://www.w3.org/2000/svg" xmlns:xlink="http://www.w3.org/1999/xlink" preserveAspectRatio="xMidYMid" width="18" height="20" viewBox="0 0 18 20">
  <defs>
    <style>
      .cls-1 {
        fill: #fff;
        fill-rule: evenodd;
      }
    </style>
  </defs>
  <path d="M12.827,13.238 L2.272,13.238 C1.019,13.238 -0.000,12.185 -0.000,10.891 L-0.000,6.252 C-0.000,6.242 -0.000,6.225 0.006,6.204 C0.006,6.200 0.007,6.196 0.008,6.192 C0.009,6.182 0.010,6.173 0.012,6.167 L0.012,6.150 L0.019,6.135 C0.020,6.129 0.022,6.123 0.024,6.115 L0.027,6.106 C0.029,6.101 0.031,6.093 0.035,6.083 C0.036,6.077 0.039,6.065 0.046,6.051 C0.048,6.047 0.050,6.043 0.053,6.036 L0.057,6.024 C0.062,6.015 0.067,6.005 0.073,5.995 L0.082,5.977 C0.086,5.969 0.089,5.964 0.093,5.959 C0.097,5.950 0.103,5.941 0.111,5.929 C0.119,5.914 0.128,5.904 0.136,5.895 C0.140,5.889 0.144,5.885 0.147,5.881 C0.153,5.872 0.158,5.865 0.163,5.860 C0.174,5.844 0.186,5.833 0.194,5.827 L0.221,5.799 L0.225,5.797 C0.231,5.791 0.240,5.783 0.252,5.776 C0.251,5.777 0.251,5.777 0.252,5.776 C0.261,5.769 0.270,5.763 0.278,5.759 C0.284,5.755 0.290,5.751 0.298,5.747 L0.307,5.737 L0.394,5.693 C0.405,5.687 0.415,5.684 0.423,5.682 C0.435,5.676 0.455,5.669 0.477,5.667 C0.480,5.666 0.482,5.665 0.485,5.665 C0.500,5.660 0.513,5.659 0.524,5.658 C0.530,5.657 0.537,5.655 0.546,5.655 L13.836,3.759 L13.836,1.919 C13.836,1.897 13.836,1.873 13.840,1.849 C13.840,1.841 13.842,1.832 13.845,1.823 C13.845,1.819 13.846,1.815 13.847,1.811 L13.848,1.789 L13.853,1.773 C13.854,1.768 13.855,1.762 13.857,1.756 C13.857,1.752 13.858,1.749 13.859,1.745 L13.874,1.694 C13.874,1.693 13.874,1.691 13.875,1.690 L13.880,1.671 C13.886,1.652 13.893,1.638 13.903,1.621 C13.905,1.616 13.908,1.609 13.912,1.602 C13.917,1.593 13.923,1.582 13.933,1.569 C13.934,1.568 13.935,1.566 13.936,1.565 C13.940,1.557 13.944,1.550 13.949,1.543 C13.953,1.535 13.958,1.526 13.966,1.515 L13.971,1.504 L14.030,1.444 C14.039,1.435 14.050,1.423 14.068,1.410 C14.071,1.408 14.074,1.405 14.078,1.403 C14.084,1.397 14.090,1.392 14.097,1.387 L14.111,1.375 C14.123,1.367 14.134,1.359 14.144,1.354 C14.145,1.353 14.146,1.352 14.148,1.351 L14.165,1.340 C14.175,1.335 14.185,1.331 14.195,1.326 C14.202,1.322 14.210,1.319 14.217,1.315 L17.124,0.051 C17.203,0.017 17.285,-0.000 17.370,-0.000 C17.624,-0.000 17.851,0.156 17.950,0.399 C18.085,0.730 17.934,1.113 17.614,1.252 L15.099,2.349 L15.099,14.316 C15.099,15.442 14.319,16.407 13.261,16.619 C13.426,16.949 13.512,17.314 13.512,17.681 C13.512,18.960 12.506,20.000 11.268,20.000 C10.031,20.000 9.024,18.960 9.024,17.681 C9.024,17.323 9.102,16.975 9.252,16.664 L4.803,16.664 C4.953,16.978 5.032,17.327 5.032,17.681 C5.032,18.960 4.025,20.000 2.787,20.000 C1.550,20.000 0.543,18.960 0.543,17.681 C0.543,16.402 1.550,15.362 2.787,15.362 L12.827,15.362 C13.385,15.362 13.839,14.893 13.839,14.316 L13.839,12.997 C13.527,13.155 13.180,13.238 12.827,13.238 ZM1.260,10.886 C1.260,11.465 1.714,11.936 2.272,11.936 L12.827,11.936 C13.385,11.936 13.839,11.467 13.839,10.891 L13.839,5.071 L1.260,6.862 L1.260,10.886 ZM11.264,18.694 C11.807,18.694 12.249,18.238 12.249,17.677 C12.249,17.116 11.807,16.660 11.264,16.660 C10.722,16.660 10.280,17.116 10.280,17.677 C10.280,18.238 10.722,18.694 11.264,18.694 ZM2.783,18.694 C3.326,18.694 3.768,18.238 3.768,17.677 C3.768,17.116 3.326,16.660 2.783,16.660 C2.241,16.660 1.799,17.116 1.799,17.677 C1.799,18.238 2.241,18.694 2.783,18.694 Z" class="cls-1"/>
</svg>
