<svg
        xmlns="http://www.w3.org/2000/svg"
        xmlns:xlink="http://www.w3.org/1999/xlink"
        width="27px" height="27px">
  <path fill-rule="evenodd"  fill="rgb(255, 255, 255)"
        d="M26.036,14.453 L23.035,14.453 C22.500,14.453 22.082,14.034 22.082,13.499 C22.082,12.964 22.500,12.545 23.035,12.545 L26.036,12.545 C26.571,12.545 26.990,12.964 26.990,13.499 C26.990,14.034 26.548,14.453 26.036,14.453 ZM20.919,7.425 C20.733,7.611 20.500,7.704 20.245,7.704 C19.988,7.704 19.756,7.611 19.570,7.425 C19.197,7.052 19.197,6.447 19.570,6.074 L21.686,3.957 C22.058,3.584 22.664,3.584 23.035,3.957 C23.408,4.329 23.408,4.934 23.035,5.306 L20.919,7.425 ZM13.498,20.016 C9.893,20.016 6.985,17.083 6.985,13.499 C6.985,9.914 9.915,6.982 13.498,6.982 C17.080,6.982 20.012,9.914 20.012,13.499 C20.012,17.083 17.104,20.016 13.498,20.016 ZM13.498,8.868 C10.940,8.868 8.869,10.940 8.869,13.499 C8.869,16.059 10.940,18.131 13.498,18.131 C16.057,18.131 18.127,16.059 18.127,13.499 C18.127,10.940 16.057,8.868 13.498,8.868 ZM13.498,4.911 C12.963,4.911 12.545,4.492 12.545,3.957 L12.545,0.955 C12.545,0.419 12.963,-0.000 13.498,-0.000 C14.033,-0.000 14.452,0.419 14.452,0.955 L14.452,3.957 C14.452,4.492 14.033,4.911 13.498,4.911 ZM6.752,7.704 C6.496,7.704 6.264,7.611 6.077,7.425 L3.962,5.306 C3.589,4.934 3.589,4.329 3.962,3.957 C4.333,3.584 4.938,3.584 5.309,3.957 L7.427,6.074 C7.799,6.447 7.799,7.052 7.427,7.425 C7.241,7.611 7.008,7.704 6.752,7.704 ZM4.914,13.499 C4.914,14.034 4.496,14.453 3.962,14.453 L0.960,14.453 C0.448,14.453 0.007,14.034 0.007,13.499 C0.007,12.964 0.425,12.545 0.960,12.545 L3.962,12.545 C4.496,12.545 4.914,12.964 4.914,13.499 ZM6.077,19.574 C6.450,19.201 7.054,19.201 7.427,19.574 C7.799,19.946 7.799,20.552 7.427,20.924 L5.309,23.042 C5.125,23.228 4.868,23.321 4.636,23.321 C4.379,23.321 4.146,23.228 3.962,23.042 C3.589,22.670 3.589,22.064 3.962,21.691 L6.077,19.574 ZM13.498,22.088 C14.033,22.088 14.452,22.506 14.452,23.042 L14.452,26.044 C14.452,26.579 14.033,26.999 13.498,26.999 C12.963,26.999 12.545,26.579 12.545,26.044 L12.545,23.042 C12.545,22.506 12.963,22.088 13.498,22.088 ZM20.919,19.574 L23.035,21.691 C23.408,22.064 23.408,22.670 23.035,23.042 C22.849,23.228 22.594,23.321 22.361,23.321 C22.128,23.321 21.872,23.228 21.686,23.042 L19.570,20.924 C19.197,20.552 19.197,19.946 19.570,19.574 C19.941,19.201 20.547,19.201 20.919,19.574 Z"/>
</svg>