<svg
        xmlns="http://www.w3.org/2000/svg"
        xmlns:xlink="http://www.w3.org/1999/xlink"
        width="33px" height="34px">
  <path fill-rule="evenodd"  stroke-width="1px" stroke="rgb(46, 75, 79)" fill="rgb(46, 75, 79)"
        d="M25.451,25.938 C23.036,28.354 19.826,29.682 16.411,29.682 C12.995,29.682 9.785,28.354 7.370,25.938 C4.955,23.521 3.628,20.310 3.628,16.892 C3.628,13.475 4.955,10.263 7.370,7.847 C9.785,5.431 12.995,4.103 16.411,4.103 C19.826,4.103 23.036,5.431 25.451,7.847 C27.866,10.263 29.193,13.475 29.193,16.892 C29.193,20.310 27.866,23.521 25.451,25.938 ZM16.411,5.409 C10.085,5.409 4.934,10.563 4.934,16.892 C4.934,23.222 10.085,28.376 16.411,28.376 C22.736,28.376 27.887,23.222 27.887,16.892 C27.887,10.563 22.736,5.409 16.411,5.409 ZM15.464,16.239 L17.362,16.239 C18.869,16.239 20.093,17.464 20.093,18.977 C20.093,20.474 18.885,21.692 17.395,21.714 L17.063,21.714 L17.063,23.075 C17.063,23.434 16.770,23.728 16.411,23.728 C16.052,23.728 15.758,23.434 15.758,23.075 L15.758,21.714 L13.952,21.714 C13.593,21.714 13.299,21.420 13.299,21.061 C13.299,20.702 13.593,20.408 13.952,20.408 L17.362,20.408 C18.151,20.408 18.793,19.766 18.793,18.977 C18.793,18.188 18.151,17.546 17.362,17.546 L15.464,17.546 C13.958,17.546 12.728,16.315 12.728,14.808 C12.728,13.300 13.958,12.071 15.464,12.071 L15.763,12.071 L15.763,10.737 C15.763,10.378 16.057,10.084 16.416,10.084 C16.775,10.084 17.069,10.378 17.069,10.737 L17.069,12.071 L18.815,12.071 C19.174,12.071 19.467,12.364 19.467,12.723 C19.467,13.083 19.174,13.377 18.815,13.377 L15.464,13.377 C14.675,13.377 14.033,14.019 14.033,14.808 C14.033,15.597 14.675,16.239 15.464,16.239 Z"/>
</svg>