<svg xmlns="http://www.w3.org/2000/svg" xmlns:xlink="http://www.w3.org/1999/xlink" preserveAspectRatio="xMidYMid" width="18" height="21" viewBox="0 0 18 21">
  <defs>
    <style>
      .cls-1 {
        fill: #478189;
        fill-rule: evenodd;
      }
    </style>
  </defs>
  <path d="M16.094,2.625 L15.429,2.625 L15.429,1.292 C15.429,0.568 14.875,-0.000 14.166,-0.000 L1.308,-0.000 C0.599,-0.000 -0.000,0.568 -0.000,1.292 L-0.000,5.229 C-0.000,5.953 0.599,6.562 1.308,6.562 L14.166,6.562 C14.875,6.562 15.429,5.953 15.429,5.229 L15.429,3.938 L16.094,3.938 C16.449,3.938 16.714,4.211 16.714,4.573 L16.714,8.511 C16.714,8.872 16.449,9.187 16.094,9.187 L9.023,9.187 C7.959,9.187 7.071,10.050 7.071,11.136 L7.071,12.469 L5.809,12.469 C5.453,12.469 5.143,12.742 5.143,13.104 L5.143,20.323 C5.143,20.685 5.453,21.000 5.809,21.000 L9.666,21.000 C10.021,21.000 10.286,20.685 10.286,20.323 L10.286,13.104 C10.286,12.742 10.021,12.469 9.666,12.469 L8.357,12.469 L8.357,11.136 C8.357,10.774 8.668,10.500 9.023,10.500 L16.094,10.500 C17.158,10.500 18.000,9.596 18.000,8.511 L18.000,4.573 C18.000,3.487 17.158,2.625 16.094,2.625 L16.094,2.625 ZM1.286,5.250 L1.286,1.313 L14.166,1.313 L14.167,5.250 L1.286,5.250 ZM9.000,19.687 L6.429,19.687 L6.429,13.781 L9.000,13.781 L9.000,19.687 Z" class="cls-1"/>
</svg>
