<svg xmlns="http://www.w3.org/2000/svg" width="28" height="24" viewBox="0 0 28 24">
  <defs>
    <style>
      .cls-1 {
        fill: #fff;
        fill-rule: evenodd;
      }
    </style>
  </defs>
  <path class="cls-1" d="M1403.72,250h-25.44a1.273,1.273,0,0,0-1.28,1.27v18a1.273,1.273,0,0,0,1.28,1.27h25.44a1.273,1.273,0,0,0,1.28-1.27v-18a1.273,1.273,0,0,0-1.28-1.27h0Zm-0.64,18.636h-24.16v-16.73h24.16v16.73Zm0,0M1377,272.562a0.707,0.707,0,0,0,.71.7h6.81v-1.4h-6.81a0.707,0.707,0,0,0-.71.7h0Zm0,0,27.29-.7h-17.03v1.4h17.03a0.7,0.7,0,1,0,0-1.4h0Zm0,0-18.4-.736a0.847,0.847,0,0,0-.85.844v1.187a0.85,0.85,0,0,0,1.7,0v-1.187a0.847,0.847,0,0,0-.85-0.844h0Zm0,0" transform="translate(-1377 -250)"/>
</svg>
