<svg xmlns="http://www.w3.org/2000/svg" xmlns:xlink="http://www.w3.org/1999/xlink" preserveAspectRatio="xMidYMid" width="28" height="24" viewBox="0 0 28 24">
  <defs>
    <style>
      .cls-1 {
        fill: #fff;
        fill-rule: evenodd;
      }
    </style>
  </defs>
  <path d="M26.718,20.542 L1.281,20.542 C0.574,20.542 -0.000,19.973 -0.000,19.272 L-0.000,1.270 C-0.000,0.569 0.574,-0.000 1.281,-0.000 L26.718,-0.000 C27.426,-0.000 28.000,0.569 28.000,1.270 L28.000,19.272 C28.000,19.973 27.426,20.542 26.718,20.542 ZM26.078,1.906 L1.922,1.906 L1.922,18.636 L26.078,18.636 L26.078,1.906 ZM0.708,21.861 L7.523,21.861 L7.523,23.264 L0.708,23.264 C0.317,23.264 -0.000,22.950 -0.000,22.562 C-0.000,22.175 0.317,21.861 0.708,21.861 ZM8.892,21.125 C9.362,21.125 9.743,21.504 9.743,21.969 L9.743,23.156 C9.743,23.621 9.362,24.000 8.892,24.000 C8.423,24.000 8.041,23.621 8.041,23.156 L8.041,21.969 C8.041,21.504 8.423,21.125 8.892,21.125 ZM28.000,22.562 C28.000,22.950 27.683,23.264 27.292,23.264 L10.261,23.264 L10.261,21.861 L27.292,21.861 C27.683,21.861 28.000,22.175 28.000,22.562 Z" class="cls-1"/>
</svg>
