<svg xmlns="http://www.w3.org/2000/svg" xmlns:xlink="http://www.w3.org/1999/xlink" preserveAspectRatio="xMidYMid" width="18" height="16" viewBox="0 0 18 16">
  <defs>
    <style>
      .cls-1 {
        fill: #457d85;
        fill-rule: evenodd;
      }
    </style>
  </defs>
  <g>
    <path d="M17.176,13.695 L0.824,13.695 C0.369,13.695 0.000,13.315 0.000,12.848 L0.000,0.847 C0.000,0.379 0.369,-0.000 0.824,-0.000 L17.176,-0.000 C17.631,-0.000 18.000,0.379 18.000,0.847 L18.000,12.848 C18.000,13.315 17.631,13.695 17.176,13.695 ZM16.764,1.270 L1.236,1.270 L1.236,12.424 L16.764,12.424 L16.764,1.270 ZM0.455,14.574 L4.836,14.574 L4.836,15.509 L0.455,15.509 C0.204,15.509 0.000,15.300 0.000,15.042 C0.000,14.783 0.204,14.574 0.455,14.574 ZM5.716,14.083 C6.018,14.083 6.264,14.336 6.264,14.646 L6.264,15.437 C6.264,15.748 6.018,16.000 5.716,16.000 C5.415,16.000 5.169,15.748 5.169,15.437 L5.169,14.646 C5.169,14.336 5.415,14.083 5.716,14.083 ZM18.000,15.042 C18.000,15.300 17.796,15.509 17.545,15.509 L6.597,15.509 L6.597,14.574 L17.545,14.574 C17.796,14.574 18.000,14.783 18.000,15.042 Z" class="cls-1"/>
    <path d="M13.000,8.000 L10.000,8.000 L10.000,11.000 L8.000,11.000 L8.000,8.000 L5.000,8.000 L5.000,6.000 L8.000,6.000 L8.000,3.000 L10.000,3.000 L10.000,6.000 L13.000,6.000 L13.000,8.000 Z" class="cls-1"/>
  </g>
</svg>
