<svg
        xmlns="http://www.w3.org/2000/svg"
        xmlns:xlink="http://www.w3.org/1999/xlink"
        width="25px" height="25px">
  <path fill-rule="evenodd"  fill="rgb(46, 75, 79)"
        d="M19.221,13.014 L19.221,2.151 L2.588,2.151 L2.588,22.418 L10.239,22.418 C10.788,22.418 11.237,22.856 11.237,23.391 C11.237,23.926 10.788,24.364 10.239,24.364 L1.590,24.364 C1.041,24.364 0.592,23.926 0.592,23.391 L0.592,1.179 C0.592,0.643 1.041,0.206 1.590,0.206 L20.219,0.206 C20.767,0.206 21.216,0.643 21.216,1.179 L21.216,13.014 C21.216,13.549 20.767,13.987 20.219,13.987 C19.669,13.987 19.221,13.549 19.221,13.014 L19.221,13.014 ZM24.360,15.381 C23.945,15.025 23.312,15.057 22.947,15.462 L17.474,21.396 L14.730,18.818 C14.331,18.446 13.699,18.462 13.316,18.851 C12.933,19.240 12.950,19.856 13.349,20.229 L16.842,23.504 C17.025,23.682 17.275,23.780 17.541,23.780 L17.574,23.780 C17.840,23.764 18.106,23.650 18.273,23.456 L24.427,16.776 C24.809,16.354 24.776,15.738 24.360,15.381 L24.360,15.381 ZM15.562,5.880 L6.580,5.880 C6.031,5.880 5.582,6.318 5.582,6.853 C5.582,7.388 6.031,7.826 6.580,7.826 L15.562,7.826 C16.110,7.826 16.559,7.388 16.559,6.853 C16.559,6.318 16.110,5.880 15.562,5.880 L15.562,5.880 ZM16.559,12.203 C16.559,11.668 16.110,11.231 15.562,11.231 L6.580,11.231 C6.031,11.231 5.582,11.668 5.582,12.203 C5.582,12.739 6.031,13.176 6.580,13.176 L15.562,13.176 C16.110,13.176 16.559,12.739 16.559,12.203 L16.559,12.203 ZM6.580,16.419 C6.031,16.419 5.582,16.857 5.582,17.392 C5.582,17.927 6.031,18.364 6.580,18.364 L9.241,18.364 C9.790,18.364 10.239,17.927 10.239,17.392 C10.239,16.857 9.790,16.419 9.241,16.419 L6.580,16.419 Z"/>
</svg>