<svg xmlns="http://www.w3.org/2000/svg" xmlns:xlink="http://www.w3.org/1999/xlink" preserveAspectRatio="xMidYMid" width="90.53" height="77.562" viewBox="0 0 90.53 77.562">
  <defs>
    <style>
      .cls-1 {
        fill: #2e4b4f;
        fill-rule: evenodd;
      }
    </style>
  </defs>
  <path d="M86.376,66.379 L4.154,66.379 C1.867,66.379 0.012,64.541 0.012,62.274 L0.012,4.105 C0.012,1.838 1.867,-0.001 4.154,-0.001 L86.376,-0.001 C88.663,-0.001 90.518,1.838 90.518,4.105 L90.518,62.274 C90.518,64.541 88.663,66.379 86.376,66.379 ZM84.305,6.157 L6.225,6.157 L6.225,60.221 L84.305,60.221 L84.305,6.157 ZM2.300,70.641 L24.329,70.641 L24.329,75.176 L2.300,75.176 C1.037,75.176 0.012,74.161 0.012,72.908 C0.012,71.656 1.037,70.641 2.300,70.641 ZM28.755,68.263 C30.273,68.263 31.507,69.487 31.507,70.991 L31.507,74.825 C31.507,76.330 30.273,77.553 28.755,77.553 C27.238,77.553 26.003,76.330 26.003,74.825 L26.003,70.991 C26.003,69.487 27.238,68.263 28.755,68.263 ZM90.518,72.908 C90.518,74.161 89.494,75.176 88.229,75.176 L33.180,75.176 L33.180,70.641 L88.229,70.641 C89.494,70.641 90.518,71.656 90.518,72.908 Z" class="cls-1"/>
</svg>
