<svg xmlns="http://www.w3.org/2000/svg" xmlns:xlink="http://www.w3.org/1999/xlink" preserveAspectRatio="xMidYMid" width="23" height="21" viewBox="0 0 23 21">
  <defs>
    <style>
      .cls-1, .cls-2 {
        fill: #2e4b4f;
      }

      .cls-1, .cls-4 {
        fill-rule: evenodd;
      }

      .cls-3 {
        fill: red;
      }

      .cls-4 {
        fill: #fff;
      }
    </style>
  </defs>
  <g>
    <path d="M-0.000,20.000 L-0.000,19.000 L23.000,19.000 L23.000,20.000 L-0.000,20.000 Z" class="cls-1"/>
    <rect width="23" height="17" rx="2" ry="2" class="cls-2"/>
    <rect x="20" y="18" width="3" height="3" class="cls-3"/>
    <path d="M16.783,5.241 L15.730,4.211 C15.586,4.070 15.410,3.999 15.204,3.999 C14.997,3.999 14.822,4.070 14.677,4.211 L9.599,9.190 L7.323,6.954 C7.178,6.813 7.002,6.742 6.796,6.742 C6.590,6.742 6.414,6.813 6.269,6.954 L5.217,7.984 C5.072,8.126 5.000,8.298 5.000,8.500 C5.000,8.702 5.072,8.874 5.217,9.015 L8.019,11.758 L9.072,12.788 C9.217,12.930 9.392,13.000 9.599,13.000 C9.805,13.000 9.980,12.930 10.125,12.788 L11.178,11.758 L16.783,6.272 C16.928,6.131 17.000,5.959 17.000,5.757 C17.000,5.555 16.928,5.383 16.783,5.241 L16.783,5.241 Z" class="cls-4"/>
  </g>
</svg>
