<svg xmlns="http://www.w3.org/2000/svg" xmlns:xlink="http://www.w3.org/1999/xlink" preserveAspectRatio="xMidYMid" width="18" height="18.406" viewBox="0 0 18 18.406">
  <defs>
    <style>
      .cls-1 {
        fill: #ce0000;
        fill-rule: evenodd;
      }
    </style>
  </defs>
  <path d="M-0.006,18.408 L-0.006,17.508 L17.994,17.508 L17.994,18.408 L-0.006,18.408 ZM16.359,16.584 L1.629,16.584 C1.031,16.584 0.621,16.399 0.398,16.030 C0.176,15.661 0.205,15.212 0.486,14.685 L7.974,0.798 C8.115,0.529 8.273,0.330 8.449,0.201 C8.625,0.072 8.806,0.007 8.994,0.007 C9.181,0.007 9.363,0.072 9.539,0.201 C9.715,0.330 9.873,0.529 10.014,0.798 L17.502,14.685 C17.783,15.212 17.812,15.661 17.590,16.030 C17.367,16.399 16.957,16.584 16.359,16.584 ZM10.049,4.648 L7.904,4.648 L7.904,11.486 L10.049,11.486 L10.049,4.648 ZM10.049,12.927 L7.904,12.927 L7.904,15.089 L10.049,15.089 L10.049,12.927 Z" class="cls-1"/>
</svg>
