<svg xmlns="http://www.w3.org/2000/svg" xmlns:xlink="http://www.w3.org/1999/xlink" preserveAspectRatio="xMidYMid" width="24" height="24" viewBox="0 0 24 24">
  <defs>
    <style>
      .cls-1 {
        fill: #2e4b4f;
        fill-rule: evenodd;
      }
    </style>
  </defs>
  <path d="M22.445,1.553 C20.379,-0.519 17.020,-0.519 14.954,1.553 L1.219,15.285 C1.111,15.392 1.045,15.530 1.024,15.679 L0.007,23.217 C-0.024,23.432 0.053,23.647 0.201,23.795 C0.329,23.923 0.508,24.000 0.687,24.000 C0.717,24.000 0.748,24.000 0.779,23.995 L5.319,23.381 C5.698,23.330 5.964,22.982 5.913,22.603 C5.862,22.225 5.514,21.959 5.135,22.010 L1.495,22.501 L2.205,17.243 L7.738,22.777 C7.866,22.905 8.045,22.982 8.224,22.982 C8.403,22.982 8.582,22.910 8.710,22.777 L22.445,9.045 C23.447,8.043 24.000,6.713 24.000,5.296 C24.000,3.880 23.447,2.550 22.445,1.553 L22.445,1.553 ZM15.220,3.240 L17.526,5.547 L4.992,18.082 L2.686,15.776 L15.220,3.240 ZM8.229,21.315 L5.974,19.059 L18.508,6.524 L20.763,8.779 L8.229,21.315 ZM21.724,7.792 L16.207,2.274 C16.907,1.696 17.781,1.379 18.702,1.379 C19.750,1.379 20.732,1.788 21.474,2.524 C22.215,3.261 22.619,4.248 22.619,5.296 C22.619,6.222 22.302,7.092 21.724,7.792 L21.724,7.792 Z" class="cls-1"/>
</svg>
