<svg xmlns="http://www.w3.org/2000/svg" xmlns:xlink="http://www.w3.org/1999/xlink" preserveAspectRatio="xMidYMid" width="17.469" height="17.5" viewBox="0 0 17.469 17.5">
  <defs>
    <style>
      .cls-1 {
        fill: #2e4b4f;
        fill-rule: evenodd;
      }
    </style>
  </defs>
  <path d="M16.571,0.922 C16.857,1.209 17.078,1.541 17.235,1.918 C17.391,2.296 17.469,2.693 17.469,3.110 C17.469,3.526 17.391,3.924 17.235,4.301 C17.078,4.679 16.857,5.011 16.571,5.297 L6.102,15.766 C6.050,15.818 5.985,15.860 5.907,15.893 C5.828,15.925 5.750,15.942 5.672,15.942 C5.607,15.942 5.535,15.925 5.457,15.893 C5.379,15.860 5.314,15.818 5.262,15.766 L2.430,12.934 L1.473,16.000 L3.035,15.531 C3.192,15.480 3.345,15.492 3.494,15.571 C3.644,15.649 3.739,15.766 3.778,15.922 C3.829,16.078 3.817,16.232 3.739,16.381 C3.660,16.531 3.543,16.625 3.387,16.664 L0.750,17.485 C0.711,17.497 0.679,17.504 0.653,17.504 C0.626,17.504 0.600,17.504 0.574,17.504 C0.496,17.504 0.418,17.491 0.340,17.465 C0.262,17.439 0.197,17.393 0.145,17.328 C0.067,17.250 0.014,17.159 -0.011,17.055 C-0.038,16.951 -0.038,16.847 -0.011,16.742 L1.571,11.625 L1.571,11.606 L1.590,11.586 L1.590,11.567 C1.590,11.554 1.597,11.547 1.610,11.547 L1.610,11.528 L1.610,11.508 C1.622,11.482 1.639,11.456 1.658,11.430 C1.678,11.404 1.701,11.384 1.727,11.371 L12.176,0.922 C12.788,0.310 13.520,0.004 14.373,0.004 C15.226,0.004 15.958,0.310 16.571,0.922 L16.571,0.922 L16.571,0.922 L16.571,0.922 L16.571,0.922 L16.571,0.922 L16.571,0.922 L16.571,0.922 L16.571,0.922 L16.571,0.922 L16.571,0.922 L16.571,0.922 L16.571,0.922 L16.571,0.922 L16.571,0.922 L16.571,0.922 L16.571,0.922 L16.571,0.922 L16.571,0.922 ZM15.711,1.762 C15.412,1.463 15.060,1.283 14.656,1.225 C14.253,1.166 13.875,1.228 13.524,1.410 L14.793,2.680 L16.063,3.969 C16.128,3.839 16.180,3.702 16.219,3.559 C16.258,3.416 16.278,3.266 16.278,3.110 C16.278,2.862 16.229,2.621 16.131,2.387 C16.033,2.153 15.893,1.944 15.711,1.762 L15.711,1.762 L15.711,1.762 L15.711,1.762 L15.711,1.762 L15.711,1.762 L15.711,1.762 L15.711,1.762 ZM12.606,2.192 L2.996,11.801 L3.914,12.719 L13.524,3.110 L12.606,2.192 L12.606,2.192 ZM5.672,14.477 L15.281,4.887 L14.364,3.949 L4.754,13.559 L5.672,14.477 L5.672,14.477 Z" class="cls-1"/>
</svg>
