<svg xmlns="http://www.w3.org/2000/svg" xmlns:xlink="http://www.w3.org/1999/xlink" preserveAspectRatio="xMidYMid" width="24.032" height="18.874" viewBox="0 0 24.032 18.874">
  <defs>
    <style>
      .cls-1 {
        fill: #2e4b4f;
        opacity: 0.2;
        fill-rule: evenodd;
      }
    </style>
  </defs>
  <path d="M24.019,6.079 C23.617,6.521 23.162,6.910 22.679,7.245 C20.442,8.759 18.191,10.286 16.008,11.867 C14.882,12.697 13.489,13.716 12.029,13.716 L12.015,13.716 L12.002,13.716 C10.541,13.716 9.148,12.697 8.023,11.867 C5.839,10.273 3.588,8.759 1.364,7.245 C0.869,6.910 0.413,6.521 0.011,6.079 L0.011,16.717 C0.011,17.896 0.976,18.860 2.155,18.860 L21.876,18.860 C23.054,18.860 24.019,17.896 24.019,16.717 L24.019,6.079 ZM24.019,2.140 C24.019,0.961 23.041,-0.003 21.876,-0.003 L2.155,-0.003 C0.721,-0.003 0.011,1.122 0.011,2.435 C0.011,3.654 1.364,5.168 2.316,5.811 C4.392,7.258 6.496,8.705 8.572,10.165 C9.443,10.768 10.917,12.001 12.002,12.001 L12.015,12.001 L12.029,12.001 C13.114,12.001 14.587,10.768 15.458,10.165 C17.535,8.705 19.638,7.258 21.728,5.811 C22.907,4.994 24.019,3.641 24.019,2.140 Z" class="cls-1"/>
</svg>
