<svg xmlns="http://www.w3.org/2000/svg" xmlns:xlink="http://www.w3.org/1999/xlink" preserveAspectRatio="xMidYMid" width="19" height="16" viewBox="0 0 19 16">
  <defs>
    <style>
      .cls-1 {
        fill: #fff;
        fill-rule: evenodd;
      }
    </style>
  </defs>
  <path d="M15.448,13.726 C15.448,14.356 14.918,14.870 14.259,14.870 L2.384,14.870 C1.728,14.870 1.199,14.356 1.199,13.726 L1.199,2.296 C1.199,1.665 1.728,1.155 2.384,1.155 L14.259,1.155 C14.918,1.155 15.448,1.665 15.448,2.296 L15.448,4.012 L16.634,4.012 L16.634,2.296 C16.634,1.035 15.573,0.010 14.259,0.010 L2.384,0.010 C1.074,0.010 0.010,1.035 0.010,2.296 L0.010,13.726 C0.010,14.990 1.074,16.011 2.384,16.011 L14.259,16.011 C15.573,16.011 16.634,14.990 16.634,13.726 L16.634,12.012 L15.448,12.012 L15.448,13.726 ZM18.417,7.438 L5.599,7.438 L8.714,4.444 C8.945,4.221 8.945,3.859 8.714,3.635 C8.481,3.412 8.104,3.412 7.872,3.635 L3.776,7.578 C3.651,7.698 3.599,7.854 3.608,8.011 C3.599,8.167 3.651,8.326 3.776,8.444 L7.872,12.386 C8.104,12.609 8.481,12.609 8.714,12.386 C8.945,12.163 8.945,11.800 8.714,11.580 L5.599,8.583 L18.417,8.583 C18.745,8.583 19.011,8.326 19.011,8.011 C19.011,7.696 18.745,7.438 18.417,7.438 L18.417,7.438 Z" class="cls-1"/>
</svg>
