<svg xmlns="http://www.w3.org/2000/svg" xmlns:xlink="http://www.w3.org/1999/xlink" preserveAspectRatio="xMidYMid" width="17" height="18.906" viewBox="0 0 17 18.906">
  <defs>
    <style>
      .cls-1 {
        fill: #fff;
        fill-rule: evenodd;
      }
    </style>
  </defs>
  <path d="M16.996,6.375 C16.996,6.388 16.996,6.401 16.996,6.414 L16.996,14.597 C16.996,14.767 16.937,14.910 16.820,15.027 C16.703,15.144 16.560,15.203 16.391,15.203 L11.996,15.203 L11.996,18.289 C11.996,18.458 11.938,18.601 11.820,18.719 C11.703,18.836 11.566,18.894 11.410,18.894 L0.609,18.894 C0.440,18.894 0.297,18.836 0.180,18.719 C0.063,18.601 0.004,18.458 0.004,18.289 L0.004,4.304 C0.004,4.135 0.063,3.992 0.180,3.875 C0.297,3.758 0.440,3.699 0.609,3.699 L5.004,3.699 L5.004,0.594 C5.004,0.424 5.062,0.281 5.180,0.164 C5.297,0.047 5.434,-0.012 5.590,-0.012 L10.590,-0.012 C10.603,0.001 10.616,0.008 10.629,0.008 L10.648,0.008 C10.700,0.008 10.749,0.017 10.795,0.037 C10.840,0.056 10.883,0.079 10.922,0.105 L10.941,0.105 L10.941,0.125 L10.961,0.125 L10.980,0.125 L10.980,0.144 L11.000,0.144 L11.000,0.164 L11.020,0.164 L16.820,5.984 L16.840,6.004 C16.853,6.004 16.859,6.010 16.859,6.023 L16.879,6.043 C16.879,6.056 16.882,6.062 16.889,6.062 C16.895,6.062 16.898,6.069 16.898,6.082 C16.924,6.121 16.947,6.163 16.967,6.209 C16.986,6.255 16.996,6.303 16.996,6.355 L16.996,6.375 L16.996,6.375 L16.996,6.375 L16.996,6.375 L16.996,6.375 L16.996,6.375 L16.996,6.375 L16.996,6.375 L16.996,6.375 L16.996,6.375 L16.996,6.375 L16.996,6.375 L16.996,6.375 L16.996,6.375 L16.996,6.375 L16.996,6.375 L16.996,6.375 L16.996,6.375 L16.996,6.375 L16.996,6.375 L16.996,6.375 L16.996,6.375 L16.996,6.375 L16.996,6.375 L16.996,6.375 L16.996,6.375 L16.996,6.375 L16.996,6.375 L16.996,6.375 L16.996,6.375 L16.996,6.375 L16.996,6.375 L16.996,6.375 L16.996,6.375 L16.996,6.375 L16.996,6.375 L16.996,6.375 L16.996,6.375 L16.996,6.375 L16.996,6.375 L16.996,6.375 L16.996,6.375 L16.996,6.375 L16.996,6.375 L16.996,6.375 L16.996,6.375 L16.996,6.375 L16.996,6.375 L16.996,6.375 L16.996,6.375 ZM11.195,5.808 L14.945,5.808 L11.195,2.039 L11.195,5.808 ZM6.195,5.750 L6.195,9.500 L9.945,9.500 L6.195,5.750 L6.195,5.750 ZM10.805,17.703 L10.805,10.711 L5.590,10.711 C5.420,10.711 5.277,10.652 5.160,10.535 C5.043,10.418 4.984,10.275 4.984,10.105 L4.984,4.890 L1.195,4.890 L1.195,17.703 L10.805,17.703 L10.805,17.703 ZM15.805,13.992 L15.805,7.000 L10.590,7.000 C10.420,7.000 10.277,6.941 10.160,6.824 C10.043,6.707 9.984,6.570 9.984,6.414 L9.984,1.199 L6.195,1.199 L6.195,4.051 L11.820,9.676 L11.840,9.695 C11.840,9.708 11.846,9.715 11.859,9.715 L11.859,9.734 L11.879,9.734 L11.879,9.754 C11.892,9.754 11.898,9.760 11.898,9.773 C11.924,9.812 11.947,9.855 11.967,9.900 C11.986,9.946 11.996,9.995 11.996,10.047 L11.996,10.066 C11.996,10.079 11.996,10.092 11.996,10.105 L11.996,13.992 L15.805,13.992 L15.805,13.992 L15.805,13.992 L15.805,13.992 L15.805,13.992 L15.805,13.992 L15.805,13.992 L15.805,13.992 L15.805,13.992 L15.805,13.992 L15.805,13.992 L15.805,13.992 L15.805,13.992 L15.805,13.992 L15.805,13.992 L15.805,13.992 L15.805,13.992 L15.805,13.992 L15.805,13.992 L15.805,13.992 L15.805,13.992 L15.805,13.992 L15.805,13.992 L15.805,13.992 Z" class="cls-1"/>
</svg>
