<svg xmlns="http://www.w3.org/2000/svg" xmlns:xlink="http://www.w3.org/1999/xlink" preserveAspectRatio="xMidYMid" width="23.031" height="21" viewBox="0 0 23.031 21">
  <defs>
    <style>
      .cls-1 {
        fill: #2e4b4f;
        fill-rule: evenodd;
      }
    </style>
  </defs>
  <path d="M22.941,16.762 C22.831,16.946 22.645,17.050 22.449,17.050 C22.348,17.050 22.248,17.020 22.152,16.965 L17.985,14.366 C17.803,14.267 15.970,13.361 14.406,13.851 L10.650,15.030 C10.655,15.054 10.664,15.084 10.674,15.109 C10.774,15.391 10.980,15.549 11.315,15.604 C12.549,15.807 14.597,15.678 14.616,15.678 C14.932,15.658 15.205,15.906 15.224,16.233 C15.243,16.559 15.004,16.842 14.688,16.861 C14.597,16.866 12.497,17.000 11.133,16.772 C9.779,16.549 9.391,15.317 9.463,14.540 C9.487,14.297 9.645,14.094 9.870,14.025 L14.076,12.708 C16.152,12.059 18.430,13.257 18.525,13.307 C18.535,13.312 18.549,13.317 18.559,13.327 L22.745,15.946 C23.018,16.114 23.104,16.480 22.941,16.762 ZM10.707,12.173 C9.812,12.173 8.975,11.812 8.339,11.158 C7.033,9.807 7.033,7.614 8.339,6.262 C8.970,5.609 9.812,5.248 10.707,5.248 C11.602,5.248 12.439,5.609 13.076,6.262 C14.382,7.614 14.382,9.807 13.076,11.158 C12.439,11.812 11.602,12.173 10.707,12.173 ZM12.262,7.104 C11.846,6.673 11.296,6.436 10.707,6.436 C10.119,6.436 9.568,6.673 9.152,7.104 C8.296,7.990 8.296,9.436 9.152,10.322 C9.568,10.752 10.119,10.990 10.707,10.990 C11.296,10.990 11.846,10.752 12.262,10.322 C13.119,9.436 13.119,7.990 12.262,7.104 ZM6.779,5.406 C6.081,5.406 5.425,5.124 4.932,4.614 C3.913,3.559 3.913,1.847 4.932,0.792 C5.425,0.282 6.081,0.000 6.779,0.000 C7.478,0.000 8.133,0.282 8.626,0.792 C9.645,1.847 9.645,3.559 8.626,4.614 C8.133,5.129 7.473,5.406 6.779,5.406 ZM7.813,1.634 C7.535,1.347 7.167,1.188 6.774,1.188 C6.382,1.188 6.014,1.347 5.736,1.634 C5.167,2.223 5.167,3.188 5.736,3.777 C6.014,4.064 6.382,4.223 6.774,4.223 C7.167,4.223 7.535,4.064 7.813,3.777 C8.382,3.183 8.382,2.223 7.813,1.634 ZM7.879,14.985 C7.741,15.282 7.396,15.406 7.114,15.262 C7.080,15.248 3.985,13.703 2.526,13.035 C2.109,12.842 1.760,12.842 1.458,13.035 C1.449,13.040 1.444,13.045 1.435,13.049 L9.238,18.965 C9.793,19.386 10.497,19.559 11.171,19.450 L18.133,18.302 C18.296,18.277 18.463,18.322 18.592,18.431 L20.353,19.950 C20.597,20.158 20.631,20.535 20.425,20.787 C20.310,20.926 20.147,21.000 19.985,21.000 C19.855,21.000 19.726,20.955 19.616,20.861 L18.056,19.515 L11.348,20.624 C10.372,20.787 9.353,20.530 8.554,19.926 L0.229,13.619 C0.004,13.441 -0.068,13.119 0.071,12.856 C0.401,12.233 1.430,11.238 2.990,11.950 C4.463,12.629 7.578,14.178 7.612,14.193 C7.899,14.337 8.018,14.688 7.879,14.985 Z" class="cls-1"/>
</svg>
