<svg xmlns="http://www.w3.org/2000/svg" xmlns:xlink="http://www.w3.org/1999/xlink" preserveAspectRatio="xMidYMid" width="29.969" height="27" viewBox="0 0 29.969 27">
  <defs>
    <style>
      .cls-1 {
        fill: #2e4b4f;
        fill-rule: evenodd;
      }
    </style>
  </defs>
  <path d="M29.883,21.552 C29.740,21.787 29.497,21.921 29.241,21.921 C29.110,21.921 28.979,21.883 28.855,21.813 L23.426,18.471 C23.190,18.344 20.803,17.179 18.765,17.809 L13.872,19.324 C13.878,19.356 13.891,19.394 13.903,19.426 C14.034,19.789 14.302,19.992 14.738,20.062 C16.346,20.323 19.014,20.158 19.039,20.158 C19.450,20.132 19.805,20.450 19.830,20.871 C19.855,21.291 19.544,21.653 19.132,21.679 C19.014,21.685 16.278,21.857 14.502,21.564 C12.738,21.278 12.233,19.693 12.327,18.694 C12.358,18.382 12.563,18.121 12.856,18.032 L18.335,16.339 C21.039,15.505 24.006,17.045 24.131,17.109 C24.143,17.115 24.162,17.122 24.174,17.134 L29.628,20.501 C29.983,20.718 30.095,21.189 29.883,21.552 ZM13.947,15.651 C12.782,15.651 11.691,15.187 10.862,14.347 C9.161,12.609 9.161,9.789 10.862,8.052 C11.685,7.211 12.782,6.747 13.947,6.747 C15.112,6.747 16.203,7.211 17.032,8.052 C18.733,9.789 18.733,12.609 17.032,14.347 C16.203,15.187 15.112,15.651 13.947,15.651 ZM15.973,9.134 C15.430,8.580 14.714,8.274 13.947,8.274 C13.180,8.274 12.464,8.580 11.922,9.134 C10.806,10.273 10.806,12.132 11.922,13.271 C12.464,13.825 13.180,14.130 13.947,14.130 C14.714,14.130 15.430,13.825 15.973,13.271 C17.088,12.132 17.088,10.273 15.973,9.134 ZM8.830,6.950 C7.920,6.950 7.067,6.588 6.425,5.932 C5.097,4.576 5.097,2.374 6.425,1.018 C7.067,0.363 7.920,0.000 8.830,0.000 C9.740,0.000 10.594,0.363 11.236,1.018 C12.563,2.374 12.563,4.576 11.236,5.932 C10.594,6.594 9.734,6.950 8.830,6.950 ZM10.176,2.100 C9.815,1.731 9.335,1.528 8.824,1.528 C8.313,1.528 7.833,1.731 7.472,2.100 C6.730,2.858 6.730,4.099 7.472,4.856 C7.833,5.226 8.313,5.429 8.824,5.429 C9.335,5.429 9.815,5.226 10.176,4.856 C10.918,4.093 10.918,2.858 10.176,2.100 ZM10.264,19.267 C10.083,19.649 9.634,19.808 9.267,19.623 C9.223,19.604 5.191,17.618 3.290,16.759 C2.747,16.511 2.293,16.511 1.900,16.759 C1.887,16.765 1.881,16.772 1.869,16.778 L12.034,24.384 C12.757,24.925 13.673,25.148 14.552,25.008 L23.620,23.531 C23.831,23.499 24.050,23.557 24.218,23.697 L26.511,25.651 C26.829,25.918 26.873,26.402 26.605,26.726 C26.455,26.905 26.243,27.000 26.031,27.000 C25.863,27.000 25.695,26.943 25.552,26.822 L23.520,25.090 L14.782,26.516 C13.511,26.726 12.183,26.395 11.142,25.619 L0.298,17.510 C0.005,17.281 -0.088,16.867 0.093,16.530 C0.523,15.728 1.863,14.448 3.894,15.365 C5.814,16.237 9.871,18.229 9.915,18.248 C10.289,18.433 10.444,18.885 10.264,19.267 Z" class="cls-1"/>
</svg>
