<svg
        xmlns="http://www.w3.org/2000/svg"
        xmlns:xlink="http://www.w3.org/1999/xlink"
        width="105px" height="40px">
  <path fill-rule="evenodd"  fill="rgb(46, 75, 79)"
        d="M90.584,26.516 L90.140,26.104 L90.939,26.517 L90.584,26.516 ZM91.213,17.481 L90.916,16.910 L91.968,17.935 L91.213,17.481 ZM88.122,20.246 C88.167,20.277 88.196,20.317 88.207,20.365 C88.186,20.433 86.743,19.711 86.634,19.654 C86.357,19.422 85.780,19.059 86.244,19.206 C86.994,19.419 87.329,20.139 88.122,20.246 ZM86.244,19.206 C85.780,19.059 86.784,19.359 86.244,19.206 ZM104.992,36.473 L104.464,36.001 C104.407,36.838 104.330,38.009 103.731,38.767 C103.245,39.382 102.194,39.173 101.586,39.018 C99.989,38.610 98.626,37.763 97.081,37.257 C92.777,35.846 88.521,34.398 84.006,33.412 C85.347,33.731 86.982,34.125 88.009,34.925 C87.430,34.683 86.790,34.522 86.177,34.345 C85.864,34.253 85.551,34.164 85.240,34.072 C85.186,34.054 84.585,33.837 84.563,33.850 C84.601,33.830 84.972,33.856 85.836,34.026 C85.115,33.785 84.373,33.671 83.591,33.590 C82.669,33.494 81.790,33.336 80.894,33.161 C81.103,33.091 81.374,33.118 81.588,33.112 C81.638,33.110 82.216,33.110 82.005,32.999 C81.264,32.857 80.521,32.722 79.773,32.598 C79.214,32.505 78.481,32.508 77.984,32.288 C77.393,32.027 77.238,31.288 77.165,30.743 C77.057,29.952 77.110,29.124 77.260,28.313 C77.369,27.726 77.509,27.045 77.902,26.512 C77.966,26.420 78.021,26.351 78.035,26.314 C77.646,26.693 77.527,27.117 77.395,27.456 C77.059,28.437 76.876,29.487 76.888,30.473 C76.898,31.319 77.072,32.529 78.182,32.700 C78.277,32.723 78.452,32.760 78.673,32.806 C78.497,32.802 78.320,32.803 78.147,32.784 C77.096,32.733 76.835,31.760 76.839,30.972 C76.656,30.263 76.515,29.569 76.578,28.813 C76.674,28.864 77.047,27.696 77.089,27.576 C77.262,27.098 77.474,26.503 77.949,26.156 C78.125,26.017 78.331,26.036 78.465,26.072 C78.605,26.100 78.708,26.125 78.757,26.148 L78.860,26.062 C79.226,26.165 79.590,26.183 79.954,26.201 L80.986,26.247 C83.112,26.765 81.174,26.490 80.146,26.503 C80.876,26.625 81.601,26.757 82.325,26.896 C82.722,26.871 83.694,26.981 84.975,27.235 C84.614,27.283 84.770,27.370 85.169,27.487 C86.575,27.807 87.967,28.167 89.343,28.560 C88.893,28.361 88.503,28.164 88.184,28.026 C90.689,28.526 89.349,28.583 91.795,29.258 C91.704,29.248 91.621,29.230 91.534,29.217 C92.680,29.589 93.824,29.964 94.966,30.342 C95.530,30.476 96.098,30.614 96.602,30.756 C96.438,30.645 96.299,30.555 96.176,30.476 L94.623,30.056 L95.170,30.081 L96.043,30.391 C95.515,30.046 95.193,29.816 93.567,28.444 C94.174,28.811 94.701,29.272 95.239,29.710 C95.499,29.921 95.747,30.152 96.032,30.342 C96.174,30.436 96.325,30.484 96.243,30.266 C95.511,29.566 94.743,28.894 93.982,28.219 C93.053,27.490 92.089,26.793 91.071,26.130 C90.868,26.069 90.710,26.041 90.607,26.052 C90.574,25.962 90.414,25.781 90.135,25.542 C88.080,24.294 85.876,23.228 83.606,22.266 C82.812,21.963 82.623,21.882 82.631,21.861 C81.397,21.357 80.136,20.898 78.887,20.419 C78.551,20.362 78.177,20.293 77.686,20.167 C77.652,20.106 77.772,20.082 77.700,20.010 C77.231,19.848 76.766,19.679 76.294,19.524 C75.710,19.466 75.193,19.457 73.869,19.165 C74.380,19.226 74.822,19.196 75.355,19.238 C74.825,19.072 74.295,18.907 73.762,18.753 C73.469,18.732 73.079,18.686 71.990,18.272 L71.994,18.274 C67.967,17.212 63.805,16.437 59.562,15.948 C53.912,15.299 48.114,15.135 42.299,15.358 C39.336,15.473 36.353,15.702 33.383,16.027 C30.755,16.316 27.996,16.558 25.425,17.386 C25.351,17.274 25.582,17.167 25.962,17.058 C25.150,17.190 24.336,17.327 23.520,17.472 C23.088,17.629 22.343,17.826 20.951,18.112 C20.752,18.095 20.486,18.092 20.173,18.106 C18.615,18.419 17.058,18.763 15.507,19.136 C15.366,19.315 15.208,19.488 13.756,19.746 C14.604,19.500 14.482,19.456 14.371,19.417 C13.536,19.627 12.702,19.844 11.875,20.074 C12.063,20.128 12.981,19.991 11.226,20.423 C11.501,20.283 11.590,20.205 11.549,20.168 C9.030,20.875 6.534,21.680 4.081,22.613 C3.150,22.968 2.241,22.099 1.761,21.604 C1.049,20.866 0.444,19.973 0.131,19.013 C0.044,18.748 -0.074,18.388 0.064,18.094 C0.153,17.902 0.388,17.862 0.585,17.787 C1.135,17.581 1.690,17.382 2.245,17.185 C2.268,17.111 2.252,17.045 2.303,16.962 C2.290,16.982 2.278,17.001 2.303,16.961 C2.330,16.918 2.317,16.939 2.304,16.960 C2.477,16.684 3.018,16.526 3.320,16.418 C3.724,16.272 4.141,16.162 4.554,16.051 C5.254,15.935 4.862,16.189 4.833,16.317 C10.615,14.468 16.695,13.125 22.637,12.178 C23.242,11.984 24.218,11.714 24.109,11.592 L21.810,12.126 C21.848,11.988 22.505,11.861 22.617,11.832 C23.117,11.696 23.622,11.580 24.126,11.477 C24.356,11.434 26.392,10.973 26.461,11.249 C26.366,11.194 26.766,11.064 26.541,11.030 C27.788,10.946 29.365,10.481 30.011,10.615 C29.609,10.665 29.191,10.706 28.794,10.815 C28.744,10.829 28.536,10.892 28.668,10.933 C29.189,11.095 29.979,10.960 30.538,10.914 C29.673,10.986 28.807,11.074 27.942,11.184 C27.517,11.240 27.094,11.305 26.672,11.393 C26.464,11.436 26.156,11.474 25.977,11.600 C26.867,11.455 26.975,11.484 26.794,11.573 C27.562,11.471 28.332,11.375 29.103,11.285 C29.180,11.269 29.261,11.253 29.346,11.237 L29.313,11.262 C30.850,11.085 32.387,10.956 33.925,10.751 L33.299,10.856 C33.314,10.857 33.333,10.857 33.351,10.857 C35.294,10.689 37.234,10.563 39.172,10.482 C39.192,10.475 39.214,10.470 39.236,10.463 L38.794,10.469 C39.487,10.425 40.940,10.309 40.764,10.174 C38.866,10.261 38.874,10.162 38.337,10.082 C38.974,10.087 39.561,9.943 40.193,9.831 C40.844,9.716 41.484,9.776 42.098,9.885 C41.340,9.956 40.585,10.035 39.824,10.126 C40.378,10.103 40.938,10.083 41.483,10.117 C41.924,10.142 42.223,10.258 42.609,10.387 C43.380,10.377 44.152,10.376 44.920,10.383 C46.340,10.190 47.660,10.163 49.040,10.322 C49.423,10.388 49.478,10.446 49.370,10.500 C50.626,10.561 51.877,10.646 53.122,10.747 C53.095,10.746 53.065,10.744 53.037,10.743 C53.505,10.782 53.970,10.824 54.433,10.869 C54.000,10.820 53.560,10.787 53.122,10.747 C53.929,10.781 54.751,10.798 55.566,10.767 C54.686,10.622 53.751,10.638 52.843,10.611 C52.372,10.598 51.894,10.582 51.435,10.519 C51.231,10.491 50.905,10.463 50.784,10.306 C53.041,10.282 50.814,10.393 53.117,10.580 L53.394,10.304 C52.126,10.135 51.245,10.052 50.192,10.076 C50.748,9.987 51.341,10.054 51.884,10.083 C52.783,10.131 53.678,10.201 54.573,10.273 C55.455,10.342 56.327,10.458 57.206,10.539 C57.810,10.596 58.502,10.755 59.132,10.678 C61.012,10.922 63.053,11.238 64.694,11.999 C64.736,11.976 64.794,11.965 64.853,11.951 C64.865,11.961 64.831,11.963 64.857,11.977 C65.769,12.249 66.685,12.510 67.581,12.810 C67.359,12.768 67.136,12.724 66.911,12.690 C68.971,13.133 70.875,13.965 72.861,14.564 C73.357,14.695 73.806,14.785 74.178,14.809 C74.820,14.998 74.528,14.987 74.356,15.037 C76.406,15.686 78.439,16.367 80.414,17.145 C79.937,16.941 79.460,16.738 78.983,16.534 C79.783,16.859 80.568,17.195 81.478,17.281 C81.761,17.308 82.021,17.415 82.264,17.518 C82.903,17.786 83.510,18.104 84.116,18.417 C83.851,18.446 83.718,18.482 83.665,18.546 C85.127,19.230 86.550,19.973 87.922,20.772 C88.179,20.892 88.431,21.010 88.689,21.130 L89.530,21.526 C91.490,22.494 93.327,23.632 95.158,24.761 C94.958,24.655 94.738,24.584 94.541,24.676 C94.189,24.839 93.352,24.082 93.162,23.952 C94.633,25.034 95.990,26.218 97.330,27.418 C97.143,27.139 96.960,26.859 96.778,26.577 C96.592,26.437 96.379,26.268 96.123,26.054 C95.365,25.340 96.026,25.847 96.615,26.324 C96.182,25.658 95.738,24.981 95.315,24.430 C95.564,24.483 96.690,25.940 96.746,25.877 C96.203,24.943 95.640,24.030 95.184,23.052 C94.738,22.098 94.296,21.229 93.444,20.523 C93.452,20.357 93.472,20.092 93.753,20.307 C93.419,19.787 93.087,19.261 92.753,18.734 C92.591,18.516 92.460,18.314 92.369,18.133 C91.918,17.422 91.463,16.710 91.002,16.001 C90.699,15.707 90.560,15.707 90.141,15.730 C89.823,15.749 89.581,15.432 89.411,15.247 C88.840,14.620 88.364,13.914 87.874,13.234 C87.564,12.434 89.541,14.659 88.021,12.558 L87.573,12.485 C87.650,12.357 87.408,12.081 87.349,11.993 C87.154,11.698 86.935,11.417 86.716,11.138 C86.179,10.454 85.612,9.789 85.054,9.119 C85.662,9.837 86.318,10.517 86.925,11.235 C87.308,11.685 87.705,12.128 88.102,12.570 C88.303,12.791 88.508,13.084 88.789,13.235 C87.877,12.104 87.031,10.931 86.144,9.784 C85.701,9.208 85.268,8.625 84.783,8.076 C84.289,7.516 83.715,6.999 83.282,6.400 C83.004,5.974 82.840,5.492 82.726,5.000 C82.878,5.650 83.241,6.208 83.835,6.585 C82.695,5.299 82.978,3.094 83.646,1.468 C83.860,0.951 84.225,0.244 84.766,0.808 C85.743,1.824 86.667,2.880 87.556,3.959 C87.588,3.807 87.945,4.016 87.846,3.816 L88.149,4.441 C89.120,5.137 89.371,5.798 89.838,5.654 C91.915,8.430 93.809,11.317 95.611,14.254 C97.532,17.389 99.411,20.566 101.002,23.867 C100.320,22.948 98.441,19.871 99.120,21.597 C99.169,21.680 99.213,21.765 99.261,21.848 C100.377,23.115 101.208,24.624 101.919,26.116 C102.606,27.558 103.256,29.055 103.604,30.622 C103.370,30.034 103.163,29.686 102.972,29.479 C103.375,30.447 103.753,31.416 104.032,32.403 C104.062,32.457 104.091,32.506 104.118,32.549 C104.095,32.528 104.082,32.533 104.076,32.557 C104.345,33.552 104.510,34.568 104.485,35.618 L104.992,36.473 ZM82.102,33.019 C82.728,33.230 82.196,33.211 83.449,33.471 L83.790,33.365 C83.230,33.244 82.667,33.128 82.102,33.019 ZM61.644,11.602 C61.076,11.592 60.460,11.563 59.812,11.513 C59.966,11.526 60.181,11.543 59.788,11.512 C59.661,11.502 59.692,11.504 59.762,11.510 C59.368,11.478 58.977,11.433 58.586,11.385 C59.621,11.535 60.649,11.701 61.672,11.884 C62.147,11.903 62.357,11.810 61.644,11.602 ZM61.705,11.889 C62.154,11.970 62.602,12.052 63.049,12.139 C62.774,12.050 62.409,11.962 61.705,11.889 ZM94.683,25.444 C94.332,25.139 94.095,24.938 94.095,24.938 C94.225,25.079 94.328,25.195 94.413,25.294 C95.192,25.925 95.957,26.569 96.716,27.220 C96.045,26.621 95.363,26.033 94.683,25.444 ZM88.009,34.925 C88.155,34.988 88.230,35.036 88.190,35.062 C88.153,35.019 88.068,34.971 88.009,34.925 ZM90.492,26.103 C90.511,26.072 90.552,26.057 90.607,26.052 C90.629,26.113 90.595,26.135 90.492,26.103 ZM73.869,19.165 C73.609,19.135 73.341,19.072 73.013,18.983 C73.368,19.050 73.597,19.108 73.869,19.165 ZM26.541,11.030 C26.378,11.039 26.210,11.044 26.059,11.033 C26.318,11.018 26.462,11.018 26.541,11.030 ZM34.948,10.597 C35.433,10.528 35.908,10.459 35.908,10.459 C35.284,10.581 34.611,10.660 33.925,10.751 C34.256,10.694 34.584,10.649 34.915,10.601 C35.217,10.558 35.061,10.581 34.948,10.597 ZM34.948,10.597 C34.937,10.598 34.926,10.600 34.915,10.601 C34.818,10.615 34.874,10.607 34.948,10.597 ZM38.695,10.470 L38.794,10.469 C38.426,10.492 38.260,10.497 38.695,10.470 ZM38.337,10.082 C38.024,10.081 37.656,10.055 37.194,10.020 C37.802,10.010 38.111,10.052 38.337,10.082 ZM65.147,11.907 C65.033,11.913 64.936,11.927 64.853,11.951 C64.790,11.890 64.899,11.879 65.147,11.907 ZM66.348,11.867 C68.298,12.505 66.054,12.011 65.147,11.907 C65.765,11.875 66.626,12.061 66.348,11.867 ZM78.917,16.507 C78.939,16.516 78.962,16.525 78.983,16.534 C78.976,16.532 78.970,16.531 78.967,16.528 C78.947,16.519 78.936,16.515 78.917,16.507 ZM78.917,16.507 C78.838,16.475 78.758,16.442 78.672,16.407 C78.672,16.407 78.776,16.446 78.917,16.507 ZM95.158,24.761 C95.316,24.845 95.462,24.950 95.570,25.015 C95.433,24.930 95.295,24.845 95.158,24.761 ZM87.370,12.452 L87.573,12.485 C87.554,12.524 87.494,12.521 87.370,12.452 ZM86.056,1.270 C86.613,1.817 87.186,2.350 87.724,2.911 C87.801,3.067 87.879,3.228 88.092,3.445 C88.092,3.445 87.628,2.926 87.164,2.407 C86.610,1.838 86.056,1.270 86.056,1.270 ZM83.724,0.256 C83.030,0.882 82.769,1.839 82.581,2.626 C82.745,1.918 82.787,1.247 83.295,0.604 C83.295,0.604 83.468,0.402 83.665,0.249 C83.802,0.142 83.955,0.048 84.122,-0.008 C84.122,-0.008 83.920,0.067 83.724,0.256 ZM82.581,2.626 C82.571,2.662 82.562,2.697 82.553,2.737 C82.553,2.737 82.563,2.694 82.581,2.626 ZM83.665,0.249 C83.468,0.402 83.764,0.171 83.665,0.249 ZM82.733,6.749 C82.733,6.749 82.638,6.569 82.495,6.298 C82.453,6.197 82.461,6.209 82.482,6.248 C82.174,5.489 82.075,4.650 82.122,3.812 C82.156,4.363 82.241,4.917 82.419,5.432 C82.470,5.609 82.527,5.725 82.527,5.725 C82.527,5.725 82.545,5.977 82.588,6.233 C82.661,6.491 82.733,6.749 82.733,6.749 ZM79.129,15.865 C78.375,15.646 77.632,15.416 76.950,15.164 L76.639,14.771 C78.576,15.469 82.565,16.952 83.952,17.391 C86.726,18.756 84.188,17.706 84.478,18.003 C82.983,16.936 80.950,16.453 79.129,15.865 ZM52.678,9.578 C53.495,9.357 55.217,9.918 55.677,9.724 L57.462,10.016 C57.462,10.016 56.271,9.889 55.078,9.762 C54.286,9.676 53.479,9.635 52.678,9.578 ZM49.299,9.569 C48.498,9.611 47.701,9.611 46.901,9.641 C47.985,9.512 48.505,9.466 49.251,9.331 C49.077,9.322 47.846,9.350 47.809,9.256 C48.755,9.210 49.698,9.232 50.639,9.225 C50.891,9.459 49.434,9.562 49.299,9.569 ZM45.408,9.669 C45.888,9.660 46.395,9.651 46.901,9.641 C46.396,9.696 45.890,9.763 45.408,9.669 ZM45.408,9.669 C45.041,9.673 44.688,9.677 44.375,9.680 C44.931,9.543 45.109,9.615 45.408,9.669 ZM31.106,10.368 L33.095,9.762 C31.988,9.833 32.696,9.727 33.207,9.606 C33.298,9.778 34.064,10.235 31.106,10.368 ZM15.043,13.267 C16.082,13.030 14.525,13.389 15.043,13.267 ZM12.032,13.908 C13.980,13.438 15.935,12.747 17.917,12.549 C17.095,12.750 16.082,13.030 15.043,13.267 C14.045,13.503 13.036,13.729 12.032,13.908 ZM69.640,18.082 L67.575,17.575 C67.863,17.575 68.151,17.586 68.438,17.594 L69.640,18.082 ZM71.842,18.875 L71.219,18.761 L72.074,18.812 C72.582,18.956 72.345,19.019 71.842,18.875 ZM90.912,35.594 C91.001,35.672 91.762,35.937 91.728,36.041 L92.905,36.490 C92.905,36.490 92.092,36.281 91.278,36.072 C90.462,35.882 89.646,35.693 89.646,35.693 L90.733,35.715 C90.542,35.620 89.924,35.487 89.617,35.423 L90.912,35.594 ZM91.513,35.673 L90.912,35.594 C90.858,35.551 90.981,35.557 91.513,35.673 ZM91.278,36.072 C92.092,36.281 90.462,35.882 91.278,36.072 ZM97.580,38.009 C95.014,37.164 96.014,37.787 93.429,36.939 L95.235,37.113 L97.580,38.009 ZM103.298,39.746 L103.304,39.745 L103.412,39.715 L103.421,39.713 L103.436,39.707 L103.468,39.694 L103.531,39.671 C103.767,39.651 104.029,39.367 104.185,39.222 C104.354,39.027 104.463,38.850 104.530,38.706 C104.669,38.418 104.713,38.234 104.713,38.234 C104.725,38.216 104.738,38.196 104.751,38.177 C104.757,38.173 104.700,38.510 104.690,38.542 C104.620,38.745 104.522,38.959 104.381,39.142 C104.327,39.220 104.264,39.301 104.172,39.385 L104.045,39.506 C103.909,39.608 103.754,39.707 103.592,39.771 L103.509,39.808 L103.469,39.826 L103.450,39.834 L103.448,39.835 L103.317,39.871 L103.310,39.872 L103.296,39.876 C103.085,39.922 102.877,39.958 102.665,39.996 C102.665,39.996 102.354,39.975 102.091,39.909 C101.916,39.877 101.750,39.816 101.587,39.764 C102.138,39.854 102.719,39.870 103.298,39.746 Z"/>
</svg>