<svg xmlns="http://www.w3.org/2000/svg" xmlns:xlink="http://www.w3.org/1999/xlink" preserveAspectRatio="xMidYMid" width="18" height="17.969" viewBox="0 0 18 17.969">
  <defs>
    <style>
      .cls-1 {
        fill: #478189;
        fill-rule: evenodd;
      }
    </style>
  </defs>
  <path d="M17.781,10.154 L17.762,10.172 C17.614,10.300 17.437,10.367 17.250,10.367 C17.034,10.367 16.851,10.294 16.720,10.154 L9.002,1.876 L1.267,10.075 C1.125,10.227 0.930,10.314 0.734,10.314 C0.537,10.314 0.356,10.229 0.224,10.075 C0.086,9.942 0.007,9.760 -0.000,9.561 C-0.008,9.343 0.074,9.126 0.224,8.967 L8.472,0.202 C8.762,-0.106 9.216,-0.122 9.517,0.204 L12.382,3.267 L12.382,2.063 C12.382,1.624 12.710,1.267 13.113,1.267 C13.531,1.267 13.872,1.624 13.872,2.063 L13.872,4.852 L17.782,9.025 C18.068,9.334 18.067,9.850 17.781,10.154 ZM3.122,8.793 C3.535,8.793 3.871,9.142 3.871,9.571 L3.871,16.397 L6.951,16.397 L6.951,13.664 C6.951,13.238 7.298,12.878 7.710,12.878 L10.297,12.878 C10.693,12.878 11.028,13.238 11.028,13.664 L11.028,16.397 L14.116,16.397 L14.116,9.327 C14.116,8.881 14.445,8.531 14.865,8.531 C15.268,8.531 15.596,8.888 15.596,9.327 L15.596,17.194 C15.596,17.623 15.268,17.972 14.865,17.972 L10.297,17.972 C9.884,17.972 9.547,17.623 9.547,17.194 L9.547,14.461 L8.440,14.461 L8.440,17.194 C8.440,17.623 8.112,17.972 7.710,17.972 L3.122,17.972 C2.719,17.972 2.391,17.623 2.391,17.194 L2.391,9.571 C2.391,9.142 2.719,8.793 3.122,8.793 Z" class="cls-1"/>
</svg>
