<svg xmlns="http://www.w3.org/2000/svg" preserveAspectRatio="xMidYMid" width="77" height="77" viewBox="0 0 77 77">
    <path d="M38.5 77.001C17.27 77.001-.002 59.73-.002 38.5-.002 17.27 17.27-.001 38.5-.001c21.229 0 38.501 17.271 38.501 38.501 0 21.23-17.272 38.501-38.501 38.501zm0-72.507C19.749 4.494 4.493 19.749 4.493 38.5c0 18.751 15.256 34.006 34.007 34.006 18.751 0 34.006-15.255 34.006-34.006 0-18.751-15.255-34.006-34.006-34.006zm0 62.352c-10.08 0-19.484-5.43-24.543-14.171l3.89-2.251c4.258 7.357 12.172 11.927 20.653 11.927 8.481 0 16.394-4.57 20.652-11.927l3.89 2.251C57.983 61.416 48.579 66.846 38.5 66.846zm5.244-48.804h6.992v19.977h-6.992V18.042zm-17.48 0h6.992v19.977h-6.992V18.042z" class="cls-1"/>
</svg>
