<svg xmlns="http://www.w3.org/2000/svg" xmlns:xlink="http://www.w3.org/1999/xlink" preserveAspectRatio="xMidYMid" width="14" height="14" viewBox="0 0 14 14">
  <defs>
    <style>
      .cls-1 {
        fill: #03d6f3;
        fill-rule: evenodd;
      }
    </style>
  </defs>
  <path d="M6.991,-0.008 C7.966,-0.008 8.877,0.177 9.725,0.546 C10.573,0.915 11.313,1.416 11.947,2.050 C12.580,2.683 13.079,3.424 13.444,4.271 C13.808,5.119 13.991,6.026 13.991,6.992 C13.991,7.958 13.808,8.868 13.444,9.720 C13.079,10.572 12.580,11.315 11.947,11.948 C11.313,12.582 10.573,13.081 9.725,13.445 C8.877,13.810 7.966,13.992 6.991,13.992 C6.024,13.992 5.118,13.810 4.270,13.445 C3.422,13.081 2.682,12.582 2.048,11.948 C1.415,11.315 0.914,10.572 0.544,9.720 C0.175,8.868 -0.009,7.958 -0.009,6.992 C-0.009,6.026 0.175,5.119 0.544,4.271 C0.914,3.424 1.415,2.683 2.048,2.050 C2.682,1.416 3.422,0.915 4.270,0.546 C5.118,0.177 6.024,-0.008 6.991,-0.008 L6.991,-0.008 ZM7.825,10.082 L6.157,10.082 L6.157,11.764 L7.825,11.764 L7.825,10.082 ZM7.825,1.947 L6.157,1.947 L6.157,8.660 L7.825,8.660 L7.825,1.947 Z" class="cls-1"/>
</svg>
