<svg xmlns="http://www.w3.org/2000/svg" xmlns:xlink="http://www.w3.org/1999/xlink" preserveAspectRatio="xMidYMid" width="27" height="5" viewBox="0 0 27 5">
  <defs>
    <style>
      .cls-1 {
        fill: #41525f;
        fill-rule: evenodd;
      }
    </style>
  </defs>
  <path d="M24.511,5.011 C23.130,5.011 22.011,3.892 22.011,2.511 C22.011,1.131 23.130,0.011 24.511,0.011 C25.892,0.011 27.011,1.131 27.011,2.511 C27.011,3.892 25.892,5.011 24.511,5.011 ZM13.511,5.011 C12.130,5.011 11.011,3.892 11.011,2.511 C11.011,1.131 12.130,0.011 13.511,0.011 C14.892,0.011 16.011,1.131 16.011,2.511 C16.011,3.892 14.892,5.011 13.511,5.011 ZM2.511,5.011 C1.130,5.011 0.011,3.892 0.011,2.511 C0.011,1.131 1.130,0.011 2.511,0.011 C3.892,0.011 5.011,1.131 5.011,2.511 C5.011,3.892 3.892,5.011 2.511,5.011 Z" class="cls-1"/>
</svg>
