<svg
        xmlns="http://www.w3.org/2000/svg"
        xmlns:xlink="http://www.w3.org/1999/xlink"
        width="64px" height="59px">
  <path fill-rule="evenodd"  fill="rgb(0, 0, 0)"
        d="M58.402,0.007 L48.655,0.007 L44.818,0.007 L5.598,0.007 C2.515,0.007 -0.000,2.591 -0.000,5.758 L-0.000,41.638 C-0.000,44.808 2.515,47.389 5.598,47.389 L30.592,47.389 L30.592,56.074 L18.912,56.074 C18.130,56.074 17.505,56.716 17.505,57.519 C17.505,58.323 18.130,58.965 18.912,58.965 L45.072,58.965 C45.855,58.965 46.479,58.323 46.479,57.519 C46.479,56.716 45.855,56.074 45.072,56.074 L33.392,56.074 L33.392,47.389 L58.389,47.389 C61.471,47.389 63.987,44.808 63.987,41.638 L63.987,5.758 C64.001,2.591 61.485,0.007 58.402,0.007 ZM61.187,41.638 C61.187,43.214 59.937,44.498 58.402,44.498 L5.598,44.498 C4.063,44.498 2.814,43.214 2.814,41.638 L2.814,5.758 C2.814,4.182 4.063,2.897 5.598,2.897 L44.818,2.897 L48.655,2.897 L58.402,2.897 C59.937,2.897 61.187,4.182 61.187,5.758 L61.187,41.638 Z"/>
</svg>