<svg xmlns="http://www.w3.org/2000/svg" xmlns:xlink="http://www.w3.org/1999/xlink" preserveAspectRatio="xMidYMid" width="16.968" height="16.969" viewBox="0 0 16.968 16.969">
  <defs>
    <style>
      .cls-1 {
        fill: #478189;
        fill-rule: evenodd;
      }
    </style>
  </defs>
  <path d="M15.436,4.038 C15.436,2.665 14.307,1.532 12.933,1.532 C11.556,1.532 10.427,2.665 10.427,4.038 L10.427,5.657 L10.505,5.657 L11.315,5.657 C12.203,5.657 12.933,6.382 12.933,7.271 L12.933,15.356 C12.933,16.244 12.203,16.974 11.315,16.974 L1.616,16.974 C0.724,16.974 -0.003,16.244 -0.003,15.356 L-0.003,7.271 C-0.003,6.382 0.724,5.657 1.616,5.657 L8.891,5.657 L8.891,4.038 C8.891,1.777 10.667,-0.004 12.933,-0.004 C15.195,-0.004 16.976,1.777 16.976,4.038 L15.436,4.038 ZM1.616,7.271 L1.616,15.356 L11.315,15.356 L11.315,7.271 L1.616,7.271 ZM6.463,12.932 C5.575,12.932 4.849,12.202 4.849,11.313 C4.849,10.425 5.575,9.699 6.463,9.699 C7.355,9.699 8.082,10.425 8.082,11.313 C8.082,12.202 7.355,12.932 6.463,12.932 Z" class="cls-1"/>
</svg>
