<svg xmlns="http://www.w3.org/2000/svg" xmlns:xlink="http://www.w3.org/1999/xlink" preserveAspectRatio="xMidYMid" width="17" height="25" viewBox="0 0 17 25">
  <defs>
    <style>
      .cls-1 {
        fill: #fcfcfc;
        fill-rule: evenodd;
      }
    </style>
  </defs>
  <path d="M15.559,25.000 L1.441,25.000 C0.646,25.000 -0.000,24.338 -0.000,23.524 L-0.000,11.103 C-0.000,10.289 0.646,9.627 1.441,9.627 L1.986,9.627 L1.986,6.673 C1.986,4.891 2.663,3.215 3.894,1.954 C5.124,0.694 6.760,-0.000 8.500,-0.000 C10.240,-0.000 11.876,0.694 13.106,1.954 C14.337,3.215 15.014,4.891 15.014,6.673 L15.014,9.627 L15.559,9.627 C16.354,9.627 17.000,10.289 17.000,11.103 L17.000,23.524 C17.000,24.338 16.354,25.000 15.559,25.000 ZM13.595,6.673 C13.595,3.795 11.309,1.454 8.500,1.454 C5.690,1.454 3.404,3.795 3.404,6.673 L3.404,9.627 L13.595,9.627 L13.595,6.673 ZM15.581,11.103 C15.581,11.092 15.570,11.081 15.559,11.081 L15.014,11.081 L1.986,11.081 L1.441,11.081 C1.430,11.081 1.419,11.092 1.419,11.103 L1.419,23.524 C1.419,23.535 1.430,23.546 1.441,23.546 L15.559,23.546 C15.570,23.546 15.581,23.535 15.581,23.524 L15.581,11.103 ZM12.285,21.191 C11.274,22.227 9.930,22.798 8.500,22.798 C7.070,22.798 5.726,22.227 4.715,21.191 C3.703,20.156 3.147,18.778 3.147,17.314 C3.147,15.849 3.703,14.471 4.715,13.436 C5.726,12.400 7.070,11.829 8.500,11.829 C9.930,11.829 11.274,12.400 12.285,13.436 C13.296,14.471 13.853,15.849 13.853,17.314 C13.853,18.778 13.296,20.156 12.285,21.191 ZM8.500,13.283 C6.330,13.283 4.566,15.091 4.566,17.314 C4.566,19.536 6.330,21.344 8.500,21.344 C10.669,21.344 12.434,19.536 12.434,17.314 C12.434,15.091 10.669,13.283 8.500,13.283 ZM8.054,19.618 C7.928,19.752 7.751,19.830 7.569,19.832 L7.568,19.832 L7.563,19.832 C7.380,19.832 7.209,19.759 7.080,19.627 L5.678,18.191 C5.412,17.918 5.412,17.475 5.678,17.202 C5.807,17.070 5.978,16.998 6.160,16.998 C6.343,16.998 6.514,17.070 6.643,17.202 L7.553,18.135 L10.229,15.287 C10.357,15.151 10.536,15.073 10.721,15.073 C10.898,15.073 11.066,15.142 11.194,15.268 C11.465,15.535 11.473,15.979 11.212,16.256 L8.054,19.618 Z" class="cls-1"/>
</svg>
