<svg xmlns="http://www.w3.org/2000/svg" xmlns:xlink="http://www.w3.org/1999/xlink" preserveAspectRatio="xMidYMid" width="13" height="16.969" viewBox="0 0 13 16.969">
  <defs>
    <style>
      .cls-1 {
        fill: #03d6f3;
        fill-rule: evenodd;
      }
    </style>
  </defs>
  <path d="M11.360,16.974 L1.633,16.974 C0.739,16.974 0.010,16.244 0.010,15.356 L0.010,7.271 C0.010,6.382 0.739,5.657 1.633,5.657 L2.440,5.657 L2.440,4.038 C2.440,1.777 4.226,-0.004 6.494,-0.004 C8.767,-0.004 10.548,1.777 10.548,4.038 L10.548,5.657 L11.360,5.657 C12.250,5.657 12.983,6.382 12.983,7.271 L12.983,15.356 C12.983,16.244 12.250,16.974 11.360,16.974 ZM9.008,4.038 C9.008,2.665 7.876,1.532 6.494,1.532 C5.117,1.532 3.984,2.665 3.984,4.038 L3.984,5.657 L9.008,5.657 L9.008,4.038 ZM11.360,7.271 L1.633,7.271 L1.633,15.356 L11.360,15.356 L11.360,7.271 ZM6.494,9.699 C7.389,9.699 8.117,10.425 8.117,11.314 C8.117,12.202 7.389,12.932 6.494,12.932 C5.604,12.932 4.875,12.202 4.875,11.314 C4.875,10.425 5.604,9.699 6.494,9.699 Z" class="cls-1"/>
</svg>
