<svg xmlns="http://www.w3.org/2000/svg" xmlns:xlink="http://www.w3.org/1999/xlink" preserveAspectRatio="xMidYMid" width="16.97" height="16.969" viewBox="0 0 16.97 16.969">
  <defs>
    <style>
      .cls-1 {
        fill: #fff;
        fill-rule: evenodd;
      }
    </style>
  </defs>
  <path d="M15.434,4.038 C15.434,2.665 14.305,1.532 12.931,1.532 C11.554,1.532 10.425,2.665 10.425,4.038 L10.425,5.657 L10.504,5.657 L11.313,5.657 C12.201,5.657 12.931,6.382 12.931,7.271 L12.931,15.356 C12.931,16.244 12.201,16.974 11.313,16.974 L1.614,16.974 C0.722,16.974 -0.005,16.244 -0.005,15.356 L-0.005,7.271 C-0.005,6.382 0.722,5.657 1.614,5.657 L8.889,5.657 L8.889,4.038 C8.889,1.777 10.666,-0.004 12.931,-0.004 C15.193,-0.004 16.974,1.777 16.974,4.038 L15.434,4.038 ZM1.614,7.271 L1.614,15.356 L11.313,15.356 L11.313,7.271 L1.614,7.271 ZM6.461,12.932 C5.574,12.932 4.847,12.202 4.847,11.313 C4.847,10.425 5.574,9.699 6.461,9.699 C7.353,9.699 8.080,10.425 8.080,11.313 C8.080,12.202 7.353,12.932 6.461,12.932 Z" class="cls-1"/>
</svg>
