<svg xmlns="http://www.w3.org/2000/svg" width="13" height="16.969" viewBox="0 0 13 16.969">
  <defs>
    <style>
      .cls-1 {
        fill: #478189;
        fill-rule: evenodd;
      }
    </style>
  </defs>
  <path id="Shape_88_copy_5" data-name="Shape 88 copy 5" class="cls-1" d="M90.374,125.9a1.617,1.617,0,1,0-1.619-1.618,1.625,1.625,0,0,0,1.619,1.618h0Zm4.866-7.275H94.428v-1.619a4.054,4.054,0,0,0-8.108,0h1.544a2.512,2.512,0,0,1,5.024,0v1.619H85.513a1.622,1.622,0,0,0-1.624,1.614v8.085a1.626,1.626,0,0,0,1.624,1.618H95.24a1.628,1.628,0,0,0,1.623-1.618V120.24a1.624,1.624,0,0,0-1.623-1.614h0Zm0,9.7H85.513V120.24H95.24v8.085Zm0,0-7.375-8.744H86.32v-2.574h1.544v2.574Z" transform="translate(-83.875 -112.969)"/>
</svg>
