<svg xmlns="http://www.w3.org/2000/svg" width="13" height="16.969" viewBox="0 0 13 16.969">
  <defs>
    <style>
      .cls-1 {
        fill: #03d6f3;
        fill-rule: evenodd;
      }
    </style>
  </defs>
  <path class="cls-1" d="M1353.37,500.9a1.617,1.617,0,1,0-1.61-1.618,1.628,1.628,0,0,0,1.61,1.618h0Zm4.87-7.275h-0.81v-1.619a4.055,4.055,0,0,0-8.11,0h1.54a2.515,2.515,0,0,1,5.03,0v1.619h-7.38a1.622,1.622,0,0,0-1.62,1.614v8.085a1.626,1.626,0,0,0,1.62,1.618h9.73a1.626,1.626,0,0,0,1.62-1.618V495.24a1.622,1.622,0,0,0-1.62-1.614h0Zm0,9.7h-9.73V495.24h9.73v8.085Zm0,0-7.38-8.744h-1.54v-2.574h1.54v2.574Z" transform="translate(-1346.88 -487.969)"/>
</svg>
