<svg
        xmlns="http://www.w3.org/2000/svg"
        xmlns:xlink="http://www.w3.org/1999/xlink"
        width="27px" height="26px">
  <path fill-rule="evenodd" fill="#ffffff"
        d="M24.633,21.049 L14.087,21.049 L14.087,24.729 L19.015,24.729 C19.345,24.729 19.609,25.001 19.609,25.341 C19.609,25.682 19.345,25.954 19.015,25.954 L7.978,25.954 C7.648,25.954 7.385,25.682 7.385,25.341 C7.385,25.001 7.648,24.729 7.978,24.729 L12.906,24.729 L12.906,21.049 L2.362,21.049 C1.061,21.049 -0.000,19.955 -0.000,18.612 L-0.000,3.409 C-0.000,2.067 1.061,0.972 2.362,0.972 L18.907,0.972 L20.526,0.972 L24.639,0.972 C25.939,0.972 27.000,2.067 26.994,3.409 L26.994,18.612 C26.994,19.955 25.933,21.049 24.633,21.049 ZM25.813,3.409 C25.813,2.741 25.286,2.196 24.639,2.196 L20.526,2.196 L18.907,2.196 L2.362,2.196 C1.714,2.196 1.187,2.741 1.187,3.409 L1.187,18.612 C1.187,19.280 1.714,19.824 2.362,19.824 L24.639,19.824 C25.286,19.824 25.813,19.280 25.813,18.612 L25.813,3.409 ZM19.138,12.341 L18.255,12.491 C18.168,12.786 18.046,13.075 17.902,13.355 L18.422,14.091 C18.643,14.405 18.607,14.832 18.338,15.100 L17.555,15.892 C17.409,16.039 17.213,16.124 17.006,16.124 C16.844,16.124 16.685,16.071 16.556,15.976 L15.827,15.451 C15.552,15.599 15.266,15.716 14.969,15.810 L14.820,16.700 C14.757,17.078 14.435,17.356 14.052,17.356 L12.944,17.356 C12.563,17.356 12.241,17.078 12.178,16.700 L12.029,15.810 C11.744,15.719 11.466,15.606 11.200,15.465 L10.462,15.997 C10.331,16.089 10.176,16.142 10.014,16.142 C9.805,16.142 9.611,16.058 9.464,15.910 L8.681,15.121 C8.411,14.851 8.376,14.423 8.597,14.110 L9.115,13.385 C8.967,13.108 8.847,12.819 8.755,12.522 L7.862,12.369 C7.486,12.305 7.213,11.979 7.213,11.596 L7.213,10.480 C7.213,10.093 7.486,9.768 7.862,9.705 L8.734,9.556 C8.823,9.256 8.939,8.968 9.084,8.688 L8.558,7.945 C8.337,7.631 8.374,7.204 8.642,6.933 L9.427,6.143 C9.572,5.994 9.768,5.913 9.976,5.913 C10.138,5.913 10.297,5.963 10.428,6.058 L11.151,6.584 C11.423,6.436 11.709,6.313 12.004,6.220 L12.155,5.320 C12.218,4.940 12.543,4.665 12.923,4.665 L14.029,4.665 C14.410,4.665 14.732,4.940 14.795,5.320 L14.944,6.200 C15.250,6.292 15.547,6.418 15.833,6.568 L16.562,6.043 C16.695,5.947 16.848,5.897 17.012,5.897 C17.219,5.897 17.413,5.979 17.559,6.127 L18.344,6.918 C18.614,7.188 18.647,7.616 18.427,7.929 L17.907,8.664 C18.050,8.938 18.169,9.227 18.262,9.527 L19.146,9.677 C19.519,9.741 19.794,10.068 19.787,10.453 L19.787,11.568 C19.787,11.953 19.515,12.278 19.138,12.341 ZM19.087,10.453 C19.087,10.418 19.062,10.389 19.028,10.382 L17.926,10.195 C17.790,10.173 17.677,10.070 17.643,9.932 C17.542,9.543 17.391,9.168 17.186,8.822 C17.114,8.700 17.118,8.545 17.202,8.431 L17.850,7.513 C17.869,7.484 17.866,7.445 17.841,7.422 L17.060,6.631 C17.040,6.613 17.019,6.611 17.008,6.611 C16.997,6.611 16.983,6.615 16.970,6.624 L16.064,7.281 C15.947,7.363 15.798,7.368 15.676,7.298 C15.324,7.088 14.946,6.931 14.549,6.829 C14.412,6.795 14.311,6.682 14.286,6.540 L14.103,5.436 C14.097,5.402 14.067,5.376 14.034,5.376 L12.928,5.376 C12.894,5.376 12.865,5.402 12.860,5.436 L12.671,6.556 C12.646,6.695 12.545,6.806 12.412,6.843 C12.025,6.945 11.656,7.104 11.313,7.311 C11.191,7.381 11.041,7.377 10.923,7.295 L10.018,6.643 C10.008,6.634 9.995,6.629 9.979,6.629 C9.965,6.629 9.947,6.631 9.929,6.650 L9.147,7.440 C9.123,7.463 9.120,7.504 9.138,7.531 L9.793,8.459 C9.874,8.572 9.882,8.722 9.811,8.845 C9.608,9.193 9.458,9.568 9.362,9.959 C9.328,10.098 9.214,10.200 9.075,10.225 L7.979,10.409 C7.946,10.414 7.922,10.443 7.922,10.480 L7.922,11.596 C7.922,11.630 7.946,11.660 7.979,11.664 L9.091,11.855 C9.228,11.877 9.338,11.982 9.375,12.116 C9.474,12.508 9.632,12.880 9.837,13.225 C9.908,13.346 9.903,13.500 9.821,13.616 L9.175,14.533 C9.157,14.562 9.159,14.598 9.183,14.621 L9.965,15.411 C9.984,15.430 10.004,15.433 10.016,15.433 C10.029,15.433 10.042,15.428 10.055,15.418 L10.975,14.760 C11.034,14.714 11.108,14.694 11.180,14.694 C11.239,14.694 11.302,14.710 11.358,14.741 C11.696,14.937 12.058,15.089 12.435,15.187 C12.570,15.220 12.671,15.333 12.696,15.474 L12.878,16.587 C12.883,16.622 12.912,16.644 12.946,16.644 L14.052,16.644 C14.088,16.644 14.115,16.622 14.121,16.587 L14.309,15.474 C14.329,15.335 14.431,15.220 14.568,15.187 C14.952,15.085 15.324,14.933 15.669,14.726 C15.788,14.654 15.942,14.661 16.056,14.741 L16.968,15.397 C16.976,15.404 16.990,15.410 17.006,15.410 C17.019,15.410 17.037,15.408 17.054,15.387 L17.839,14.598 C17.861,14.574 17.866,14.534 17.846,14.507 L17.197,13.585 C17.116,13.468 17.111,13.318 17.183,13.195 C17.386,12.848 17.539,12.475 17.638,12.084 C17.674,11.950 17.785,11.845 17.922,11.823 L19.026,11.636 C19.060,11.632 19.084,11.603 19.084,11.568 L19.087,11.568 L19.087,10.453 ZM13.502,13.746 C12.004,13.746 10.788,12.518 10.788,11.009 C10.788,9.498 12.004,8.270 13.502,8.270 C14.998,8.270 16.215,9.498 16.215,11.009 C16.215,12.518 14.998,13.746 13.502,13.746 ZM13.502,8.986 C12.394,8.986 11.498,9.893 11.498,11.009 C11.498,12.125 12.394,13.032 13.502,13.032 C14.608,13.032 15.504,12.125 15.504,11.009 C15.504,9.893 14.608,8.986 13.502,8.986 Z"/>
</svg>