<svg xmlns="http://www.w3.org/2000/svg" xmlns:xlink="http://www.w3.org/1999/xlink" preserveAspectRatio="xMidYMid" width="56" height="56" viewBox="0 0 56 56">
  <defs>
    <style>
      .cls-1 {
        fill: #60a1ab;
        fill-rule: evenodd;
      }
    </style>
  </defs>
  <path d="M55.143,51.008 L32.133,27.998 L55.143,4.988 C56.284,3.847 56.284,1.996 55.143,0.854 C54.001,-0.288 52.150,-0.288 51.008,0.854 L27.998,23.863 L4.988,0.854 C3.847,-0.288 1.995,-0.288 0.854,0.854 C-0.288,1.996 -0.288,3.847 0.854,4.988 L23.863,27.998 L0.854,51.008 C-0.288,52.150 -0.288,54.001 0.854,55.143 C1.996,56.284 3.847,56.284 4.988,55.143 L27.998,32.133 L51.008,55.143 C52.150,56.284 54.001,56.284 55.143,55.143 C56.284,54.001 56.285,52.150 55.143,51.008 Z" class="cls-1"/>
</svg>
