<svg xmlns="http://www.w3.org/2000/svg" width="16.97" height="16.969" viewBox="0 0 16.97 16.969">
  <defs>
    <style>
      .cls-1 {
        fill: #03d6f3;
        fill-rule: evenodd;
      }
    </style>
  </defs>
  <path class="cls-1" d="M1352.4,292.9a1.617,1.617,0,1,0-1.61-1.618A1.626,1.626,0,0,0,1352.4,292.9Zm4.85-7.275h-9.7a1.613,1.613,0,0,0-1.61,1.614v8.085a1.617,1.617,0,0,0,1.61,1.618h9.7a1.626,1.626,0,0,0,1.62-1.618V287.24A1.622,1.622,0,0,0,1357.25,285.626Zm0,9.7h-9.7V287.24h9.7v8.085Zm1.62-15.36a4,4,0,0,1,4.04,4.042h-1.54a2.505,2.505,0,1,0-5.01,0v1.619h-1.53v-1.619A4,4,0,0,1,1358.87,279.965Z" transform="translate(-1345.94 -279.969)"/>
</svg>
