<svg
        xmlns="http://www.w3.org/2000/svg"
        xmlns:xlink="http://www.w3.org/1999/xlink"
        width="26px" height="26px">
  <path fill-rule="evenodd"  opacity="0.702" fill="rgb(255, 255, 255)"
        d="M23.727,9.247 C24.008,8.387 24.074,7.471 23.915,6.569 C23.718,5.448 23.187,4.428 22.380,3.620 C21.572,2.813 20.552,2.282 19.431,2.085 C18.528,1.926 17.613,1.991 16.752,2.272 L14.480,-0.000 L-0.000,14.480 L2.272,16.752 C1.991,17.613 1.926,18.528 2.085,19.431 C2.282,20.552 2.813,21.572 3.620,22.380 C4.428,23.187 5.448,23.718 6.569,23.915 C7.472,24.074 8.387,24.009 9.247,23.727 L11.520,26.000 L26.000,11.520 L23.727,9.247 ZM11.520,23.665 L9.634,21.780 L9.116,22.011 C7.657,22.663 5.917,22.341 4.788,21.212 C3.658,20.082 3.337,18.343 3.989,16.884 L4.220,16.365 L2.335,14.480 L14.480,2.335 L16.365,4.220 L16.884,3.989 C18.343,3.337 20.082,3.658 21.212,4.788 C22.342,5.917 22.663,7.657 22.011,9.116 L21.780,9.634 L23.665,11.520 L11.520,23.665 Z"/>
</svg>