<svg
        xmlns="http://www.w3.org/2000/svg"
        xmlns:xlink="http://www.w3.org/1999/xlink"
        width="28px" height="24px">
  <path fill-rule="evenodd" fill="#03d6f3"
        d="M27.435,8.857 L25.274,11.072 L22.167,14.257 L23.016,15.128 C23.753,15.884 23.753,17.114 23.016,17.870 C22.667,18.227 22.215,18.414 21.757,18.433 C21.738,18.903 21.556,19.366 21.208,19.724 C20.858,20.082 20.406,20.268 19.948,20.287 C19.929,20.756 19.748,21.220 19.399,21.578 C19.060,21.925 18.616,22.122 18.140,22.142 C18.121,22.629 17.928,23.085 17.590,23.432 C17.233,23.798 16.757,24.000 16.252,24.000 C15.747,24.000 15.272,23.798 14.915,23.432 L12.607,21.066 L11.644,22.053 C11.318,22.387 10.891,22.554 10.463,22.554 C10.036,22.554 9.608,22.387 9.283,22.053 L8.968,21.731 C8.693,21.449 8.525,21.085 8.487,20.692 C8.105,20.654 7.750,20.482 7.474,20.199 L7.160,19.877 C6.883,19.594 6.716,19.230 6.678,18.837 C6.308,18.799 5.948,18.635 5.665,18.346 L5.351,18.023 C5.075,17.741 4.908,17.377 4.870,16.984 C4.487,16.945 4.132,16.774 3.856,16.491 L3.542,16.169 C3.227,15.846 3.053,15.416 3.053,14.959 C3.053,14.502 3.227,14.072 3.542,13.749 L4.505,12.762 L1.152,9.325 C0.913,9.080 0.913,8.682 1.152,8.437 C1.392,8.191 1.780,8.191 2.019,8.437 L15.781,22.544 C16.041,22.810 16.464,22.809 16.723,22.544 C16.983,22.277 16.983,21.844 16.723,21.578 L13.287,18.056 C13.048,17.811 13.048,17.413 13.287,17.168 C13.527,16.922 13.915,16.922 14.154,17.168 L17.590,20.689 C17.715,20.818 17.883,20.889 18.061,20.889 C18.239,20.889 18.406,20.818 18.532,20.689 C18.792,20.423 18.792,19.990 18.532,19.724 L15.096,16.202 C14.857,15.957 14.857,15.559 15.096,15.314 C15.335,15.068 15.724,15.068 15.963,15.314 L19.399,18.835 C19.658,19.102 20.081,19.102 20.341,18.835 C20.466,18.706 20.536,18.535 20.536,18.353 C20.536,18.170 20.466,17.999 20.341,17.870 L16.905,14.348 C16.666,14.103 16.666,13.705 16.905,13.460 C17.144,13.215 17.532,13.215 17.771,13.460 L21.207,16.982 C21.467,17.248 21.890,17.247 22.149,16.982 C22.409,16.715 22.409,16.282 22.149,16.016 L20.866,14.701 L13.790,7.447 L11.080,7.204 L10.909,8.070 C10.601,9.636 9.109,10.652 7.582,10.337 C6.055,10.021 5.063,8.492 5.371,6.926 L5.649,5.509 C6.198,2.723 8.851,0.912 11.568,1.466 C11.568,1.466 11.569,1.466 11.569,1.466 L17.612,2.575 C17.702,2.320 17.843,2.080 18.042,1.877 L19.333,0.553 C19.681,0.196 20.144,-0.001 20.636,-0.001 C21.128,-0.001 21.591,0.196 21.939,0.553 L27.435,6.187 C28.153,6.923 28.153,8.120 27.435,8.857 ZM5.312,13.712 L4.409,14.637 C4.236,14.815 4.236,15.103 4.409,15.281 L4.723,15.603 C4.896,15.780 5.178,15.780 5.351,15.603 L6.254,14.677 L5.312,13.712 ZM7.120,15.566 L6.218,16.491 C6.044,16.669 6.044,16.957 6.218,17.135 L6.532,17.457 C6.705,17.634 6.987,17.634 7.160,17.457 L8.062,16.531 L7.120,15.566 ZM8.929,17.420 L8.026,18.346 C7.942,18.431 7.896,18.546 7.896,18.667 C7.896,18.789 7.942,18.903 8.026,18.989 L8.340,19.311 C8.513,19.489 8.795,19.489 8.968,19.311 L9.871,18.385 L8.929,17.420 ZM10.738,19.273 L9.835,20.199 C9.662,20.377 9.662,20.665 9.835,20.843 L10.149,21.165 C10.322,21.342 10.604,21.343 10.777,21.165 L11.680,20.240 L10.738,19.273 ZM17.309,3.795 L11.353,2.702 C11.349,2.702 11.344,2.701 11.340,2.700 C9.279,2.274 7.266,3.646 6.851,5.757 L6.572,7.175 C6.488,7.604 6.572,8.041 6.808,8.406 C7.044,8.770 7.405,9.019 7.824,9.105 C8.689,9.284 9.533,8.708 9.708,7.822 L9.986,6.405 C10.044,6.110 10.298,5.901 10.586,5.901 C10.604,5.901 10.622,5.902 10.640,5.903 L14.118,6.215 C14.262,6.228 14.397,6.292 14.498,6.397 L21.300,13.368 L23.974,10.627 L17.309,3.795 ZM26.568,7.075 L21.072,1.441 C20.955,1.321 20.801,1.255 20.636,1.255 C20.471,1.255 20.316,1.321 20.200,1.441 L18.908,2.765 C18.792,2.884 18.728,3.043 18.728,3.211 C18.728,3.381 18.792,3.539 18.908,3.659 L24.841,9.739 L26.568,7.969 C26.685,7.849 26.749,7.691 26.749,7.521 C26.749,7.353 26.685,7.194 26.568,7.075 ZM24.998,8.444 C24.660,8.444 24.385,8.163 24.385,7.816 C24.385,7.469 24.660,7.188 24.998,7.188 C25.336,7.188 25.611,7.469 25.611,7.816 C25.611,8.163 25.336,8.444 24.998,8.444 Z"/>
</svg>