<svg
        xmlns="http://www.w3.org/2000/svg"
        xmlns:xlink="http://www.w3.org/1999/xlink"
        width="26px" height="27px">
  <path fill-rule="evenodd"  opacity="0.702" fill="rgb(255, 255, 255)"
        d="M21.951,22.438 C19.536,24.854 16.326,26.182 12.911,26.182 C9.495,26.182 6.285,24.854 3.870,22.438 C1.455,20.021 0.128,16.810 0.128,13.392 C0.128,9.975 1.455,6.764 3.870,4.347 C6.285,1.931 9.495,0.603 12.911,0.603 C16.326,0.603 19.536,1.931 21.951,4.347 C24.366,6.764 25.693,9.975 25.693,13.392 C25.693,16.810 24.366,20.021 21.951,22.438 ZM12.911,1.909 C6.585,1.909 1.434,7.063 1.434,13.392 C1.434,19.722 6.585,24.876 12.911,24.876 C19.236,24.876 24.388,19.722 24.388,13.392 C24.388,7.063 19.236,1.909 12.911,1.909 ZM11.964,12.739 L13.862,12.739 C15.369,12.739 16.593,13.964 16.593,15.477 C16.593,16.973 15.385,18.192 13.895,18.214 L13.563,18.214 L13.563,19.575 C13.563,19.934 13.270,20.228 12.911,20.228 C12.551,20.228 12.258,19.934 12.258,19.575 L12.258,18.214 L10.452,18.214 C10.093,18.214 9.799,17.920 9.799,17.561 C9.799,17.202 10.093,16.908 10.452,16.908 L13.862,16.908 C14.651,16.908 15.293,16.266 15.293,15.477 C15.293,14.688 14.651,14.046 13.862,14.046 L11.964,14.046 C10.458,14.046 9.228,12.815 9.228,11.308 C9.228,9.800 10.458,8.570 11.964,8.570 L12.263,8.570 L12.263,7.237 C12.263,6.878 12.557,6.584 12.916,6.584 C13.275,6.584 13.569,6.878 13.569,7.237 L13.569,8.570 L15.315,8.570 C15.674,8.570 15.967,8.864 15.967,9.223 C15.967,9.583 15.674,9.877 15.315,9.877 L11.964,9.877 C11.175,9.877 10.534,10.519 10.534,11.308 C10.534,12.097 11.175,12.739 11.964,12.739 Z"/>
</svg>