<svg xmlns="http://www.w3.org/2000/svg" xmlns:xlink="http://www.w3.org/1999/xlink" preserveAspectRatio="xMidYMid" width="6" height="14" viewBox="0 0 6 14">
  <defs>
    <style>
      .cls-1 {
        fill: #478189;
        fill-rule: evenodd;
      }
    </style>
  </defs>
  <path d="M4.000,14.000 L4.000,12.000 L6.000,12.000 L6.000,14.000 L4.000,14.000 ZM4.000,6.000 L6.000,6.000 L6.000,8.000 L4.000,8.000 L4.000,6.000 ZM4.000,-0.000 L6.000,-0.000 L6.000,2.000 L4.000,2.000 L4.000,-0.000 ZM-0.000,12.000 L2.000,12.000 L2.000,14.000 L-0.000,14.000 L-0.000,12.000 ZM-0.000,6.000 L2.000,6.000 L2.000,8.000 L-0.000,8.000 L-0.000,6.000 ZM-0.000,-0.000 L2.000,-0.000 L2.000,2.000 L-0.000,2.000 L-0.000,-0.000 Z" class="cls-1"/>
</svg>
