<svg xmlns="http://www.w3.org/2000/svg" xmlns:xlink="http://www.w3.org/1999/xlink" preserveAspectRatio="xMidYMid" width="19.21" height="19.469" viewBox="0 0 19.21 19.469">
  <defs>
    <style>
      .cls-1 {
        fill: #478189;
        fill-rule: evenodd;
      }
    </style>
  </defs>
  <path d="M0.192,3.617 C0.332,3.758 0.504,3.828 0.707,3.828 L3.590,3.828 L3.590,5.516 C3.590,5.703 3.660,5.867 3.801,6.008 C3.942,6.149 4.113,6.219 4.317,6.219 C4.504,6.219 4.668,6.149 4.809,6.008 C4.949,5.867 5.020,5.703 5.020,5.516 L5.020,0.711 C5.020,0.508 4.949,0.336 4.809,0.196 C4.668,0.055 4.504,-0.015 4.317,-0.015 C4.113,-0.015 3.942,0.055 3.801,0.196 C3.660,0.336 3.590,0.508 3.590,0.711 L3.590,2.399 L0.707,2.399 C0.504,2.399 0.332,2.469 0.192,2.610 C0.051,2.750 -0.019,2.914 -0.019,3.102 C-0.019,3.305 0.051,3.477 0.192,3.617 ZM6.684,3.617 C6.543,3.477 6.473,3.305 6.473,3.102 C6.473,2.914 6.543,2.750 6.684,2.610 C6.824,2.469 6.996,2.399 7.199,2.399 L18.473,2.399 C18.676,2.399 18.848,2.469 18.988,2.610 C19.129,2.750 19.199,2.914 19.199,3.102 C19.199,3.305 19.129,3.477 18.988,3.617 C18.848,3.758 18.676,3.828 18.473,3.828 L7.199,3.828 C6.996,3.828 6.824,3.758 6.684,3.617 ZM18.988,9.219 C19.129,9.360 19.199,9.524 19.199,9.711 C19.199,9.914 19.129,10.086 18.988,10.227 C18.848,10.367 18.676,10.438 18.473,10.438 L15.590,10.438 L15.590,12.125 C15.590,12.313 15.520,12.477 15.379,12.617 C15.238,12.758 15.066,12.828 14.863,12.828 C14.676,12.828 14.512,12.758 14.371,12.617 C14.231,12.477 14.160,12.313 14.160,12.125 L14.160,7.321 C14.160,7.118 14.231,6.946 14.371,6.805 C14.512,6.664 14.676,6.594 14.863,6.594 C15.066,6.594 15.238,6.664 15.379,6.805 C15.520,6.946 15.590,7.118 15.590,7.321 L15.590,9.008 L18.473,9.008 C18.676,9.008 18.848,9.078 18.988,9.219 ZM0.192,10.227 C0.051,10.086 -0.019,9.914 -0.019,9.711 C-0.019,9.524 0.051,9.360 0.192,9.219 C0.332,9.078 0.504,9.008 0.707,9.008 L11.981,9.008 C12.184,9.008 12.356,9.078 12.496,9.219 C12.637,9.360 12.707,9.524 12.707,9.711 C12.707,9.914 12.637,10.086 12.496,10.227 C12.356,10.367 12.184,10.438 11.981,10.438 L0.707,10.438 C0.504,10.438 0.332,10.367 0.192,10.227 ZM18.473,15.617 C18.676,15.617 18.848,15.688 18.988,15.828 C19.129,15.969 19.199,16.133 19.199,16.321 C19.199,16.524 19.129,16.696 18.988,16.836 C18.848,16.977 18.676,17.047 18.473,17.047 L9.824,17.047 L9.824,18.735 C9.824,18.938 9.754,19.110 9.613,19.250 C9.473,19.391 9.309,19.461 9.121,19.461 C8.918,19.461 8.746,19.391 8.606,19.250 C8.465,19.110 8.395,18.938 8.395,18.735 L8.395,13.930 C8.395,13.727 8.465,13.555 8.606,13.414 C8.746,13.274 8.918,13.203 9.121,13.203 C9.309,13.203 9.473,13.274 9.613,13.414 C9.754,13.555 9.824,13.727 9.824,13.930 L9.824,15.617 L18.473,15.617 L18.473,15.617 ZM6.731,15.828 C6.871,15.969 6.942,16.133 6.942,16.321 C6.942,16.524 6.871,16.696 6.731,16.836 C6.590,16.977 6.426,17.047 6.238,17.047 L0.707,17.047 C0.504,17.047 0.332,16.977 0.192,16.836 C0.051,16.696 -0.019,16.524 -0.019,16.321 C-0.019,16.133 0.051,15.969 0.192,15.828 C0.332,15.688 0.504,15.617 0.707,15.617 L6.238,15.617 C6.426,15.617 6.590,15.688 6.731,15.828 Z" class="cls-1"/>
</svg>
