<?xml version="1.0" encoding="utf-8"?>
<!-- Generator: Adobe Illustrator 19.0.0, SVG Export Plug-In . SVG Version: 6.00 Build 0)  -->
<svg version="1.1" id="Layer_1" xmlns="http://www.w3.org/2000/svg" xmlns:xlink="http://www.w3.org/1999/xlink" x="0px" y="0px"
	 viewBox="0.8 1 22.4 22.7" style="enable-background:new 0.8 1 22.4 22.7;" xml:space="preserve">
<style type="text/css">
	.st0{enable-background:new    ;}
	.st1{fill:#c1c9cb;}
</style>
<g class="st0">
	<path class="st1" d="M0.8,4.6C0.8,4.4,0.9,4.2,1,4s0.4-0.2,0.6-0.2H5v-2c0-0.2,0.1-0.4,0.2-0.6S5.6,1,5.8,1c0.2,0,0.4,0.1,0.6,0.2
		s0.2,0.4,0.2,0.6v5.6c0,0.2-0.1,0.4-0.2,0.6S6.1,8.2,5.8,8.2C5.6,8.2,5.4,8.2,5.2,8S5,7.6,5,7.4v-2H1.6C1.4,5.5,1.2,5.4,1,5.2
		S0.8,4.9,0.8,4.6z M1.6,13.2h13.2c0.2,0,0.4-0.1,0.6-0.2s0.2-0.4,0.2-0.6c0-0.2-0.1-0.4-0.2-0.6s-0.4-0.2-0.6-0.2H1.6
		c-0.2,0-0.4,0.1-0.6,0.2s-0.2,0.4-0.2,0.6c0,0.2,0.1,0.4,0.2,0.6S1.4,13.2,1.6,13.2z M8.1,19.2H1.6c-0.2,0-0.4,0.1-0.6,0.2
		S0.8,19.8,0.8,20c0,0.2,0.1,0.4,0.2,0.6s0.4,0.2,0.6,0.2h6.5c0.2,0,0.4-0.1,0.6-0.2s0.2-0.4,0.2-0.6c0-0.2-0.1-0.4-0.2-0.6
		S8.3,19.2,8.1,19.2z M9.2,5.5h13.2c0.2,0,0.4-0.1,0.6-0.2s0.2-0.4,0.2-0.6c0-0.2-0.1-0.4-0.2-0.6s-0.4-0.2-0.6-0.2H9.2
		C9,3.8,8.8,3.9,8.6,4S8.4,4.4,8.4,4.6c0,0.2,0.1,0.4,0.2,0.6S9,5.5,9.2,5.5z M12.3,19.2v-2c0-0.2-0.1-0.4-0.2-0.6s-0.4-0.2-0.6-0.2
		c-0.2,0-0.4,0.1-0.6,0.2s-0.2,0.4-0.2,0.6v5.6c0,0.2,0.1,0.4,0.2,0.6s0.4,0.2,0.6,0.2c0.2,0,0.4-0.1,0.6-0.2s0.2-0.4,0.2-0.6v-2
		h10.1c0.2,0,0.4-0.1,0.6-0.2s0.2-0.4,0.2-0.6c0-0.2-0.1-0.4-0.2-0.6s-0.4-0.2-0.6-0.2H12.3z M22.4,11.5H19v-2
		c0-0.2-0.1-0.4-0.2-0.6s-0.4-0.2-0.6-0.2c-0.2,0-0.4,0.1-0.6,0.2s-0.2,0.4-0.2,0.6v5.6c0,0.2,0.1,0.4,0.2,0.6s0.4,0.2,0.6,0.2
		c0.2,0,0.4-0.1,0.6-0.2s0.2-0.4,0.2-0.6v-2h3.4c0.2,0,0.4-0.1,0.6-0.2s0.2-0.4,0.2-0.6c0-0.2-0.1-0.4-0.2-0.6S22.6,11.5,22.4,11.5z
		"/>
</g>
</svg>
