<svg xmlns="http://www.w3.org/2000/svg" xmlns:xlink="http://www.w3.org/1999/xlink" preserveAspectRatio="xMidYMid" width="26.5" height="26.032" viewBox="0 0 26.5 26.032">
  <defs>
    <style>
      .cls-1 {
        fill: #2e4b4f;
        fill-rule: evenodd;
      }
    </style>
  </defs>
  <path d="M24.418,6.228 C24.309,4.921 23.839,3.791 23.020,2.870 C21.433,1.084 18.599,0.141 14.824,0.141 C13.654,0.141 8.523,0.042 6.592,0.005 C6.155,-0.003 5.886,-0.008 5.858,-0.008 C5.438,-0.008 5.080,0.263 4.989,0.651 L0.001,21.741 C-0.060,21.995 0.005,22.257 0.177,22.461 C0.344,22.659 0.597,22.773 0.870,22.773 L3.862,22.773 L3.330,24.976 C3.269,25.232 3.335,25.505 3.504,25.705 C3.675,25.909 3.928,26.027 4.199,26.027 L12.541,26.027 C12.967,26.027 13.335,25.736 13.416,25.336 L14.422,20.378 L18.123,20.349 L18.202,20.344 C18.271,20.338 25.010,19.670 26.359,12.210 C26.939,9.005 25.646,7.195 24.418,6.228 ZM22.534,8.174 C21.363,14.645 15.791,15.319 15.579,15.343 L10.919,15.394 C10.451,15.394 10.124,15.620 10.045,15.997 L8.976,21.071 L1.987,21.071 L6.567,1.704 L7.095,1.714 C9.245,1.759 13.719,1.851 14.824,1.851 C18.005,1.851 20.434,2.612 21.662,3.995 C22.560,5.004 22.853,6.410 22.534,8.174 ZM5.692,22.773 L9.706,22.773 C10.132,22.773 10.500,22.486 10.581,22.090 L11.650,16.941 L15.622,16.969 L15.698,16.967 C15.769,16.960 22.741,16.198 24.245,8.666 C24.716,9.530 24.836,10.621 24.602,11.919 C23.529,17.848 18.608,18.580 18.077,18.642 L13.679,18.676 C13.257,18.679 12.891,18.970 12.811,19.370 L11.806,24.326 L5.320,24.326 L5.692,22.773 Z" class="cls-1"/>
</svg>
