<svg xmlns="http://www.w3.org/2000/svg" xmlns:xlink="http://www.w3.org/1999/xlink" preserveAspectRatio="xMidYMid" width="30" height="26" viewBox="0 0 30 26">
  <defs>
    <style>
      .cls-1 {
        fill: #fff;
        fill-rule: evenodd;
      }
    </style>
  </defs>
  <path d="M26.762,22.228 L19.230,22.228 L19.230,23.820 C19.230,25.021 18.215,25.999 16.969,25.999 L2.279,25.999 C1.029,25.999 0.012,25.021 0.012,23.820 L0.012,2.169 C0.012,0.967 1.029,-0.011 2.279,-0.011 L13.188,-0.011 L19.230,6.767 L19.230,9.404 L26.762,9.404 C28.580,9.404 30.004,10.773 30.004,12.520 L30.004,19.113 C30.004,20.860 28.580,22.228 26.762,22.228 ZM13.353,2.491 L13.353,5.933 C13.353,6.236 13.712,6.582 14.027,6.582 L16.989,6.582 L13.353,2.491 ZM17.638,8.107 L14.027,8.107 C12.781,8.107 11.766,7.132 11.766,5.933 L11.766,1.520 L2.279,1.520 C1.862,1.520 1.604,1.857 1.604,2.169 L1.604,23.820 C1.604,24.220 1.954,24.468 2.279,24.468 L16.969,24.468 C17.369,24.468 17.638,24.133 17.638,23.820 L17.638,22.228 L10.111,22.228 C8.293,22.228 6.870,20.860 6.870,19.113 L6.870,12.520 C6.870,10.773 8.293,9.404 10.111,9.404 L17.638,9.404 L17.638,8.107 ZM28.412,12.520 C28.412,11.646 27.672,10.935 26.762,10.935 L10.111,10.935 C9.198,10.935 8.456,11.646 8.456,12.520 L8.456,19.113 C8.456,19.989 9.198,20.703 10.111,20.703 L26.762,20.703 C27.672,20.703 28.412,19.989 28.412,19.113 L28.412,12.520 ZM23.147,15.053 L26.088,15.053 L26.088,16.584 L23.147,16.584 L23.147,19.407 L21.559,19.407 L21.559,12.226 L27.068,12.226 L27.068,13.756 L23.147,13.756 L23.147,15.053 ZM18.924,19.407 L15.683,19.407 L15.683,12.226 L18.924,12.226 C20.174,12.226 21.191,13.204 21.191,14.405 L21.191,17.227 C21.191,18.429 20.174,19.407 18.924,19.407 ZM19.599,14.405 C19.599,14.005 19.340,13.756 18.924,13.756 L17.275,13.756 L17.275,17.876 L18.924,17.876 C19.346,17.876 19.599,17.634 19.599,17.227 L19.599,14.405 ZM13.047,16.584 L11.398,16.584 L11.398,19.407 L9.805,19.407 L9.805,12.226 L13.047,12.226 C14.297,12.226 15.314,13.204 15.314,14.405 C15.314,15.606 14.297,16.584 13.047,16.584 ZM13.047,13.756 L11.398,13.756 L11.398,15.053 L13.047,15.053 C13.463,15.053 13.721,14.805 13.721,14.405 C13.721,14.005 13.463,13.756 13.047,13.756 Z" class="cls-1"/>
</svg>
