<svg xmlns="http://www.w3.org/2000/svg" width="24" height="24" viewBox="0 0 24 24">
  <defs>
    <style>
      .cls-1 {
        fill: #fff;
        fill-rule: evenodd;
      }
    </style>
  </defs>
  <path class="cls-1" d="M582.445,405.553a5.291,5.291,0,0,0-7.491,0l-13.735,13.732a0.685,0.685,0,0,0-.2.394l-1.017,7.538a0.684,0.684,0,0,0,.194.578,0.7,0.7,0,0,0,.486.2,0.574,0.574,0,0,0,.092,0l4.541-.614a0.692,0.692,0,0,0-.184-1.371l-3.641.491,0.711-5.257,5.533,5.533a0.7,0.7,0,0,0,.485.205,0.678,0.678,0,0,0,.486-0.205l13.735-13.732a5.29,5.29,0,0,0,0-7.492h0Zm-7.225,1.687,2.306,2.307-12.533,12.535-2.307-2.306Zm-6.99,18.075-2.256-2.256,12.534-12.535,2.255,2.255Zm13.494-13.523-5.517-5.518a3.92,3.92,0,0,1,5.517,5.518h0Zm0,0" transform="translate(-560 -404)"/>
</svg>
