<svg xmlns="http://www.w3.org/2000/svg" xmlns:xlink="http://www.w3.org/1999/xlink" preserveAspectRatio="xMidYMid" width="18.875" height="18.875" viewBox="0 0 18.875 18.875">
  <defs>
    <style>
      .cls-1 {
        fill: #2e4b4f;
        opacity: 0.2;
        fill-rule: evenodd;
      }
    </style>
  </defs>
  <path d="M18.870,14.899 C18.870,14.805 18.870,14.711 18.830,14.617 C18.736,14.336 18.080,14.041 17.812,13.907 C17.048,13.479 16.271,13.063 15.521,12.621 C15.173,12.407 14.744,12.005 14.329,12.005 C13.511,12.005 12.319,14.430 11.595,14.430 C11.234,14.430 10.765,14.095 10.443,13.907 C8.005,12.554 6.317,10.866 4.964,8.428 C4.776,8.106 4.441,7.637 4.441,7.276 C4.441,6.552 6.866,5.360 6.866,4.543 C6.866,4.127 6.464,3.699 6.250,3.350 C5.808,2.600 5.393,1.823 4.964,1.059 C4.830,0.791 4.535,0.135 4.254,0.041 C4.160,0.001 4.066,0.001 3.972,0.001 C3.490,0.001 2.552,0.215 2.110,0.416 C1.454,0.698 1.025,1.448 0.690,2.051 C0.261,2.841 0.007,3.645 0.007,4.543 C0.007,5.789 0.516,6.914 0.931,8.053 C1.226,8.870 1.588,9.660 2.043,10.397 C3.450,12.675 6.196,15.421 8.474,16.828 C9.211,17.283 10.001,17.645 10.818,17.940 C11.957,18.355 13.083,18.864 14.329,18.864 C15.226,18.864 16.030,18.610 16.820,18.181 C17.423,17.846 18.174,17.417 18.455,16.761 C18.656,16.319 18.870,15.381 18.870,14.899 Z" class="cls-1"/>
</svg>
