<svg xmlns="http://www.w3.org/2000/svg" xmlns:xlink="http://www.w3.org/1999/xlink" preserveAspectRatio="xMidYMid" width="18" height="18.781" viewBox="0 0 18 18.781">
  <defs>
    <style>
      .cls-1 {
        fill: #2e4b4f;
        fill-rule: evenodd;
      }
    </style>
  </defs>
  <path d="M15.992,5.590 C15.992,5.421 15.934,5.278 15.816,5.160 C15.699,5.043 15.563,4.985 15.406,4.985 C15.237,4.985 15.094,5.043 14.977,5.160 C14.859,5.278 14.801,5.421 14.801,5.590 L14.801,17.582 L3.199,17.582 L3.199,5.590 C3.199,5.421 3.141,5.278 3.023,5.160 C2.906,5.043 2.763,4.985 2.594,4.985 C2.437,4.985 2.301,5.043 2.184,5.160 C2.066,5.278 2.008,5.421 2.008,5.590 L2.008,18.188 C2.008,18.357 2.066,18.500 2.184,18.617 C2.301,18.735 2.437,18.793 2.594,18.793 L15.406,18.793 C15.563,18.793 15.699,18.735 15.816,18.617 C15.934,18.500 15.992,18.357 15.992,18.188 L15.992,5.590 L15.992,5.590 ZM9.430,16.254 C9.313,16.371 9.169,16.430 9.000,16.430 C8.831,16.430 8.687,16.371 8.570,16.254 C8.453,16.137 8.395,15.994 8.395,15.824 L8.395,5.590 C8.395,5.421 8.453,5.278 8.570,5.160 C8.687,5.043 8.831,4.985 9.000,4.985 C9.169,4.985 9.313,5.043 9.430,5.160 C9.547,5.278 9.605,5.421 9.605,5.590 L9.605,15.824 C9.605,15.994 9.547,16.137 9.430,16.254 ZM12.633,16.254 C12.516,16.371 12.372,16.430 12.203,16.430 C12.034,16.430 11.891,16.371 11.773,16.254 C11.656,16.137 11.598,15.994 11.598,15.824 L11.598,5.590 C11.598,5.421 11.656,5.278 11.773,5.160 C11.891,5.043 12.034,4.985 12.203,4.985 C12.372,4.985 12.516,5.043 12.633,5.160 C12.750,5.278 12.809,5.421 12.809,5.590 L12.809,15.824 C12.809,15.994 12.750,16.137 12.633,16.254 ZM6.227,16.254 C6.109,16.371 5.966,16.430 5.797,16.430 C5.628,16.430 5.484,16.371 5.367,16.254 C5.250,16.137 5.191,15.994 5.191,15.824 L5.191,5.590 C5.191,5.421 5.250,5.278 5.367,5.160 C5.484,5.043 5.628,4.985 5.797,4.985 C5.966,4.985 6.109,5.043 6.227,5.160 C6.344,5.278 6.402,5.421 6.402,5.590 L6.402,15.824 C6.402,15.994 6.344,16.137 6.227,16.254 ZM18.004,3.383 C18.004,3.214 17.945,3.071 17.828,2.953 C17.711,2.836 17.568,2.778 17.398,2.778 L11.402,2.778 L11.969,0.746 C11.995,0.655 12.001,0.564 11.988,0.473 C11.975,0.382 11.936,0.297 11.871,0.219 C11.819,0.154 11.751,0.099 11.666,0.053 C11.581,0.008 11.493,-0.015 11.402,-0.015 L6.598,-0.015 C6.506,-0.015 6.419,0.008 6.334,0.053 C6.249,0.099 6.181,0.154 6.129,0.219 C6.064,0.297 6.025,0.382 6.012,0.473 C5.999,0.564 6.005,0.655 6.031,0.746 L6.598,2.778 L0.602,2.778 C0.432,2.778 0.289,2.836 0.172,2.953 C0.055,3.071 -0.004,3.214 -0.004,3.383 C-0.004,3.552 0.055,3.696 0.172,3.813 C0.289,3.930 0.432,3.989 0.602,3.989 L7.379,3.989 L10.602,3.989 L17.398,3.989 C17.568,3.989 17.711,3.930 17.828,3.813 C17.945,3.696 18.004,3.552 18.004,3.383 L18.004,3.383 L18.004,3.383 L18.004,3.383 L18.004,3.383 L18.004,3.383 L18.004,3.383 L18.004,3.383 L18.004,3.383 L18.004,3.383 L18.004,3.383 ZM7.848,2.778 L7.398,1.176 L10.602,1.176 L10.152,2.778 L7.848,2.778 L7.848,2.778 Z" class="cls-1"/>
</svg>
