<svg xmlns="http://www.w3.org/2000/svg" xmlns:xlink="http://www.w3.org/1999/xlink" preserveAspectRatio="xMidYMid" width="14.406" height="15.063" viewBox="0 0 14.406 15.063">
  <defs>
    <style>
      .cls-1 {
        fill: #478189;
        fill-rule: evenodd;
      }
    </style>
  </defs>
  <path d="M12.781,4.485 C12.781,4.350 12.734,4.235 12.641,4.141 C12.547,4.047 12.438,4.000 12.313,4.000 C12.177,4.000 12.063,4.047 11.969,4.141 C11.875,4.235 11.828,4.350 11.828,4.485 L11.828,14.079 L2.547,14.079 L2.547,4.485 C2.547,4.350 2.500,4.235 2.406,4.141 C2.312,4.047 2.198,4.000 2.062,4.000 C1.937,4.000 1.828,4.047 1.734,4.141 C1.641,4.235 1.594,4.350 1.594,4.485 L1.594,14.563 C1.594,14.698 1.641,14.813 1.734,14.907 C1.828,15.000 1.937,15.047 2.062,15.047 L12.313,15.047 C12.438,15.047 12.547,15.000 12.641,14.907 C12.734,14.813 12.781,14.698 12.781,14.563 L12.781,4.485 L12.781,4.485 ZM7.531,13.016 C7.438,13.110 7.323,13.157 7.188,13.157 C7.052,13.157 6.937,13.110 6.844,13.016 C6.750,12.922 6.703,12.808 6.703,12.672 L6.703,4.485 C6.703,4.350 6.750,4.235 6.844,4.141 C6.937,4.047 7.052,4.000 7.188,4.000 C7.323,4.000 7.438,4.047 7.531,4.141 C7.625,4.235 7.672,4.350 7.672,4.485 L7.672,12.672 C7.672,12.808 7.625,12.922 7.531,13.016 ZM10.094,13.016 C10.000,13.110 9.885,13.157 9.750,13.157 C9.615,13.157 9.500,13.110 9.406,13.016 C9.312,12.922 9.266,12.808 9.266,12.672 L9.266,4.485 C9.266,4.350 9.312,4.235 9.406,4.141 C9.500,4.047 9.615,4.000 9.750,4.000 C9.885,4.000 10.000,4.047 10.094,4.141 C10.187,4.235 10.234,4.350 10.234,4.485 L10.234,12.672 C10.234,12.808 10.187,12.922 10.094,13.016 ZM4.969,13.016 C4.875,13.110 4.760,13.157 4.625,13.157 C4.490,13.157 4.375,13.110 4.281,13.016 C4.188,12.922 4.141,12.808 4.141,12.672 L4.141,4.485 C4.141,4.350 4.188,4.235 4.281,4.141 C4.375,4.047 4.490,4.000 4.625,4.000 C4.760,4.000 4.875,4.047 4.969,4.141 C5.063,4.235 5.109,4.350 5.109,4.485 L5.109,12.672 C5.109,12.808 5.063,12.922 4.969,13.016 ZM14.391,2.719 C14.391,2.584 14.344,2.469 14.250,2.376 C14.156,2.282 14.042,2.235 13.906,2.235 L9.109,2.235 L9.563,0.610 C9.583,0.537 9.588,0.464 9.578,0.391 C9.568,0.318 9.536,0.251 9.484,0.188 C9.443,0.136 9.388,0.092 9.320,0.055 C9.252,0.019 9.182,0.001 9.109,0.001 L5.266,0.001 C5.193,0.001 5.122,0.019 5.055,0.055 C4.987,0.092 4.932,0.136 4.891,0.188 C4.838,0.251 4.807,0.318 4.797,0.391 C4.786,0.464 4.792,0.537 4.812,0.610 L5.266,2.235 L0.469,2.235 C0.333,2.235 0.219,2.282 0.125,2.376 C0.031,2.469 -0.016,2.584 -0.016,2.719 C-0.016,2.855 0.031,2.969 0.125,3.063 C0.219,3.157 0.333,3.204 0.469,3.204 L5.891,3.204 L8.469,3.204 L13.906,3.204 C14.042,3.204 14.156,3.157 14.250,3.063 C14.344,2.969 14.391,2.855 14.391,2.719 L14.391,2.719 L14.391,2.719 L14.391,2.719 L14.391,2.719 L14.391,2.719 L14.391,2.719 L14.391,2.719 L14.391,2.719 L14.391,2.719 L14.391,2.719 ZM6.266,2.235 L5.906,0.954 L8.469,0.954 L8.109,2.235 L6.266,2.235 L6.266,2.235 Z" class="cls-1"/>
</svg>
