<svg
        xmlns="http://www.w3.org/2000/svg"
        xmlns:xlink="http://www.w3.org/1999/xlink"
        width="18px" height="18px">
  <path fill-rule="evenodd"  fill="rgb(46, 75, 79)"
        d="M17.071,10.889 L15.808,11.100 C15.680,11.521 15.507,11.931 15.300,12.326 L16.044,13.371 C16.360,13.815 16.308,14.420 15.924,14.804 L14.804,15.924 C14.593,16.135 14.315,16.252 14.018,16.252 C13.785,16.252 13.559,16.180 13.371,16.045 L12.329,15.300 C11.938,15.507 11.529,15.676 11.104,15.808 L10.889,17.071 C10.799,17.609 10.337,18.000 9.791,18.000 L8.205,18.000 C7.659,18.000 7.197,17.609 7.107,17.071 L6.896,15.808 C6.486,15.680 6.088,15.518 5.708,15.319 L4.651,16.071 C4.463,16.206 4.241,16.278 4.008,16.278 C3.711,16.278 3.433,16.161 3.222,15.951 L2.102,14.830 C1.715,14.447 1.666,13.841 1.982,13.397 L2.722,12.367 C2.512,11.976 2.339,11.566 2.207,11.145 L0.929,10.927 C0.391,10.837 -0.000,10.374 -0.000,9.829 L-0.000,8.246 C-0.000,7.701 0.391,7.238 0.929,7.148 L2.177,6.938 C2.305,6.513 2.470,6.103 2.677,5.708 L1.925,4.651 C1.609,4.208 1.662,3.602 2.045,3.219 L3.170,2.098 C3.377,1.888 3.659,1.771 3.956,1.771 C4.189,1.771 4.414,1.842 4.602,1.978 L5.636,2.722 C6.027,2.512 6.437,2.339 6.859,2.207 L7.076,0.929 C7.167,0.391 7.629,-0.000 8.175,-0.000 L9.758,-0.000 C10.303,-0.000 10.765,0.391 10.855,0.929 L11.066,2.177 C11.506,2.309 11.931,2.485 12.337,2.700 L13.382,1.955 C13.570,1.820 13.792,1.748 14.025,1.748 C14.322,1.748 14.601,1.865 14.811,2.076 L15.932,3.196 C16.319,3.580 16.368,4.185 16.052,4.629 L15.307,5.670 C15.514,6.061 15.683,6.471 15.815,6.896 L17.078,7.111 C17.616,7.201 18.007,7.663 18.000,8.208 L18.000,9.791 C18.000,10.337 17.609,10.799 17.071,10.889 ZM16.996,8.208 C16.996,8.160 16.962,8.118 16.913,8.111 L15.334,7.844 C15.138,7.814 14.977,7.667 14.928,7.471 C14.785,6.919 14.567,6.389 14.273,5.896 C14.172,5.723 14.179,5.505 14.296,5.343 L15.225,4.039 C15.251,3.997 15.247,3.945 15.213,3.910 L14.093,2.790 C14.067,2.764 14.037,2.760 14.022,2.760 C14.003,2.760 13.984,2.767 13.965,2.779 L12.668,3.711 C12.502,3.828 12.288,3.835 12.115,3.734 C11.611,3.437 11.070,3.215 10.502,3.072 C10.307,3.023 10.160,2.861 10.126,2.662 L9.863,1.094 C9.855,1.045 9.814,1.011 9.765,1.011 L8.182,1.011 C8.133,1.011 8.092,1.045 8.084,1.094 L7.813,2.685 C7.780,2.880 7.633,3.038 7.441,3.091 C6.888,3.234 6.358,3.459 5.869,3.753 C5.696,3.854 5.478,3.847 5.313,3.730 L4.016,2.805 C4.001,2.794 3.982,2.786 3.959,2.786 C3.941,2.786 3.914,2.790 3.888,2.816 L2.767,3.937 C2.734,3.971 2.730,4.027 2.756,4.065 L3.692,5.381 C3.809,5.543 3.820,5.757 3.719,5.930 C3.429,6.422 3.215,6.956 3.076,7.509 C3.027,7.705 2.865,7.851 2.666,7.885 L1.098,8.148 C1.049,8.156 1.015,8.197 1.015,8.246 L1.015,9.829 C1.015,9.878 1.049,9.919 1.098,9.927 L2.688,10.198 C2.884,10.231 3.042,10.378 3.095,10.570 C3.237,11.123 3.463,11.653 3.756,12.142 C3.858,12.315 3.850,12.533 3.734,12.698 L2.809,13.995 C2.782,14.037 2.786,14.089 2.820,14.123 L3.941,15.244 C3.967,15.270 3.997,15.274 4.012,15.274 C4.031,15.274 4.050,15.266 4.068,15.255 L5.384,14.319 C5.471,14.255 5.576,14.225 5.678,14.225 C5.764,14.225 5.854,14.247 5.933,14.292 C6.418,14.571 6.937,14.785 7.475,14.924 C7.667,14.973 7.813,15.131 7.847,15.330 L8.111,16.910 C8.118,16.958 8.160,16.992 8.208,16.992 L9.791,16.992 C9.840,16.992 9.881,16.958 9.889,16.910 L10.156,15.330 C10.186,15.135 10.333,14.973 10.528,14.924 C11.081,14.781 11.611,14.563 12.104,14.270 C12.277,14.168 12.495,14.176 12.657,14.292 L13.961,15.221 C13.976,15.232 13.995,15.240 14.018,15.240 C14.037,15.240 14.063,15.236 14.089,15.210 L15.210,14.089 C15.244,14.055 15.247,13.999 15.221,13.961 L14.292,12.653 C14.176,12.488 14.168,12.273 14.270,12.100 C14.563,11.608 14.781,11.077 14.924,10.525 C14.973,10.333 15.131,10.186 15.330,10.152 L16.909,9.889 C16.958,9.882 16.992,9.840 16.992,9.791 L16.996,9.791 L16.996,8.208 ZM9.002,12.882 C6.859,12.882 5.117,11.141 5.117,8.998 C5.117,6.855 6.859,5.114 9.002,5.114 C11.145,5.114 12.886,6.855 12.886,8.998 C12.886,11.141 11.145,12.882 9.002,12.882 ZM9.002,6.129 C7.419,6.129 6.133,7.415 6.133,8.998 C6.133,10.581 7.419,11.867 9.002,11.867 C10.585,11.867 11.871,10.581 11.871,8.998 C11.871,7.415 10.585,6.129 9.002,6.129 Z"/>
</svg>