<?xml version="1.0" encoding="utf-8"?>
<!-- Generator: Adobe Illustrator 19.0.0, SVG Export Plug-In . SVG Version: 6.00 Build 0)  -->
<svg version="1.1" xmlns="http://www.w3.org/2000/svg" xmlns:xlink="http://www.w3.org/1999/xlink" x="0px" y="0px"
	 viewBox="0 0 124 62" style="enable-background:new 0 0 124 62;" xml:space="preserve">
<style type="text/css">
	.st0{fill:#2E4B4F;}
	.st1{enable-background:new    ;}
	.st2{fill-rule:evenodd;clip-rule:evenodd;fill:#0CB8D0;}
	.st3{fill-rule:evenodd;clip-rule:evenodd;fill:#03D6F3;}
</style>
<g id="schooler">
	<g>
		<path class="st0" d="M14.4,49.3H12c0-1.1-0.2-1.8-0.7-2.1c-0.5-0.3-1.6-0.4-3.5-0.4c-1.8,0-2.9,0.1-3.3,0.4c-0.5,0.3-0.7,1-0.7,2
			c0,1.6,0.8,2.5,2.4,2.6l1.9,0.1l2.4,0.1c2.9,0.1,4.4,1.7,4.4,4.5c0,1.8-0.5,3-1.4,3.7s-2.7,1-5.3,1c-2.6,0-4.5-0.3-5.5-0.9
			c-1-0.6-1.5-1.8-1.5-3.5l0-0.9h2.4l0,0.7c0,1,0.3,1.7,0.8,2.1c0.5,0.3,1.6,0.5,3.2,0.5c1.9,0,3.2-0.2,3.8-0.5
			c0.6-0.4,0.9-1.1,0.9-2.3c0-1.7-0.8-2.5-2.3-2.5c-3.6,0-5.9-0.3-7.1-0.9c-1.1-0.6-1.7-1.8-1.7-3.7c0-1.8,0.4-3,1.3-3.6
			c0.9-0.6,2.7-0.9,5.3-0.9c4.3,0,6.4,1.3,6.4,3.8V49.3z"/>
		<path class="st0" d="M29.3,55.3h2.4l0,0.9c0,3.4-2.3,5.1-6.8,5.1c-2.9,0-4.8-0.5-5.7-1.6s-1.4-3.3-1.4-6.6c0-3.1,0.5-5.3,1.4-6.4
			c0.9-1.1,2.8-1.7,5.4-1.7c2.6,0,4.4,0.4,5.4,1.1c1,0.8,1.4,2.2,1.4,4.3h-2.4v-0.4c0-1.2-0.3-2.1-0.9-2.5c-0.6-0.4-1.8-0.6-3.7-0.6
			c-1.8,0-2.9,0.4-3.4,1.2c-0.5,0.8-0.8,2.5-0.8,5.2c0,2.6,0.3,4.3,0.9,5c0.6,0.7,1.9,1.1,4.1,1.1c1.8,0,2.9-0.2,3.4-0.7
			C29.1,58.1,29.3,57,29.3,55.3z"/>
		<path class="st0" d="M37.4,38.3v8.8l0.1,0c0.6-1.5,2.3-2.2,5-2.2c4,0,6.1,1.8,6.1,5.3v0.6V61h-2.4V50.8v-0.4
			c0-2.4-1.2-3.6-3.7-3.6c-2,0-3.3,0.4-4,1.1c-0.7,0.7-1,2.1-1,4.2V61H35V38.3H37.4z"/>
		<path class="st0" d="M59.4,44.9c3,0,4.9,0.5,5.8,1.5c0.9,1,1.3,3.2,1.3,6.6c0,3.4-0.4,5.6-1.3,6.6c-0.9,1-2.8,1.5-5.8,1.5
			c-3,0-4.9-0.5-5.8-1.5s-1.3-3.2-1.3-6.6c0-3.4,0.4-5.6,1.3-6.6S56.4,44.9,59.4,44.9z M59.4,46.8c-2.1,0-3.4,0.3-3.9,1
			c-0.5,0.7-0.8,2.4-0.8,5.2s0.2,4.6,0.8,5.2s1.8,1,3.9,1c2.1,0,3.4-0.3,3.9-1s0.8-2.4,0.8-5.2s-0.2-4.6-0.8-5.2
			C62.8,47.1,61.5,46.8,59.4,46.8z"/>
		<path class="st0" d="M76.9,44.9c3,0,4.9,0.5,5.8,1.5s1.3,3.2,1.3,6.6c0,3.4-0.4,5.6-1.3,6.6s-2.8,1.5-5.8,1.5
			c-3,0-4.9-0.5-5.8-1.5s-1.3-3.2-1.3-6.6c0-3.4,0.4-5.6,1.3-6.6S73.9,44.9,76.9,44.9z M76.9,46.8c-2.1,0-3.4,0.3-3.9,1
			c-0.5,0.7-0.8,2.4-0.8,5.2s0.2,4.6,0.8,5.2s1.8,1,3.9,1c2.1,0,3.4-0.3,3.9-1s0.8-2.4,0.8-5.2s-0.2-4.6-0.8-5.2
			C80.3,47.1,79,46.8,76.9,46.8z"/>
		<path class="st0" d="M90,38.3V61h-2.4V38.3H90z"/>
		<path class="st0" d="M105.4,56.2h2.4l0,0.6c0,1.7-0.5,2.8-1.5,3.5c-1,0.7-2.8,1-5.4,1c-3,0-4.9-0.5-5.8-1.6
			c-0.9-1.1-1.4-3.3-1.4-6.7c0-3.2,0.5-5.3,1.4-6.4s2.8-1.6,5.5-1.6c3,0,4.9,0.5,5.8,1.4c0.9,0.9,1.4,2.9,1.4,6v1.2H96.2
			c0,2.5,0.3,4.1,0.8,4.8c0.5,0.7,1.8,1,3.8,1c1.9,0,3.1-0.2,3.7-0.5c0.6-0.3,0.9-1,0.9-2.1V56.2z M105.4,51.7l0-0.7
			c0-1.7-0.3-2.8-0.9-3.3s-1.8-0.8-3.7-0.8c-1.9,0-3.1,0.3-3.7,0.9c-0.6,0.6-0.9,1.9-0.9,4H105.4z"/>
		<path class="st0" d="M111.7,45.1h2.4l-0.2,1.8l0.1,0c0.9-1.5,2.5-2.2,4.6-2.2c3,0,4.5,1.5,4.5,4.5l0,1.1h-2.3l0-0.4
			c0-0.4,0.1-0.7,0.1-0.8c0-1.6-0.9-2.4-2.7-2.4c-2.6,0-3.9,1.6-3.9,4.8V61h-2.4V45.1z"/>
	</g>
</g>
<g id="Shape_128_1_" class="st1">
	<g id="Shape_128">
		<g>
			<path class="st2" d="M81,1l-18.8,9.1l0.5,1.3l18.8-9.1L81,1z M82.1,3.9L63.2,13l8.8,23.7l17.6-12.5L82.1,3.9z"/>
		</g>
	</g>
</g>
<g id="Shape_128_copy_1_" class="st1">
	<g id="Shape_128_copy">
		<g>
			<path class="st3" d="M60.7,13.9l-20.3,5l7.6,20.3l21.6-1.6L60.7,13.9z M59.6,11l-20.3,5l0.5,1.3l20.3-5L59.6,11z"/>
		</g>
	</g>
</g>
</svg>
