<svg xmlns="http://www.w3.org/2000/svg" xmlns:xlink="http://www.w3.org/1999/xlink" preserveAspectRatio="xMidYMid" width="22" height="16" viewBox="0 0 22 16">
  <defs>
    <style>
      .cls-1 {
        fill: #5ed53a;
        fill-rule: evenodd;
      }
    </style>
  </defs>
  <path d="M21.603,2.207 L19.672,0.375 C19.407,0.124 19.086,-0.002 18.707,-0.002 C18.329,-0.002 18.006,0.124 17.742,0.375 L8.431,9.226 L4.258,5.251 C3.993,5.000 3.671,4.874 3.293,4.874 C2.914,4.874 2.593,5.000 2.327,5.251 L0.397,7.083 C0.132,7.335 -0.000,7.640 -0.000,8.000 C-0.000,8.359 0.132,8.665 0.397,8.916 L5.535,13.792 L7.466,15.624 C7.731,15.876 8.052,16.001 8.431,16.001 C8.809,16.001 9.131,15.876 9.396,15.624 L11.326,13.792 L21.603,4.040 C21.867,3.788 22.000,3.483 22.000,3.123 C22.000,2.764 21.867,2.459 21.603,2.207 L21.603,2.207 Z" class="cls-1"/>
</svg>
