<svg xmlns="http://www.w3.org/2000/svg" xmlns:xlink="http://www.w3.org/1999/xlink" preserveAspectRatio="xMidYMid" width="40" height="29.969" viewBox="0 0 40 29.969">
  <defs>
    <style>
      .cls-1 {
        fill: #00d8e9;
        fill-rule: evenodd;
      }
    </style>
  </defs>
  <path d="M0.460,16.489 C0.153,16.189 0.002,15.735 0.002,15.435 C0.002,15.134 0.153,14.688 0.460,14.389 L2.616,12.287 C3.234,11.685 4.157,11.685 4.772,12.287 L4.925,12.441 L13.391,21.284 C13.699,21.584 14.157,21.584 14.467,21.284 L35.082,0.440 L35.240,0.440 C35.856,-0.152 36.780,-0.152 37.397,0.440 L39.545,2.541 C40.161,3.143 40.161,4.043 39.545,4.642 L14.932,29.535 C14.624,29.835 14.314,29.982 13.849,29.982 C13.391,29.982 13.083,29.835 12.776,29.535 L0.768,16.935 L0.460,16.489 Z" class="cls-1"/>
</svg>
