<svg xmlns="http://www.w3.org/2000/svg" xmlns:xlink="http://www.w3.org/1999/xlink" preserveAspectRatio="xMidYMid" width="17.156" height="20.593" viewBox="0 0 17.156 20.593">
  <defs>
    <style>
      .cls-1 {
        fill: #2e4b4f;
        opacity: 0.2;
        fill-rule: evenodd;
      }
    </style>
  </defs>
  <path d="M17.150,17.029 C17.150,13.505 16.279,9.433 12.769,9.433 C11.684,10.491 10.210,11.148 8.576,11.148 C6.941,11.148 5.468,10.491 4.383,9.433 C0.872,9.433 0.002,13.505 0.002,17.029 C0.002,18.985 1.288,20.579 2.855,20.579 L14.296,20.579 C15.864,20.579 17.150,18.985 17.150,17.029 ZM13.720,5.146 C13.720,2.305 11.416,0.001 8.576,0.001 C5.736,0.001 3.431,2.305 3.431,5.146 C3.431,7.986 5.736,10.290 8.576,10.290 C11.416,10.290 13.720,7.986 13.720,5.146 Z" class="cls-1"/>
</svg>
