<svg xmlns="http://www.w3.org/2000/svg" xmlns:xlink="http://www.w3.org/1999/xlink" preserveAspectRatio="xMidYMid" width="23" height="26" viewBox="0 0 23 26">
  <defs>
    <style>
      .cls-1 {
        fill: #2e4b4f;
        fill-rule: evenodd;
      }
    </style>
  </defs>
  <path d="M-0.003,26.008 L-0.003,-0.003 L22.993,-0.003 L22.993,26.008 L-0.003,26.008 ZM20.760,2.219 L2.231,2.219 L2.231,23.786 L20.760,23.786 L20.760,2.219 ZM8.649,8.015 C8.998,7.826 9.454,7.841 9.788,8.051 L16.133,12.066 C16.456,12.267 16.651,12.616 16.651,13.000 C16.651,13.380 16.452,13.740 16.131,13.940 L9.790,17.952 C9.611,18.064 9.398,18.126 9.189,18.126 C9.008,18.126 8.826,18.080 8.661,17.995 C8.295,17.796 8.071,17.422 8.071,17.015 L8.071,8.990 C8.071,8.584 8.292,8.211 8.649,8.015 ZM10.307,14.991 L13.451,13.001 L10.307,11.013 L10.307,14.991 Z" class="cls-1"/>
</svg>
