<svg xmlns="http://www.w3.org/2000/svg" xmlns:xlink="http://www.w3.org/1999/xlink" preserveAspectRatio="xMidYMid" width="23.031" height="13" viewBox="0 0 23.031 13">
  <defs>
    <style>
      .cls-1 {
        fill: #478189;
        fill-rule: evenodd;
      }
    </style>
  </defs>
  <path d="M22.573,7.712 C21.287,9.322 19.621,10.654 17.756,11.563 C15.855,12.490 13.807,12.973 11.668,12.999 C11.636,13.000 11.562,13.000 11.489,13.000 C11.415,13.000 11.341,13.000 11.310,12.999 C9.171,12.973 7.122,12.490 5.221,11.563 C3.356,10.654 1.691,9.322 0.405,7.712 C-0.165,6.998 -0.165,6.001 0.405,5.288 C1.691,3.677 3.356,2.345 5.221,1.436 C7.122,0.509 9.170,0.026 11.310,0.000 C11.373,-0.001 11.605,-0.001 11.668,0.000 C13.807,0.026 15.855,0.509 17.756,1.436 C19.621,2.346 21.287,3.677 22.573,5.288 C23.142,6.001 23.142,6.998 22.573,7.712 ZM6.129,2.650 C6.052,2.686 5.974,2.722 5.898,2.760 C4.233,3.571 2.747,4.760 1.599,6.197 C1.457,6.375 1.457,6.624 1.599,6.802 C2.747,8.239 4.233,9.428 5.898,10.240 C5.974,10.277 6.052,10.314 6.129,10.350 C5.295,9.241 4.832,7.892 4.832,6.500 C4.832,5.107 5.295,3.758 6.129,2.650 ZM11.489,1.477 C8.654,1.477 6.347,3.730 6.347,6.499 C6.347,9.269 8.654,11.522 11.489,11.522 C14.324,11.522 16.630,9.269 16.630,6.500 C16.630,3.730 14.324,1.477 11.489,1.477 ZM21.378,6.197 C20.231,4.760 18.744,3.571 17.080,2.760 C17.003,2.722 16.926,2.685 16.848,2.649 C17.683,3.758 18.145,5.107 18.145,6.499 C18.145,7.892 17.683,9.241 16.848,10.350 C16.926,10.314 17.003,10.277 17.080,10.240 C18.744,9.428 20.231,8.239 21.378,6.802 C21.520,6.624 21.520,6.375 21.378,6.197 ZM11.489,9.069 C10.038,9.069 8.858,7.916 8.858,6.499 C8.858,5.083 10.038,3.930 11.489,3.930 C12.939,3.930 14.119,5.083 14.119,6.499 C14.119,7.916 12.939,9.069 11.489,9.069 ZM11.489,5.409 C10.873,5.409 10.373,5.898 10.373,6.499 C10.373,7.101 10.873,7.590 11.489,7.590 C11.786,7.590 12.066,7.476 12.277,7.270 C12.488,7.064 12.605,6.790 12.605,6.500 C12.605,5.898 12.104,5.409 11.489,5.409 Z" class="cls-1"/>
</svg>
