<svg xmlns="http://www.w3.org/2000/svg" xmlns:xlink="http://www.w3.org/1999/xlink" preserveAspectRatio="xMidYMid" width="22.718" height="20.031" viewBox="0 0 22.718 20.031">
  <defs>
    <style>
      .cls-1 {
        fill: #478189;
        fill-rule: evenodd;
      }
    </style>
  </defs>
  <path d="M22.295,11.206 C21.025,12.787 19.379,14.095 17.537,14.989 C15.660,15.898 13.636,16.372 11.523,16.398 C11.492,16.398 11.419,16.398 11.346,16.398 C11.273,16.398 11.200,16.398 11.169,16.398 C10.118,16.386 9.091,16.260 8.091,16.028 L9.522,14.605 C10.090,14.819 10.702,14.947 11.346,14.947 C14.146,14.947 16.425,12.735 16.425,10.017 C16.425,9.349 16.285,8.713 16.036,8.132 L17.146,7.029 C17.646,7.941 17.921,8.965 17.921,10.017 C17.921,11.384 17.465,12.708 16.640,13.796 C16.717,13.761 16.794,13.725 16.869,13.688 C18.513,12.891 19.981,11.725 21.116,10.313 C21.256,10.139 21.256,9.895 21.116,9.720 C20.128,8.491 18.878,7.464 17.488,6.689 L18.567,5.617 C19.989,6.463 21.268,7.549 22.295,8.827 C22.858,9.527 22.858,10.506 22.295,11.206 ZM1.265,18.646 L20.030,-0.002 L21.427,1.386 L2.662,20.035 L1.265,18.646 ZM11.346,5.086 C8.545,5.086 6.267,7.298 6.267,10.017 C6.267,10.684 6.407,11.320 6.656,11.901 L5.545,13.005 C5.045,12.092 4.771,11.068 4.771,10.017 C4.771,8.649 5.227,7.325 6.052,6.237 C5.975,6.272 5.899,6.308 5.823,6.345 C4.179,7.142 2.711,8.309 1.576,9.720 C1.436,9.895 1.436,10.139 1.576,10.313 C2.564,11.542 3.814,12.569 5.203,13.344 L4.125,14.416 C2.702,13.570 1.423,12.484 0.397,11.206 C-0.166,10.506 -0.166,9.527 0.397,8.827 C1.667,7.246 3.312,5.939 5.155,5.045 C7.032,4.135 9.056,3.661 11.169,3.636 C11.232,3.635 11.460,3.635 11.523,3.636 C12.573,3.648 13.601,3.773 14.600,4.006 L13.169,5.428 C12.602,5.215 11.990,5.086 11.346,5.086 Z" class="cls-1"/>
</svg>
