<svg xmlns="http://www.w3.org/2000/svg" xmlns:xlink="http://www.w3.org/1999/xlink" preserveAspectRatio="xMidYMid" width="32.812" height="29.343" viewBox="0 0 32.812 29.343">
  <defs>
    <style>
      .cls-1 {
        fill: #2e4b4f;
        fill-rule: evenodd;
      }
    </style>
  </defs>
  <path d="M32.797,1.109 L30.916,7.751 C30.824,8.079 30.550,8.320 30.220,8.365 C30.185,8.370 30.150,8.373 30.115,8.373 C29.822,8.376 29.545,8.221 29.390,7.960 L27.769,5.241 L26.194,7.987 C26.026,8.282 25.703,8.446 25.371,8.407 C25.041,8.367 24.763,8.131 24.665,7.804 L22.672,1.197 C22.534,0.741 22.783,0.258 23.227,0.117 C23.671,-0.023 24.143,0.233 24.280,0.687 L25.709,5.426 L27.029,3.125 C27.178,2.863 27.451,2.702 27.747,2.699 C28.043,2.697 28.319,2.853 28.473,3.113 L29.831,5.391 L31.179,0.628 C31.309,0.170 31.776,-0.093 32.223,0.040 C32.669,0.173 32.926,0.652 32.797,1.109 ZM19.598,7.849 C19.506,8.177 19.232,8.418 18.902,8.463 C18.571,8.508 18.246,8.349 18.072,8.057 L16.451,5.338 L14.876,8.084 C14.726,8.348 14.451,8.508 14.158,8.510 C14.124,8.510 14.089,8.508 14.053,8.504 C13.722,8.465 13.445,8.229 13.346,7.902 L11.353,1.294 C11.216,0.839 11.465,0.356 11.909,0.215 C12.354,0.074 12.825,0.330 12.962,0.785 L14.391,5.524 L15.710,3.222 C15.860,2.961 16.133,2.800 16.429,2.797 C16.725,2.794 17.000,2.951 17.155,3.210 L18.513,5.488 L19.861,0.725 C19.991,0.267 20.458,0.005 20.904,0.137 C21.351,0.271 21.608,0.749 21.478,1.206 L19.598,7.849 ZM12.669,11.971 L25.783,17.202 C26.325,17.418 26.707,17.943 26.755,18.539 C26.801,19.136 26.507,19.716 26.004,20.019 L24.034,21.208 L27.396,24.595 C27.687,24.888 27.850,25.281 27.854,25.701 C27.858,26.121 27.702,26.516 27.416,26.815 L25.428,28.888 C25.140,29.187 24.757,29.354 24.349,29.357 C23.940,29.361 23.554,29.201 23.262,28.907 L19.899,25.519 L18.773,27.559 C18.486,28.079 17.929,28.392 17.342,28.352 C16.760,28.315 16.241,27.932 16.021,27.378 L10.694,14.027 C10.462,13.446 10.589,12.780 11.019,12.332 C11.307,12.033 11.690,11.867 12.098,11.863 C12.294,11.862 12.486,11.898 12.669,11.971 ZM17.461,26.430 L19.514,22.712 L24.333,27.567 L26.108,25.717 L21.289,20.862 L24.881,18.694 L12.386,13.710 L17.461,26.430 ZM8.280,7.946 C8.187,8.274 7.914,8.515 7.584,8.561 C7.253,8.606 6.927,8.447 6.753,8.155 L5.132,5.435 L3.558,8.182 C3.407,8.446 3.133,8.605 2.840,8.607 C2.805,8.608 2.770,8.606 2.735,8.602 C2.404,8.562 2.127,8.326 2.028,7.999 L0.035,1.392 C-0.102,0.936 0.146,0.453 0.591,0.313 C1.035,0.172 1.506,0.427 1.643,0.883 L3.073,5.622 L4.392,3.320 C4.542,3.058 4.815,2.897 5.110,2.894 C5.406,2.892 5.682,3.048 5.836,3.308 L7.195,5.586 L8.543,0.823 C8.673,0.365 9.140,0.102 9.586,0.235 C10.033,0.368 10.290,0.846 10.160,1.304 L8.280,7.946 Z" class="cls-1"/>
</svg>
