<svg id="Layer_1" data-name="Layer 1" xmlns="http://www.w3.org/2000/svg" viewBox="0 0 22 22"><defs><style>.cls-1{fill:#389cd6;}.cls-2{fill:#fff;}</style></defs><title>in</title><g id="_Group_" data-name="&lt;Group&gt;"><path id="_Compound_Path_" data-name="&lt;Compound Path&gt;" class="cls-1" d="M48,37A11,11,0,1,0,59,48,11,11,0,0,0,48,37Z" transform="translate(-37 -37)"/><path id="_Path_" data-name="&lt;Path&gt;" class="cls-2" d="M50.12,46.51a1.84,1.84,0,0,0-1.67.92v0h0V46.64H46.6c0,0.52,0,5.58,0,5.58h1.85V49.1a1.26,1.26,0,0,1,.06-0.45,1,1,0,0,1,1.89.58v3h1.85V49C52.26,47.3,51.34,46.51,50.12,46.51Z" transform="translate(-37 -37)"/><path id="_Path_2" data-name="&lt;Path&gt;" class="cls-2" d="M44.66,43.95a1,1,0,1,0,0,1.93h0A1,1,0,1,0,44.66,43.95Z" transform="translate(-37 -37)"/><rect id="_Path_3" data-name="&lt;Path&gt;" class="cls-2" x="6.72" y="9.64" width="1.85" height="5.58"/></g></svg>