<svg id="Layer_1" data-name="Layer 1" xmlns="http://www.w3.org/2000/svg" viewBox="0 0 22 22"><defs><style>.cls-1{fill:#389cd6;}.cls-2{fill:#fff;}</style></defs><title>twitter</title><g id="Style_3_copy" data-name="Style 3 copy"><path class="cls-1" d="M16,5A11,11,0,1,0,27,16,11,11,0,0,0,16,5Z" transform="translate(-5 -5)"/><path class="cls-2" d="M17.53,11.11a2.53,2.53,0,0,0-1.71,2.55l0,0.43L15.41,14A7.11,7.11,0,0,1,11.25,12l-0.58-.57-0.15.42a2.56,2.56,0,0,0,.54,2.62c0.35,0.37.27,0.42-.33,0.2a1,1,0,0,0-.41-0.1,3.17,3.17,0,0,0,.31,1.19,2.83,2.83,0,0,0,1.2,1.13l0.43,0.2H11.76c-0.49,0-.51,0-0.45.2a2.64,2.64,0,0,0,1.64,1.45l0.54,0.19L13,19.2a4.9,4.9,0,0,1-2.34.65,2.58,2.58,0,0,0-.72.07,6.7,6.7,0,0,0,1.69.78,7.38,7.38,0,0,0,5.74-.65,7.69,7.69,0,0,0,2.91-3.43A9.12,9.12,0,0,0,20.88,14,1,1,0,0,1,21.4,13,5.88,5.88,0,0,0,22,12.34c0.09-.17.08-0.17-0.37,0-0.74.27-.85,0.23-0.48-0.17a2.58,2.58,0,0,0,.59-0.95,0.48,0.48,0,0,0-.28.1,4.8,4.8,0,0,1-.77.3l-0.47.15-0.43-.29a3.57,3.57,0,0,0-.74-0.39A3,3,0,0,0,17.53,11.11Z" transform="translate(-5 -5)"/></g></svg>