<?xml version="1.0" encoding="UTF-8"?>
<!DOCTYPE svg  PUBLIC '-//W3C//DTD SVG 1.1//EN'  'http://www.w3.org/Graphics/SVG/1.1/DTD/svg11.dtd'>
<svg enable-background="new 0 0 300 70" version="1.1" viewBox="0 0 300 70" xml:space="preserve" xmlns="http://www.w3.org/2000/svg">
	<path d="m290.22 58.986s0.405 0.036 0.373 0.328c-0.031 0.291-0.071 0.693-0.071 0.693s0.101 1.074-1.53 0.979c-1.631-0.098-3.967-0.236-3.967-0.236s-0.978 0.036-0.891-0.782c0.086-0.819 0.045-0.425 0.045-0.425l0.096-0.909 5.945 0.352z" fill="#333"/>
	<path d="m257.71 56.553s-0.407-0.012-0.437 0.28c-0.031 0.291-0.074 0.693-0.074 0.693s-0.325 1.05 1.305 1.146c1.631 0.097 3.969 0.236 3.969 0.236s0.957 0.15 1.043-0.669c0.086-0.818 0.044-0.425 0.044-0.425l0.097-0.909-5.947-0.352z" fill="#333"/>
	<path d="m276.31 27.787l-6.37-0.503 0.164-4.116-3.289-0.26-0.97 6.983-3.965 1.722s-1.278 0.258-1.852 2.966l-0.572 2.707s-2.432 14.109-2.774 18.45c0 0-0.223 1.508 1.055 1.608l1.278 0.102 14.813 1.171 0.047 2e-3 14.858 1.174 1.278 0.102c1.279 0.102 1.295-1.423 1.295-1.423 0.343-4.341 0.157-18.657 0.157-18.657s0 0-0.141-2.763c-0.141-2.766-1.361-3.22-1.361-3.22l-3.646-2.323 0.137-7.051-3.288-0.259-0.484 4.09-6.369-0.503-1e-3 1e-3z" fill="#DF9C26"/>
	<path d="m257.77 57.347c-0.88-0.068-1.087-1.61-1.087-1.61l1.839-5.632 31.814 2.513 0.958 6.023s-0.55 1.312-1.281 1.254c-0.729-0.057-1.681-0.132-1.681-0.132l-30.562-2.416z" fill="#C9892B"/>
	<path d="m275.31 39.822l-11.546-0.913-2.974-0.233c-0.869 1.904-2.182 10.956-2.182 10.956-0.41 1.404 0.783 1.438 0.783 1.438l14.935 1.181 0.036 2e-3 14.972 1.183s1.184 0.152 0.999-1.298c0 0 0.124-9.145-0.435-11.163l-2.973-0.236-11.547-0.911-0.068-6e-3z" fill="#E8A223"/>
	<path d="m289.83 41.635c-2e-3 0.117-8e-3 0.235-0.018 0.354-0.395 5.007-7.226 8.554-15.256 7.92-8.029-0.635-14.218-5.21-13.822-10.218 4e-3 -0.061 0.011-0.122 0.018-0.183l0.021-0.184c-0.09 4.872 5.996 9.25 13.84 9.869 7.844 0.62 14.543-2.748 15.219-7.573l-2e-3 0.015z" fill="#C98A2B"/>
	<path d="m276.05 31.058c-9.605-0.759-14.169 1.391-14.169 1.391s-1.552 0.443-2.483 5.159c-0.04 0.206 0.057-0.322 0.057-0.322s0 0 0.571-2.707c0.574-2.707 1.852-2.966 1.852-2.966l3.965-1.722 0.971-6.984 3.288 0.261-0.164 4.116 6.339 0.5 0.034 3e-3 6.369 0.503 0.484-4.09 3.288 0.259-0.137 7.051 3.646 2.323s1.22 0.454 1.361 3.22l0.141 2.763s0.012 0.537 4e-3 0.325c-0.179-4.802-1.642-5.483-1.642-5.483s-4.17-2.842-13.775-3.6z" fill="#BF802B"/>
		<ellipse transform="matrix(.9969 .0787 -.0787 .9969 3.9911 -21.558)" cx="275.36" cy="39.827" rx="14.585" ry="9.396" fill="#F1A71E"/>
		<ellipse transform="matrix(.9969 .0788 -.0788 .9969 4.014 -21.576)" cx="275.38" cy="40.069" rx="9.901" ry="6.769" fill="#8A8A8A"/>
		<ellipse transform="matrix(.9969 .0788 -.0788 .9969 3.9734 -21.564)" cx="275.38" cy="39.591" rx="9.901" ry="6.771" fill="#D2C7C7"/>
		<ellipse transform="matrix(.9969 .0787 -.0787 .9969 3.9293 -21.566)" cx="275.43" cy="39.042" rx="4.862" ry="3.355" fill="#8A8A8A"/>
		<ellipse transform="matrix(.9969 .0787 -.0787 .9969 3.9152 -21.567)" cx="275.43" cy="38.863" rx="4.862" ry="3.355" fill="#fff"/>
	<path d="m280.87 40.271c9e-3 -0.023-0.047 0.023-0.072 0.038 0 0-0.182 0.177 0.17 0.405 0 0 1.952 1.569 2.867 1.629l0.559 0.022s0.427 0.039 0.657 0.372c2e-3 3e-3 4e-3 6e-3 6e-3 0.01 0 0 0.112 0.082 0.064 0.73l-0.053 0.854 0.106 0.063 0.14-1.295s0.06-0.731-0.851-0.851c0 0-0.983 0.016-1.565-0.426 0 0-1.685-0.991-1.962-1.342 1e-3 1e-3 -0.082-0.166-0.066-0.209z" fill="#4D4D4D"/>
	<path d="m285.19 44.147l0.071-0.902c0.072-0.904-0.796-0.982-0.796-0.982l-0.561-0.023c-0.915-0.061-2.867-1.628-2.867-1.628-0.352-0.23-0.169-0.406-0.169-0.406 0.329-0.199 0.456 0.036 0.456 0.036 1.271 1.087 2.067 1.094 2.067 1.094 0.676 0.121 1.952-3e-3 1.952-3e-3 1.227 0.098 1.127 0.729 1.127 0.729l-0.104 1.31-1.112 0.95-0.085 0.072 0.021-0.247z" fill="#EFEEE6"/>
	<path d="m266.81 22.908l3.289 0.26-0.212 6.324s-2.582-0.052-4.047 0.399l0.97-6.983z" fill="#DE9D27"/>
	<path d="m286.44 24.446l-3.289-0.261-0.784 6.28s2.56 0.354 3.936 1.03l0.137-7.049z" fill="#DE9B27"/>
	<ellipse cx="272.44" cy="43.733" rx="1.578" ry=".835" fill="#8A8A8A"/>
		<path d="m270.92 43.947c0.181 0.359 0.795 0.623 1.526 0.623 0.764 0 1.4-0.287 1.547-0.67-0.179-0.359-0.793-0.623-1.525-0.623-0.764 0-1.401 0.287-1.548 0.67z" fill="#fff"/>
	<ellipse transform="matrix(1 .0053 -.0053 1 .2409 -1.4765)" cx="276.41" cy="44.341" rx="1.462" ry=".866" fill="#fff"/>
		<path d="m276.44 43.836c0.68 4e-3 1.248 0.28 1.409 0.654 0.013-0.045 0.021-0.092 0.021-0.14 3e-3 -0.477-0.649-0.867-1.457-0.872-0.807-4e-3 -1.463 0.38-1.467 0.857 0 0.076 0.018 0.148 0.048 0.219 0.116-0.41 0.719-0.721 1.446-0.718z" fill="#8A8A8A"/>
	<ellipse cx="269.25" cy="42.007" rx="1.512" ry=".856" fill="#8A8A8A"/>
		<path d="m267.79 42.227c0.17 0.366 0.759 0.636 1.46 0.636 0.732 0 1.342-0.295 1.481-0.685-0.171-0.367-0.759-0.639-1.46-0.638-0.731 0-1.341 0.295-1.481 0.687z" fill="#fff"/>
	<ellipse cx="267.93" cy="39.486" rx="1.412" ry=".707" fill="#8A8A8A"/>
		<path d="m266.56 39.667c0.16 0.303 0.71 0.526 1.365 0.526 0.684 0 1.253-0.244 1.384-0.567-0.16-0.303-0.71-0.525-1.364-0.525-0.682 0-1.253 0.243-1.385 0.566z" fill="#fff"/>
	<ellipse cx="280.14" cy="43.455" rx="1.46" ry=".886" fill="#8A8A8A"/>
		<path d="m278.73 43.681c0.166 0.379 0.734 0.659 1.41 0.659 0.708-1e-3 1.298-0.306 1.433-0.71-0.166-0.379-0.734-0.659-1.411-0.659-0.707 0-1.296 0.305-1.432 0.71z" fill="#fff"/>
		<ellipse transform="matrix(.9975 -.0702 .0702 .9975 -1.9305 18.94)" cx="268.5" cy="36.936" rx="1.356" ry=".604" fill="#8A8A8A"/>
		<path d="m268.5 36.605c-0.655 0.047-1.188 0.293-1.293 0.576 0.171 0.247 0.71 0.4 1.338 0.356 0.656-0.046 1.187-0.292 1.293-0.576-0.17-0.247-0.711-0.399-1.338-0.356z" fill="#fff"/>
		<ellipse transform="matrix(.998 -.0631 .0631 .998 -1.6691 17.177)" cx="271.04" cy="35.007" rx="1.4" ry=".524" fill="#8A8A8A"/>
		<path d="m271.04 34.721c-0.677 0.043-1.229 0.259-1.343 0.506 0.172 0.215 0.726 0.346 1.374 0.305 0.676-0.044 1.229-0.26 1.343-0.507-0.172-0.214-0.727-0.345-1.374-0.304z" fill="#fff"/>
		<ellipse transform="matrix(.9989 .0477 -.0477 .9989 1.9487 -13.065)" cx="274.65" cy="34.286" rx="1.412" ry=".504" fill="#8A8A8A"/>
		<path d="m273.28 34.35c0.148 0.223 0.69 0.408 1.345 0.44 0.683 0.032 1.26-0.114 1.4-0.338-0.148-0.223-0.689-0.408-1.344-0.439-0.683-0.034-1.26 0.113-1.401 0.337z" fill="#fff"/>
		<ellipse transform="matrix(.9893 .1458 -.1458 .9893 8.0482 -40.242)" cx="278.55" cy="34.783" rx="1.403" ry=".542" fill="#8A8A8A"/>
		<path d="m277.19 34.722c0.123 0.253 0.638 0.504 1.282 0.6 0.67 0.098 1.26-4e-3 1.423-0.229-0.123-0.254-0.638-0.504-1.281-0.599-0.673-0.099-1.26 2e-3 -1.424 0.228z" fill="#fff"/>
		<ellipse transform="matrix(.9799 .1995 -.1995 .9799 12.942 -55.444)" cx="281.61" cy="36.504" rx="1.449" ry=".567" fill="#8A8A8A"/>
		<path d="m280.22 36.366c0.111 0.271 0.628 0.559 1.287 0.694 0.686 0.139 1.298 0.064 1.481-0.161-0.112-0.271-0.629-0.561-1.287-0.694-0.688-0.14-1.3-0.066-1.481 0.161z" fill="#fff"/>
	<path d="m245.75 20.712c-0.101 0.11-0.23 0.231-0.381 0.341-0.412-0.301-0.97-0.512-1.053-0.54l-9e-3 -4e-3 -0.01-2e-3c-0.306-0.074-0.557-0.049-0.744 0.076-0.206 0.139-0.253 0.34-0.263 0.394-0.037 0.149-0.024 0.267 0.01 0.357 0.023 0.064 0.059 0.116 0.093 0.154 0.275 0.313 0.912 0.268 0.983 0.262l-0.018 1e-3c0.372 2e-3 0.698-0.104 0.971-0.253 0.032 0.032 0.063 0.066 0.085 0.101l0.011 0.015 8e-3 9e-3c4e-3 5e-3 0.032 0.037 0.055 0.099 0.055 0.146 0.079 0.452-0.275 0.938-0.038-0.019-0.066-0.031-0.07-0.033-0.539-0.237-1.003-0.287-1.374-0.148-0.364 0.136-0.5 0.4-0.517 0.438-0.11 0.262-0.114 0.478-0.013 0.64 0.127 0.203 0.361 0.228 0.372 0.228 0.839 0.139 1.451-0.409 1.678-0.655 0.155 0.11 0.325 0.272 0.4 0.479 0.028 0.075 0.043 0.155 0.041 0.241 0 3e-3 0 0.086-0.021 0.212-0.498-0.063-0.981 0.174-1.244 0.385-0.271 0.234-0.397 0.466-0.377 0.687 0.026 0.266 0.252 0.394 0.277 0.406l-0.028-0.018c0.429 0.345 1.049-0.217 1.114-0.279 0.26-0.233 0.414-0.496 0.506-0.73 0.112 0.058 0.223 0.143 0.326 0.265 0.012 0.012 0.163 0.172 0.268 0.453 0.024 0.063 0.044 0.135 0.061 0.211-0.063 0.026-0.108 0.051-0.115 0.055l0.02-0.011c-1.003 0.457-1.07 1.053-1.072 1.078l3e-3 -0.023c-0.064 0.274-0.03 0.487 0.101 0.635 0.173 0.193 0.437 0.179 0.451 0.178 0.864 3e-3 0.993-1.244 0.998-1.289 0.019-0.132 0.021-0.256 0.016-0.374 0.208-0.03 0.492-0.013 0.804 0.19 8e-3 5e-3 0.107 0.071 0.183 0.246-0.047 0.023-0.103 0.045-0.142 0.068-0.94 0.424-1.015 1.159-1.017 1.179-0.025 0.174-0.017 0.32 0.028 0.438 0.028 0.081 0.076 0.149 0.14 0.204 0.221 0.188 0.533 0.114 0.568 0.105l-0.025 5e-3c0.712-0.082 0.845-1.055 0.849-1.085 0.057-0.287 0.057-0.517 0.029-0.708 0.295-0.08 0.695-0.087 0.967 0.306 7e-3 0.011 0.069 0.104 0.128 0.244-0.474 0.184-0.767 0.457-0.779 0.471-0.266 0.23-0.395 0.467-0.387 0.698 2e-3 0.066 0.016 0.126 0.035 0.178 0.064 0.17 0.189 0.263 0.2 0.269 0.218 0.182 0.425 0.189 0.56 0.164 0.37-0.069 0.599-0.448 0.618-0.482 0.248-0.374 0.265-0.755 0.206-1.064 0.091-0.02 0.185-0.034 0.283-0.041 0.059-5e-3 0.503-0.025 0.71 0.528 0.028 0.076 0.05 0.167 0.068 0.267-0.691 0.186-0.981 0.634-0.996 0.657l9e-3 -0.014c-0.22 0.296-0.225 0.547-0.16 0.722 0.035 0.094 0.091 0.163 0.143 0.209 0.102 0.109 0.23 0.171 0.375 0.172 0.297 1e-3 0.548-0.249 0.565-0.268 0.406-0.361 0.465-0.89 0.461-1.194 0.028-3e-3 0.052-0.01 0.082-0.012 0.013-2e-3 0.313-0.03 0.702 0.384 3e-3 4e-3 0.038 0.047 0.069 0.133 0.026 0.072 0.049 0.176 0.054 0.307-0.087 9e-3 -0.146 0.023-0.174 0.032-1.035 0.265-1.087 0.974-1.088 0.993-0.017 0.146-4e-3 0.272 0.034 0.378 0.023 0.062 0.056 0.116 0.099 0.164 0.123 0.137 0.277 0.154 0.318 0.157 0.22 0.025 0.417-0.028 0.589-0.158 0.441-0.337 0.537-1.09 0.541-1.122l-4e-3 0.02c8e-3 -0.033 9e-3 -0.061 0.015-0.091 0.145 0.034 0.321 0.105 0.528 0.243 0.015 9e-3 0.229 0.157 0.312 0.382 0.047 0.125 0.053 0.274-0.04 0.438-2e-3 1e-3 -0.04 0.071-0.109 0.176-0.464-0.141-0.82-0.017-0.835-0.011-0.445 0.148-0.719 0.357-0.815 0.62-0.104 0.285 0.042 0.509 0.06 0.534l-0.017-0.031c0.078 0.188 0.212 0.255 0.311 0.278 0.279 0.066 0.579-0.152 0.604-0.172 0.358-0.245 0.63-0.54 0.815-0.779 0.07 0.038 0.142 0.083 0.214 0.141 0.011 9e-3 0.202 0.15 0.298 0.405 0.041 0.108 0.063 0.238 0.048 0.386-2e-3 0.013-0.03 0.226-0.317 0.466-0.057-0.06-0.101-0.098-0.105-0.101-0.479-0.471-1.069-0.301-1.313-0.146-0.22 0.135-0.349 0.286-0.386 0.45-0.022 0.097-7e-3 0.174 0.012 0.226 6e-3 0.014 9e-3 0.016 0.014 0.026 3e-3 8e-3 6e-3 0.018 0.01 0.025 0.048 0.131 0.14 0.229 0.267 0.288 0.317 0.148 0.76-6e-3 0.8-0.021 0.252-0.079 0.451-0.172 0.62-0.268 0.041 0.063 0.079 0.135 0.107 0.209 0.049 0.132 0.065 0.277 0.01 0.418l-4e-3 0.01-2e-3 8e-3c-5e-3 0.02-0.141 0.454-0.75 0.732-0.168-0.255-0.366-0.399-0.385-0.413-0.355-0.23-0.686-0.306-0.98-0.222-0.381 0.108-0.548 0.444-0.55 0.448-0.127 0.229-0.098 0.401-0.051 0.508 0.122 0.274 0.471 0.364 0.51 0.374l-0.028-0.01c0.309 0.129 0.94-0.083 1.299-0.225 0.05 0.147 0.072 0.317 0.036 0.514-5e-3 0.021-0.126 0.57-1.176 0.862-1e-3 1e-3 -0.068 0.016-0.167 0.034-0.014-0.07-0.024-0.144-0.048-0.206-0.159-0.428-0.529-0.672-0.768-0.755l-8e-3 -3e-3 -8e-3 -2e-3c-0.369-0.092-0.652-0.062-0.846 0.089-0.21 0.164-0.225 0.393-0.225 0.451-0.012 0.118 2e-3 0.222 0.035 0.311 0.128 0.345 0.539 0.48 0.787 0.502 0.229 0.045 0.495 0.039 0.729 0.016 0 8e-3 1e-3 0.014 0 0.022-3e-3 0.03-0.078 0.752-1.003 0.898-0.019-0.08-0.041-0.159-0.067-0.231-0.184-0.493-0.529-0.789-0.55-0.807-0.233-0.191-0.467-0.272-0.693-0.238-0.289 0.042-0.445 0.254-0.462 0.278l0.017-0.021c-0.11 0.116-0.162 0.258-0.151 0.406 4e-3 0.056 0.018 0.11 0.036 0.163 0.099 0.263 0.352 0.458 0.379 0.478 0.312 0.263 0.826 0.322 1.171 0.331 0 2e-3 1e-3 3e-3 1e-3 5e-3v0.01l1e-3 7e-3c1e-3 5e-3 0.05 0.453-0.226 0.76-0.168 0.188-0.434 0.29-0.791 0.306-3e-3 -0.021-5e-3 -0.042-0.011-0.061l5e-3 0.017c-0.082-0.506-0.242-0.708-0.261-0.729l0.016 0.021c-0.429-0.691-0.951-0.568-1.016-0.55-0.267 0.06-0.459 0.176-0.57 0.352-0.149 0.231-0.093 0.466-0.088 0.479 8e-3 0.048 0.021 0.09 0.036 0.133 0.208 0.556 0.977 0.675 1.466 0.695-0.058 0.102-0.157 0.214-0.341 0.312l-0.022 0.016-0.014 0.01c-2e-3 2e-3 -0.173 0.123-0.811 0.186-0.022-0.146-0.055-0.28-0.094-0.383-0.065-0.179-0.136-0.286-0.142-0.294-0.407-0.682-0.972-0.615-1.222-0.481-0.248 0.1-0.408 0.243-0.474 0.431-0.056 0.162-0.025 0.314 0.013 0.415 0.025 0.069 0.055 0.114 0.06 0.121 0.348 0.621 1.273 0.578 1.308 0.575 0.074-2e-3 0.134-7e-3 0.204-0.011-0.01 0.134-0.03 0.272-0.088 0.42-7e-3 0.015-0.183 0.352-0.917 0.387-1e-3 0-0.032 3e-3 -0.075 9e-3 -0.22-0.515-0.787-0.797-0.817-0.812-0.222-0.104-0.397-0.078-0.504-0.039-0.237 0.088-0.341 0.303-0.347 0.317-0.126 0.237-0.115 0.414-0.07 0.531 7e-3 0.02 0.015 0.038 0.023 0.056 0.146 0.271 0.506 0.322 0.556 0.328 0.31 0.023 0.637 0.012 0.88-6e-3 1e-3 3e-3 2e-3 8e-3 2e-3 8e-3 2e-3 0.012 0.062 0.303-0.296 0.632-2e-3 1e-3 -0.157 0.127-0.595 0.174-0.147-0.33-0.358-0.54-0.375-0.555l0.017 0.018c-0.407-0.503-0.946-0.364-1.177-0.219-0.287 0.147-0.436 0.32-0.442 0.513-1e-3 0.053 9e-3 0.102 0.024 0.145 0.068 0.186 0.263 0.291 0.288 0.305l9e-3 4e-3 7e-3 3e-3c0.422 0.172 1.198 0.157 1.223 0.156 0.061 1e-3 0.11-2e-3 0.165-3e-3 0.037 0.157 0.045 0.335-2e-3 0.526-2e-3 3e-3 -0.064 0.226-0.542 0.439-0.022-0.034-0.042-0.056-0.045-0.06-0.454-0.454-0.719-0.525-0.756-0.533-0.53-0.145-0.893-0.012-0.953 0.012-0.199 0.063-0.327 0.163-0.383 0.299-0.047 0.116-0.025 0.223-1e-3 0.289 7e-3 0.018 0.01 0.021 0.016 0.032 3e-3 0.01 5e-3 0.021 8e-3 0.029 0.083 0.22 0.378 0.341 0.435 0.36 0.579 0.239 1.298 0.069 1.458 0.027 0.011 0.134-0.015 0.316-0.149 0.55l-7e-3 0.016-6e-3 0.011c-1e-3 2e-3 -0.105 0.228-0.584 0.561-0.374-0.427-0.754-0.514-0.761-0.515-0.641-0.175-0.989 0.226-1.079 0.45-0.202 0.417 0.059 0.715 0.273 0.811 0.483 0.249 1.225-0.13 1.312-0.177 0.037-0.021 0.067-0.04 0.102-0.061 0.032 0.113 0.052 0.247 2e-3 0.392-3e-3 0.011-0.063 0.215-0.319 0.436-0.445-0.205-0.801-0.251-0.828-0.253-0.425-0.026-0.734 0.056-0.921 0.241-0.186 0.184-0.171 0.397-0.17 0.42v-0.03c-9e-3 0.108 4e-3 0.198 0.032 0.273 0.071 0.19 0.233 0.272 0.342 0.295 0.58 0.162 1.391-0.406 1.481-0.471l-0.018 0.01c0.04-0.021 0.07-0.045 0.105-0.068 0.02 0.011 0.04 0.02 0.06 0.031 8e-3 5e-3 0.168 0.089 0.246 0.3 0.036 0.098 0.056 0.222 0.034 0.378l-1e-3 0.011v0.01c-1e-3 0.012-0.012 0.223-0.165 0.507-0.289-0.115-0.49-0.145-0.509-0.146-1.004-0.056-1.191 0.535-1.218 0.652-0.038 0.146-0.037 0.275 3e-3 0.382 0.016 0.046 0.04 0.086 0.069 0.124 0.139 0.174 0.357 0.188 0.409 0.189 0.624 0.055 1.225-0.572 1.253-0.602 0.044-0.049 0.078-0.097 0.114-0.145 0.039 0.021 0.071 0.034 0.111 0.059 7e-3 3e-3 0.098 0.053 0.154 0.202 0.042 0.113 0.063 0.279 0.015 0.523 0 3e-3 -7e-3 0.061-0.026 0.164-0.5 0.069-0.825 0.312-0.841 0.322-0.498 0.364-0.435 0.874-0.429 0.918-1e-3 0.089 0.012 0.164 0.033 0.224 0.035 0.095 0.091 0.156 0.142 0.193 0.178 0.141 0.408 0.103 0.47 0.089 0.466-0.061 0.718-0.719 0.745-0.798 0.08-0.235 0.139-0.443 0.179-0.611 0.042 1e-3 0.084 0 0.128 4e-3 4e-3 1e-3 0.336 0.028 0.687 0.713l4e-3 0.01 5e-3 7e-3c1e-3 1e-3 0.013 0.021 0.029 0.063 0.014 0.038 0.028 0.096 0.039 0.167-0.173 0.042-0.283 0.099-0.315 0.116-0.713 0.327-0.885 0.561-0.919 0.685-0.063 0.185-0.046 0.33-9e-3 0.431 7e-3 0.021 0.017 0.041 0.024 0.059 0.114 0.218 0.337 0.299 0.395 0.317 0.252 0.105 0.451 0.06 0.572 3e-3 0.341-0.158 0.475-0.565 0.487-0.605 0.091-0.269 0.13-0.495 0.144-0.686 0.143 8e-3 0.3 0.041 0.465 0.141 4e-3 2e-3 0.228 0.156 0.406 0.392-0.044 0.031-0.094 0.063-0.126 0.093-0.554 0.508-0.698 1.169-0.702 1.189-0.037 0.141-0.028 0.26 9e-3 0.356 0.067 0.183 0.229 0.287 0.369 0.323 0.205 0.074 0.392 0.074 0.553 0 0.228-0.105 0.308-0.317 0.313-0.331 0.306-0.72 0.155-1.277 0.151-1.287-0.012-0.061-0.028-0.118-0.049-0.175-7e-3 -0.017-0.016-0.031-0.022-0.047 0.268-0.111 0.641-0.181 1.034 0.05 0.013 6e-3 0.235 0.131 0.357 0.461 3e-3 6e-3 3e-3 0.014 7e-3 0.021-0.18 0.1-0.313 0.192-0.349 0.217-0.701 0.534-0.56 1.093-0.553 1.116l-5e-3 -0.034c0.015 0.268 0.214 0.436 0.323 0.491 0.228 0.12 0.405 0.096 0.517 0.055 0.251-0.101 0.35-0.36 0.359-0.392 0.183-0.536 0.146-0.984 0.146-1.003v0.015c1e-3 -0.102-9e-3 -0.195-0.022-0.283 0.222-0.1 0.46-0.174 0.636-0.138 0.019 2e-3 0.397 0.071 0.567 0.437-0.092 0.071-0.147 0.133-0.155 0.142-0.462 0.615-0.538 0.797-0.546 0.817-0.101 0.237-0.091 0.429-0.038 0.571 0.054 0.142 0.149 0.235 0.223 0.274 0.138 0.09 0.289 0.118 0.44 0.084 0.283-0.066 0.457-0.331 0.469-0.353 0.294-0.405 0.107-1.162 0.045-1.383 0.128-0.048 0.293-0.075 0.493-0.036l9e-3 2e-3h8e-3c0.016 2e-3 0.354 0.047 0.547 0.408-0.611 0.484-0.589 0.917-0.574 1.013 0.011 0.128 0.034 0.233 0.065 0.319 0.117 0.313 0.337 0.366 0.386 0.374 0.308 0.076 0.54 0.043 0.692-0.104 0.233-0.225 0.143-0.597 0.133-0.63-0.078-0.372-0.168-0.649-0.232-0.825-7e-3 -0.017-0.011-0.022-0.016-0.037 0.043-0.028 0.08-0.055 0.13-0.082l8e-3 -5e-3 8e-3 -5e-3c2e-3 -3e-3 0.256-0.174 0.537-0.115 0.164 0.035 0.311 0.143 0.439 0.318-0.014 0.014-0.03 0.029-0.032 0.031-0.556 0.618-0.616 1.146-0.618 1.162-0.027 0.209-0.018 0.382 0.033 0.515 0.031 0.083 0.078 0.151 0.138 0.205 0.177 0.153 0.396 0.11 0.42 0.105l-0.032 3e-3c0.572-0.027 0.798-0.44 0.837-0.648 0.071-0.304-0.029-0.688-0.138-0.978-0.049-0.135-0.1-0.243-0.135-0.318 0.216-0.132 0.571-0.261 1.034-0.105 0.018 5e-3 0.332 0.104 0.529 0.385-0.184 0.139-0.297 0.263-0.306 0.271-0.44 0.47-0.456 0.869-0.366 1.113 0.03 0.081 0.073 0.145 0.115 0.188 0.169 0.183 0.346 0.218 0.464 0.215 0.276-8e-3 0.47-0.218 0.491-0.243l-0.024 0.024c0.405-0.322 0.174-1.172 0.123-1.338l4e-3 0.017c-9e-3 -0.046-0.023-0.087-0.036-0.13 0.188-0.1 0.411-0.185 0.66-0.186 0.014-1e-3 0.311-2e-3 0.554 0.493-0.099 0.059-0.154 0.104-0.168 0.117-0.562 0.546-0.569 1.055-0.566 1.134-4e-3 0.105 0.011 0.199 0.042 0.282 0.029 0.079 0.073 0.146 0.133 0.203 0.156 0.149 0.351 0.161 0.404 0.161 0.186 0.017 0.354-0.03 0.485-0.133 0.229-0.181 0.269-0.467 0.271-0.495 0.061-0.404-0.063-0.869-0.139-1.104 0.076-0.032 0.156-0.063 0.258-0.093 3e-3 0 0.021-0.052 0.232-0.047l0.048-0.413c-0.266-5e-3 -0.353 0.118-0.372 0.123-0.116 0.034-0.211 0.07-0.3 0.105-0.341-0.686-0.825-0.691-0.893-0.687-0.307 3e-3 -0.581 0.1-0.807 0.222-0.27-0.385-0.696-0.518-0.714-0.523-0.594-0.198-1.056-0.03-1.342 0.144-0.181-0.239-0.396-0.391-0.645-0.441-0.443-0.091-0.815 0.165-0.829 0.176l0.015-0.01c-0.04 0.022-0.065 0.044-0.103 0.067-0.282-0.491-0.78-0.549-0.803-0.551l0.019 2e-3c-0.276-0.053-0.51-0.016-0.691 0.052-0.254-0.511-0.794-0.603-0.813-0.606-0.247-0.05-0.536 0.031-0.795 0.142-0.173-0.447-0.497-0.619-0.51-0.625-0.503-0.297-1.014-0.214-1.393-0.047-0.22-0.3-0.5-0.492-0.522-0.508-0.243-0.146-0.478-0.195-0.684-0.201-0.014-0.104-0.037-0.189-0.059-0.25-0.031-0.081-0.061-0.127-0.07-0.141l0.013 0.02c-0.445-0.869-0.926-0.901-0.999-0.901-0.024-2e-3 -0.047-1e-3 -0.072-2e-3 0.012-0.067 0.017-0.108 0.017-0.109 0.061-0.301 0.032-0.525-0.029-0.689-0.106-0.285-0.31-0.385-0.331-0.395-0.029-0.017-0.054-0.026-0.082-0.042 0.199-0.37 0.208-0.653 0.208-0.67l-1e-3 0.021c0.029-0.221 3e-3 -0.399-0.05-0.542-0.093-0.246-0.259-0.383-0.348-0.442 0.276-0.273 0.342-0.521 0.342-0.525 0.087-0.256 0.044-0.496-0.021-0.671-1e-3 -4e-3 -3e-3 -8e-3 -4e-3 -0.012 0.612-0.417 0.74-0.72 0.754-0.759l-0.014 0.03c0.205-0.356 0.223-0.64 0.184-0.846 0.656-0.291 0.756-0.639 0.77-0.708 0.053-0.22 0.049-0.423 0.014-0.604 0.521-0.07 0.717-0.248 0.737-0.269 0.432-0.397 0.426-0.786 0.408-0.922 3e-3 0 0.01-1e-3 0.01-1e-3 0.971-0.044 1.219-0.579 1.233-0.61 0.078-0.202 0.104-0.391 0.112-0.568 0.657-0.062 0.912-0.188 1.005-0.256 0.328-0.178 0.484-0.409 0.553-0.617 8e-3 0 0.026-2e-3 0.029-3e-3 0.469-0.017 0.832-0.163 1.075-0.437 0.359-0.402 0.324-0.929 0.314-1.017 0.983-0.16 1.296-0.873 1.321-1.219 5e-3 -0.035 0-0.064 2e-3 -0.097 0.132-0.023 0.223-0.044 0.236-0.047 1.305-0.363 1.445-1.125 1.45-1.153 0.054-0.272 0.019-0.512-0.055-0.712 0.77-0.354 0.941-0.94 0.948-0.968l-6e-3 0.02c0.092-0.234 0.067-0.462-8e-3 -0.66-0.039-0.106-0.093-0.202-0.149-0.289 0.43-0.355 0.461-0.706 0.461-0.721 0.021-0.203-9e-3 -0.38-0.065-0.528-0.132-0.356-0.402-0.553-0.413-0.561-0.079-0.063-0.156-0.111-0.235-0.156 0.061-0.093 0.096-0.157 0.099-0.163 0.151-0.262 0.145-0.509 0.068-0.716-0.096-0.254-0.294-0.45-0.446-0.552-0.271-0.182-0.513-0.268-0.711-0.306-2e-3 -0.188-0.031-0.341-0.074-0.452-0.056-0.151-0.123-0.23-0.131-0.24-0.497-0.531-0.924-0.511-1.013-0.499-0.03 2e-3 -0.058 8e-3 -0.089 0.013-0.021-0.123-0.048-0.236-0.084-0.332-0.306-0.821-1.071-0.749-1.072-0.749-0.129 8e-3 -0.25 0.025-0.365 0.052-0.079-0.197-0.167-0.325-0.177-0.339-0.367-0.533-0.922-0.562-1.361-0.444-0.124-0.289-0.307-0.404-0.332-0.417-0.393-0.255-0.763-0.277-1.04-0.235-0.02-0.084-0.042-0.163-0.069-0.235-0.131-0.354-0.327-0.556-0.335-0.564-0.157-0.184-0.327-0.301-0.5-0.379 0.036-0.186 0.034-0.313 0.034-0.322 2e-3 -0.131-0.021-0.251-0.061-0.36-0.104-0.28-0.324-0.491-0.52-0.632 0.431-0.593 0.403-1.014 0.316-1.247-0.042-0.114-0.091-0.173-0.112-0.198-0.023-0.035-0.054-0.068-0.084-0.101 0.163-0.126 0.301-0.26 0.41-0.382l-0.297-0.211zm-1.559 0.135c0.178 0.066 0.535 0.22 0.829 0.407-0.194 0.086-0.408 0.146-0.647 0.145h-0.018c-0.199 0.018-0.561-7e-3 -0.682-0.144-0.025-0.03-0.058-0.085-0.026-0.205l2e-3 -0.012 2e-3 -8e-3c0-4e-3 0.017-0.104 0.108-0.161 0.093-0.059 0.242-0.067 0.432-0.022zm0.783 2.096c-0.218 0.214-0.694 0.59-1.303 0.49-2e-3 -1e-3 -0.084-0.01-0.119-0.069-0.037-0.063-0.024-0.179 0.033-0.316 0.013-0.024 0.309-0.572 1.389-0.105zm8.445 9.672c-0.136 0.073-0.301 0.145-0.505 0.21-0.087 0.031-0.37 0.105-0.522 0.033-0.046-0.021-0.075-0.056-0.093-0.109l-5e-3 -0.019-0.013-0.02c-0.01-0.026 4e-3 -0.122 0.221-0.255 0.046-0.029 0.473-0.274 0.867 0.111 1e-3 2e-3 0.022 0.02 0.05 0.049zm-0.758 1.797c-0.411 0.156-0.854 0.27-0.984 0.215l-0.013-5e-3 -0.014-3e-3c-0.057-0.015-0.227-0.077-0.272-0.18-8e-3 -0.019-0.034-0.078 0.04-0.208 1e-3 -2e-3 0.104-0.204 0.321-0.264 0.186-0.052 0.412 9e-3 0.666 0.175 0.011 8e-3 0.136 0.107 0.256 0.27zm-2.085 1.1c0.057 0.021 0.406 0.168 0.546 0.546 0.014 0.039 0.021 0.086 0.029 0.131-0.213 0.021-0.451 0.029-0.645-0.013l-0.011-1e-3 -0.011-2e-3c-0.046-4e-3 -0.401-0.046-0.489-0.284-0.018-0.045-0.024-0.098-0.019-0.157l1e-3 -0.012v-0.01c0-1e-3 1e-3 -0.116 0.087-0.18 0.093-0.071 0.276-0.077 0.512-0.018zm-0.794 1.952c-0.299-0.016-0.668-0.076-0.874-0.251-0.061-0.046-0.22-0.188-0.271-0.329-8e-3 -0.024-0.015-0.05-0.017-0.073-3e-3 -0.051 0.013-0.093 0.054-0.137l9e-3 -0.011 6e-3 -8e-3c1e-3 -1e-3 0.082-0.106 0.212-0.124 0.147-0.02 0.3 0.076 0.4 0.16 4e-3 3e-3 0.298 0.257 0.451 0.667 0.013 0.034 0.019 0.071 0.03 0.106zm-1.326 1.445c-0.405-0.015-1.033-0.1-1.177-0.483-8e-3 -0.024-0.015-0.049-0.02-0.075 0-1e-3 -0.027-0.116 0.04-0.22 0.059-0.087 0.171-0.149 0.35-0.188 0.014-3e-3 0.317-0.077 0.61 0.398l8e-3 0.01 5e-3 8e-3c1e-3 1e-3 0.04 0.055 0.088 0.181 0.034 0.085 0.068 0.208 0.096 0.369zm-1.603 0.901c-0.063 3e-3 -0.124 6e-3 -0.19 8e-3 -8e-3 0-0.741 0.032-0.989-0.409-1e-3 -1e-3 -0.016-0.027-0.031-0.065-0.018-0.049-0.033-0.119-9e-3 -0.185 0.029-0.084 0.12-0.155 0.268-0.212l0.014-5e-3 0.01-5e-3c0.041-0.022 0.41-0.194 0.744 0.362 4e-3 9e-3 0.061 0.096 0.114 0.237 0.027 0.076 0.052 0.171 0.069 0.274zm-1.457 1.194c-0.216 0.013-0.475 0.021-0.717 2e-3 -0.055-8e-3 -0.227-0.051-0.278-0.148-2e-3 -4e-3 -4e-3 -9e-3 -6e-3 -0.016-0.023-0.06-6e-3 -0.144 0.056-0.259 0 0 0.049-0.099 0.14-0.131 0.058-0.021 0.129-0.012 0.212 0.027 5e-3 1e-3 0.395 0.197 0.593 0.525zm-1.173 1.177h-0.016c-0.201 4e-3 -0.779-0.012-1.074-0.127-0.047-0.027-0.104-0.076-0.12-0.116-2e-3 -6e-3 -3e-3 -0.013-3e-3 -0.019 1e-3 -0.03 0.055-0.108 0.251-0.207l7e-3 -5e-3 7e-3 -3e-3c0.04-0.025 0.396-0.228 0.698 0.145l8e-3 0.01 9e-3 8e-3c2e-3 2e-3 0.123 0.119 0.233 0.314zm-2.039 1.062l9e-3 -4e-3c0.012-5e-3 0.282-0.116 0.719 4e-3 2e-3 0 0.193 0.063 0.53 0.384-0.205 0.048-0.741 0.142-1.156-0.029-0.114-0.043-0.223-0.122-0.236-0.159l-0.011-0.037-0.011-0.02c-1e-3 -2e-3 -2e-3 -5e-3 -4e-3 -0.01-4e-3 -0.01-9e-3 -0.028-4e-3 -0.04 0.01-0.02 0.055-0.056 0.152-0.085l0.012-4e-3zm0.348 2.044c-0.037 0.022-0.069 0.042-0.11 0.064-0.164 0.088-0.695 0.306-0.968 0.166-0.07-0.032-0.223-0.133-0.11-0.363 0.026-0.062 0.181-0.365 0.645-0.238 2e-3 0 0.268 0.072 0.543 0.371zm-0.502 1.38c-0.244 0.161-0.782 0.456-1.092 0.364l-0.018-4e-3c-0.034-8e-3 -0.111-0.046-0.098-0.209l1e-3 -0.015-1e-3 -0.01c0-4e-3 -1e-3 -0.078 0.068-0.146 0.105-0.099 0.327-0.144 0.614-0.127 6e-3 1e-3 0.224 0.031 0.526 0.147zm0.337 1.715c-0.018 0.021-0.033 0.043-0.053 0.064-0.139 0.146-0.576 0.516-0.955 0.481-2e-3 0-0.102-3e-3 -0.146-0.06-0.039-0.051-0.025-0.142-8e-3 -0.208l3e-3 -0.019c7e-3 -0.041 0.093-0.399 0.817-0.358 3e-3 1e-3 0.139 0.025 0.342 0.1zm13.209 7.463l-0.011-1e-3h-9e-3c-0.055 0-0.164-0.017-0.213-0.146-0.016-0.042-0.025-0.096-0.022-0.165-2e-3 -0.017-0.014-0.416 0.449-0.867 0 0 0.021-0.016 0.05-0.035 0.066 0.22 0.155 0.591 0.109 0.902-9e-3 0.077-0.066 0.336-0.353 0.312zm-1.658-0.538c-0.06 2e-3 -0.123-0.032-0.188-0.102-3e-3 -4e-3 -0.026-0.031-0.045-0.079-0.044-0.121-0.063-0.377 0.292-0.755 2e-3 -2e-3 0.068-0.073 0.18-0.164v4e-3c0.099 0.324 0.153 0.839 1e-3 0.959l-0.013 0.011-0.011 0.011c-0.028 0.032-0.121 0.114-0.216 0.115zm-2.041-0.121l-0.016 2e-3 -0.012 2e-3c-3e-3 0-0.063 0.01-0.105-0.027-0.011-0.012-0.027-0.03-0.042-0.068-0.022-0.062-0.037-0.169-0.014-0.355 0-4e-3 0.056-0.404 0.47-0.895 0.024 0.057 0.051 0.118 0.076 0.188 0.097 0.259 0.181 0.577 0.129 0.795-8e-3 0.033-0.082 0.337-0.486 0.358zm-1.517-0.53c-1e-3 -1e-3 -0.074-0.023-0.126-0.161-0.02-0.056-0.037-0.13-0.045-0.229l-2e-3 -0.013-1e-3 -9e-3c-1e-3 -4e-3 -0.034-0.268 0.357-0.615 0.06 0.166 0.134 0.405 0.202 0.725 0.017 0.067 0.033 0.235-0.032 0.296-0.048 0.048-0.177 0.05-0.353 6e-3zm-1.606-0.343c-0.032 7e-3 -0.082 0.012-0.163-0.04-0.015-0.01-0.057-0.04-0.081-0.105-0.025-0.065-0.03-0.17 0.034-0.322 3e-3 -6e-3 0.073-0.165 0.476-0.704 0.076 0.324 0.121 0.773-0.024 0.977-0.028 0.04-0.131 0.169-0.242 0.194zm-1.868-0.547c-5e-3 -3e-3 -0.093-0.05-0.128-0.146-7e-3 -0.02-0.012-0.041-0.015-0.066l-2e-3 -0.017-2e-3 -0.013c-4e-3 -0.015-0.078-0.368 0.414-0.744 0.048-0.033 0.118-0.077 0.198-0.126 2e-3 0.036 9e-3 0.068 8e-3 0.106v7e-3l1e-3 9e-3c0 4e-3 0.03 0.4-0.126 0.861-0.013 0.034-0.066 0.137-0.145 0.167-0.051 0.019-0.119 7e-3 -0.203-0.038zm-1.813-0.502l-0.01-3e-3 -0.01-4e-3c-0.045-0.011-0.108-0.04-0.134-0.11-0.016-0.038-0.018-0.092 1e-3 -0.164 1e-3 -6e-3 0.13-0.58 0.589-1.004 4e-3 -3e-3 0.026-0.021 0.057-0.043 0.016 0.042 0.027 0.086 0.037 0.129 1e-3 5e-3 0.122 0.473-0.137 1.081 0 0-0.037 0.094-0.125 0.134-0.068 0.029-0.157 0.025-0.268-0.016zm-0.929-2.119c-0.013 0.154-0.042 0.328-0.114 0.547-0.027 0.081-0.13 0.31-0.291 0.385-0.076 0.035-0.164 0.031-0.269-0.012l-0.01-4e-3 -8e-3 -3e-3c-0.041-0.012-0.155-0.063-0.201-0.152-3e-3 -8e-3 -6e-3 -0.015-8e-3 -0.021-0.022-0.056-0.018-0.121 0.011-0.2 0 0 1e-3 -4e-3 2e-3 -6e-3 2e-3 -5e-3 0.097-0.178 0.721-0.465l8e-3 -3e-3 9e-3 -4e-3c6e-3 -5e-3 0.066-0.034 0.15-0.062zm-0.882 0.513l2e-3 -8e-3 -2e-3 8e-3zm-0.395-1.803c-0.035 0.138-0.081 0.294-0.141 0.471-0.075 0.21-0.268 0.531-0.437 0.553l-0.012 2e-3 -9e-3 2e-3c-0.039 9e-3 -0.134 0.016-0.18-0.021-0.04-0.033-0.045-0.108-0.043-0.165v-0.017l-1e-3 -0.016c-3e-3 -0.014-0.045-0.343 0.282-0.584 6e-3 -2e-3 0.213-0.152 0.541-0.225zm10.269-18.976c-0.166 0.202-0.39 0.436-0.677 0.632-0.074 0.055-0.219 0.128-0.296 0.109-0.01-2e-3 -0.04-0.01-0.068-0.076l-8e-3 -0.017-7e-3 -0.013c-3e-3 -4e-3 -0.067-0.106-0.021-0.229 0.039-0.104 0.173-0.256 0.586-0.394 0.013-3e-3 0.209-0.071 0.491-0.012zm-0.828-1.561c-2e-3 0.014-4e-3 0.023-7e-3 0.037l-2e-3 0.011-1e-3 9e-3c-0.021 0.176-0.135 0.677-0.398 0.878-0.092 0.07-0.195 0.097-0.328 0.082-0.038-4e-3 -0.159-0.038-0.125-0.328 1e-3 -0.02 0.049-0.48 0.808-0.674l0.011-3e-3 9e-3 -3e-3s0.014-4e-3 0.033-9e-3zm-1.239-1.096c-7e-3 0.249-0.066 0.626-0.347 0.876-0.043 0.042-0.187 0.161-0.302 0.16-0.028 0-0.068-8e-3 -0.114-0.06l-0.012-0.011-7e-3 -7e-3c-0.028-0.026-0.166-0.172 0.066-0.484 0.012-0.016 0.218-0.321 0.716-0.474zm-1.976 0.091c-0.081 0.016-0.166-0.014-0.266-0.096-3e-3 -4e-3 -0.062-0.047-0.089-0.121-9e-3 -0.022-0.015-0.047-0.015-0.075-3e-3 -0.119 0.088-0.263 0.268-0.42 5e-3 -4e-3 0.245-0.222 0.628-0.379 0.038 0.233 0.021 0.509-0.159 0.779-0.044 0.077-0.196 0.281-0.367 0.312zm-1.574-0.542l-0.014 2e-3 -0.011 3e-3c-0.041 0.01-0.174 0.025-0.239-0.033-0.019-0.015-0.032-0.037-0.043-0.065-0.023-0.063-0.027-0.156-9e-3 -0.277 2e-3 -0.023 0.067-0.57 0.815-0.899l0.012-6e-3 0.012-7e-3c2e-3 -1e-3 0.023-0.013 0.035-0.02 0.011 0.142 2e-3 0.313-0.038 0.524 0 8e-3 -0.107 0.732-0.52 0.778zm-1.52-0.774c-1e-3 0-0.115 5e-3 -0.172-0.062-0.012-0.014-0.021-0.03-0.029-0.05-0.023-0.066-0.022-0.163 5e-3 -0.282l3e-3 -0.012 1e-3 -8e-3c3e-3 -0.017 0.069-0.419 0.845-0.777-1e-3 0.071-6e-3 0.146-0.018 0.224-1e-3 9e-3 -0.11 0.969-0.635 0.967zm-0.39-2.589c-0.076 0.188-0.2 0.396-0.405 0.579-0.136 0.129-0.484 0.372-0.626 0.258l-0.014-0.011-0.012-6e-3c-1e-3 -1e-3 -0.093-0.055-0.1-0.145-8e-3 -0.099 0.081-0.234 0.245-0.376 0.027-0.019 0.441-0.338 0.912-0.299zm-2.317-3.433l-4e-3 0.021c0-3e-3 2e-3 -0.014 3e-3 -0.02 1e-3 1e-3 0 0 1e-3 -1e-3zm2.413 0.404c2e-3 1e-3 0.012 0.015 0.016 0.019 2e-3 4e-3 5e-3 6e-3 6e-3 9e-3l-0.022-0.028zm2.297 4.188c1e-3 0 5e-3 3e-3 5e-3 4e-3 4e-3 1e-3 6e-3 3e-3 0.01 5e-3l-0.015-9e-3zm-0.126 0.614l-0.022 0.012c1e-3 -1e-3 3e-3 -1e-3 4e-3 -2e-3 7e-3 -3e-3 0.012-7e-3 0.018-0.01zm3.596 1.609c3e-3 -1e-3 0.018-2e-3 0.02-2e-3l-0.02 2e-3zm-1.446 1.643l0.021 0.02c-4e-3 -3e-3 -9e-3 -0.011-0.013-0.013-2e-3 -3e-3 -5e-3 -3e-3 -8e-3 -7e-3zm1.501 1.253l0.019 1e-3c-1e-3 0-0.01-1e-3 -0.014-1e-3 -2e-3 -1e-3 -3e-3 0-5e-3 0zm-1.913 5.021l-1e-3 0.022c0-2e-3 1e-3 -0.014 1e-3 -0.019v-3e-3zm0.805 0.814l0.022 3e-3h-5e-3c-4e-3 -3e-3 -0.01-3e-3 -0.017-3e-3zm-2.869 1.086c1e-3 -1e-3 8e-3 -3e-3 0.011-4e-3 2e-3 -1e-3 5e-3 -1e-3 7e-3 -2e-3l-0.018 6e-3zm-1.774 1.013l-0.024 0.011c3e-3 -1e-3 6e-3 -2e-3 8e-3 -4e-3 6e-3 -2e-3 0.011-5e-3 0.016-7e-3zm-2.678 2.78l-0.017 9e-3c1e-3 0 4e-3 -1e-3 6e-3 -2e-3 4e-3 -3e-3 7e-3 -6e-3 0.011-7e-3zm1.62 1.7c0 3e-3 -1e-3 8e-3 -1e-3 0.011-1e-3 3e-3 -1e-3 5e-3 -2e-3 7e-3l3e-3 -0.018zm-3.896 4.268l0.022 5e-3 -0.012-3e-3s-7e-3 -1e-3 -0.01-2e-3zm0.029 1.214l-1e-3 2e-3s1e-3 -1e-3 1e-3 -2e-3zm-1e-3 2e-3c-2e-3 0.012-3e-3 0.019-3e-3 0.02 0 0 3e-3 -0.018 3e-3 -0.02zm2.127-0.312s2e-3 3e-3 3e-3 3e-3c6e-3 3e-3 0.01 5e-3 0.015 7e-3l-0.018-0.01zm-1.649 1.007l0.018 1e-3c-2e-3 0-0.011-1e-3 -0.015-1e-3h-3e-3zm2.061 0.191c1e-3 1e-3 6e-3 1e-3 7e-3 1e-3 7e-3 1e-3 0.012 0 0.018 1e-3l-0.025-2e-3zm-1.063 1.758l0.021-3e-3c-1e-3 0-0.014 2e-3 -0.021 3e-3zm0.583 0.348l-8e-3 0.033c1e-3 -9e-3 5e-3 -0.018 7e-3 -0.027 1e-3 -2e-3 1e-3 -4e-3 1e-3 -6e-3zm0.408 0.813l0.02 7e-3c-2e-3 -1e-3 -0.02-7e-3 -0.02-7e-3zm1.618 1.205l0.021 6e-3c-4e-3 -1e-3 -0.01-3e-3 -0.014-5e-3 -3e-3 0-5e-3 0-7e-3 -1e-3zm5.331 1.404l0.021 5e-3c-1e-3 0-7e-3 -3e-3 -0.01-3e-3 -4e-3 -2e-3 -7e-3 -1e-3 -0.011-2e-3zm4.85-1.545c1e-3 0 8e-3 -1e-3 0.011-1e-3s4e-3 -1e-3 6e-3 0l-0.017 1e-3zm-0.16 2.095v0.017-0.017zm0.576 0.647h0.021c-2e-3 0-0.014 0-0.019-1e-3 0 1e-3 -1e-3 1e-3 -2e-3 1e-3z" fill="#DB9727"/>
	<path d="m249.34 18.126s0.334 1.338 0.196 2.238c0 0-0.307-0.496-0.89-0.239l-2.034 1.063s-0.358 0.09-0.426 0.023c0 0-0.615-0.348-0.269-0.95 0 0 0.234-0.258 0.459-0.414l2.963-1.778c1e-3 -1e-3 -0.222 0 1e-3 0.057z" fill="#CA8C2B"/>
	<path d="m271.18 2.508s-14.886 3.855-20.521 8.446c0 0-2.364 0.926-1.204 9.303 0 0 0.168 1.463 1.992 3.312 0 0 0.701 0.673 1.413 0.504l0.568-0.136s3.512-1.02 6.089-3.317l3.543-3.097s0.105-2.012-0.796-3.149c0 0-0.169-0.199-0.695-0.646 0 0-1.077-2.746 3.376-3.601 0 0 6.058-1.679 7.472-2.023l0.084-0.02c1.28-0.307 7.654-1.588 7.654-1.588 4.366-1.253 4.646 1.686 4.646 1.686-0.27 0.635-0.329 0.89-0.329 0.89-0.293 1.422 0.617 3.218 0.617 3.218l4.658 1.112c3.342 0.885 6.941 0.205 6.941 0.205l0.568-0.136c0.712-0.17 1.034-1.088 1.034-1.088 0.793-2.475 0.282-3.854 0.282-3.854-2.752-7.998-5.28-7.754-5.28-7.754-7.11-1.548-22.152 1.743-22.152 1.743l0.04-0.01z" fill="#F1A71E"/>
	<path d="m263.16 17.348c0.149-0.494-0.156-2.039-0.896-2.974 0 0-0.097-0.114-0.368-0.36l-0.013 0.023c-0.027 0.046-0.054 0.087-0.054 0.087-0.71 1.154-5.379 4.419-5.379 4.419-3.734 2.582-6.502 3.043-6.502 3.043l0.014 0.028c0.296 0.545 0.758 1.219 1.484 1.954 0 0 0.701 0.674 1.413 0.504l0.568-0.136s2.547-0.738 4.893-2.376c0 1e-3 4.524-3.161 4.84-4.212z" fill="#E8A223"/>
	<path d="m261.68 13.82c-0.71 1.155-5.381 4.42-5.381 4.42-3.732 2.582-6.501 3.043-6.501 3.043s0.079 0.163 0.153 0.304c0 0 2.768-0.461 6.502-3.042 0 0 4.669-3.265 5.379-4.42 0 0 0.037-0.054 0.066-0.111l-0.218-0.194z" fill="#B5742A"/>
	<path d="m261.89 14.013c-0.029 0.055-0.062 0.104-0.062 0.104-0.711 1.154-5.381 4.419-5.381 4.419-3.734 2.583-6.503 3.044-6.503 3.044l-4e-3 1e-3 0.117 0.207s2.763-0.463 6.496-3.045c0 0 4.67-3.264 5.38-4.418 0 0 0.036-0.055 0.065-0.11l0.038-0.068-0.146-0.134z" fill="#F5C715"/>
	<path d="m284.76 8.309c1.155 0.71 6.795 1.512 6.795 1.512 4.498 0.617 7.177-0.223 7.177-0.223s4e-3 0.181 0 0.341c0 0-2.678 0.839-7.175 0.223 0 0-5.641-0.802-6.797-1.513 0 0-0.056-0.031-0.107-0.068l0.107-0.272z" fill="#B5742A"/>
	<path d="m271.54 4.164c-13.673 3.266-17.379 6.848-17.379 6.848 2.183-0.521 4.43 1.056 5.018 3.519 0.118 0.496 0.161 0.99 0.135 1.469l0.034-0.023c1.63-1.231 2.219-1.994 2.313-2.124l0.015-0.021c-0.034-0.028-0.07-0.06-0.108-0.092 0 0-1.072-2.729 3.381-3.584 0 0 5.91-1.636 7.417-2.009l0.118-0.027c1.283-0.308 7.667-1.593 7.667-1.593 4.373-1.253 4.648 1.667 4.648 1.667-0.02 0.045-0.04 0.088-0.056 0.13l0.021 0.012c0.144 0.073 1.014 0.486 3.031 0.849l0.04 5e-3c-0.239-0.414-0.425-0.874-0.543-1.37-0.589-2.464 0.708-4.886 2.897-5.408 0 0-4.936-1.521-18.652 1.755l3e-3 -3e-3z" fill="#C9892B"/>
	<path d="m284.65 8.577c0.052 0.036 0.103 0.065 0.103 0.065 1.156 0.71 6.798 1.512 6.798 1.512 4.497 0.617 7.176-0.222 7.176-0.222l4e-3 -3e-3 -0.012 0.238s-2.673 0.836-7.17 0.22c0 0-5.642-0.802-6.796-1.511 0 0-0.057-0.033-0.108-0.069l-0.064-0.043 0.069-0.187z" fill="#F5C715"/>
	<path d="m284.96 12.34c-0.358-0.373-0.79-1.887-0.556-3.056 0 0 0.033-0.145 0.164-0.488l0.021 0.014c0.044 0.03 0.087 0.055 0.087 0.055 1.157 0.704 6.802 1.482 6.802 1.482 4.499 0.598 7.173-0.253 7.173-0.253l2e-3 0.032c-0.015 0.619-0.12 1.431-0.432 2.415 0 0-0.316 0.92-1.028 1.092l-0.567 0.139s-2.604 0.503-5.439 0.114c-1e-3 0-5.465-0.754-6.227-1.546z" fill="#E9A323"/>
	<path d="m271.16 2.491s-14.885 3.855-20.52 8.446c0 0-2.365 0.925-1.205 9.302 0 0 0.046 0.396 0.346 1.035 0 0 0.644 1.422 1.648 2.294 0 0 0.672 0.613 1.295 0.518 0 0-1.102 0.075-2.187-1.83 0 0-0.471-0.707-0.546-1.023-0.923-3.896-0.174-7.678-0.174-7.678 0.213-1.076 0.686-1.431 0.686-1.431 6.278-5.002 20.073-8.453 20.857-8.646l0.032-9e-3s14.456-3.392 22.549-1.719c0 0 0.583 0.103 1.257 0.967 0 0 2.378 3.035 3.315 6.929 0.075 0.315-0.024 1.16-0.024 1.16-0.109 2.188-1.084 2.741-1.084 2.741 0.6-0.195 0.882-1.169 0.882-1.169 0.5-1.232 0.433-2.791 0.433-2.791-0.021-0.706-0.159-1.079-0.159-1.079-2.75-7.998-5.276-7.755-5.276-7.755-7.102-1.549-22.125 1.738-22.125 1.738z" fill="#FFCB42"/>
	<path d="m290.91 31.541s5.318 2.136 2.915 6.697c0 0 1.486-4.331-2.915-6.697z" fill="#D59529"/>
	<path d="m294.98 39.186s4.478-6.976-4.66-9.023c-1e-3 -1e-3 8.186 2.232 4.66 9.023z" fill="#D59529"/>
	<path d="m250.05 8.068s-3.902 2.512-3.886 7.471c0 0 0.461-4.429 3.886-7.471z" fill="#D59529"/>
	<path d="m249.81 6.398s-5.704 1.876-5.254 9.959c1e-3 0-0.137-6.314 5.254-9.959z" fill="#D59529"/>
	<ellipse cx="273.99" cy="66.369" rx="17.365" ry="3.293" fill="#8A8A8A"/>
	<path d="m83.012 53.01h-2.809v7.386h-0.956v-7.386h-2.725v-0.74h6.382l0.108 0.74z"/>
	<path d="m88.419 54.976c0.299 0.369 0.448 0.866 0.448 1.488v3.919h-0.944v-3.788c0-0.431-0.08-0.765-0.239-1.004s-0.426-0.358-0.801-0.358c-0.287 0-0.611 0.1-0.974 0.3-0.362 0.198-0.683 0.449-0.962 0.752v4.111h-0.944v-8.317l0.944-0.12v3.382c0.28-0.271 0.611-0.49 0.998-0.663 0.387-0.171 0.755-0.257 1.105-0.257 0.615-1e-3 1.071 0.184 1.369 0.555z"/>
	<path d="m95.142 57.646h-4.206c0.023 0.654 0.201 1.169 0.531 1.548 0.331 0.378 0.838 0.568 1.524 0.568 0.311 0 0.595-0.04 0.855-0.12 0.258-0.08 0.567-0.207 0.925-0.382l0.299 0.692c-0.326 0.184-0.653 0.328-0.98 0.437-0.327 0.107-0.688 0.16-1.087 0.16-0.988 0-1.741-0.277-2.258-0.835-0.519-0.559-0.777-1.304-0.777-2.235 0-0.589 0.105-1.113 0.316-1.57 0.211-0.46 0.522-0.817 0.933-1.077 0.41-0.259 0.895-0.388 1.452-0.388 0.844 0 1.468 0.294 1.87 0.884s0.603 1.362 0.603 2.318zm-4.183-0.645h3.25c-0.135-1.171-0.661-1.757-1.577-1.757-0.494 0-0.883 0.157-1.166 0.474-0.282 0.314-0.451 0.741-0.507 1.283z"/>
	<path d="m104.25 60.396h-4.816v-8.126h0.944v7.373h3.777l0.095 0.753z"/>
	<path d="m109.94 57.646h-4.207c0.024 0.654 0.201 1.169 0.532 1.548 0.33 0.378 0.838 0.568 1.524 0.568 0.311 0 0.596-0.04 0.855-0.12 0.258-0.08 0.568-0.207 0.926-0.382l0.299 0.692c-0.328 0.184-0.654 0.328-0.981 0.437-0.326 0.107-0.689 0.16-1.087 0.16-0.988 0-1.741-0.277-2.259-0.835-0.518-0.559-0.776-1.304-0.776-2.235 0-0.589 0.105-1.113 0.316-1.57 0.211-0.46 0.522-0.817 0.932-1.077 0.411-0.259 0.895-0.388 1.453-0.388 0.844 0 1.468 0.294 1.87 0.884s0.603 1.362 0.603 2.318zm-4.183-0.645h3.251c-0.135-1.171-0.662-1.757-1.578-1.757-0.495 0-0.882 0.157-1.166 0.474-0.282 0.314-0.451 0.741-0.507 1.283z"/>
	<path d="m111.57 55.663l-0.275-0.719c0.208-0.142 0.512-0.262 0.915-0.357 0.403-0.096 0.735-0.143 0.999-0.143 0.438 0 0.828 0.083 1.171 0.251 0.343 0.166 0.609 0.398 0.801 0.692 0.191 0.296 0.287 0.63 0.287 1.004v4.004h-0.705l-0.12-0.586c-0.214 0.199-0.481 0.373-0.8 0.521s-0.63 0.22-0.932 0.22c-0.646 0-1.138-0.167-1.477-0.501s-0.508-0.769-0.508-1.304c0-0.557 0.191-0.991 0.574-1.302 0.383-0.31 0.888-0.466 1.518-0.466h1.493v-0.323c0-0.43-0.101-0.769-0.304-1.016s-0.524-0.37-0.962-0.37c-0.343 0-0.636 0.034-0.878 0.102-0.245 0.068-0.51 0.166-0.797 0.293zm0.227 3.082c0 0.279 0.091 0.522 0.275 0.73 0.183 0.207 0.454 0.311 0.812 0.311 0.311 0 0.607-0.08 0.891-0.24 0.283-0.158 0.532-0.366 0.747-0.62v-1.316h-1.53c-0.375 0-0.667 0.111-0.878 0.329-0.211 0.219-0.317 0.489-0.317 0.806z"/>
	<path d="m121.64 51.97v8.426h-0.574l-0.179-0.442c-0.239 0.191-0.498 0.339-0.777 0.442-0.279 0.104-0.542 0.154-0.788 0.154-0.86 0-1.536-0.279-2.026-0.841-0.491-0.563-0.735-1.311-0.735-2.241 0-0.59 0.113-1.114 0.34-1.571 0.227-0.458 0.55-0.815 0.968-1.07s0.91-0.382 1.476-0.382c0.208 0 0.428 0.04 0.663 0.118 0.235 0.081 0.46 0.188 0.676 0.324v-2.809l0.956-0.108zm-1.572 7.642c0.219-0.091 0.424-0.232 0.616-0.424v-3.43c-0.383-0.344-0.837-0.515-1.362-0.515-0.574 0-1.017 0.205-1.327 0.616-0.311 0.41-0.471 0.941-0.479 1.595 0 0.692 0.154 1.249 0.461 1.668 0.307 0.418 0.75 0.626 1.333 0.626 0.286 1e-3 0.539-0.044 0.758-0.136z"/>
	<path d="m129.45 56.918l0.083-0.705h2.617l-0.011 3.787c-0.254 0.159-0.598 0.294-1.027 0.401-0.431 0.107-0.845 0.161-1.243 0.161-0.813 0-1.528-0.184-2.146-0.55s-1.093-0.867-1.428-1.499c-0.335-0.633-0.502-1.346-0.502-2.134 0-0.829 0.183-1.567 0.549-2.218 0.366-0.648 0.868-1.154 1.506-1.518 0.638-0.361 1.346-0.543 2.127-0.543 0.295 0 0.65 0.042 1.069 0.125 0.418 0.084 0.744 0.198 0.974 0.341l-0.299 0.682c-0.318-0.119-0.593-0.206-0.825-0.258-0.23-0.052-0.529-0.076-0.896-0.076-0.566 0-1.093 0.137-1.583 0.411s-0.884 0.673-1.183 1.195c-0.299 0.521-0.448 1.138-0.448 1.846 0 0.679 0.133 1.271 0.401 1.78 0.267 0.511 0.633 0.904 1.1 1.179 0.466 0.273 0.989 0.412 1.571 0.412 0.478 0 0.94-0.079 1.386-0.238v-2.582h-1.792z"/>
	<path d="m138.34 57.646h-4.207c0.024 0.654 0.201 1.169 0.532 1.548 0.33 0.378 0.838 0.568 1.523 0.568 0.31 0 0.595-0.04 0.854-0.12s0.568-0.207 0.926-0.382l0.299 0.692c-0.327 0.184-0.653 0.328-0.979 0.437-0.327 0.107-0.689 0.16-1.087 0.16-0.988 0-1.742-0.277-2.259-0.835-0.518-0.559-0.776-1.304-0.776-2.235 0-0.589 0.105-1.113 0.316-1.57 0.211-0.46 0.522-0.817 0.932-1.077 0.41-0.259 0.895-0.388 1.453-0.388 0.844 0 1.467 0.294 1.87 0.884 0.402 0.59 0.603 1.362 0.603 2.318zm-4.183-0.645h3.25c-0.136-1.171-0.661-1.757-1.577-1.757-0.495 0-0.883 0.157-1.165 0.474-0.283 0.314-0.452 0.741-0.508 1.283z"/>
	<path d="m140.44 60.396h-0.944v-5.797h0.705l0.155 0.825c0.279-0.287 0.621-0.525 1.027-0.717 0.407-0.19 0.793-0.287 1.159-0.287 0.614 0 1.07 0.186 1.369 0.556 0.299 0.369 0.448 0.866 0.448 1.488v3.919h-0.943v-3.788c0-0.431-0.08-0.765-0.239-1.004-0.16-0.239-0.427-0.358-0.801-0.358-0.287 0-0.611 0.1-0.974 0.3-0.362 0.198-0.683 0.449-0.961 0.752v4.111z"/>
	<path d="m150.63 57.646h-4.206c0.023 0.654 0.201 1.169 0.531 1.548 0.331 0.378 0.839 0.568 1.524 0.568 0.31 0 0.595-0.04 0.854-0.12 0.258-0.08 0.568-0.207 0.926-0.382l0.299 0.692c-0.326 0.184-0.653 0.328-0.979 0.437-0.328 0.107-0.689 0.16-1.088 0.16-0.988 0-1.741-0.277-2.258-0.835-0.519-0.559-0.777-1.304-0.777-2.235 0-0.589 0.105-1.113 0.316-1.57 0.211-0.46 0.522-0.817 0.933-1.077 0.41-0.259 0.894-0.388 1.452-0.388 0.844 0 1.469 0.294 1.871 0.884 0.401 0.59 0.602 1.362 0.602 2.318zm-4.183-0.645h3.25c-0.135-1.171-0.66-1.757-1.577-1.757-0.494 0-0.882 0.157-1.166 0.474-0.282 0.314-0.451 0.741-0.507 1.283z"/>
	<path d="m152.72 60.396h-0.943v-5.797h0.562l0.3 0.934c0.262-0.224 0.576-0.435 0.944-0.634 0.366-0.199 0.688-0.3 0.967-0.3l0.228 0.753c-0.318 0-0.674 0.106-1.064 0.317s-0.72 0.457-0.992 0.735v3.992z"/>
	<path d="m156.14 55.663l-0.274-0.719c0.207-0.142 0.513-0.262 0.914-0.357 0.402-0.096 0.735-0.143 0.998-0.143 0.438 0 0.829 0.083 1.171 0.251 0.344 0.166 0.609 0.398 0.801 0.692 0.191 0.296 0.287 0.63 0.287 1.004v4.004h-0.706l-0.119-0.586c-0.215 0.199-0.482 0.373-0.8 0.521-0.318 0.147-0.63 0.22-0.933 0.22-0.645 0-1.137-0.167-1.476-0.501s-0.508-0.769-0.508-1.304c0-0.557 0.191-0.991 0.573-1.302 0.383-0.31 0.889-0.466 1.518-0.466h1.494v-0.323c0-0.43-0.102-0.769-0.306-1.016-0.202-0.247-0.523-0.37-0.961-0.37-0.342 0-0.636 0.034-0.878 0.102-0.243 0.068-0.508 0.166-0.795 0.293zm0.227 3.082c0 0.279 0.093 0.522 0.275 0.73 0.184 0.207 0.454 0.311 0.813 0.311 0.312 0 0.608-0.08 0.89-0.24 0.284-0.158 0.532-0.366 0.748-0.62v-1.316h-1.53c-0.375 0-0.667 0.111-0.878 0.329-0.212 0.219-0.318 0.489-0.318 0.806z"/>
	<path d="m163.76 54.695l0.311 0.717h-1.362v3.346c0 0.312 0.067 0.555 0.204 0.729 0.135 0.176 0.343 0.262 0.62 0.262 0.152 0 0.327-0.038 0.527-0.118l0.215 0.741c-0.287 0.135-0.582 0.202-0.885 0.202-0.502 0-0.898-0.145-1.189-0.436-0.291-0.29-0.437-0.707-0.437-1.248v-3.479h-0.837l-0.011-0.717h0.848v-1.482l0.944-0.264v1.746h1.052z"/>
	<path d="m165.77 53.44c-0.184 0-0.334-0.062-0.453-0.179-0.12-0.121-0.18-0.272-0.18-0.455 0-0.184 0.06-0.336 0.18-0.461 0.119-0.123 0.27-0.185 0.453-0.185 0.175 0 0.328 0.063 0.454 0.191 0.127 0.128 0.191 0.279 0.191 0.454s-0.064 0.324-0.191 0.448c-0.125 0.125-0.279 0.187-0.454 0.187zm-0.465 6.956v-5.797h0.956v5.797h-0.956z"/>
	<path d="m172.67 59.087c-0.236 0.457-0.572 0.817-1.01 1.076-0.438 0.258-0.949 0.387-1.53 0.387-0.559 0-1.044-0.129-1.458-0.387-0.414-0.259-0.732-0.622-0.95-1.088-0.22-0.467-0.329-0.998-0.329-1.596 9e-3 -0.589 0.126-1.113 0.353-1.57 0.227-0.46 0.557-0.817 0.985-1.077 0.432-0.259 0.934-0.388 1.507-0.388 0.868 0 1.55 0.276 2.043 0.83 0.494 0.554 0.741 1.301 0.741 2.241-1e-3 0.59-0.118 1.114-0.352 1.572zm-1.13 0.036c0.335-0.419 0.506-0.951 0.515-1.596 0-0.686-0.16-1.237-0.479-1.656-0.318-0.418-0.769-0.627-1.349-0.627-0.574 0-1.028 0.209-1.363 0.627-0.335 0.419-0.507 0.951-0.515 1.597 0 0.677 0.16 1.227 0.478 1.649 0.319 0.423 0.769 0.632 1.352 0.632 0.572 0 1.026-0.208 1.361-0.626z"/>
	<path d="m175.1 60.396h-0.945v-5.797h0.707l0.154 0.825c0.279-0.287 0.622-0.525 1.027-0.717 0.407-0.19 0.793-0.287 1.16-0.287 0.613 0 1.069 0.186 1.368 0.556 0.299 0.369 0.447 0.866 0.447 1.488v3.919h-0.942v-3.788c0-0.431-0.08-0.765-0.24-1.004-0.159-0.239-0.426-0.358-0.801-0.358-0.287 0-0.611 0.1-0.975 0.3-0.361 0.198-0.683 0.449-0.961 0.752v4.111z"/>
	<path d="m188.88 52.567l-0.299 0.682c-0.319-0.119-0.594-0.206-0.824-0.258-0.231-0.052-0.534-0.076-0.909-0.076-0.525 0-1.005 0.146-1.439 0.441s-0.775 0.706-1.022 1.23c-0.246 0.526-0.37 1.12-0.37 1.78 0 0.622 0.107 1.189 0.322 1.704 0.217 0.513 0.53 0.919 0.944 1.22 0.414 0.298 0.9 0.447 1.458 0.447 0.383 0 0.715-0.032 0.998-0.096s0.548-0.151 0.795-0.263l0.359 0.717c-0.248 0.127-0.576 0.237-0.986 0.329-0.411 0.092-0.787 0.137-1.131 0.137-0.797 0-1.478-0.187-2.043-0.563-0.566-0.373-0.991-0.879-1.278-1.517-0.287-0.637-0.431-1.34-0.431-2.104 0-0.806 0.155-1.53 0.467-2.182 0.31-0.649 0.757-1.16 1.338-1.535 0.582-0.374 1.255-0.562 2.02-0.562 0.295 0 0.65 0.042 1.063 0.125 0.414 0.088 0.737 0.202 0.968 0.344z"/>
	<path d="m194.84 59.087c-0.235 0.457-0.571 0.817-1.01 1.076-0.438 0.258-0.948 0.387-1.529 0.387-0.558 0-1.044-0.129-1.458-0.387-0.414-0.259-0.731-0.622-0.949-1.088-0.22-0.467-0.329-0.998-0.329-1.596 7e-3 -0.589 0.125-1.113 0.352-1.57 0.228-0.46 0.557-0.817 0.986-1.077 0.43-0.259 0.932-0.388 1.506-0.388 0.868 0 1.55 0.276 2.043 0.83 0.495 0.554 0.741 1.301 0.741 2.241-1e-3 0.59-0.118 1.114-0.353 1.572zm-1.129 0.036c0.335-0.419 0.506-0.951 0.514-1.596 0-0.686-0.159-1.237-0.477-1.656-0.319-0.418-0.771-0.627-1.353-0.627-0.572 0-1.027 0.209-1.361 0.627-0.335 0.419-0.506 0.951-0.514 1.597 0 0.677 0.159 1.227 0.478 1.649 0.319 0.423 0.769 0.632 1.351 0.632 0.574 0 1.028-0.208 1.362-0.626z"/>
	<path d="m204.23 54.976c0.287 0.369 0.431 0.866 0.431 1.488v3.919h-0.944v-3.788c0-0.431-0.071-0.765-0.216-1.004-0.143-0.239-0.39-0.358-0.74-0.358-0.247 0-0.532 0.091-0.854 0.27s-0.624 0.408-0.903 0.687c9e-3 0.057 0.013 0.148 0.013 0.275v3.919h-0.943v-3.788c0-0.431-0.072-0.765-0.216-1.004s-0.391-0.358-0.74-0.358c-0.256 0-0.556 0.1-0.903 0.3-0.347 0.198-0.659 0.449-0.938 0.752v4.111h-0.944v-5.797h0.704l0.155 0.825c0.279-0.287 0.611-0.525 0.999-0.717 0.387-0.19 0.751-0.287 1.093-0.287 0.391 0 0.715 0.088 0.975 0.263 0.259 0.176 0.452 0.422 0.58 0.741 0.277-0.287 0.608-0.525 0.991-0.717 0.382-0.19 0.746-0.287 1.088-0.287 0.588-1e-3 1.026 0.184 1.312 0.555z"/>
	<path d="m210.5 55.287c0.49 0.561 0.734 1.304 0.734 2.229 0 0.59-0.112 1.113-0.341 1.571-0.227 0.457-0.548 0.817-0.967 1.076-0.419 0.258-0.911 0.387-1.477 0.387-0.422 0-0.863-0.146-1.326-0.44v2.772l-0.944 0.131v-8.414h0.562l0.204 0.407c0.239-0.175 0.493-0.313 0.765-0.413 0.271-0.1 0.525-0.148 0.765-0.148 0.86-1e-3 1.535 0.281 2.025 0.842zm-0.698 3.842c0.311-0.413 0.469-0.949 0.477-1.602 0-0.686-0.153-1.237-0.46-1.656-0.307-0.418-0.751-0.627-1.333-0.627-0.285 0-0.537 0.045-0.752 0.132-0.215 0.088-0.418 0.224-0.609 0.406v3.453c0.191 0.168 0.395 0.296 0.609 0.383 0.215 0.088 0.463 0.131 0.741 0.131 0.573 0 1.015-0.206 1.327-0.62z"/>
	<path d="m212.87 55.663l-0.274-0.719c0.207-0.142 0.513-0.262 0.914-0.357 0.403-0.096 0.735-0.143 0.998-0.143 0.438 0 0.828 0.083 1.171 0.251 0.342 0.166 0.609 0.398 0.801 0.692 0.19 0.296 0.286 0.63 0.286 1.004v4.004h-0.705l-0.119-0.586c-0.214 0.199-0.481 0.373-0.801 0.521-0.318 0.147-0.629 0.22-0.931 0.22-0.646 0-1.14-0.167-1.478-0.501s-0.508-0.769-0.508-1.304c0-0.557 0.191-0.991 0.574-1.302 0.383-0.31 0.888-0.466 1.518-0.466h1.495v-0.323c0-0.43-0.103-0.769-0.307-1.016-0.203-0.247-0.522-0.37-0.961-0.37-0.343 0-0.637 0.034-0.879 0.102s-0.507 0.166-0.794 0.293zm0.228 3.082c0 0.279 0.092 0.522 0.275 0.73 0.183 0.207 0.453 0.311 0.812 0.311 0.311 0 0.608-0.08 0.89-0.24 0.285-0.158 0.533-0.366 0.747-0.62v-1.316h-1.529c-0.374 0-0.668 0.111-0.878 0.329-0.212 0.219-0.317 0.489-0.317 0.806z"/>
	<path d="m219.16 60.396h-0.944v-5.797h0.704l0.155 0.825c0.28-0.287 0.621-0.525 1.028-0.717 0.406-0.19 0.792-0.287 1.159-0.287 0.612 0 1.07 0.186 1.369 0.556 0.298 0.369 0.446 0.866 0.446 1.488v3.919h-0.943v-3.788c0-0.431-0.079-0.765-0.238-1.004-0.16-0.239-0.427-0.358-0.801-0.358-0.287 0-0.611 0.1-0.974 0.3-0.363 0.198-0.685 0.449-0.962 0.752v4.111z"/>
	<path d="m225.69 61.352l0.358-0.992-2.15-5.581 0.837-0.358 1.757 4.661 1.661-4.482h0.955l-2.557 6.992c-0.136 0.358-0.365 0.665-0.688 0.92s-0.694 0.427-1.118 0.514l-0.287-0.681c0.374-0.176 0.651-0.325 0.831-0.448 0.18-0.126 0.314-0.306 0.401-0.545z"/>
	<path d="m22.376 2.92c2.247 1.314 4.016 3.266 5.309 5.851s1.94 5.68 1.94 9.283c0 4.578-1.145 8.605-3.434 12.081-2.289 3.477-5.193 6.222-8.711 8.234s-7.1 3.253-10.745 3.721l-1.145-3.943c2.585-0.296 5.182-1.08 7.789-2.353 2.607-1.271 4.906-3.021 6.899-5.246 1.992-2.226 3.327-4.821 4.005-7.79-2.967 2.417-6.104 3.625-9.411 3.625-2.797 0-5.225-0.55-7.28-1.653-2.057-1.102-3.625-2.605-4.706-4.514-1.081-1.907-1.621-4.026-1.621-6.359 0-2.457 0.583-4.663 1.749-6.612s2.776-3.486 4.833-4.61c2.055-1.123 4.356-1.685 6.899-1.685 2.84-1e-3 5.383 0.656 7.63 1.97zm-13.956 16.977c1.589 1.611 3.761 2.416 6.518 2.416 1.78 0 3.518-0.434 5.214-1.304 1.694-0.868 3.221-1.98 4.578-3.338-0.169-4.069-1.112-7.174-2.829-9.315-1.717-2.14-4.038-3.211-6.963-3.211-2.671 0-4.823 0.806-6.454 2.417-1.632 1.611-2.449 3.603-2.449 5.977 0 2.629 0.795 4.747 2.385 6.358z"/>
	<path d="m54.868 2.92c2.246 1.314 4.016 3.266 5.31 5.851 1.292 2.585 1.939 5.68 1.939 9.283 0 4.578-1.144 8.605-3.433 12.081-2.29 3.477-5.193 6.222-8.711 8.234-3.519 2.013-7.101 3.253-10.746 3.721l-1.145-3.943c2.585-0.296 5.183-1.08 7.789-2.353 2.607-1.271 4.906-3.021 6.9-5.246 1.991-2.226 3.326-4.821 4.005-7.79-2.968 2.417-6.104 3.625-9.411 3.625-2.798 0-5.225-0.55-7.281-1.653-2.056-1.102-3.625-2.605-4.705-4.514-1.081-1.907-1.622-4.026-1.622-6.359 0-2.457 0.583-4.663 1.749-6.612 1.165-1.949 2.775-3.486 4.833-4.61 2.055-1.123 4.355-1.685 6.899-1.685 2.839-1e-3 5.382 0.656 7.63 1.97zm-13.957 16.977c1.589 1.611 3.761 2.416 6.518 2.416 1.78 0 3.518-0.434 5.214-1.304 1.694-0.868 3.221-1.98 4.578-3.338-0.169-4.069-1.113-7.174-2.83-9.315-1.716-2.14-4.038-3.211-6.962-3.211-2.671 0-4.823 0.806-6.455 2.417s-2.448 3.603-2.448 5.977c0 2.629 0.796 4.747 2.385 6.358z"/>
<g fill="#00AFE8">
	<path d="m100.02 3.295l-1.45 3.306c-1.547-0.579-2.88-0.994-4.001-1.246-1.122-0.251-2.591-0.377-4.407-0.377-2.551 0-4.88 0.716-6.987 2.145-2.107 1.431-3.76 3.422-4.958 5.974s-1.797 5.432-1.797 8.64c0 3.016 0.522 5.77 1.566 8.264 1.042 2.492 2.57 4.464 4.581 5.914 2.009 1.45 4.369 2.175 7.075 2.175 1.855 0 3.469-0.155 4.84-0.463 1.373-0.311 2.658-0.734 3.857-1.277l1.74 3.48c-1.199 0.617-2.793 1.149-4.784 1.594-1.992 0.444-3.818 0.668-5.48 0.668-3.867 0-7.171-0.908-9.916-2.727-2.746-1.817-4.813-4.271-6.205-7.364-1.391-3.093-2.087-6.495-2.087-10.206 0-3.903 0.753-7.431 2.261-10.581 1.508-3.151 3.672-5.635 6.494-7.453 2.822-1.816 6.089-2.724 9.8-2.724 1.43 0 3.15 0.202 5.161 0.608 2.01 0.404 3.575 0.955 4.697 1.65z"/>
	<path d="m107.44 18.314l-1.333-3.48c1.004-0.694 2.482-1.274 4.436-1.738 1.951-0.465 3.565-0.696 4.841-0.696 2.125 0 4.02 0.406 5.683 1.217 1.662 0.813 2.957 1.935 3.885 3.364 0.927 1.431 1.392 3.055 1.392 4.87v19.427h-3.421l-0.58-2.842c-1.043 0.968-2.339 1.808-3.885 2.522-1.547 0.715-3.054 1.072-4.522 1.072-3.132 0-5.52-0.811-7.162-2.435-1.644-1.625-2.464-3.73-2.464-6.321 0-2.705 0.928-4.813 2.783-6.32 1.856-1.508 4.31-2.262 7.365-2.262h7.248v-1.565c0-2.088-0.493-3.729-1.478-4.929-0.986-1.197-2.542-1.797-4.669-1.797-1.662 0-3.083 0.164-4.261 0.491-1.181 0.33-2.466 0.803-3.858 1.422zm1.102 14.96c0 1.354 0.444 2.532 1.334 3.538 0.889 1.006 2.204 1.506 3.943 1.506 1.507 0 2.948-0.386 4.32-1.158s2.58-1.778 3.624-3.016v-6.378h-7.422c-1.817 0-3.238 0.531-4.262 1.594-1.025 1.064-1.537 2.369-1.537 3.914z"/>
	<path d="m133.94 41.277v-40.359l4.582-0.58v40.939h-4.582z"/>
	<path d="m146.93 41.277v-40.359l4.582-0.58v40.939h-4.582z"/>
	<path d="m157.89 39.653l1.449-3.306c2.627 1.316 5.16 1.971 7.595 1.971 2.126 0 3.808-0.366 5.046-1.101 1.236-0.733 1.854-1.759 1.854-3.073 0-2.088-2.318-3.903-6.958-5.451-2.706-0.889-4.91-1.99-6.609-3.306-1.703-1.313-2.552-2.995-2.552-5.044 0-2.475 0.937-4.416 2.812-5.827s4.436-2.117 7.685-2.117c1.313 0 2.85 0.231 4.609 0.696 1.758 0.464 3.14 1.063 4.146 1.798l-1.449 3.13c-1.275-0.579-2.475-1.043-3.595-1.391-1.123-0.348-2.397-0.521-3.827-0.521-1.74 0-3.161 0.376-4.263 1.129-1.103 0.755-1.652 1.731-1.652 2.93 0.038 1.006 0.617 1.875 1.739 2.609 1.121 0.734 2.726 1.449 4.814 2.146 6.299 2.318 9.45 5.297 9.45 8.93 0 2.591-0.977 4.601-2.928 6.031-1.952 1.429-4.745 2.145-8.38 2.145-1.314 0-2.88-0.212-4.696-0.637-1.819-0.426-3.248-1.006-4.29-1.741z"/>
</g>
	<path d="m181.64 41.752c-0.396 0-0.731-0.132-1.007-0.4-0.276-0.266-0.414-0.598-0.414-0.995 0-0.377 0.138-0.7 0.414-0.968 0.275-0.268 0.611-0.4 1.007-0.4 0.379 0 0.703 0.133 0.97 0.4s0.4 0.591 0.4 0.968c0 0.38-0.134 0.708-0.4 0.983-0.267 0.276-0.591 0.412-0.97 0.412z"/>
	<path d="m194.15 39.479l0.645 1.472c-0.516 0.328-1.188 0.6-2.016 0.814-0.826 0.216-1.523 0.324-2.093 0.324-1.24 0-2.317-0.28-3.229-0.84-0.914-0.561-1.612-1.345-2.093-2.352-0.483-1.008-0.725-2.159-0.725-3.451 0-1.274 0.255-2.407 0.763-3.398 0.508-0.99 1.227-1.765 2.158-2.325 0.93-0.561 2.014-0.841 3.256-0.841 0.567 0 1.262 0.108 2.08 0.323 0.818 0.217 1.478 0.487 1.977 0.814l-0.62 1.447c-0.688-0.293-1.263-0.509-1.719-0.646-0.456-0.138-1.046-0.207-1.77-0.207-1.24 0-2.223 0.452-2.946 1.356s-1.094 2.055-1.11 3.449c0 1.466 0.344 2.653 1.033 3.567 0.688 0.913 1.662 1.368 2.92 1.368 0.757 0 1.378-0.067 1.86-0.205s1.026-0.359 1.629-0.669z"/>
	<path d="m207.88 38.923c-0.508 0.991-1.236 1.767-2.184 2.327s-2.051 0.84-3.307 0.84c-1.207 0-2.259-0.28-3.154-0.84-0.896-0.561-1.581-1.345-2.055-2.352-0.474-1.008-0.711-2.159-0.711-3.451 0.018-1.274 0.272-2.407 0.763-3.398 0.491-0.99 1.202-1.765 2.133-2.325s2.016-0.841 3.255-0.841c1.879 0 3.352 0.6 4.42 1.797s1.602 2.813 1.602 4.846c0 1.274-0.254 2.407-0.762 3.397zm-2.443 0.078c0.724-0.903 1.094-2.055 1.111-3.45 0-1.481-0.346-2.675-1.033-3.579-0.689-0.904-1.663-1.356-2.921-1.356-1.24 0-2.222 0.452-2.945 1.356s-1.095 2.055-1.111 3.449c0 1.466 0.345 2.653 1.034 3.567 0.688 0.913 1.662 1.368 2.92 1.368 1.24 0 2.222-0.451 2.945-1.355z"/>
	<path d="m228.18 30.034c0.621 0.801 0.93 1.873 0.93 3.217v8.476h-2.041v-8.191c0-0.931-0.155-1.654-0.465-2.171-0.311-0.518-0.844-0.774-1.602-0.774-0.536 0-1.151 0.193-1.849 0.58-0.698 0.388-1.348 0.884-1.951 1.486 0.018 0.12 0.025 0.319 0.025 0.595v8.476h-2.041v-8.191c0-0.931-0.155-1.654-0.465-2.171-0.311-0.518-0.846-0.774-1.603-0.774-0.551 0-1.202 0.215-1.95 0.646-0.751 0.431-1.427 0.974-2.03 1.628v8.889h-2.04v-12.535h1.524l0.336 1.782c0.604-0.619 1.322-1.137 2.158-1.55s1.624-0.62 2.365-0.62c0.844 0 1.545 0.19 2.105 0.567 0.561 0.38 0.979 0.914 1.252 1.603 0.604-0.619 1.319-1.137 2.146-1.55s1.611-0.62 2.352-0.62c1.275 0 2.225 0.4 2.844 1.202z"/>
</svg>
