<svg xmlns="http://www.w3.org/2000/svg" width="20" height="20">
    <path fill="#FFF" fill-rule="evenodd" d="M19.598 5.843a9.436 9.436 0 0 1-.247.796 9.522 9.522 0 0 1-2.25 3.546l-.002.002-.008.008-.013.012-.013.012-1.667 1.423a8.353 8.353 0 0 1-4.191 7.325.47.47 0 0 1-.688-.287l-.662-2.583-1.382.505a1.884 1.884 0 0 1-1.969-.43l-2.551-2.535a1.857 1.857 0 0 1-.433-1.957l.509-1.372-2.6-.658a.463.463 0 0 1-.289-.683 8.386 8.386 0 0 1 1.331-1.719 8.464 8.464 0 0 1 6.041-2.446l1.432-1.656.012-.013.012-.014.008-.007.002-.002A9.622 9.622 0 0 1 14.35.629a9.703 9.703 0 0 1 4.896.021.463.463 0 0 1 .331.328 9.528 9.528 0 0 1 .021 4.865zm-8.332 11.985a7.428 7.428 0 0 0 3.159-5.356l-3.718 3.175.559 2.181zM8.152 15.73l1.182-.433-.603-.599-1.459.906c.25.184.582.235.88.126zm-1.568-.795l1.468-.911-.637-.633-1.193 1.185.362.359zm-1.023-1.016l1.193-1.185-.637-.633L5.2 13.56l.361.359zm-1.035-1.043l.912-1.45-.603-.599-.435 1.174a.928.928 0 0 0 .126.875zM3.135 7.905a7.533 7.533 0 0 0-.847 1.003l2.195.556 3.195-3.695a7.521 7.521 0 0 0-4.543 2.136zm10.481-6.064a8.666 8.666 0 0 0-2.974 1.926L9.08 5.573l-.01.013L5.286 9.96l4.92 4.889 6.234-5.322a8.61 8.61 0 0 0 1.939-2.955l-4.763-4.731zm5.124-.36a8.77 8.77 0 0 0-4.122.04L18.7 5.578a8.602 8.602 0 0 0 .04-4.097zm-6.17 8.996a2.876 2.876 0 0 1-2.884-2.866c0-.764.3-1.484.844-2.025a2.872 2.872 0 0 1 2.04-.839c.77 0 1.494.297 2.039.839a2.856 2.856 0 0 1 0 4.052 2.876 2.876 0 0 1-2.039.839zm1.377-4.234a1.94 1.94 0 0 0-1.377-.567 1.94 1.94 0 0 0-1.378.567 1.918 1.918 0 0 0-.571 1.368c0 .518.203 1.004.571 1.37a1.94 1.94 0 0 0 1.378.567 1.94 1.94 0 0 0 1.377-.567c.76-.755.76-1.983 0-2.738zM1.78 16.097a.464.464 0 0 1-.331-.793l.961-.955a.468.468 0 0 1 .661 0 .462.462 0 0 1 0 .657l-.96.955a.47.47 0 0 1-.331.136zm2.65-.398a.462.462 0 0 1 0 .657l-3.202 3.182a.47.47 0 0 1-.661 0 .463.463 0 0 1 0-.658l3.202-3.181a.47.47 0 0 1 .661 0zm.698 1.35a.47.47 0 0 1 .661 0 .462.462 0 0 1 0 .657l-1.601 1.591a.47.47 0 0 1-.662 0 .464.464 0 0 1 0-.657l1.602-1.591z"/>
</svg>
