<svg id="Camada_1" data-name="Camada 1" xmlns="http://www.w3.org/2000/svg" viewBox="0 0 48 44"><defs><style>.cls-1{fill:#216cd2;}</style></defs><title>invoicemap-icon-persons</title><path class="cls-1" d="M487.41,4873.24l-7.82-3.38a1.62,1.62,0,0,1-.56-0.62h5.22a9.27,9.27,0,0,0,4-.54,2.38,2.38,0,0,0,1-3.54c-1.49-2.12-5-7.67-5.08-13.3,0-.1-0.32-9.67-9.77-9.75a11.3,11.3,0,0,0-3.85.68,6.58,6.58,0,0,0-1.19-2c-1.64-1.87-4.31-2.82-7.93-2.82s-6.28.95-7.93,2.82a7.15,7.15,0,0,0-1.67,5.22v4.26a3.18,3.18,0,0,0-.8,2.1v3.2a3.17,3.17,0,0,0,1.2,2.49,16.74,16.74,0,0,0,2.8,5.79v2.65a2.11,2.11,0,0,1-1.1,1.86l-7.14,3.89a7.21,7.21,0,0,0-3.76,6.34V4882h48v-3a6.46,6.46,0,0,0-3.59-5.8h0Zm-9.22,7.16H444.6v-1.79a5.61,5.61,0,0,1,2.93-4.93l7.14-3.9a3.72,3.72,0,0,0,1.94-3.26v-3.21l-0.19-.22a15.09,15.09,0,0,1-2.73-5.65l-0.08-.32-0.27-.18a1.59,1.59,0,0,1-.74-1.34v-3.2a1.57,1.57,0,0,1,.54-1.18l0.26-.24v-5.08a5.53,5.53,0,0,1,1.28-4c1.33-1.51,3.59-2.28,6.72-2.28s5.38,0.76,6.71,2.26a5.17,5.17,0,0,1,1.16,2.29c0,0.06,0,.11,0,0.17l0,0.17,0,0.18s0,0.09,0,.13,0,0.2,0,.29a0,0,0,0,1,0,0v0.49c0,0.19,0,.3,0,0.3V4851l0.27,0.24a1.57,1.57,0,0,1,.54,1.18v3.2a1.59,1.59,0,0,1-1.14,1.52l-0.4.12-0.13.4a16.78,16.78,0,0,1-2.27,4.57,10.12,10.12,0,0,1-.67.86l-0.2.23v3.3a3.8,3.8,0,0,0,.06.6s0,0.08,0,.12a3.69,3.69,0,0,0,.13.47l0,0.11a3.35,3.35,0,0,0,.22.48l0,0.05a4,4,0,0,0,.4.58l0.18,0.23h0a3.72,3.72,0,0,0,.95.68l7.64,3.82a5.58,5.58,0,0,1,3.1,5v1.63Zm11.2,0h-9.6v-1.63a7.18,7.18,0,0,0-4-6.45l-5.49-2.75a1.38,1.38,0,0,0-1.27-1.93h-1.77c0-.07-0.06-0.14-0.09-0.21a2.13,2.13,0,0,1-.11-0.28,2,2,0,0,1-.08-0.55v-2.7q0.28-.34.57-0.76a18.27,18.27,0,0,0,2.36-4.64,3.17,3.17,0,0,0,1.86-2.89v-3.2a3.18,3.18,0,0,0-.8-2.1V4846a7.1,7.1,0,0,0-.07-1.71,9.57,9.57,0,0,1,3.43-.62c7.88,0.06,8.16,7.85,8.17,8.18,0.12,6.07,3.8,11.94,5.37,14.18a0.79,0.79,0,0,1,.11.66,0.77,0.77,0,0,1-.43.49,7.88,7.88,0,0,1-3.26.41h-5.5a1.47,1.47,0,0,0-1.32,2.12,3.35,3.35,0,0,0,1.42,1.54l7.8,3.38a4.87,4.87,0,0,1,2.68,4.36v1.35Zm0,0" transform="translate(-443 -4838)"/></svg>