<svg id="Camada_1" data-name="Camada 1" xmlns="http://www.w3.org/2000/svg" viewBox="0 0 43.2 41.6"><defs><style>.cls-1{opacity:0.9;}.cls-2{fill:#216cd3;}</style></defs><title>invoicemap-icon-map</title><g class="cls-1"><path class="cls-2" d="M224.81,4837.11a0.79,0.79,0,0,0-.78,0l-13.23,7-13.23-7h0l-0.12,0-0.07,0h-0.19l-0.13,0-0.07,0h0l-14.4,4.8a0.8,0.8,0,0,0-.55.76V4877a0.8,0.8,0,0,0,.33.65,0.78,0.78,0,0,0,.47.15,0.84,0.84,0,0,0,.25,0l14.11-4.7,13.33,5.48h0a0.8,0.8,0,0,0,.27.05,0.77,0.77,0,0,0,.21,0l0.07,0,0.1,0,13.6-7.2a0.81,0.81,0,0,0,.43-0.71v-32.8a0.8,0.8,0,0,0-.39-0.69h0Zm-41.21,6.06,12.8-4.27v21.59c-0.34.06-.68,0.13-1,0.22a0.8,0.8,0,0,0,.2,1.58,0.76,0.76,0,0,0,.21,0c0.19-.05.4-0.07,0.6-0.12v9.47l-12.8,4.27v-32.71Zm14.4,18.75c0.26,0,.5-0.05.77-0.06a0.8,0.8,0,0,0,0-1.6h0l-0.73,0v-21.18l12,6.35v17a11.73,11.73,0,0,1-1.76-.21,0.8,0.8,0,0,0-.3,1.57,13.41,13.41,0,0,0,2.07.23v12.58l-12-4.94v-9.73Zm25.6,8.19-12,6.35v-12.53a0.79,0.79,0,0,0,.47-0.78,0.8,0.8,0,0,0-.47-0.66v-17l12-6.35v31Zm0,0" transform="translate(-182 -4837)"/><path class="cls-2" d="M190.8,4843.4a4,4,0,0,0-.8,7.92V4853a0.8,0.8,0,1,0,1.6,0v-1.68a4,4,0,0,0-.8-7.92h0Zm0,6.4a2.4,2.4,0,1,1,2.4-2.4,2.41,2.41,0,0,1-2.4,2.4h0Zm0,0" transform="translate(-182 -4837)"/><path class="cls-2" d="M218.05,4858.34a0.86,0.86,0,0,0,.29.05,0.8,0.8,0,0,0,.75-0.51,18.07,18.07,0,0,0,.9-3.22,0.8,0.8,0,1,0-1.57-.29,16.14,16.14,0,0,1-.82,2.93,0.81,0.81,0,0,0,.45,1h0Zm0,0" transform="translate(-182 -4837)"/><path class="cls-2" d="M192.24,4862.07a11.08,11.08,0,0,0-2.59,2.25,0.8,0.8,0,1,0,1.22,1,9.5,9.5,0,0,1,2.21-1.93,0.8,0.8,0,1,0-.85-1.36h0Zm0,0" transform="translate(-182 -4837)"/><path class="cls-2" d="M188.9,4866.82a0.8,0.8,0,0,0-1.06.39,12.66,12.66,0,0,0-1,3.28,0.79,0.79,0,0,0,.68.9h0.11a0.81,0.81,0,0,0,.79-0.69,11.19,11.19,0,0,1,.9-2.83,0.8,0.8,0,0,0-.39-1.06h0Zm0,0" transform="translate(-182 -4837)"/><path class="cls-2" d="M214.34,4863.18a0.81,0.81,0,0,0,.36-0.09,8.43,8.43,0,0,0,2.71-2.23,0.8,0.8,0,1,0-1.25-1,6.74,6.74,0,0,1-2.19,1.81,0.8,0.8,0,0,0,.37,1.51h0Zm0,0" transform="translate(-182 -4837)"/><path class="cls-2" d="M205.34,4861.35l-0.57-.26a0.59,0.59,0,0,0-.16-0.06c-0.86-.22-1.72-0.4-2.54-0.52a0.8,0.8,0,1,0-.24,1.58c0.74,0.11,1.51.27,2.3,0.47l0.6,0.27a0.79,0.79,0,0,0,.31.06,0.8,0.8,0,0,0,.31-1.54h0Zm0,0" transform="translate(-182 -4837)"/><path class="cls-2" d="M219.54,4852.14h0.05a0.8,0.8,0,0,0,.8-0.75c0.05-.77.07-1.58,0.07-2.42,0-.28,0-0.56,0-0.85a0.82,0.82,0,0,0-.81-0.79,0.8,0.8,0,0,0-.79.82c0,0.28,0,.55,0,0.82,0,0.8,0,1.58-.07,2.32a0.8,0.8,0,0,0,.75.85h0Zm0,0" transform="translate(-182 -4837)"/><path class="cls-2" d="M188.63,4859.16a0.8,0.8,0,0,0,1.13,0l1-1,1,1A0.8,0.8,0,0,0,193,4858l-1-1,1-1a0.8,0.8,0,1,0-1.13-1.13l-1,1-1-1a0.8,0.8,0,0,0-1.13,1.13l1,1-1,1a0.8,0.8,0,0,0,0,1.13h0Zm0,0" transform="translate(-182 -4837)"/></g></svg>