<?xml version="1.0" encoding="UTF-8"?>
<svg width="230px" height="303px" viewBox="0 0 230 303" version="1.1" xmlns="http://www.w3.org/2000/svg" xmlns:xlink="http://www.w3.org/1999/xlink">
    <!-- Generator: Sketch 50 (54983) - http://www.bohemiancoding.com/sketch -->
    <title>Mockup / Review GREY</title>
    <desc>Created with Sketch.</desc>
    <defs>
        <circle id="path-1" cx="18.3828996" cy="18.3828996" r="18.3828996"></circle>
        <rect id="path-3" x="0" y="0" width="41.8959108" height="41.8959108" rx="2.05204449"></rect>
        <rect id="path-5" x="0" y="0" width="41.8959108" height="41.8959108" rx="2.05204449"></rect>
        <rect id="path-7" x="0" y="0" width="41.8959108" height="41.8959108" rx="2.05204449"></rect>
    </defs>
    <g id="Mockup-/-Review-GREY" stroke="none" stroke-width="1" fill="none" fill-rule="evenodd">
        <g id="Review-Copy">
            <rect id="Rectangle-6" fill="#FFFFFF" x="0" y="0" width="230" height="302.67658" rx="4.27509294"></rect>
            <g id="Group-6" transform="translate(34.200743, 30.613383)">
                <g id="Group-3">
                    <g id="Group-12" transform="translate(0.855019, 125.000000)">
                        <g id="Stars">
                            <g id="Group-3-Copy" transform="translate(48.142124, 28.215613)"></g>
                            <polygon id="Star-Copy-7" fill="#051146" points="53.4386617 30.2998871 49.4754326 32.4907063 50.232342 27.8504769 47.0260223 24.5642481 51.4570472 23.8872477 53.4386617 19.6654275 55.4202763 23.8872477 59.8513011 24.5642481 56.6449814 27.8504769 57.4018908 32.4907063"></polygon>
                            <g id="6">
                                <mask id="mask-2" fill="white">
                                    <use xlink:href="#path-1"></use>
                                </mask>
                                <circle stroke="#DADADA" stroke-width="0.5" cx="18.3828996" cy="18.3828996" r="18.6328996"></circle>
                            </g>
                            <polygon id="Star-Copy-19" fill="#051146" points="68.8289963 30.2998871 64.8657672 32.4907063 65.6226766 27.8504769 62.4163569 24.5642481 66.8473817 23.8872477 68.8289963 19.6654275 70.8106108 23.8872477 75.2416357 24.5642481 72.035316 27.8504769 72.7922254 32.4907063"></polygon>
                            <polygon id="Star-Copy-20" fill="#051146" points="84.2193309 30.2998871 80.2561017 32.4907063 81.0130112 27.8504769 77.8066914 24.5642481 82.2377163 23.8872477 84.2193309 19.6654275 86.2009454 23.8872477 90.6319703 24.5642481 87.4256506 27.8504769 88.18256 32.4907063"></polygon>
                            <polygon id="Star-Copy-21" fill="#051146" points="99.6096654 30.2998871 95.6464363 32.4907063 96.4033457 27.8504769 93.197026 24.5642481 97.6280509 23.8872477 99.6096654 19.6654275 101.59128 23.8872477 106.022305 24.5642481 102.815985 27.8504769 103.572895 32.4907063"></polygon>
                            <polygon id="Star-Copy-22" fill="#DFE3EA" points="115 30.2998871 111.036771 32.4907063 111.79368 27.8504769 108.587361 24.5642481 113.018385 23.8872477 115 19.6654275 116.981615 23.8872477 121.412639 24.5642481 118.20632 27.8504769 118.963229 32.4907063"></polygon>
                        </g>
                    </g>
                    <g id="Group" transform="translate(0.000000, 0.275093)" fill="#DFE3EA">
                        <rect id="Rectangle" x="0" y="172" width="162.453532" height="4.27509294" rx="2.13754647"></rect>
                        <rect id="Rectangle-Copy" opacity="0.508482143" x="49" y="130" width="40" height="4.27509294" rx="2.13754647"></rect>
                        <rect id="Rectangle-Copy-2" opacity="0.508482143" x="122" y="0" width="40" height="4.27509294" rx="2.13754647"></rect>
                        <rect id="Rectangle-Copy-4" opacity="0.508482143" x="0" y="36" width="40" height="4.27509294" rx="2.13754647"></rect>
                        <rect id="Rectangle-Copy-5" opacity="0.508482143" x="0" y="52.3333333" width="40" height="4.27509294" rx="2.13754647"></rect>
                        <rect id="Rectangle-Copy-6" opacity="0.508482143" x="0" y="68.6666667" width="40" height="4.27509294" rx="2.13754647"></rect>
                        <rect id="Rectangle-Copy-7" opacity="0.508482143" x="0" y="85" width="40" height="4.27509294" rx="2.13754647"></rect>
                        <rect id="Rectangle-Copy-3" x="0" y="182.866171" width="111.152416" height="4.27509294" rx="2.13754647"></rect>
                    </g>
                </g>
                <g id="Screen-Shot-2018-05-08-at-17.27.58" transform="translate(50.446097, 198.531599)">
                    <mask id="mask-4" fill="white">
                        <use xlink:href="#path-3"></use>
                    </mask>
                    <use id="Mask" fill="#EFEFEF" xlink:href="#path-3"></use>
                </g>
                <g id="Screen-Shot-2018-05-08-at-17.27.58-Copy-2" transform="translate(100.892193, 198.531599)">
                    <mask id="mask-6" fill="white">
                        <use xlink:href="#path-5"></use>
                    </mask>
                    <use id="Mask" fill="#EFEFEF" xlink:href="#path-5"></use>
                </g>
                <g id="Screen-Shot-2018-05-08-at-17.27.58-Copy" transform="translate(0.000000, 198.531599)">
                    <mask id="mask-8" fill="white">
                        <use xlink:href="#path-7"></use>
                    </mask>
                    <use id="Mask" fill="#EFEFEF" xlink:href="#path-7"></use>
                </g>
            </g>
            <path d="M34.2007435,140.223048 L196.654275,140.223048" id="Line" stroke="#EDEDED" stroke-width="0.855018587" stroke-linecap="square"></path>
            <g id="Group-5" transform="translate(103.200743, 65.706320)">
                <g id="Group-19" transform="translate(0.256506, 0.130112)">
                    <path d="M2.13754647,0 L14.1078067,1.77635684e-15 C15.288341,5.109711e-16 16.2453532,0.957012152 16.2453532,2.13754647 L16.2453532,2.13754647 C16.2453532,3.31808078 15.288341,4.27509294 14.1078067,4.27509294 L2.13754647,4.27509294 C0.957012152,4.27509294 1.44573757e-16,3.31808078 0,2.13754647 L0,2.13754647 C-1.44573757e-16,0.957012152 0.957012152,2.16860636e-16 2.13754647,0 Z" id="Rectangle-2" fill="#1576EC"></path>
                    <path d="M2.13754647,17.1003717 L14.1078067,17.1003717 C15.288341,17.1003717 16.2453532,18.0573839 16.2453532,19.2379182 L16.2453532,19.2379182 C16.2453532,20.4184525 15.288341,21.3754647 14.1078067,21.3754647 L2.13754647,21.3754647 C0.957012152,21.3754647 1.44573757e-16,20.4184525 0,19.2379182 L0,19.2379182 C-1.44573757e-16,18.0573839 0.957012152,17.1003717 2.13754647,17.1003717 Z" id="Rectangle-2-Copy-5" fill="#1576EC"></path>
                    <path d="M2.13754647,34.2007435 L14.1078067,34.2007435 C15.288341,34.2007435 16.2453532,35.1577556 16.2453532,36.33829 L16.2453532,36.33829 C16.2453532,37.5188243 15.288341,38.4758364 14.1078067,38.4758364 L2.13754647,38.4758364 C0.957012152,38.4758364 1.44573757e-16,37.5188243 0,36.33829 L0,36.33829 C-1.44573757e-16,35.1577556 0.957012152,34.2007435 2.13754647,34.2007435 Z" id="Rectangle-2-Copy-10" fill="#1576EC"></path>
                    <path d="M2.13754647,51.3011152 L14.1078067,51.3011152 C15.288341,51.3011152 16.2453532,52.2581274 16.2453532,53.4386617 L16.2453532,53.4386617 C16.2453532,54.619196 15.288341,55.5762082 14.1078067,55.5762082 L2.13754647,55.5762082 C0.957012152,55.5762082 1.44573757e-16,54.619196 0,53.4386617 L0,53.4386617 C-1.44573757e-16,52.2581274 0.957012152,51.3011152 2.13754647,51.3011152 Z" id="Rectangle-2-Copy-15" fill="#1576EC"></path>
                    <path d="M21.802974,0 L33.7732342,1.77635684e-15 C34.9537685,5.109711e-16 35.9107807,0.957012152 35.9107807,2.13754647 L35.9107807,2.13754647 C35.9107807,3.31808078 34.9537685,4.27509294 33.7732342,4.27509294 L21.802974,4.27509294 C20.6224397,4.27509294 19.6654275,3.31808078 19.6654275,2.13754647 L19.6654275,2.13754647 C19.6654275,0.957012152 20.6224397,2.16860636e-16 21.802974,0 Z" id="Rectangle-2-Copy" fill="#1576EC"></path>
                    <path d="M21.802974,17.1003717 L33.7732342,17.1003717 C34.9537685,17.1003717 35.9107807,18.0573839 35.9107807,19.2379182 L35.9107807,19.2379182 C35.9107807,20.4184525 34.9537685,21.3754647 33.7732342,21.3754647 L21.802974,21.3754647 C20.6224397,21.3754647 19.6654275,20.4184525 19.6654275,19.2379182 L19.6654275,19.2379182 C19.6654275,18.0573839 20.6224397,17.1003717 21.802974,17.1003717 Z" id="Rectangle-2-Copy-6" fill="#1576EC"></path>
                    <path d="M21.802974,34.2007435 L33.7732342,34.2007435 C34.9537685,34.2007435 35.9107807,35.1577556 35.9107807,36.33829 L35.9107807,36.33829 C35.9107807,37.5188243 34.9537685,38.4758364 33.7732342,38.4758364 L21.802974,38.4758364 C20.6224397,38.4758364 19.6654275,37.5188243 19.6654275,36.33829 L19.6654275,36.33829 C19.6654275,35.1577556 20.6224397,34.2007435 21.802974,34.2007435 Z" id="Rectangle-2-Copy-11" fill="#1576EC"></path>
                    <path d="M21.802974,51.3011152 L33.7732342,51.3011152 C34.9537685,51.3011152 35.9107807,52.2581274 35.9107807,53.4386617 L35.9107807,53.4386617 C35.9107807,54.619196 34.9537685,55.5762082 33.7732342,55.5762082 L21.802974,55.5762082 C20.6224397,55.5762082 19.6654275,54.619196 19.6654275,53.4386617 L19.6654275,53.4386617 C19.6654275,52.2581274 20.6224397,51.3011152 21.802974,51.3011152 Z" id="Rectangle-2-Copy-16" fill="#1576EC"></path>
                    <path d="M40.6133829,0 L52.5836431,1.77635684e-15 C53.7641774,5.109711e-16 54.7211896,0.957012152 54.7211896,2.13754647 L54.7211896,2.13754647 C54.7211896,3.31808078 53.7641774,4.27509294 52.5836431,4.27509294 L40.6133829,4.27509294 C39.4328486,4.27509294 38.4758364,3.31808078 38.4758364,2.13754647 L38.4758364,2.13754647 C38.4758364,0.957012152 39.4328486,2.16860636e-16 40.6133829,0 Z" id="Rectangle-2-Copy-2" fill="#1576EC"></path>
                    <path d="M40.6133829,17.1003717 L52.5836431,17.1003717 C53.7641774,17.1003717 54.7211896,18.0573839 54.7211896,19.2379182 L54.7211896,19.2379182 C54.7211896,20.4184525 53.7641774,21.3754647 52.5836431,21.3754647 L40.6133829,21.3754647 C39.4328486,21.3754647 38.4758364,20.4184525 38.4758364,19.2379182 L38.4758364,19.2379182 C38.4758364,18.0573839 39.4328486,17.1003717 40.6133829,17.1003717 Z" id="Rectangle-2-Copy-7" fill="#1576EC"></path>
                    <path d="M40.6133829,34.2007435 L52.5836431,34.2007435 C53.7641774,34.2007435 54.7211896,35.1577556 54.7211896,36.33829 L54.7211896,36.33829 C54.7211896,37.5188243 53.7641774,38.4758364 52.5836431,38.4758364 L40.6133829,38.4758364 C39.4328486,38.4758364 38.4758364,37.5188243 38.4758364,36.33829 L38.4758364,36.33829 C38.4758364,35.1577556 39.4328486,34.2007435 40.6133829,34.2007435 Z" id="Rectangle-2-Copy-12" fill="#BFD7F5"></path>
                    <path d="M40.6133829,51.3011152 L52.5836431,51.3011152 C53.7641774,51.3011152 54.7211896,52.2581274 54.7211896,53.4386617 L54.7211896,53.4386617 C54.7211896,54.619196 53.7641774,55.5762082 52.5836431,55.5762082 L40.6133829,55.5762082 C39.4328486,55.5762082 38.4758364,54.619196 38.4758364,53.4386617 L38.4758364,53.4386617 C38.4758364,52.2581274 39.4328486,51.3011152 40.6133829,51.3011152 Z" id="Rectangle-2-Copy-17" fill="#1576EC"></path>
                    <path d="M60.2788104,0 L72.2490706,1.77635684e-15 C73.4296049,5.109711e-16 74.3866171,0.957012152 74.3866171,2.13754647 L74.3866171,2.13754647 C74.3866171,3.31808078 73.4296049,4.27509294 72.2490706,4.27509294 L60.2788104,4.27509294 C59.0982761,4.27509294 58.1412639,3.31808078 58.1412639,2.13754647 L58.1412639,2.13754647 C58.1412639,0.957012152 59.0982761,2.16860636e-16 60.2788104,0 Z" id="Rectangle-2-Copy-3" fill="#1576EC"></path>
                    <path d="M60.2788104,17.1003717 L72.2490706,17.1003717 C73.4296049,17.1003717 74.3866171,18.0573839 74.3866171,19.2379182 L74.3866171,19.2379182 C74.3866171,20.4184525 73.4296049,21.3754647 72.2490706,21.3754647 L60.2788104,21.3754647 C59.0982761,21.3754647 58.1412639,20.4184525 58.1412639,19.2379182 L58.1412639,19.2379182 C58.1412639,18.0573839 59.0982761,17.1003717 60.2788104,17.1003717 Z" id="Rectangle-2-Copy-8" fill="#1576EC"></path>
                    <path d="M60.2788104,34.2007435 L72.2490706,34.2007435 C73.4296049,34.2007435 74.3866171,35.1577556 74.3866171,36.33829 L74.3866171,36.33829 C74.3866171,37.5188243 73.4296049,38.4758364 72.2490706,38.4758364 L60.2788104,38.4758364 C59.0982761,38.4758364 58.1412639,37.5188243 58.1412639,36.33829 L58.1412639,36.33829 C58.1412639,35.1577556 59.0982761,34.2007435 60.2788104,34.2007435 Z" id="Rectangle-2-Copy-13" fill="#BFD7F5"></path>
                    <path d="M60.2788104,51.3011152 L72.2490706,51.3011152 C73.4296049,51.3011152 74.3866171,52.2581274 74.3866171,53.4386617 L74.3866171,53.4386617 C74.3866171,54.619196 73.4296049,55.5762082 72.2490706,55.5762082 L60.2788104,55.5762082 C59.0982761,55.5762082 58.1412639,54.619196 58.1412639,53.4386617 L58.1412639,53.4386617 C58.1412639,52.2581274 59.0982761,51.3011152 60.2788104,51.3011152 Z" id="Rectangle-2-Copy-18" fill="#1576EC"></path>
                    <path d="M79.0892193,0 L91.0594796,1.77635684e-15 C92.2400139,5.109711e-16 93.197026,0.957012152 93.197026,2.13754647 L93.197026,2.13754647 C93.197026,3.31808078 92.2400139,4.27509294 91.0594796,4.27509294 L79.0892193,4.27509294 C77.908685,4.27509294 76.9516729,3.31808078 76.9516729,2.13754647 L76.9516729,2.13754647 C76.9516729,0.957012152 77.908685,2.16860636e-16 79.0892193,0 Z" id="Rectangle-2-Copy-4" fill="#1576EC"></path>
                    <path d="M79.0892193,17.1003717 L91.0594796,17.1003717 C92.2400139,17.1003717 93.197026,18.0573839 93.197026,19.2379182 L93.197026,19.2379182 C93.197026,20.4184525 92.2400139,21.3754647 91.0594796,21.3754647 L79.0892193,21.3754647 C77.908685,21.3754647 76.9516729,20.4184525 76.9516729,19.2379182 L76.9516729,19.2379182 C76.9516729,18.0573839 77.908685,17.1003717 79.0892193,17.1003717 Z" id="Rectangle-2-Copy-9" fill="#BFD7F5"></path>
                    <path d="M79.0892193,34.2007435 L91.0594796,34.2007435 C92.2400139,34.2007435 93.197026,35.1577556 93.197026,36.33829 L93.197026,36.33829 C93.197026,37.5188243 92.2400139,38.4758364 91.0594796,38.4758364 L79.0892193,38.4758364 C77.908685,38.4758364 76.9516729,37.5188243 76.9516729,36.33829 L76.9516729,36.33829 C76.9516729,35.1577556 77.908685,34.2007435 79.0892193,34.2007435 Z" id="Rectangle-2-Copy-14" fill="#BFD7F5"></path>
                    <path d="M79.0892193,51.3011152 L91.0594796,51.3011152 C92.2400139,51.3011152 93.197026,52.2581274 93.197026,53.4386617 L93.197026,53.4386617 C93.197026,54.619196 92.2400139,55.5762082 91.0594796,55.5762082 L79.0892193,55.5762082 C77.908685,55.5762082 76.9516729,54.619196 76.9516729,53.4386617 L76.9516729,53.4386617 C76.9516729,52.2581274 77.908685,51.3011152 79.0892193,51.3011152 Z" id="Rectangle-2-Copy-19" fill="#BFD7F5"></path>
                </g>
            </g>
            <text id="4.2-/-5" font-family="DINAlternate-Bold, DIN Alternate" font-size="23.0855019" font-weight="bold" fill="#041A58">
                <tspan x="34.5046759" y="35.6802974">4.2 / 5</tspan>
            </text>
        </g>
        <rect id="Rectangle-16" fill="#DEDFEB" style="mix-blend-mode: color;" x="0" y="0" width="230" height="303"></rect>
        <rect id="Rectangle-16" fill="#DEDFEB" style="mix-blend-mode: lighten;" x="0" y="0" width="230" height="303"></rect>
    </g>
</svg>