<?xml version="1.0" encoding="UTF-8"?>
<svg width="281px" height="230px" viewBox="0 0 281 230" version="1.1" xmlns="http://www.w3.org/2000/svg" xmlns:xlink="http://www.w3.org/1999/xlink">
    <!-- Generator: Sketch 50 (54983) - http://www.bohemiancoding.com/sketch -->
    <title>Mockup / Google grey</title>
    <desc>Created with Sketch.</desc>
    <defs>
        <rect id="path-1" x="0" y="0" width="281" height="230.12931" rx="2.42241379"></rect>
        <linearGradient x1="50%" y1="19.2957938%" x2="50%" y2="84.352093%" id="linearGradient-3">
            <stop stop-color="#E6E7F1" offset="0%"></stop>
            <stop stop-color="#E2E1E7" offset="100%"></stop>
        </linearGradient>
        <path d="M27.718004,11.772931 L14.3481432,11.772931 L14.3481432,17.3323707 L22.0439655,17.3323707 C21.3265584,20.86425 18.326492,22.8918103 14.3481432,22.8918103 C9.65238727,22.8918103 5.86969496,19.0983103 5.86969496,14.3891379 C5.86969496,9.67996552 9.65238727,5.88646552 14.3481432,5.88646552 C16.3699271,5.88646552 18.1960544,6.60592241 19.6308687,7.78321552 L23.804874,3.59728448 C21.2613395,1.37350862 18.0003979,0 14.3481432,0 C6.39144562,0 0,6.4097069 0,14.3891379 C0,22.368569 6.39144562,28.7782759 14.3481432,28.7782759 C21.5222149,28.7782759 28.0440981,23.5458621 28.0440981,14.3891379 C28.0440981,13.5388707 27.9136605,12.6231983 27.718004,11.772931 Z" id="path-4"></path>
        <path d="M27.718004,11.772931 L14.3481432,11.772931 L14.3481432,17.3323707 L22.0439655,17.3323707 C21.3265584,20.86425 18.326492,22.8918103 14.3481432,22.8918103 C9.65238727,22.8918103 5.86969496,19.0983103 5.86969496,14.3891379 C5.86969496,9.67996552 9.65238727,5.88646552 14.3481432,5.88646552 C16.3699271,5.88646552 18.1960544,6.60592241 19.6308687,7.78321552 L23.804874,3.59728448 C21.2613395,1.37350862 18.0003979,0 14.3481432,0 C6.39144562,0 0,6.4097069 0,14.3891379 C0,22.368569 6.39144562,28.7782759 14.3481432,28.7782759 C21.5222149,28.7782759 28.0440981,23.5458621 28.0440981,14.3891379 C28.0440981,13.5388707 27.9136605,12.6231983 27.718004,11.772931 Z" id="path-6"></path>
        <path d="M27.718004,11.772931 L14.3481432,11.772931 L14.3481432,17.3323707 L22.0439655,17.3323707 C21.3265584,20.86425 18.326492,22.8918103 14.3481432,22.8918103 C9.65238727,22.8918103 5.86969496,19.0983103 5.86969496,14.3891379 C5.86969496,9.67996552 9.65238727,5.88646552 14.3481432,5.88646552 C16.3699271,5.88646552 18.1960544,6.60592241 19.6308687,7.78321552 L23.804874,3.59728448 C21.2613395,1.37350862 18.0003979,0 14.3481432,0 C6.39144562,0 0,6.4097069 0,14.3891379 C0,22.368569 6.39144562,28.7782759 14.3481432,28.7782759 C21.5222149,28.7782759 28.0440981,23.5458621 28.0440981,14.3891379 C28.0440981,13.5388707 27.9136605,12.6231983 27.718004,11.772931 Z" id="path-8"></path>
        <path d="M27.718004,11.772931 L14.3481432,11.772931 L14.3481432,17.3323707 L22.0439655,17.3323707 C21.3265584,20.86425 18.326492,22.8918103 14.3481432,22.8918103 C9.65238727,22.8918103 5.86969496,19.0983103 5.86969496,14.3891379 C5.86969496,9.67996552 9.65238727,5.88646552 14.3481432,5.88646552 C16.3699271,5.88646552 18.1960544,6.60592241 19.6308687,7.78321552 L23.804874,3.59728448 C21.2613395,1.37350862 18.0003979,0 14.3481432,0 C6.39144562,0 0,6.4097069 0,14.3891379 C0,22.368569 6.39144562,28.7782759 14.3481432,28.7782759 C21.5222149,28.7782759 28.0440981,23.5458621 28.0440981,14.3891379 C28.0440981,13.5388707 27.9136605,12.6231983 27.718004,11.772931 Z" id="path-10"></path>
        <rect id="path-12" x="0" y="0" width="67.8275862" height="42.795977"></rect>
        <rect id="path-14" x="0" y="0" width="67.8275862" height="42.795977"></rect>
        <rect id="path-16" x="0" y="0" width="96.0890805" height="148.574713" rx="1.61494253"></rect>
        <filter x="-14.0%" y="-9.1%" width="128.1%" height="118.2%" filterUnits="objectBoundingBox" id="filter-17">
            <feOffset dx="0" dy="0" in="SourceAlpha" result="shadowOffsetOuter1"></feOffset>
            <feGaussianBlur stdDeviation="4.5" in="shadowOffsetOuter1" result="shadowBlurOuter1"></feGaussianBlur>
            <feColorMatrix values="0 0 0 0 0.537254902   0 0 0 0 0.537254902   0 0 0 0 0.537254902  0 0 0 0.3 0" type="matrix" in="shadowBlurOuter1"></feColorMatrix>
        </filter>
        <rect id="path-18" x="8.88218391" y="12.112069" width="78.3247126" height="49.2557471"></rect>
    </defs>
    <g id="Mockup-/-Google-grey" stroke="none" stroke-width="1" fill="none" fill-rule="evenodd">
        <g id="Group-4">
            <g id="BG">
                <mask id="mask-2" fill="white">
                    <use xlink:href="#path-1"></use>
                </mask>
                <use id="Mask" fill="#FFFFFF" xlink:href="#path-1"></use>
                <rect id="Rectangle" fill="url(#linearGradient-3)" opacity="0.678962054" mask="url(#mask-2)" x="-7.99396552" y="0" width="298.683621" height="52.3241379"></rect>
            </g>
            <g id="Header" transform="translate(14.453736, 11.466092)">
                <rect id="Rectangle-11" fill="#FFFFFF" x="40.3735632" y="1.61494253" width="211.557471" height="26.8887931" rx="13.4443966"></rect>
                <g id="Group" transform="translate(226.980172, 8.882184)">
                    <path d="M4.7237069,8.72068966 C6.93509598,8.72068966 8.72068966,6.92136065 8.72068966,4.7237069 C8.72068966,2.52605315 6.92136065,0.726724138 4.7237069,0.726724138 C2.52605315,0.726724138 0.726724138,2.52605315 0.726724138,4.7237069 C0.726724138,6.92136065 2.51231781,8.72068966 4.7237069,8.72068966 Z" id="Shape"></path>
                    <path d="M4.7237069,9.44741379 C7.32797932,9.44741379 9.44741379,7.32797932 9.44741379,4.7237069 C9.44741379,2.11943447 7.32797932,0 4.7237069,0 C2.11943447,0 0,2.11943447 0,4.7237069 C0,7.32797932 2.11943447,9.44741379 4.7237069,9.44741379 Z M4.7237069,0.692625645 C6.95396147,0.692625645 8.75478815,2.50730483 8.75478815,4.7237069 C8.75478815,6.94010896 6.94010896,8.75478815 4.7237069,8.75478815 C2.50730483,8.75478815 0.692625645,6.95396147 0.692625645,4.7237069 C0.692625645,2.49345232 2.49345232,0.692625645 4.7237069,0.692625645 Z" id="Shape" fill="#0061EB" fill-rule="nonzero"></path>
                    <path d="M8.93167408,8.92096335 C8.65036151,9.20204924 8.65036151,9.63773236 8.93167408,9.91881825 L11.8854561,12.8702201 C12.0261123,13.010763 12.2089655,13.0810345 12.3777531,13.0810345 C12.5465406,13.0810345 12.7434594,13.010763 12.8700501,12.8702201 C13.1513626,12.5891342 13.1513626,12.1534511 12.8700501,11.8723652 L9.91626808,8.92096335 C9.64902113,8.65393176 9.19892102,8.65393176 8.93167408,8.92096335 Z" id="Shape" fill="#0061EB" fill-rule="nonzero"></path>
                </g>
                <g id="Google__G__Logo" style="mix-blend-mode: multiply;" transform="translate(0.080747, 0.645977)">
                    <g id="Clipped">
                        <mask id="mask-5" fill="white">
                            <use xlink:href="#path-4"></use>
                        </mask>
                        <g id="a"></g>
                        <polygon id="Shape" fill="#FBBC05" fill-rule="nonzero" mask="url(#mask-5)" points="-1.30437666 22.8918103 -1.30437666 5.88646552 9.78282493 14.3891379"></polygon>
                    </g>
                    <g id="Clipped">
                        <mask id="mask-7" fill="white">
                            <use xlink:href="#path-6"></use>
                        </mask>
                        <g id="a"></g>
                        <polygon id="Shape" fill="#EA4335" fill-rule="nonzero" mask="url(#mask-7)" points="-1.30437666 5.88646552 9.78282493 14.3891379 14.3481432 10.3994224 30.0006631 7.84862069 30.0006631 -1.30810345 -1.30437666 -1.30810345"></polygon>
                    </g>
                    <g id="Clipped">
                        <mask id="mask-9" fill="white">
                            <use xlink:href="#path-8"></use>
                        </mask>
                        <g id="a"></g>
                        <polygon id="Shape" fill="#34A853" fill-rule="nonzero" mask="url(#mask-9)" points="-1.30437666 22.8918103 18.2612732 7.84862069 23.413561 8.50267241 30.0006631 -1.30810345 30.0006631 30.0863793 -1.30437666 30.0863793"></polygon>
                    </g>
                    <g id="Clipped">
                        <mask id="mask-11" fill="white">
                            <use xlink:href="#path-10"></use>
                        </mask>
                        <g id="a"></g>
                        <polygon id="Shape" fill="#4285F4" fill-rule="nonzero" mask="url(#mask-11)" points="30.0006631 30.0863793 9.78282493 14.3891379 7.17407162 12.4269828 30.0006631 5.88646552"></polygon>
                    </g>
                </g>
            </g>
            <g id="gallery" transform="translate(16.956897, 66.212644)">
                <g id="nixon-porter" opacity="0.38354846" transform="translate(0.000000, 15.341954)">
                    <g id="image">
                        <mask id="mask-13" fill="white">
                            <use xlink:href="#path-12"></use>
                        </mask>
                        <use id="Rectangle-13" fill="#F5F5F5" xlink:href="#path-12"></use>
                    </g>
                </g>
                <g id="fossil" opacity="0.38" transform="translate(180.873563, 15.341954)">
                    <g id="image" opacity="0.71167346">
                        <mask id="mask-15" fill="white">
                            <use xlink:href="#path-14"></use>
                        </mask>
                        <use id="Rectangle-13-Copy" fill="#F5F5F5" xlink:href="#path-14"></use>
                    </g>
                </g>
                <g id="Group-5" transform="translate(75.498563, 0.000000)">
                    <g id="mvmt-card">
                        <g id="Rectangle-2-Copy">
                            <use fill="black" fill-opacity="1" filter="url(#filter-17)" xlink:href="#path-16"></use>
                            <use fill="#FFFFFF" fill-rule="evenodd" xlink:href="#path-16"></use>
                        </g>
                        <g id="Group-2" transform="translate(8.882184, 121.120690)">
                            <text id="(22)" font-family="OpenSans-Bold, Open Sans" font-size="8.07471264" font-weight="bold" fill="#C3C3C3">
                                <tspan x="62.1752874" y="9">(22)</tspan>
                            </text>
                            <g id="Group-11" transform="translate(0.000000, 0.807471)" fill="#E57018">
                                <polygon id="Star" points="52.8893678 7.87284483 49.8043398 9.49474006 50.3935277 6.05951083 47.8976876 3.62666799 51.3468538 3.1254748 52.8893678 0 54.4318818 3.1254748 57.8810481 3.62666799 55.3852079 6.05951083 55.9743959 9.49474006"></polygon>
                                <polygon id="Star-Copy" points="41.5847701 7.87284483 38.4997421 9.49474006 39.08893 6.05951083 36.5930899 3.62666799 40.0422561 3.1254748 41.5847701 0 43.1272841 3.1254748 46.5764504 3.62666799 44.0806102 6.05951083 44.6697982 9.49474006"></polygon>
                                <polygon id="Star-Copy-2" points="28.6652299 7.87284483 25.5802018 9.49474006 26.1693898 6.05951083 23.6735496 3.62666799 27.1227159 3.1254748 28.6652299 0 30.2077439 3.1254748 33.6569101 3.62666799 31.16107 6.05951083 31.7502579 9.49474006"></polygon>
                                <polygon id="Star-Copy-3" points="17.3606322 7.87284483 14.2756041 9.49474006 14.8647921 6.05951083 12.3689519 3.62666799 15.8181182 3.1254748 17.3606322 0 18.9031462 3.1254748 22.3523124 3.62666799 19.8564723 6.05951083 20.4456602 9.49474006"></polygon>
                                <polygon id="Star-Copy-4" points="5.24856322 7.87284483 2.16353516 9.49474006 2.75272309 6.05951083 0.256882968 3.62666799 3.70604919 3.1254748 5.24856322 0 6.79107725 3.1254748 10.2402435 3.62666799 7.74440334 6.05951083 8.33359127 9.49474006"></polygon>
                            </g>
                        </g>
                    </g>
                    <mask id="mask-19" fill="white">
                        <use xlink:href="#path-18"></use>
                    </mask>
                    <use id="Rectangle-13-Copy-2" fill="#ECEFF4" xlink:href="#path-18"></use>
                </g>
            </g>
        </g>
        <g id="Group-3" transform="translate(101.741379, 138.885057)" fill="#D8D8D8">
            <rect id="Rectangle-2" x="0" y="0" width="55.7155172" height="4.03735632" rx="2.01867816"></rect>
            <rect id="Rectangle-2-Copy-2" x="0" y="8.88218391" width="38.7586207" height="4.03735632" rx="2.01867816"></rect>
            <rect id="Rectangle-2-Copy-3" x="0" y="21.8017241" width="24.2241379" height="4.03735632" rx="2.01867816"></rect>
            <rect id="Rectangle-2-Copy-4" x="0" y="34.7212644" width="24.2241379" height="4.03735632" rx="2.01867816"></rect>
        </g>
        <g id="Group-3-Copy" transform="translate(16.956897, 138.885057)" fill="#D8D8D8">
            <rect id="Rectangle-2" x="0" y="0" width="55.7155172" height="4.03735632" rx="2.01867816"></rect>
            <rect id="Rectangle-2-Copy-2" x="0" y="8.88218391" width="38.7586207" height="4.03735632" rx="2.01867816"></rect>
            <rect id="Rectangle-2-Copy-3" x="0" y="21.8017241" width="24.2241379" height="4.03735632" rx="2.01867816"></rect>
            <rect id="Rectangle-2-Copy-4" x="0" y="34.7212644" width="24.2241379" height="4.03735632" rx="2.01867816"></rect>
        </g>
        <g id="Group-3-Copy-2" transform="translate(202.675287, 138.885057)" fill="#D8D8D8">
            <rect id="Rectangle-2" x="0" y="0" width="55.7155172" height="4.03735632" rx="2.01867816"></rect>
            <rect id="Rectangle-2-Copy-2" x="0" y="8.88218391" width="38.7586207" height="4.03735632" rx="2.01867816"></rect>
            <rect id="Rectangle-2-Copy-3" x="0" y="21.8017241" width="24.2241379" height="4.03735632" rx="2.01867816"></rect>
            <rect id="Rectangle-2-Copy-4" x="0" y="34.7212644" width="24.2241379" height="4.03735632" rx="2.01867816"></rect>
        </g>
        <rect id="Rectangle-5-Copy-14" fill="#DFE3EA" x="70.25" y="25.0316092" width="81.5545977" height="4.03735632" rx="2.01867816"></rect>
        <rect id="Rectangle-16" fill="#DEDFEB" style="mix-blend-mode: color;" x="0" y="0" width="281" height="230.12931"></rect>
        <rect id="Rectangle-16" fill="#DEDFEB" style="mix-blend-mode: lighten;" x="0" y="0" width="281" height="230.12931"></rect>
    </g>
</svg>