<?xml version="1.0" encoding="UTF-8"?>
<svg width="407px" height="149px" viewBox="0 0 407 149" version="1.1" xmlns="http://www.w3.org/2000/svg" xmlns:xlink="http://www.w3.org/1999/xlink">
    <!-- Generator: Sketch 50 (54983) - http://www.bohemiancoding.com/sketch -->
    <title>Mockup / Insights GREY</title>
    <desc>Created with Sketch.</desc>
    <defs>
        <linearGradient x1="-463.616071%" y1="34.1582328%" x2="219.352679%" y2="34.1582328%" id="linearGradient-1">
            <stop stop-color="#1576EC" offset="0%"></stop>
            <stop stop-color="#2F5CFF" offset="100%"></stop>
        </linearGradient>
        <path d="M19.4583864,38.9167727 C8.71181632,38.9167727 0,30.2049564 0,19.4583864 C0,8.71181632 8.71181632,0 19.4583864,0 C30.2049564,0 38.9167727,8.71181632 38.9167727,19.4583864 C38.9167727,30.2049564 30.2049564,38.9167727 19.4583864,38.9167727 Z M19.4583864,35.1331976 C28.1153456,35.1331976 35.1331976,28.1153456 35.1331976,19.4583864 C35.1331976,10.8014272 28.1153456,3.78357512 19.4583864,3.78357512 C10.8014272,3.78357512 3.78357512,10.8014272 3.78357512,19.4583864 C3.78357512,28.1153456 10.8014272,35.1331976 19.4583864,35.1331976 Z" id="path-2"></path>
        <path d="M19.4583864,38.9167727 C8.71181632,38.9167727 0,30.2049564 0,19.4583864 C0,8.71181632 8.71181632,0 19.4583864,0 C30.2049564,0 38.9167727,8.71181632 38.9167727,19.4583864 C38.9167727,30.2049564 30.2049564,38.9167727 19.4583864,38.9167727 Z M19.4583864,35.1014028 C28.0977858,35.1014028 35.1014028,28.0977858 35.1014028,19.4583864 C35.1014028,10.8189869 28.0977858,3.81536987 19.4583864,3.81536987 C10.8189869,3.81536987 3.81536987,10.8189869 3.81536987,19.4583864 C3.81536987,28.0977858 10.8189869,35.1014028 19.4583864,35.1014028 Z" id="path-4"></path>
        <path d="M19.4583864,38.9167727 C8.71181632,38.9167727 0,30.2049564 0,19.4583864 C0,8.71181632 8.71181632,0 19.4583864,0 C30.2049564,0 38.9167727,8.71181632 38.9167727,19.4583864 C38.9167727,30.2049564 30.2049564,38.9167727 19.4583864,38.9167727 Z M19.4583864,35.1014028 C28.0977858,35.1014028 35.1014028,28.0977858 35.1014028,19.4583864 C35.1014028,10.8189869 28.0977858,3.81536987 19.4583864,3.81536987 C10.8189869,3.81536987 3.81536987,10.8189869 3.81536987,19.4583864 C3.81536987,28.0977858 10.8189869,35.1014028 19.4583864,35.1014028 Z" id="path-6"></path>
    </defs>
    <g id="Mockup-/-Insights-GREY" stroke="none" stroke-width="1" fill="none" fill-rule="evenodd">
        <rect id="Rectangle-6" fill="#FFFFFF" x="0" y="0" width="407" height="148.529517" rx="3.64042934"></rect>
        <g id="Review" transform="translate(24.026834, 21.289803)">
            <g id="review" transform="translate(0.728086, 0.579606)">
                <g id="Group-12" transform="translate(0.000000, 24.000000)">
                    <g id="Stars">
                        <g id="Group-3-Copy" transform="translate(56.284936, 0.000000)"></g>
                        <polygon id="Star-Copy-7" fill="#051146" points="6.81488347 11.2989113 2.60305386 13.6266151 3.40744174 8.69645942 8.8817842e-16 5.2049038 4.70896866 4.48560379 6.81488347 0 8.92079828 4.48560379 13.6297669 5.2049038 10.2223252 8.69645942 11.0267131 13.6266151"></polygon>
                        <polygon id="Star-Copy-19" fill="#051146" points="23.7003642 11.2989113 19.4885346 13.6266151 20.2929225 8.69645942 16.8854807 5.2049038 21.5944494 4.48560379 23.7003642 0 25.806279 4.48560379 30.5152477 5.2049038 27.1078059 8.69645942 27.9121938 13.6266151"></polygon>
                        <polygon id="Star-Copy-20" fill="#051146" points="40.5858449 11.2989113 36.3740153 13.6266151 37.1784032 8.69645942 33.7709614 5.2049038 38.4799301 4.48560379 40.5858449 0 42.6917597 4.48560379 47.4007284 5.2049038 43.9932866 8.69645942 44.7976745 13.6266151"></polygon>
                        <polygon id="Star-Copy-21" fill="#051146" points="57.4713256 11.2989113 53.259496 13.6266151 54.0638839 8.69645942 50.6564422 5.2049038 55.3654108 4.48560379 57.4713256 0 59.5772404 4.48560379 64.2862091 5.2049038 60.8787674 8.69645942 61.6831552 13.6266151"></polygon>
                        <polygon id="Star-Copy-22" fill="#DFE3EA" points="74.3568063 11.2989113 70.1449767 13.6266151 70.9493646 8.69645942 67.5419229 5.2049038 72.2508915 4.48560379 74.3568063 0 76.4627211 4.48560379 81.1716898 5.2049038 77.7642481 8.69645942 78.568636 13.6266151"></polygon>
                    </g>
                </g>
                <g id="Group" transform="translate(0.000000, 0.420121)">
                    <rect id="Rectangle" fill="#DFE3EA" opacity="0.456863839" x="0" y="54.7280859" width="39.3166369" height="3.64042934" rx="1.82021467"></rect>
                    <rect id="Rectangle-Copy-5" fill="#DFE3EA" opacity="0.456863839" x="0" y="96.9570662" width="108.484794" height="3.64042934" rx="1.82021467"></rect>
                    <rect id="Rectangle-Copy-3" fill="#FF566E" x="0" y="67.8336315" width="39.3166369" height="5.09660107" rx="2.54830054"></rect>
                    <rect id="Rectangle-Copy-6" fill="#DFE3EA" opacity="0.456863839" x="0" y="83.1234347" width="83.7298748" height="3.64042934" rx="1.82021467"></rect>
                    <rect id="Rectangle-Copy-7" fill="#FF566E" x="89.5545617" y="82.3953488" width="25.4830054" height="5.09660107" rx="2.54830054"></rect>
                    <rect id="Rectangle-Copy-8" fill="url(#linearGradient-1)" x="114.309481" y="96.2289803" width="25.4830054" height="5.09660107" rx="2.54830054"></rect>
                    <rect id="Rectangle-Copy-4" fill="#DFE3EA" opacity="0.456863839" x="44.4132379" y="68.5617174" width="69.8962433" height="3.64042934" rx="1.82021467"></rect>
                    <rect id="Rectangle-Copy" fill="url(#linearGradient-1)" x="44" y="54" width="52.4221825" height="5.09660107" rx="2.54830054"></rect>
                    <rect id="Rectangle-Copy-9" fill="url(#linearGradient-1)" x="0" y="0" width="79.3613596" height="5.09660107" rx="2.54830054"></rect>
                    <rect id="Rectangle-Copy-10" fill="url(#linearGradient-1)" x="197" y="0" width="79.3613596" height="5.09660107" rx="2.54830054"></rect>
                    <rect id="Rectangle-Copy-11" fill="#E6E6E6" opacity="0.712276786" x="197" y="64" width="34" height="3.64042934" rx="1.82021467"></rect>
                    <rect id="Rectangle-Copy-12" fill="#E6E6E6" opacity="0.712276786" x="259" y="64" width="34" height="3.64042934" rx="1.82021467"></rect>
                    <rect id="Rectangle-Copy-13" fill="#E6E6E6" opacity="0.712276786" x="314" y="64" width="34" height="3.64042934" rx="1.82021467"></rect>
                    <rect id="Rectangle-Copy-2" fill="#DFE3EA" opacity="0.456863839" x="101.203936" y="54.7280859" width="40.0447227" height="3.64042934" rx="1.82021467"></rect>
                </g>
            </g>
        </g>
        <path d="M190.758497,148.165474 L190.758497,0.363597108" id="Line-4" stroke="#E5E5E5" stroke-width="0.728085868" stroke-linecap="round" stroke-linejoin="round"></path>
        <g id="circle" transform="translate(211.144902, 32.763864)">
            <g id="Group-17">
                <g id="Group-12">
                    <circle id="Oval-2" stroke="#DFDFDF" stroke-width="0.536506917" fill="#FFFFFF" cx="26.9391771" cy="26.9391771" r="16.0178891"></circle>
                    <g id="Path-3-Copy-6" transform="translate(26.939177, 26.939177) rotate(-30.000000) translate(-26.939177, -26.939177) translate(7.280859, 7.280859)">
                        <mask id="mask-3" fill="white">
                            <use xlink:href="#path-2"></use>
                        </mask>
                        <g id="Mask"></g>
                        <path d="M35.7531665,-11.0136726 L21.2773648,14.0591515 L19.3819435,20.900166 L-6.16187544,-24.5467612 L-25.8539973,38.3855532 C27.1691708,42.3684502 54.0034688,44.3598987 54.6488966,44.3598987 C55.2943244,44.3598987 58.5219615,40.4989746 64.331808,32.7771265 L62.2640485,14.9589644 L59.1519509,2.49562185 C56.1499147,0.201975343 54.6488966,-2.29892372 54.6488966,-5.00707534 C54.6488966,-9.06930276 39.1735693,-9.44860067 39.1735693,-11.0000109 C39.1735693,-12.0342844 38.0334351,-12.0388383 35.7531665,-11.0136726 Z" id="Path-3" fill="#2A62FB" mask="url(#mask-3)"></path>
                    </g>
                </g>
                <text id="93" font-family="OpenSans-Bold, Open Sans" font-size="10.3492853" font-weight="bold" line-spacing="14.1914471" fill="#2A62FB">
                    <tspan x="21.3958399" y="30.6583184">93</tspan>
                </text>
            </g>
            <g id="Group-18" transform="translate(116.493739, 0.000000)">
                <g id="Group-13">
                    <circle id="Oval-2-Copy" stroke="#DFDFDF" stroke-width="0.536506917" fill="#FFFFFF" cx="26.2110912" cy="26.9391771" r="16.0178891"></circle>
                    <g id="Path-3-Copy-7" transform="translate(26.939177, 26.939177) rotate(-30.000000) translate(-26.939177, -26.939177) translate(7.280859, 7.280859)">
                        <mask id="mask-5" fill="white">
                            <use xlink:href="#path-4"></use>
                        </mask>
                        <g id="Mask"></g>
                        <path d="M13.4318916,-25.5368547 L8.79633265,-19.8925935 L21.1506054,26.2141801 L7.63898199,65.0964923 L36.8266637,50.5341642 C43.4652076,47.8091561 47.1071935,46.446652 47.7526213,46.446652 C48.3980491,46.446652 51.6256862,42.5857279 57.4355326,34.8638798 L55.3677731,17.0457177 L52.2556756,4.58237515 C49.2536394,2.28872865 47.7526213,-0.212170414 47.7526213,-2.92032203 C47.7526213,-6.98254946 32.277294,-7.36184737 32.277294,-8.91325759 C32.277294,-9.94753107 25.9954932,-15.4887301 13.4318916,-25.5368547 Z" id="Path-3" fill="#71B0FF" mask="url(#mask-5)" transform="translate(32.537257, 19.779819) rotate(-315.000000) translate(-32.537257, -19.779819) "></path>
                    </g>
                </g>
                <text id="71" font-family="OpenSans-Bold, Open Sans" font-size="10.3492853" font-weight="bold" line-spacing="14.1914471" fill="#71B0FF">
                    <tspan x="20.667754" y="30.6583184">71</tspan>
                </text>
            </g>
            <g id="Group-19" transform="translate(60.431127, 0.000000)">
                <g id="Group-16">
                    <circle id="Oval-2-Copy-2" stroke="#DFDFDF" stroke-width="0.536506917" fill="#FFFFFF" cx="26.9391771" cy="26.9391771" r="16.0178891"></circle>
                    <g id="Path-3-Copy-8" transform="translate(26.939177, 26.939177) rotate(-30.000000) translate(-26.939177, -26.939177) translate(7.280859, 7.280859)">
                        <mask id="mask-7" fill="white">
                            <use xlink:href="#path-6"></use>
                        </mask>
                        <g id="Mask"></g>
                        <path d="M-15.0901772,6.1116125 L-6.3515028,34.5590914 L19.3819435,20.900166 L35.3607642,-7.12966631 L43.722939,48.4474109 C50.3614829,45.7224028 54.0034688,44.3598987 54.6488966,44.3598987 C55.2943244,44.3598987 58.5219615,40.4989746 64.331808,32.7771265 L62.2640485,14.9589644 L59.1519509,2.49562185 C56.1499147,0.201975343 54.6488966,-2.29892372 54.6488966,-5.00707534 C54.6488966,-9.06930276 39.1735693,-9.44860067 39.1735693,-11.0000109 C39.1735693,-12.0342844 21.0856538,-6.33040991 -15.0901772,6.1116125 Z" id="Path-3" fill="#FF566E" mask="url(#mask-7)"></path>
                    </g>
                </g>
                <text id="-32" font-family="OpenSans-Bold, Open Sans" font-size="10.3492853" font-weight="bold" line-spacing="14.1914471" fill="#FF566E">
                    <tspan x="19.7307571" y="30.6583184">-32</tspan>
                </text>
            </g>
        </g>
        <g id="CTA" transform="translate(216.969589, 103.475850)" fill="#D7DFEA" opacity="0.240066964">
            <rect id="Rectangle-2-Copy" x="0" y="0" width="160.906977" height="23.6773524" rx="2.56286225"></rect>
        </g>
        <rect id="Rectangle-16" fill="#DEDFEB" style="mix-blend-mode: color;" x="0" y="0" width="407" height="149"></rect>
        <rect id="Rectangle-16" fill="#DEDFEB" style="mix-blend-mode: lighten;" x="0" y="0" width="407" height="149"></rect>
    </g>
</svg>