<svg xmlns="http://www.w3.org/2000/svg" viewBox="1360.967 5180.775 19.126 21.08">
  <defs>
    <style>
      .cls-1 {
        fill: #fff;
      }
    </style>
  </defs>
  <g id="Group_720" data-name="Group 720" transform="translate(1360.967 5180.775)">
    <g id="Group_719" data-name="Group 719" transform="translate(0 5.329)">
      <circle id="Ellipse_124" data-name="Ellipse 124" class="cls-1" cx="1.54" cy="1.54" r="1.54" transform="translate(5.862 12.671)"/>
      <circle id="Ellipse_125" data-name="Ellipse 125" class="cls-1" cx="1.54" cy="1.54" r="1.54" transform="translate(13.027 12.671)"/>
      <path id="Path_1070" data-name="Path 1070" class="cls-1" d="M14.862,11.191H5.033L4.441,9H0v2.072H3.02l1.895,7.52A1.9,1.9,0,0,0,6.75,20.013h8.171a1.908,1.908,0,0,0,1.895-1.895V13.145A2.012,2.012,0,0,0,14.862,11.191Zm-.355,2.072a.28.28,0,0,1,.3.3v3.73a.593.593,0,0,1-.592.592H7.224a.642.642,0,0,1-.651-.474L5.507,13.263Z" transform="translate(0 -9)"/>
    </g>
    <path id="Path_1071" data-name="Path 1071" class="cls-1" d="M28.629,1.954H26.675V0H25.254V1.954H23.3V3.375h1.954V5.329h1.421V3.375h1.954Z" transform="translate(-9.504)"/>
  </g>
</svg>
