<svg id="Group_859" data-name="Group 859" xmlns="http://www.w3.org/2000/svg" viewBox="1181.608 455.485 32.375 29.317">
  <defs>
    <style>
      .cls-1 {
        fill: #244c89;
      }

      .cls-2 {
        fill: #f37d88;
      }

      .cls-3 {
        fill: #3064af;
      }
    </style>
  </defs>
  <path id="Path_1086" data-name="Path 1086" class="cls-1" d="M68.028,38.6,54.333,52.228,54.2,63.264,73.878,43.719Z" transform="translate(1140.105 416.885)"/>
  <path id="Path_1087" data-name="Path 1087" class="cls-2" d="M53.161,73.689l.133-.133V69.7L51.1,71.628Z" transform="translate(1141.144 406.46)"/>
  <path id="Path_1088" data-name="Path 1088" class="cls-2" d="M41.216,56.011v-2.26l2.726-2.327L40.618,48.1,35.1,53.485l6.183,6.382L47.2,54.748l-2.061-2.127Z" transform="translate(1146.508 413.7)"/>
  <path id="Path_1089" data-name="Path 1089" class="cls-3" d="M43.4,48.1h0v2.26l2.526-2.26Z" transform="translate(1143.725 413.7)"/>
  <path id="Path_1090" data-name="Path 1090" class="cls-2" d="M48.261,67.347l3.39-2.925V60.5L46.2,65.22Z" transform="translate(1142.787 409.544)"/>
  <path id="Path_1091" data-name="Path 1091" class="cls-3" d="M50.5,70.522l2.194-1.928V66.4L49.3,69.325Z" transform="translate(1141.748 407.566)"/>
  <path id="Path_1092" data-name="Path 1092" class="cls-3" d="M44.3,57.687l3.922-3.39-1.2-1.2L44.3,55.427Z" transform="translate(1143.424 412.024)"/>
  <path id="Path_1093" data-name="Path 1093" class="cls-3" d="M44.366,65.8l-.066.066v2.26L45.563,67l-.133-.133Z" transform="translate(1143.424 407.767)"/>
  <path id="Path_1094" data-name="Path 1094" class="cls-3" d="M45.464,64.283l.133.133,5.451-4.72v-.931l-.731-.665L44.4,63.219Z" transform="translate(1143.39 410.348)"/>
  <g id="Group_742" data-name="Group 742" transform="translate(1187.724 476.891)">
    <path id="Path_1095" data-name="Path 1095" class="cls-3" d="M48.821,72l-1.2-1.2L44.3,73.725v.2h2.26Z" transform="translate(-44.3 -70.8)"/>
  </g>
  <path id="Path_1096" data-name="Path 1096" class="cls-3" d="M54.6,82.7" transform="translate(1139.971 402.102)"/>
  <path id="Path_1097" data-name="Path 1097" class="cls-1" d="M68.028,38.6,54.333,52.228,54.2,63.264,73.878,43.719Z" transform="translate(1140.105 416.885)"/>
  <path id="Path_1098" data-name="Path 1098" class="cls-2" d="M53.161,73.689l.133-.133V69.7L51.1,71.628Z" transform="translate(1141.144 406.46)"/>
  <path id="Path_1099" data-name="Path 1099" class="cls-2" d="M41.216,56.011v-2.26l2.726-2.327L40.618,48.1,35.1,53.485l6.183,6.382L47.2,54.748l-2.061-2.127Z" transform="translate(1146.508 413.7)"/>
  <path id="Path_1100" data-name="Path 1100" class="cls-3" d="M43.4,48.1h0v2.26l2.526-2.26Z" transform="translate(1143.725 413.7)"/>
  <path id="Path_1101" data-name="Path 1101" class="cls-2" d="M48.261,67.347l3.39-2.925V60.5L46.2,65.22Z" transform="translate(1142.787 409.544)"/>
  <path id="Path_1102" data-name="Path 1102" class="cls-3" d="M50.5,70.522l2.194-1.928V66.4L49.3,69.325Z" transform="translate(1141.748 407.566)"/>
  <path id="Path_1103" data-name="Path 1103" class="cls-3" d="M44.3,57.687l3.922-3.39-1.2-1.2L44.3,55.427Z" transform="translate(1143.424 412.024)"/>
  <path id="Path_1104" data-name="Path 1104" class="cls-3" d="M44.366,65.8l-.066.066v2.26L45.563,67l-.133-.133Z" transform="translate(1143.424 407.767)"/>
  <path id="Path_1105" data-name="Path 1105" class="cls-3" d="M45.464,64.283l.133.133,5.451-4.72v-.931l-.731-.665L44.4,63.219Z" transform="translate(1143.39 410.348)"/>
  <g id="Group_743" data-name="Group 743" transform="translate(1187.724 476.891)">
    <path id="Path_1106" data-name="Path 1106" class="cls-3" d="M48.821,72l-1.2-1.2L44.3,73.725v.2h2.26Z" transform="translate(-44.3 -70.8)"/>
  </g>
  <path id="Path_1107" data-name="Path 1107" class="cls-3" d="M54.6,82.7" transform="translate(1139.971 402.102)"/>
</svg>
