<svg xmlns="http://www.w3.org/2000/svg" width="24" height="15">
    <path fill="#FFF" fill-rule="evenodd" d="M22.926 10.99h-2.815a.472.472 0 0 1-.452-.355c-.03-.114-.075-.268-.126-.438l-.753.521a1.544 1.544 0 0 1-.498 1.461 1.5 1.5 0 0 1-1.076.397 1.62 1.62 0 0 1-.784.844c-.384.2-.807.257-1.177.175-.199.416-.55.759-.977.93a1.416 1.416 0 0 1-1.066.011c-.247.215-.603.323-1.065.323-.576 0-1.32-.328-1.665-.562-.419-.284-2.518-1.912-4.265-3.42-.291-.252-.724-.718-1.142-1.169-.124-.133-.239-.258-.347-.372l-.11.353a.47.47 0 0 1-.445.333H1.348a.477.477 0 0 1-.469-.484V.831c0-.134.053-.262.147-.352a.458.458 0 0 1 .35-.131c.966.059 4.182.313 4.986 1.099a.49.49 0 0 1 .144.392 10.5 10.5 0 0 1-.049.443h3.765c1.205-.975 2.296-1.22 3.983-.443a50.04 50.04 0 0 0 2.705 1.144.505.505 0 0 1-.047-.355.477.477 0 0 1 .251-.3c.085-.042 2.129-1.014 5.812-1.014.259 0 .469.216.469.484v8.708c0 .267-.21.484-.469.484zM1.817 1.349v7.706H3.82c.349-1.136 1.474-4.901 1.723-7.02-.591-.296-2.218-.563-3.726-.686zM6.3 3.25c-.312 1.666-.876 3.709-1.269 5.044.172.166.43.44.712.744.383.413.816.879 1.067 1.096 1.783 1.541 3.848 3.129 4.178 3.353.275.188.837.405 1.149.405.094 0 .162-.007.223-.016-.71-.69-1.655-1.722-1.973-2.072a.495.495 0 0 1 .023-.684.458.458 0 0 1 .663.023c.267.295 1.636 1.797 2.305 2.379.003.002.002.006.004.008.003.003.007.003.01.006.187.175.395.142.539.085a.92.92 0 0 0 .5-.522c-.778-.717-2.155-2.248-2.17-2.265a.494.494 0 0 1 .028-.684.46.46 0 0 1 .663.029c.319.358 1.731 1.905 2.293 2.368.005.004.004.011.008.016.006.004.013.004.018.009.118.112.431.139.731-.017.097-.05.288-.182.34-.395-.7-.658-2.448-2.536-2.666-2.77a.494.494 0 0 1 .014-.685.457.457 0 0 1 .663.015c.917.986 2.387 2.538 2.748 2.841.139.095.388.044.571-.118a.579.579 0 0 0 .14-.727c-.352-.755-1.916-2.059-3.295-3.209-.763-.636-1.487-1.24-2.024-1.76-.137.057-.24.104-.328.145a2.312 2.312 0 0 1-.704.23c-.723.988-1.693 1.335-2.756.973-.424-.144-.709-.453-.806-.871-.224-.978.639-2.309 1.28-2.974H6.3zm7.521-.526c-1.661-.765-2.447-.371-3.971 1.202C9.209 4.587 8.714 5.575 8.813 6c.014.062.04.127.187.177.458.159 1.145.246 1.809-.776a.46.46 0 0 1 .343-.212c.316-.034.395-.07.629-.179.154-.07.349-.161.666-.279a.459.459 0 0 1 .49.113c.513.529 1.318 1.201 2.17 1.911 1.294 1.08 2.619 2.189 3.265 3.081l.86-.596c-.482-1.493-1.226-3.636-1.777-5.018a53.448 53.448 0 0 1-3.634-1.498zm8.636-.437c-2.232.055-3.77.486-4.486.736.733 1.61 2.047 5.506 2.491 6.999h1.995V2.287z"/>
</svg>
