<svg xmlns="http://www.w3.org/2000/svg" width="17" height="15">
    <path fill="#FFF" fill-rule="evenodd" d="M16.428 14.405a1.854 1.854 0 0 1-1.389.596h-3.924a1.855 1.855 0 0 1-1.389-.596 2.019 2.019 0 0 1-.572-1.449V5.453c0-.738.138-1.443.414-2.114a5.49 5.49 0 0 1 1.118-1.742A5.257 5.257 0 0 1 12.357.429a4.925 4.925 0 0 1 2.028-.431h.654c.177 0 .33.068.46.203a.668.668 0 0 1 .194.479v1.364a.673.673 0 0 1-.194.48.62.62 0 0 1-.46.202h-.654c-.722 0-1.338.266-1.849.799a2.686 2.686 0 0 0-.767 1.928v.342c0 .284.096.525.286.725a.931.931 0 0 0 .695.298h2.289a1.85 1.85 0 0 1 1.389.597c.382.397.572.88.572 1.448v4.092c0 .569-.19 1.051-.572 1.45zm-10.544.596H1.961a1.854 1.854 0 0 1-1.389-.596 2.02 2.02 0 0 1-.573-1.449V5.453c0-.738.138-1.443.414-2.114a5.51 5.51 0 0 1 1.119-1.742A5.263 5.263 0 0 1 3.202.429 4.928 4.928 0 0 1 5.23-.002h.654c.178 0 .331.068.46.203.13.134.194.294.194.479v1.364a.67.67 0 0 1-.194.48.617.617 0 0 1-.46.202H5.23c-.722 0-1.338.266-1.849.799a2.686 2.686 0 0 0-.766 1.928v.342c0 .284.095.525.286.725a.93.93 0 0 0 .695.298h2.288c.545 0 1.009.199 1.39.597.381.397.572.88.572 1.448v4.092c0 .569-.191 1.051-.572 1.45a1.856 1.856 0 0 1-1.39.596z"/>
</svg>
