<svg id="Layer_2" xmlns="http://www.w3.org/2000/svg" viewBox="0 0 101.5 30.1"><style>.st0{fill:#121621}</style><title>s-logo-design</title><path class="st0" d="M60 19.6v-1.5h.6l-.6-5.2V8.8h.8l1.9 12.4H61l-.2-1.6H60zm3.3-10.7h1.1c.5 1.4.8 2.5 1.1 3.3l.4 1.2c.1.4.2.7.3 1.1l.3 1.1V8.9h1.7v12.3H67c-.3-1-.7-2.1-1.1-3.3l-.5-1.4c-.1-.3-.2-.6-.3-.8l-.3-1v6.5h-1.6l.1-12.3zm5.6 0h1.8l.6 4.9.6-4.9h1.7l-1.5 6.4v5.9h-1.8v-5.9l-1.4-6.4zM60 8.8v4.1l-.6 5.2h.6v1.5h-.7l-.2 1.6h-1.8l1.9-12.4h.8zm-5.1 8.7V16c.4-.1.7-.6.6-1v-3.5c0-.3 0-.5-.2-.7-.1-.1-.2-.2-.4-.2V8.9c.4 0 .8.1 1.2.3s.7.5.9.9c.2.5.3 1 .3 1.5V15c0 .4-.1.9-.3 1.3s-.5.6-.8.8c-.3.3-.8.4-1.3.4zm0-8.5v1.5h-.6V16h.6v1.5h-.6v3.7h-1.8V8.9l2.4.1zM42.2 21.3v-1.5c.4 0 .6-.3.6-.9v-7.7c.1-.3-.2-.7-.5-.8h-.1V8.8c.4 0 .9.1 1.3.3.4.2.6.6.8 1 .2.5.3 1 .3 1.5v6.8c0 .5-.1 1-.3 1.5-.2.4-.5.8-.8 1-.5.3-1 .4-1.3.4zm3.6-12.4h1.1l1.5 6.4L50 8.9h1.1l.6 12.3H50v-6.9l-1.3 5.5h-.4L47 14.4l-.1 6.8h-1.7l.6-12.3zm-7 3.6H37v-1.2c0-.7-.2-1-.6-1-.2 0-.4.1-.6.3-.1.2-.2.5-.2.8v7.5c0 .2.1.4.2.6.2.3.6.3.8.1l.1-.1c.3-.1.3-.3.3-.5v-1.9h1.8v1.5c0 .3-.1.7-.2 1-.1.3-.3.6-.5.8-.2.2-.5.4-.8.5s-.7.2-1 .2c-.4 0-.9-.1-1.3-.3-.4-.2-.7-.6-.8-1-.2-.5-.3-.9-.3-1.4v-6.9c0-.5.1-1.1.3-1.6.2-.4.5-.8.9-1s.9-.4 1.3-.3c.4 0 .9.1 1.3.3.4.2.6.5.8.9s.3.8.3 1.3v1.4zm3.3-3.7v1.5c-.4 0-.6.3-.6 1v7.3c0 .3 0 .6.1.9.1.2.3.3.5.3v1.5c-.5 0-.9-.1-1.3-.4-.4-.3-.7-.7-.8-1.1-.2-.6-.3-1.2-.3-1.8v-6.2c-.1-.8.2-1.6.6-2.3.6-.4 1.2-.7 1.8-.7zm43.5 10.8v-1.5h.6l-.5-5.2V8.8h.8l1.9 12.4h-1.7l-.2-1.6h-.9zm3.7-10.7h1.1l1.5 6.4 1.6-6.4h1.1l.6 12.3h-1.7l-.1-6.9-1.3 5.5h-.4l-1.2-5.4-.1 6.8h-1.7l.6-12.3zm6.6 0h3.9v1.6h-2.1v3.7h2v1.5h-2v4h2.1v1.5h-3.9V8.9zm-18.5 0h1.1c.5 1.4.8 2.5 1.1 3.3l.4 1.2c.1.4.2.7.3 1.1l.3 1.1V8.9h1.6v12.3H81c-.3-1-.7-2.1-1.1-3.3l-.4-1.4c-.1-.3-.2-.6-.3-.8l-.3-1v6.5h-1.7l.2-12.3zm8.2-.1v4.1l-.6 5.2h.6v1.5h-.7l-.2 1.6h-1.8l1.9-12.4h.8zM3.5 28l-2.1 2.1H0L2.1 28 6 24.1h11.5c2.6-.1 4.6-2.3 4.5-4.9-.1-2.4-2-4.4-4.5-4.5h-4.8c-2.3 0-4.2-1.9-4.2-4.2s1.9-4.2 4.2-4.2h11l-3.9 3.9h-7.1c-.2 0-.3.2-.2.3 0 .1.1.2.2.2h4.8c4.7 0 8.6 3.8 8.6 8.6S22.2 28 17.4 28H3.5z"/><path class="st0" d="M12.7 19.2h4.8c.2 0 .3.2.2.3 0 .1-.1.2-.2.2h-7.1l-3.9 3.9h11c2.3 0 4.2-1.9 4.2-4.2s-1.9-4.2-4.2-4.2h-4.8c-2.6-.1-4.6-2.3-4.5-4.9.1-2.4 2-4.4 4.5-4.5h11.5L28 2.1 30.1 0h-1.5l-2.1 2.1H12.7c-4.7 0-8.6 3.8-8.6 8.6s3.8 8.5 8.6 8.5z"/></svg>